<svg xmlns="http://www.w3.org/2000/svg" width="169" height="133" fill="none" viewBox="0 0 169 133">
  <path fill="#DEDDDC" d="M62.715 46.562 48.382 66.16 0 0h28.66l34.055 46.562ZM125.421 0 77.038 66.159 62.715 46.562 96.765 0h28.656Z" opacity=".2"/>
  <g opacity=".2">
    <path fill="#DEDDDC" d="M125.421 132.308H96.765l-34.05-46.557-34.055 46.557H0l48.383-66.15 14.332-19.596 14.323 19.597 48.383 66.149Z"/>
    <path fill="#DEDDDC" d="M62.715 46.562 48.382 66.16 0 0h28.66l34.055 46.562ZM125.421 0 77.038 66.159 62.715 46.562 96.765 0h28.656Zm43.571 132.773h-28.656l-34.05-46.557-34.055 46.557h-28.66l48.382-66.15 14.333-19.596 14.323 19.597 48.383 66.149Z"/>
  </g>
</svg>
