<svg xmlns="http://www.w3.org/2000/svg" width="22" height="22" fill="none" viewBox="0 0 22 22">
  <mask id="a" fill="#fff">
    <path d="M13.704 18.586a.649.649 0 0 0 .463-.192.66.66 0 0 0 0-.928l-5.705-5.705a1.077 1.077 0 0 1 0-1.522l5.706-5.705a.66.66 0 0 0 0-.928.66.66 0 0 0-.928 0L7.535 9.311c-.446.447-.7 1.05-.7 1.69 0 .638.245 1.242.7 1.688l5.705 5.705a.687.687 0 0 0 .464.192Z"/>
  </mask>
  <path fill="#54565B" d="M13.704 18.586a.649.649 0 0 0 .463-.192.66.66 0 0 0 0-.928l-5.705-5.705a1.077 1.077 0 0 1 0-1.522l5.706-5.705a.66.66 0 0 0 0-.928.66.66 0 0 0-.928 0L7.535 9.311c-.446.447-.7 1.05-.7 1.69 0 .638.245 1.242.7 1.688l5.705 5.705a.687.687 0 0 0 .464.192Z"/>
  <path fill="#54565B" d="m14.168 17.466 1.082-1.082-1.082 1.082Zm-5.706-5.705L7.38 12.844l1.082-1.083Zm0-1.522 1.083 1.083-1.083-1.083Zm5.706-5.705L13.085 3.45l1.082 1.083Zm-.928-.928 1.083 1.083-1.083-1.083ZM7.535 9.311 6.452 8.23l1.083 1.08Zm0 3.378 1.072-1.093.005.005.006.005-1.083 1.083Zm5.705 5.705-1.045 1.12-.02-.019-.018-.018 1.083-1.083Zm.464-1.339a.882.882 0 0 0-.62.256l2.166 2.166a2.18 2.18 0 0 1-1.546.64v-3.062Zm-.62.256a.871.871 0 0 0 0 1.238l2.166-2.165a2.191 2.191 0 0 1 0 3.093l-2.165-2.166Zm0 1.238L7.38 12.844l2.165-2.165 5.705 5.705-2.165 2.165ZM7.38 12.844a2.609 2.609 0 0 1 0-3.688l2.165 2.166a.454.454 0 0 0 0-.643L7.38 12.844Zm0-3.688 5.705-5.705 2.165 2.166-5.705 5.705L7.38 9.156Zm5.705-5.705a.871.871 0 0 0 0 1.238l2.165-2.165a2.191 2.191 0 0 1 0 3.093L13.085 3.45Zm0 1.238a.871.871 0 0 0 1.238 0l-2.166-2.165a2.191 2.191 0 0 1 3.093 0l-2.165 2.165Zm1.238 0-5.705 5.705L6.452 8.23l5.705-5.705 2.166 2.165Zm-5.705 5.705a.852.852 0 0 0-.252.606H5.304c0-1.048.417-2.04 1.148-2.771l2.166 2.165ZM8.366 11c0 .242.09.447.241.596l-2.144 2.186A3.879 3.879 0 0 1 5.303 11h3.063Zm.252.606 5.705 5.705-2.166 2.166-5.705-5.705 2.166-2.166Zm5.667 5.668a.846.846 0 0 0-.581-.219v3.063a2.218 2.218 0 0 1-1.509-.605l2.09-2.239Z" mask="url(#a)"/>
</svg>
