<svg xmlns="http://www.w3.org/2000/svg" width="92" height="104" fill="none" viewBox="0 0 92 104">
  <g filter="url(#a)">
    <rect width="48" height="48" fill="#fff" rx="12.25" transform="matrix(-1 0 0 1 64 16)"/>
  </g>
  <mask id="b" fill="#fff">
    <path d="M42.704 47.586a.649.649 0 0 0 .463-.192.66.66 0 0 0 0-.928l-5.705-5.705a1.077 1.077 0 0 1 0-1.522l5.705-5.705a.66.66 0 0 0 0-.928.66.66 0 0 0-.927 0l-5.705 5.705c-.446.447-.7 1.05-.7 1.69 0 .638.245 1.242.7 1.688l5.705 5.705a.687.687 0 0 0 .464.192Z"/>
  </mask>
  <path fill="#54565B" d="M42.704 47.586a.649.649 0 0 0 .463-.192.66.66 0 0 0 0-.928l-5.705-5.705a1.077 1.077 0 0 1 0-1.522l5.705-5.705a.66.66 0 0 0 0-.928.66.66 0 0 0-.927 0l-5.705 5.705c-.446.447-.7 1.05-.7 1.69 0 .638.245 1.242.7 1.688l5.705 5.705a.687.687 0 0 0 .464.192Z"/>
  <path fill="#54565B" d="m43.167 46.466 1.083-1.082-1.083 1.082Zm-5.705-5.705-1.082 1.083 1.082-1.083Zm0-1.522 1.083 1.083-1.083-1.083Zm5.705-5.705-1.082-1.083 1.082 1.083Zm-.927-.928 1.083 1.083-1.083-1.083Zm-5.705 5.705-1.083-1.082 1.083 1.082Zm0 3.378 1.072-1.093.005.005.006.005-1.083 1.083Zm5.705 5.705-1.045 1.12-.02-.019-.018-.018 1.083-1.083Zm.464-1.339a.882.882 0 0 0-.62.256l2.166 2.166a2.18 2.18 0 0 1-1.546.64v-3.062Zm-.62.256a.871.871 0 0 0 0 1.238l2.166-2.165a2.191 2.191 0 0 1 0 3.093l-2.165-2.166Zm0 1.238-5.704-5.705 2.165-2.165 5.705 5.705-2.165 2.165Zm-5.704-5.705a2.609 2.609 0 0 1 0-3.688l2.165 2.166a.454.454 0 0 0 0-.643l-2.165 2.165Zm0-3.688 5.705-5.705 2.165 2.166-5.705 5.705-2.165-2.166Zm5.705-5.705a.871.871 0 0 0 0 1.238l2.165-2.165a2.191 2.191 0 0 1 0 3.093l-2.165-2.166Zm0 1.238a.871.871 0 0 0 1.238 0l-2.166-2.165a2.191 2.191 0 0 1 3.093 0l-2.165 2.165Zm1.238 0-5.705 5.705-2.166-2.165 5.705-5.705 2.166 2.165Zm-5.705 5.705a.852.852 0 0 0-.252.606h-3.062c0-1.048.417-2.04 1.148-2.771l2.166 2.165Zm-.252.606c0 .242.09.447.241.596l-2.144 2.186A3.879 3.879 0 0 1 34.303 40h3.063Zm.252.606 5.705 5.705-2.166 2.166-5.705-5.705 2.166-2.166Zm5.667 5.668a.846.846 0 0 0-.581-.219v3.063a2.218 2.218 0 0 1-1.509-.605l2.09-2.239Z" mask="url(#b)"/>
  <defs>
    <filter id="a" width="103.125" height="103.125" x="-11.563" y=".687" color-interpolation-filters="sRGB" filterUnits="userSpaceOnUse">
      <feFlood flood-opacity="0" result="BackgroundImageFix"/>
      <feColorMatrix in="SourceAlpha" result="hardAlpha" values="0 0 0 0 0 0 0 0 0 0 0 0 0 0 0 0 0 0 127 0"/>
      <feMorphology in="SourceAlpha" radius="9.188" result="effect1_dropShadow_1_10995"/>
      <feOffset dy="12.25"/>
      <feGaussianBlur stdDeviation="18.375"/>
      <feColorMatrix values="0 0 0 0 0 0 0 0 0 0 0 0 0 0 0 0 0 0 0.2 0"/>
      <feBlend in2="BackgroundImageFix" result="effect1_dropShadow_1_10995"/>
      <feBlend in="SourceGraphic" in2="effect1_dropShadow_1_10995" result="shape"/>
    </filter>
  </defs>
</svg>
