<svg xmlns="http://www.w3.org/2000/svg" width="346" height="96" fill="none" viewBox="0 0 346 96">
  <path fill="#AC5C45" d="M211.269 30.87h-30.836v18.964h30.836V30.87Z"/>
  <path fill="#000" d="M211.269 30.87h-30.836v18.964h30.836V30.87Z" opacity=".3"/>
  <path fill="#9A6847" d="M203.544 49.7c-.028 0-.05-4.227-.05-9.44 0-5.213.022-9.44.05-9.44.027 0 .05 4.227.05 9.44 0 5.214-.024 9.44-.05 9.44Zm5.111-4.182h-2.364v2.13h2.364v-2.13Zm-15.311-14.599h-3.503v4.046h3.503V30.92Zm0 14.812h-3.503v4.047h3.503V45.73Z"/>
  <path fill="#9A6847" d="M211.001 30.87a.581.581 0 0 1-.079.005l-.232.004-.89.007-3.276.012-10.806.012-10.808-.012-3.275-.012-.891-.007-.232-.004a.59.59 0 0 1-.079-.005.664.664 0 0 1 .079-.004l.232-.003.891-.008 3.275-.013 10.808-.011 10.806.011 3.276.013.89.008.232.003c.026 0 .053.002.079.005Z"/>
  <path fill="#CA804E" d="M236.939 30.847h-30.836v18.964h30.836V30.847Z"/>
  <path fill="#9A6847" d="M229.213 49.678c-.028 0-.05-4.228-.05-9.44 0-5.213.022-9.442.05-9.442.028 0 .05 4.227.05 9.442s-.022 9.44-.05 9.44Zm5.111-4.183h-2.364v2.13h2.364v-2.13Z"/>
  <path fill="#936445" d="M219.012 30.896h-3.502v4.047h3.502v-4.047Zm0 14.813h-3.502v4.046h3.502v-4.047Z" opacity=".5"/>
  <path fill="#9A6847" d="M236.67 30.847a.557.557 0 0 1-.079.004l-.231.004-.891.008-3.276.012-10.806.012-10.808-.012-3.275-.012-.891-.008-.231-.004a.557.557 0 0 1-.079-.004.663.663 0 0 1 .079-.004l.231-.004.891-.007 3.275-.013 10.808-.012 10.806.012 3.276.013.891.007.231.004c.027 0 .053.001.079.004Z"/>
  <path fill="#CA804E" d="M238.669 11.883h-30.836v18.964h30.836V11.883Z"/>
  <path fill="#9A6847" d="M230.944 30.712c-.028 0-.05-4.227-.05-9.44 0-5.212.022-9.44.05-9.44.027 0 .05 4.227.05 9.44 0 5.214-.023 9.44-.05 9.44Zm5.111-4.182h-2.364v2.13h2.364v-2.13Zm-15.311-14.599h-3.503v4.047h3.503V11.93Zm0 14.813h-3.503v4.046h3.503v-4.046Z"/>
  <path fill="#9A6847" d="M238.401 11.883a.615.615 0 0 1-.079.004l-.232.004-.89.007-3.276.013-10.806.011-10.808-.011-3.275-.013-.891-.007-.231-.004a.63.63 0 0 1-.08-.004.58.58 0 0 1 .08-.005l.231-.003.891-.008 3.275-.013 10.808-.011 10.806.011 3.276.013.89.008.232.003c.026 0 .053.001.079.005Z"/>
  <path fill="#455A64" d="M235.373 70.95v-2.222H178.4a.87.87 0 0 0-.539.178.554.554 0 0 0-.224.43v1.006c0 .161.081.316.224.43a.869.869 0 0 0 .539.178h1.586v1.011c0 .159-.079.31-.22.423a.856.856 0 0 1-.53.175h-.849a.919.919 0 0 0-.287.046.786.786 0 0 0-.243.129.594.594 0 0 0-.162.194.492.492 0 0 0-.058.229v1.026c0 .078.02.156.058.228a.593.593 0 0 0 .162.195.82.82 0 0 0 .53.174h56.986v-2.22h-13.281v-1.61h13.281Zm-41.731 0h3.414v1.609h-3.414v-1.61Zm-2.276 1.609h-3.414v-1.61h3.414v1.61Zm7.966-1.61h3.414v1.61h-3.414v-1.61Zm5.69 0h3.414v1.61h-3.414v-1.61Zm5.69 0h3.414v1.61h-3.414v-1.61Zm-28.45 0h3.414v1.61h-3.414v-1.61Zm37.554 1.61h-3.414v-1.61h3.414v1.61Z"/>
  <path fill="#263238" d="M281.297 32.69a.81.81 0 0 0 .215-.265.656.656 0 0 0-.016-.62.84.84 0 0 0-.228-.258l-9.611-7.242a1.196 1.196 0 0 0-.71-.221c-.263 0-.516.082-.707.226a.766.766 0 0 0-.323.577.742.742 0 0 0 .284.59l3.834 3.216-1.996 1.53-1.041-.65-7.248 6.619-3.875-2.972-4.671 10.954.927 14.874h10.744l-.75-17.668 7.198-8.192.054-1.948 2.062-1.69 4.465 3.18c.194.137.446.21.706.202.259-.007.504-.094.685-.242h.002Z"/>
  <path fill="#455A64" d="m276.365 57.975 6.535-14.47-2.455-.792v-2.806l17.868-.221a1.996 1.996 0 0 0 1.135-.361c.311-.227.508-.535.555-.869l2.624-18.6c.059-.416.307-.8.699-1.08a2.472 2.472 0 0 1 1.424-.433c.288 0 .573.046.838.136.265.09.504.222.703.388.2.165.355.361.457.576.102.215.148.444.137.673l-.989 19.167 9.331.04.318 3.496-27.592.861-7.195 14.087-4.393.208Z"/>
  <path fill="#263238" d="m280.476 57.62-23.227.147v1.234l9.619-.098 15.328-.093 37.155-4.184-4.212-12.783H289.99a3.245 3.245 0 0 0-1.252.231 2.597 2.597 0 0 0-.973.67l-7.289 14.876Z"/>
  <path fill="#455A64" d="M269.344 4.17 252.46 47.106l.118 11.942h5.372V47.18l13.834-42.897 37.482-.167 7.169 44.681h4.229L311.943 4.43c-.137-.58-.524-1.105-1.095-1.482-.57-.378-1.288-.584-2.029-.584h-36.431c-.683 0-1.348.175-1.897.5-.548.326-.951.783-1.147 1.305Z"/>
  <path fill="#E1261C" d="M249.429 72.843v-11.47l3.149-2.325 29.589-.303 5.339-3.455c.993-.643 2.214-1.02 3.491-1.077l5.698-.256s2.558-1.406 5.024-2.798c3.134-1.77 6.88-2.721 10.72-2.722h16.405c.295 0 .587.046.86.136.272.09.52.222.728.388.209.167.374.364.487.581.113.218.171.45.171.686v22.616l-81.661-.001Z"/>
  <path fill="#263238" d="M331.09 69.147h-81.951v3.77h81.951v-3.77Z"/>
  <path fill="#263238" d="M253.38 72.801c-.029 1.598.537 3.167 1.626 4.508 1.089 1.342 2.653 2.395 4.493 3.028 1.841.633 3.875.816 5.846.527 1.971-.289 3.791-1.037 5.228-2.151 1.438-1.113 2.429-2.542 2.848-4.105.419-1.562.248-3.19-.492-4.674-.74-1.485-2.016-2.762-3.666-3.669-1.651-.907-3.601-1.403-5.605-1.426-2.687-.031-5.28.79-7.207 2.284-1.928 1.493-3.032 3.535-3.071 5.678Z"/>
  <path fill="#263238" d="M253.382 72.78c0 .007 0 .014-.002.021-.025 2.136 1.012 4.193 2.883 5.72 1.871 1.529 4.426 2.404 7.104 2.435 2.678.03 5.263-.785 7.189-2.27 1.926-1.484 3.036-3.516 3.089-5.652v-.02l-20.263-.234Z"/>
  <path fill="#FAFAFA" d="M256.399 72.836c-.02 1.122.377 2.223 1.142 3.165.765.941 1.862 1.681 3.154 2.125a8.797 8.797 0 0 0 4.105.37c1.383-.203 2.661-.728 3.67-1.51s1.705-1.785 1.999-2.882a4.61 4.61 0 0 0-.345-3.281c-.52-1.043-1.416-1.94-2.574-2.576-1.159-.637-2.528-.985-3.935-1.001-1.887-.022-3.707.555-5.06 1.603-1.353 1.048-2.129 2.483-2.156 3.987Z"/>
  <path fill="#E0E0E0" d="M263.614 67.246c-1.886-.022-3.706.555-5.06 1.603-1.353 1.048-2.128 2.483-2.156 3.987l14.227.163c.027-1.504-.696-2.955-2.011-4.034-1.315-1.08-3.113-1.698-5-1.72Z"/>
  <path fill="#263238" d="M259.179 72.868c-.013.683.229 1.354.695 1.928.466.573 1.135 1.024 1.922 1.295.787.27 1.657.349 2.5.225.843-.124 1.621-.444 2.236-.92.615-.476 1.038-1.087 1.218-1.755a2.805 2.805 0 0 0-.211-2c-.316-.635-.862-1.18-1.568-1.569a5.124 5.124 0 0 0-2.397-.61c-1.149-.013-2.258.339-3.082.977-.824.639-1.297 1.512-1.313 2.429Zm43.789-.067c-.029 1.598.537 3.167 1.626 4.508 1.089 1.342 2.653 2.395 4.493 3.028 1.841.633 3.875.816 5.846.527 1.971-.289 3.791-1.037 5.228-2.151 1.438-1.113 2.429-2.542 2.848-4.105.419-1.562.248-3.19-.492-4.674-.74-1.485-2.016-2.762-3.666-3.669-1.651-.907-3.601-1.403-5.605-1.426-2.687-.031-5.28.79-7.207 2.284-1.928 1.493-3.033 3.535-3.071 5.678Z"/>
  <path fill="#263238" d="m302.97 72.78-.002.021c-.025 2.136 1.011 4.193 2.883 5.72 1.871 1.529 4.425 2.404 7.104 2.435 2.678.03 5.263-.785 7.189-2.27 1.926-1.484 3.036-3.516 3.088-5.652v-.02l-20.262-.234Z"/>
  <path fill="#FAFAFA" d="M305.987 72.836c-.02 1.122.377 2.223 1.142 3.165.765.941 1.862 1.681 3.154 2.125a8.796 8.796 0 0 0 4.105.37c1.383-.203 2.661-.728 3.67-1.51s1.705-1.785 1.999-2.882a4.605 4.605 0 0 0-.346-3.281c-.519-1.043-1.415-1.94-2.574-2.576-1.158-.637-2.528-.985-3.934-1.001-1.887-.022-3.707.555-5.06 1.603-1.353 1.049-2.129 2.483-2.156 3.987Z"/>
  <path fill="#E0E0E0" d="M313.202 67.246c-1.886-.022-3.706.555-5.059 1.603-1.354 1.049-2.129 2.483-2.156 3.987l14.226.163c.028-1.504-.696-2.955-2.011-4.034-1.315-1.08-3.113-1.698-5-1.72Z"/>
  <path fill="#263238" d="M308.767 72.868c-.013.683.229 1.354.695 1.928.466.573 1.135 1.024 1.922 1.295.787.27 1.657.349 2.5.225.843-.124 1.621-.444 2.236-.92.615-.476 1.038-1.087 1.218-1.755a2.805 2.805 0 0 0-.211-2c-.316-.635-.862-1.18-1.568-1.569a5.127 5.127 0 0 0-2.397-.61 5.322 5.322 0 0 0-1.663.244 4.567 4.567 0 0 0-1.419.733 3.567 3.567 0 0 0-.96 1.11 2.874 2.874 0 0 0-.353 1.319Zm17.521-5.701a.282.282 0 0 1-.05-.056l-.13-.17-.207-.278a3.982 3.982 0 0 0-.296-.371 12.637 12.637 0 0 0-2.285-2.125c-.262-.211-.578-.394-.888-.603-.316-.202-.667-.39-1.023-.59-.376-.177-.745-.385-1.164-.548-.207-.085-.412-.177-.627-.26l-.664-.235a17.228 17.228 0 0 0-6.22-.9 16.85 16.85 0 0 0-6.085 1.368l-.633.283c-.204.099-.398.206-.593.307-.397.193-.74.43-1.093.634-.331.226-.658.44-.947.665-.283.23-.576.437-.811.667a11.8 11.8 0 0 0-2.02 2.289 3.455 3.455 0 0 0-.252.392l-.173.293-.109.178a.04.04 0 0 1 .017.02.025.025 0 0 1-.004.025.04.04 0 0 1-.023.016.053.053 0 0 1-.031 0 .037.037 0 0 1-.022-.018.027.027 0 0 1-.002-.025.036.036 0 0 1 .019-.019.055.055 0 0 1 .031-.003l.096-.184.16-.298c.069-.137.149-.27.239-.4a11.266 11.266 0 0 1 1.992-2.324c.235-.233.527-.443.81-.678.291-.228.619-.445.95-.675.355-.208.699-.449 1.098-.645.197-.102.392-.21.597-.311l.637-.29c1.888-.832 3.991-1.308 6.145-1.39a17.262 17.262 0 0 1 6.283.918l.669.24c.217.084.424.178.632.265.42.165.793.377 1.17.558.357.204.71.395 1.026.6.309.213.625.4.888.614.867.64 1.627 1.367 2.261 2.163.105.121.2.248.286.379l.195.284.118.176c.014.02.025.04.033.062Zm-49.545 1.487a.298.298 0 0 1-.039-.065l-.1-.193-.16-.314-.237-.422a12.805 12.805 0 0 0-1.916-2.509c-1.104-1.162-2.512-2.118-4.127-2.801a14.39 14.39 0 0 0-3.048-.81 19.368 19.368 0 0 0-3.443-.25 19 19 0 0 0-3.429.352c-1.044.209-2.05.522-2.995.933-1.614.684-3.057 1.598-4.259 2.697a13.92 13.92 0 0 0-2.086 2.421c-.207.307-.362.547-.461.713l-.119.186c.01.005.016.013.019.022a.034.034 0 0 1-.005.025.048.048 0 0 1-.025.017.057.057 0 0 1-.033-.002.045.045 0 0 1-.023-.019.034.034 0 0 1-.001-.026.042.042 0 0 1 .022-.02.054.054 0 0 1 .032-.002l.105-.192a13.183 13.183 0 0 1 2.494-3.18c1.2-1.116 2.649-2.045 4.273-2.74a14.877 14.877 0 0 1 3.026-.95 19.019 19.019 0 0 1 3.463-.358c1.167-.02 2.333.066 3.476.255 1.069.165 2.106.443 3.083.826 1.628.695 3.044 1.668 4.146 2.85a12.177 12.177 0 0 1 1.885 2.542l.226.428.146.32.086.197a.29.29 0 0 1 .024.069Zm-27.335.074h-44.925v4.19h44.925v-4.19Z"/>
  <path fill="#455A64" d="M248.191 70.505a.899.899 0 0 1-.22.58 1.288 1.288 0 0 1-.588.384c-.239.08-.502.1-.756.06a1.44 1.44 0 0 1-.67-.286 1.002 1.002 0 0 1-.358-.534.852.852 0 0 1 .075-.603c.099-.19.267-.353.482-.468a1.602 1.602 0 0 1 1.228-.097c.158.053.303.13.424.227.122.097.218.212.284.338a.872.872 0 0 1 .099.4Zm.628-68.471h-3.75v59.398h3.75V2.034Z"/>
  <path fill="#263238" d="M302.147 64.816c0 .034-6.321.062-14.118.062-7.797 0-14.118-.028-14.118-.062s6.319-.061 14.118-.061c7.798 0 14.118.028 14.118.061Zm-5.754-.89c-.043 0-.077-2.192-.077-4.895 0-2.704.034-4.897.077-4.897s.077 2.192.077 4.897c0 2.704-.034 4.895-.077 4.895ZM252.317.673h-7.653v2.723h7.653V.673Zm-2.909 60.269h-4.928v7.84h4.928v-7.84Z"/>
  <path fill="#AC5C45" d="M237.966 49.82H207.13v18.963h30.836V49.82Z"/>
  <path fill="#000" d="M237.966 49.82H207.13v18.963h30.836V49.82Z" opacity=".3"/>
  <path fill="#9A6847" d="M230.241 68.649c-.028 0-.05-4.227-.05-9.44 0-5.213.022-9.44.05-9.44.027 0 .05 4.226.05 9.44 0 5.214-.023 9.44-.05 9.44Zm5.111-4.183h-2.364v2.131h2.364v-2.13ZM220.04 49.868h-3.502v4.046h3.502v-4.046Zm0 14.812h-3.502v4.047h3.502V64.68Z"/>
  <path fill="#9A6847" d="M237.696 49.819a.558.558 0 0 1-.079.004l-.232.004-.89.007-3.276.013-10.806.011-10.808-.011-3.276-.013-.89-.007-.232-.004a.709.709 0 0 1-.079-.004.606.606 0 0 1 .079-.004l.232-.004.89-.008 3.276-.012 10.808-.012 10.806.012 3.276.012.89.008.232.004a.53.53 0 0 1 .079.004Z"/>
  <path fill="#CA804E" d="M205.624 49.819h-30.836v18.964h30.836V49.819Z"/>
  <path fill="#9A6847" d="M197.898 68.649c-.027 0-.05-4.227-.05-9.44 0-5.213.023-9.44.05-9.44.028 0 .05 4.226.05 9.44 0 5.214-.022 9.44-.05 9.44Zm5.111-4.183h-2.364v2.131h2.364v-2.13Z"/>
  <path fill="#936445" d="M187.697 49.868h-3.502v4.046h3.502v-4.046Zm0 14.812h-3.502v4.047h3.502V64.68Z" opacity=".5"/>
  <path fill="#9A6847" d="M205.355 49.819a.55.55 0 0 1-.079.004l-.232.004-.89.007-3.275.013-10.807.011-10.808-.011-3.275-.013-.891-.007-.231-.004a.685.685 0 0 1-.079-.004.589.589 0 0 1 .079-.004l.231-.004.891-.008 3.275-.012 10.808-.012 10.807.012 3.275.012.89.008.232.004c.026 0 .053 0 .079.004Z"/>
  <path fill="#E1261C" d="M332.385 54.974c1.59.305 2.923 1.592 2.896 2.896-.033.654-.334 1.281-.857 1.785-.524.504-1.24.857-2.039 1.004"/>
  <path fill="#fff" d="M332.385 54.974c1.59.305 2.923 1.592 2.896 2.896-.033.654-.334 1.281-.857 1.785-.524.504-1.24.857-2.039 1.004" opacity=".6"/>
  <path fill="#E1261C" d="M332.45 54.241h-1.36v7.178h1.36V54.24Z"/>
  <path fill="#000" d="M332.45 54.241h-1.36v7.178h1.36V54.24Z" opacity=".3"/>
  <path fill="#FFBE9D" d="M267.812 25.483a.68.68 0 0 1-.317-.407.567.567 0 0 1 .095-.473c.226-.318.494-.69.615-.845.149-.184.284-.375.405-.572a.636.636 0 0 1 .226-.307.892.892 0 0 1 .396-.165 4.311 4.311 0 0 1 1.088.025l3.702.637 1.723.682-1.678 1.18-.931-.227c-.28.195-1.378.297-1.751.26-.476-.047-1.431-.294-1.973-.213l-.522.058.249.167a3 3 0 0 1 1.314.214.32.32 0 0 1 .144.143.243.243 0 0 1 .013.183.304.304 0 0 1-.124.154.436.436 0 0 1-.214.068l-1.217.063a7.517 7.517 0 0 1-.947-.43 3.97 3.97 0 0 0-.296-.195Z"/>
  <path fill="#EB996E" d="M268.891 25.116a.548.548 0 0 1-.201.066 1.302 1.302 0 0 1-.599-.006.774.774 0 0 1-.355-.196.468.468 0 0 1-.108-.187.4.4 0 0 1-.003-.206.353.353 0 0 1 .154-.197.917.917 0 0 1 .255-.101 5 5 0 0 1 .539-.112 10.81 10.81 0 0 1 1.523-.122c.036 0 .076.002.112.004.03.001.06 0 .089-.003.061-.007.123-.016.183-.028.471-.094.758-.18.767-.162-.23.11-.48.194-.74.246a2.216 2.216 0 0 1-.194.038.733.733 0 0 1-.116.007h-.101a12.977 12.977 0 0 0-1.494.14 5.29 5.29 0 0 0-.52.106c-.172.04-.285.1-.319.21a.309.309 0 0 0-.001.16.36.36 0 0 0 .077.148.65.65 0 0 0 .288.174c.176.05.365.065.549.04.136-.013.211-.03.215-.02Z"/>
  <path fill="#EB996E" d="M269.351 23.578c.04-.008.112.148.04.334-.072.187-.24.283-.267.26-.032-.024.062-.14.119-.296.056-.155.064-.293.108-.298Zm.579.186c.042.004.053.118-.049.224-.102.106-.244.127-.258.095-.015-.032.061-.09.136-.17.075-.08.128-.154.171-.149Z"/>
  <path fill="#FFBE9D" d="M284.507 23.106c.511-.169-2.925 2.646-2.925 2.646l-6.346-1.886-2.24 1.097 6.825 3.83c.701.394 1.556.575 2.409.51.854-.065 1.65-.371 2.246-.864l4.027-3.712-3.996-1.621Z"/>
  <path fill="#E1261C" d="M288.228 11.825c-.885-.135-1.439-.354-1.462-.625-.048-.561 2.187-1.139 4.992-1.29 2.804-.152 5.117.18 5.165.741.022.27-.485.545-1.332.773"/>
  <path fill="#000" d="M288.712 11.778c-.785-.12-1.296-.313-1.297-.554-.002-.672 1.939-1.009 4.425-1.144 2.486-.134 4.535.16 4.578.658.02.24-.43.482-1.179.684" opacity=".4"/>
  <path fill="#E1261C" d="M287.442 10.898s.524-2.42.577-2.539c.052-.119.814-1.207 2.823-1.615l1.681-.09s2.438.482 2.913.922c.476.44.853 2.68.853 2.68l-4.783-.562-3.153.796-.911.408Z"/>
  <path fill="#E1261C" d="m291.368 6.442-.722.038a.811.811 0 0 0-.235.62c.002.42.127 3.284.127 3.284l2.101-.19-.367-3.527.726.088-.039-.199-.205-.168-1.386.054Z"/>
  <path fill="#FFBE9D" d="m295.761 19.63-5.15.09c-.066-.433-.016-3.136-.016-3.136s-1.961-.135-2.117-1.681c-.155-1.546-.123-4.651-.123-4.651l.021-.137c2.181-.891 4.777-1.1 6.815-.016l.303.16.267 9.37Z"/>
  <path fill="#EB996E" d="M290.594 16.584a5.476 5.476 0 0 0 2.476-.731s-.534 1.169-2.482 1.134l.006-.403Z"/>
  <path fill="#FFBE9D" d="M295.391 11.876c.032-.014 1.306-.387 1.354.673.047 1.06-1.297.88-1.303.85a193.52 193.52 0 0 1-.051-1.523Z"/>
  <path fill="#EB996E" d="M295.832 12.985c.006-.003.024.013.064.026a.284.284 0 0 0 .173-.002.5.5 0 0 0 .194-.183.38.38 0 0 0 .053-.235.512.512 0 0 0-.077-.262.218.218 0 0 0-.069-.087.292.292 0 0 0-.112-.05.143.143 0 0 0-.079.008.106.106 0 0 0-.055.046c-.017.03-.007.051-.014.053-.007.002-.03-.017-.021-.06a.119.119 0 0 1 .05-.069.205.205 0 0 1 .126-.03.375.375 0 0 1 .151.053.27.27 0 0 1 .099.104.53.53 0 0 1 .093.293.396.396 0 0 1-.07.272.554.554 0 0 1-.247.196.31.31 0 0 1-.213-.022c-.043-.025-.052-.049-.046-.05Z"/>
  <path fill="#263238" d="M288.999 12.16a.205.205 0 0 0 .09.151.32.32 0 0 0 .196.058.322.322 0 0 0 .191-.062.212.212 0 0 0 .058-.07.185.185 0 0 0 .02-.082.211.211 0 0 0-.09-.151.324.324 0 0 0-.196-.058.33.33 0 0 0-.104.016.287.287 0 0 0-.087.046.21.21 0 0 0-.058.07.173.173 0 0 0-.02.083Zm-.091-.217c.037.027.237-.109.535-.124.297-.016.527.092.556.06.015-.013-.024-.063-.124-.113a.92.92 0 0 0-.449-.085.839.839 0 0 0-.422.135c-.087.06-.114.114-.096.127Zm3.028.131a.208.208 0 0 0 .09.15c.053.04.124.06.196.058a.33.33 0 0 0 .104-.015.284.284 0 0 0 .087-.047.212.212 0 0 0 .058-.07.173.173 0 0 0 .02-.082.205.205 0 0 0-.09-.151.321.321 0 0 0-.196-.058.322.322 0 0 0-.191.062.212.212 0 0 0-.058.07.173.173 0 0 0-.02.083Zm-.092-.245c.037.026.237-.109.535-.124.298-.016.527.091.557.06.014-.013-.025-.064-.125-.114a.92.92 0 0 0-.449-.084.84.84 0 0 0-.422.134c-.087.062-.114.115-.096.127Zm-.931 1.821a2.442 2.442 0 0 0-.49-.043c-.077-.003-.15-.01-.167-.051a.258.258 0 0 1 .036-.183l.186-.475a6.71 6.71 0 0 0 .403-1.236c-.216.39-.392.794-.527 1.207l-.177.477a.286.286 0 0 0-.02.24c.013.021.032.04.055.054a.214.214 0 0 0 .078.029c.043.007.087.01.13.007.165.008.331 0 .493-.026Zm.89.117c-.049 0-.028.26-.289.457-.262.197-.609.189-.608.224-.003.017.081.046.227.042.19-.008.37-.07.509-.173a.522.522 0 0 0 .221-.382c.003-.109-.039-.17-.06-.168Zm-.116-2.866c.035.063.33.016.683.031.353.01.642.076.684.015.018-.029-.036-.087-.156-.143a1.456 1.456 0 0 0-1.041-.035c-.125.048-.185.102-.17.132Zm-2.728.348c.057.051.258-.016.503-.032.246-.024.46.011.504-.047.018-.029-.019-.081-.115-.127a.893.893 0 0 0-.811.064c-.081.06-.105.117-.081.142Zm6.566-.381c-.015.432.039.866.023 1.298a1.212 1.212 0 0 1-.154.474.423.423 0 0 1-.175.221.643.643 0 0 1-.623.036.466.466 0 0 1-.213-.199 1.066 1.066 0 0 1-.166-.547 1.45 1.45 0 0 0-.12-.558 3.111 3.111 0 0 0-.448-.525.654.654 0 0 1-.177-.282.545.545 0 0 1 0-.315 4.784 4.784 0 0 1 2.051.398"/>
  <path fill="#455A64" d="m288.356 11.062-.032-.868 3.107-.925 4.04.717.079.93a12.08 12.08 0 0 0-7.194.146Z"/>
  <path fill="#E1261C" d="m288.506 10-.13.115-1.093.633a22.213 22.213 0 0 1 4.422-.713 26.394 26.394 0 0 1 4.918.367l-1.564-.64a2.776 2.776 0 0 0-.878-.43 3.203 3.203 0 0 0-1.018-.124l-2.853.11c-.342.012-.678.08-.987.197-.31.117-.587.282-.817.485Z"/>
  <path fill="#263238" d="M290.49 9.246a6.14 6.14 0 0 0 .042-1.212 6.145 6.145 0 0 0-.079-1.21 6.14 6.14 0 0 0-.042 1.212c-.013.404.013.809.079 1.21Zm2.507-2.491a2.534 2.534 0 0 0-.544-.095.264.264 0 0 0-.152.059.17.17 0 0 0-.063.124l.02.255.057.577c.043.409.089.779.129 1.047.01.146.04.29.089.432a1.594 1.594 0 0 0-.004-.437 29.65 29.65 0 0 0-.094-1.05l-.066-.576a16.21 16.21 0 0 1-.03-.248c0-.028.012-.055.035-.076a.157.157 0 0 1 .089-.04c.177.023.356.032.534.028Z"/>
  <path fill="#263238" d="M287.211 10.74c.005.007.129-.05.368-.132.118-.043.266-.092.43-.164.193-.079.357-.196.477-.34.14-.165.148-.385.305-.55.144-.174.455-.19.756-.215a36.65 36.65 0 0 1 1.991-.117 52.484 52.484 0 0 1 1.998-.024c.281-.02.562.038.795.165.094.07.181.146.259.229l.12.115.062.054c.025.02.055.035.087.045.438.142.795.227 1.039.3.125.04.253.075.383.105a.4.4 0 0 0-.092-.042 6.581 6.581 0 0 0-.274-.098c-.237-.083-.599-.181-1.02-.326a.204.204 0 0 1-.059-.03l-.059-.054-.116-.115a1.923 1.923 0 0 0-.266-.243 1.55 1.55 0 0 0-.856-.192 41.792 41.792 0 0 0-2.006.015c-.711.024-1.386.067-1.999.125a3.85 3.85 0 0 0-.451.058.661.661 0 0 0-.373.2c-.171.194-.172.413-.296.56a1.144 1.144 0 0 1-.438.33c-.156.074-.3.129-.416.176a4.046 4.046 0 0 0-.263.117.384.384 0 0 0-.086.049Z"/>
  <path fill="#263238" d="M287.647 10.853a.32.32 0 0 0 .082-.038c.072-.041.148-.078.227-.11a5.46 5.46 0 0 1 .914-.276c1.047-.22 2.127-.32 3.209-.298.636.002 1.243-.009 1.788.019.544.032 1.04.087 1.447.141.204.03.387.062.546.095.135.02.264.064.375.129.045.03.081.066.106.109a.26.26 0 0 1 .034.135c.002 0 .019-.024.015-.076a.293.293 0 0 0-.124-.195 1.033 1.033 0 0 0-.388-.153 7.128 7.128 0 0 0-.548-.11c-.481-.076-.967-.13-1.455-.164-.553-.033-1.161-.024-1.796-.026a13.2 13.2 0 0 0-3.233.328 4.697 4.697 0 0 0-.913.309 1.396 1.396 0 0 0-.219.127.283.283 0 0 0-.067.054Z"/>
  <path fill="#FAFAFA" d="M290.956 6.539c.099.007.198.007.298.002l.716-.024c.279-.006.535-.035.712-.02a.42.42 0 0 1 .138.03.353.353 0 0 1 .112.07.108.108 0 0 0-.043-.054.412.412 0 0 0-.202-.073c-.24-.01-.48-.007-.72.009l-.715.034c-.1.002-.199.01-.296.026Zm-.122 2.801c.05.005.1.006.15.003l.409-.005c.346-.003.823-.007 1.35 0l.743.015a4.24 4.24 0 0 1 .601.038c.131.021.25.078.336.161a.537.537 0 0 1 .072.103.207.207 0 0 0-.057-.112.619.619 0 0 0-.343-.178 3.926 3.926 0 0 0-.607-.048 31.841 31.841 0 0 0-2.095-.006l-.41.017c-.05 0-.1.005-.149.013Zm1.559-.42a.312.312 0 0 0-.009-.086 39.078 39.078 0 0 1-.039-.231 14.98 14.98 0 0 1-.187-1.534l-.018-.233a.312.312 0 0 0-.012-.086c-.007.028-.009.057-.007.086a8.943 8.943 0 0 0 .19 1.77c.02.098.039.177.054.23a.318.318 0 0 0 .028.084Zm2.462.939c.03.014.061.025.094.033l.26.078.864.244c.16.039.316.087.467.143.122.045.22.123.278.22.037.065.046.14.024.21-.018.048-.042.07-.038.073a.165.165 0 0 0 .056-.07.263.263 0 0 0-.011-.223.547.547 0 0 0-.288-.24 3.713 3.713 0 0 0-.473-.149l-.869-.233-.266-.067a.485.485 0 0 0-.098-.02Z"/>
  <path fill="#E1261C" d="m272.981 52.036.266 3.83s-4.794 1.504-4.83 2.216l9.334-.147-.11-5.983-4.66.084Z"/>
  <path fill="#000" d="m272.981 52.036.266 3.83s-4.794 1.504-4.83 2.216l9.334-.147-.11-5.983-4.66.084Z" opacity=".4"/>
  <path fill="#E0E0E0" d="M276.127 55.498c.09.02.168.067.218.13a.25.25 0 0 1 .054.213.302.302 0 0 1-.157.176.443.443 0 0 1-.266.042.407.407 0 0 1-.231-.139.268.268 0 0 1-.055-.225.337.337 0 0 1 .189-.171.469.469 0 0 1 .285-.018m1.589 2.428-.041-.602-8.935.367s-.411.15-.359.383l9.335-.148Z"/>
  <path fill="#263238" d="M273.095 55.831c.003.036.231.05.458.163.231.108.351.264.392.249.042-.008-.031-.224-.31-.357-.278-.134-.549-.088-.54-.055Zm-.969.339c-.01.035.189.094.348.245.164.147.207.313.253.31.043.006.069-.208-.133-.393-.202-.185-.468-.197-.468-.163Zm-.533.943c.042.007.101-.175-.021-.372-.122-.197-.337-.273-.356-.243-.025.03.116.135.214.298.101.16.118.313.163.317Zm1.564-2.16c.02.032.228-.02.486-.011.258.006.46.07.483.04.026-.027-.173-.158-.477-.165-.304-.007-.515.107-.492.136Z"/>
  <path fill="#000" d="m273.036 52.795.047.682 4.587-.105-.009-.616-4.625.039Z" opacity=".3"/>
  <path fill="#263238" d="M273.121 54.179c.154.03.316.027.467-.01a2.5 2.5 0 0 0 .753-.245.561.561 0 0 0 .139-.09.146.146 0 0 0 .05-.094.134.134 0 0 0-.034-.1.243.243 0 0 0-.089-.059.303.303 0 0 0-.113-.02.747.747 0 0 0-.174.022 1.849 1.849 0 0 0-.714.316c-.213.163-.284.3-.267.307.021.012.124-.104.341-.24a2.017 2.017 0 0 1 .678-.264c.098-.022.183-.023.209.01.009.014.011.02-.01.042a.449.449 0 0 1-.102.066 2.96 2.96 0 0 1-.692.262c-.15.024-.298.056-.442.097Z"/>
  <path fill="#263238" d="M273.182 54.23a.51.51 0 0 0 .114-.362.974.974 0 0 0-.074-.407 1.112 1.112 0 0 0-.125-.224.328.328 0 0 0-.121-.124.447.447 0 0 0-.182-.06.263.263 0 0 0-.116.031.187.187 0 0 0-.076.076.432.432 0 0 0-.045.138.663.663 0 0 0 .006.25c.029.14.101.271.209.383.188.189.379.23.382.218.015-.019-.146-.086-.29-.27a.76.76 0 0 1-.156-.347.601.601 0 0 1 .003-.216c.012-.08.048-.144.085-.136.047-.002.127.057.167.12a1.113 1.113 0 0 1 .221.57c.018.218-.027.355-.002.36Z"/>
  <path fill="#263238" d="M298.182 35.758s-1.02 4.171-2.714 4.23c-2.079.073-17.124.236-17.124.236l.918 13.362-6.567-.127-2.624-13.166c-.292-1.181-.045-2.407.698-3.456l.054-.073c.561-.736 1.35-1.344 2.291-1.767a7.587 7.587 0 0 1 3.082-.647l12.497-.15 9.489 1.558Z"/>
  <path fill="#E1261C" d="m275.532 52.035.266 3.831s-4.795 1.504-4.83 2.216l9.334-.148-.11-5.982-4.66.083Z"/>
  <path fill="#E0E0E0" d="M278.678 55.498c.09.02.168.067.218.13.05.063.069.139.054.213a.305.305 0 0 1-.157.176.447.447 0 0 1-.267.042.406.406 0 0 1-.231-.139.272.272 0 0 1-.055-.225.34.34 0 0 1 .189-.171.47.47 0 0 1 .285-.018m1.59 2.428-.041-.602-8.934.367s-.412.15-.359.383l9.334-.148Z"/>
  <path fill="#263238" d="M275.648 55.83c.002.037.231.05.458.163.231.109.35.264.392.25.042-.008-.031-.224-.31-.358-.278-.133-.551-.087-.54-.054Zm-.972.34c-.009.035.19.093.348.244.165.148.208.313.253.311.043.005.069-.208-.132-.393-.202-.185-.468-.198-.469-.163Zm-.533.943c.042.007.101-.175-.021-.372-.122-.197-.337-.273-.355-.243-.026.03.116.135.213.298.097.163.118.313.163.317Zm1.565-2.161c.02.033.228-.02.485-.01.259.005.461.07.484.04.026-.027-.173-.158-.478-.166-.304-.007-.514.108-.491.136Z"/>
  <path fill="#000" d="m275.586 52.794.046.683 4.588-.106-.009-.615-4.625.038Z" opacity=".3"/>
  <path fill="#263238" d="M275.672 54.179c.154.03.315.027.467-.01a2.491 2.491 0 0 0 .753-.245.564.564 0 0 0 .139-.09.145.145 0 0 0 .049-.094.137.137 0 0 0-.033-.1.251.251 0 0 0-.089-.059.306.306 0 0 0-.113-.02.763.763 0 0 0-.175.022 2 2 0 0 0-.289.084 1.708 1.708 0 0 0-.425.232c-.213.163-.283.3-.266.307.021.012.123-.104.34-.24a2.015 2.015 0 0 1 .679-.264c.099-.022.183-.023.207.01.01.014.011.02-.009.042a.449.449 0 0 1-.102.066 2.68 2.68 0 0 1-.244.117 3.01 3.01 0 0 1-.449.145 3.785 3.785 0 0 0-.44.097Z"/>
  <path fill="#263238" d="M275.732 54.23a.507.507 0 0 0 .115-.362 1.021 1.021 0 0 0-.199-.631.327.327 0 0 0-.121-.124.445.445 0 0 0-.182-.06.258.258 0 0 0-.116.031.188.188 0 0 0-.076.076.432.432 0 0 0-.045.138.663.663 0 0 0 .006.25c.029.14.101.27.209.382.187.19.379.23.382.218.015-.018-.146-.086-.29-.269a.748.748 0 0 1-.156-.348.602.602 0 0 1 .003-.215c.012-.08.048-.144.085-.137.047 0 .127.058.167.12a1.11 1.11 0 0 1 .22.57c.019.22-.027.356-.002.36Z"/>
  <path fill="#263238" d="M299.839 35.758s-1.02 4.171-2.714 4.23c-2.078.073-17.123.236-17.123.236l.917 13.362-6.566-.127-2.624-13.166c-.293-1.181-.045-2.407.698-3.456l.054-.073c.561-.736 1.35-1.344 2.29-1.767a7.587 7.587 0 0 1 3.082-.647l12.497-.15 9.489 1.558Z"/>
  <path fill="#E1261C" d="m287.035 19.006 1.967 10.497-1.34 4.715 12.177 2.859c1.099-1.255 1.142-5.242 1.104-8.062-.068-4.97.207-5.21-.062-6.954-.267-1.723-.73-2.864-1.884-3.412l-3.304-1.355s-1.873.95-3.01.898c0 0-1.354.045-2.104-.528.001 0-2.734.661-3.544 1.342Z"/>
  <path fill="#E1261C" d="m287.035 19.006-4.059 4.46 5.526 2.587-.422-1.621-1.045-5.426Z"/>
  <path fill="#455A64" d="M277.365 34.416a.31.31 0 0 1-.07.008l-.206.013a3.922 3.922 0 0 0-.332.03 6.44 6.44 0 0 0-2.98 1.138 5.79 5.79 0 0 0-1.264 1.226 3.61 3.61 0 0 0-.714 1.714c-.072.673-.04 1.35.095 2.017.119.698.292 1.42.387 2.168.21 1.489.491 2.9.755 4.18l.723 3.404c.204.97.362 1.755.459 2.299l.107.627.024.163a.178.178 0 0 1 .003.057.182.182 0 0 1-.019-.055l-.038-.162-.136-.623-.508-2.291-.755-3.398c-.271-1.282-.558-2.694-.769-4.186-.095-.744-.264-1.462-.383-2.165a6.662 6.662 0 0 1-.087-2.046c.083-.622.338-1.22.745-1.755.353-.462.792-.88 1.302-1.237a6.412 6.412 0 0 1 2.593-1.053c.35-.063.709-.088 1.068-.073Z"/>
  <path fill="#FFBE9D" d="M282.03 31.175s4.696 1.21 8.349 2.265a4.96 4.96 0 0 0 1.939.158 4.612 4.612 0 0 0 1.802-.592c.678-.4 1.18-.96 1.435-1.6l2.501-6.283-4.175-1.167-2.792 5.647-10.389-1.089"/>
  <path fill="#FFBE9D" d="m275.817 29.879-.039-.297a.927.927 0 0 1 .327-.59 1.29 1.29 0 0 1 .352-.216l1.231-.511a1.18 1.18 0 0 1 .605-.076l2.521.342 2.889.303-.598 2.622-1.336-.354s-.97.428-1.566.326c0 0-.554.294-.781.08 0 0-.496.34-.68.316-.184-.022-.554-.192-.54-.294l.014-.136a.734.734 0 0 1-.61-.023.734.734 0 0 1-.284-.306 1.312 1.312 0 0 1-.625-.215 1.032 1.032 0 0 1-.227-.453s-.56-.211-.653-.518Z"/>
  <path fill="#EB996E" d="M277.675 28.928c.018-.001.049.107-.013.274a1.449 1.449 0 0 1-.444.551c-.222.182-.428.33-.556.454-.128.123-.194.208-.216.2-.021-.008.013-.11.129-.252a3.82 3.82 0 0 1 .532-.486 1.9 1.9 0 0 0 .454-.497c.08-.143.09-.245.114-.244Zm.48 1.049c-.045.216-.158.42-.328.592-.245.302-.513.502-.544.48.262-.372.553-.73.872-1.072Zm.643.694c.036.018-.069.19-.234.383s-.327.334-.362.315c-.035-.02.071-.192.235-.384.164-.192.326-.333.361-.314Zm-.118-.276c-.007.015-.065.017-.142-.02a.386.386 0 0 1-.124-.1.3.3 0 0 1-.063-.13.257.257 0 0 1 .009-.14.318.318 0 0 1 .079-.126c.059-.055.114-.067.126-.055.03.023-.095.143-.063.301.033.158.195.24.178.27Zm.702.705c-.008.015-.056.018-.118-.01a.331.331 0 0 1-.106-.078.269.269 0 0 1-.059-.104.175.175 0 0 1-.003-.123.221.221 0 0 1 .082-.105c.076-.041.136-.013.129.003a.19.19 0 0 0-.066.091.153.153 0 0 0 .007.106c.032.12.15.19.134.22Zm-1.111-1.456c-.002.016-.065.028-.154-.005a.37.37 0 0 1-.147-.1.255.255 0 0 1-.034-.297.335.335 0 0 1 .121-.12c.081-.045.145-.042.151-.028.017.027-.166.121-.148.289.02.167.221.233.211.261Z"/>
  <path fill="#E1261C" d="M298.078 19.505c-.954-.33-2.128.003-2.818.575-.689.572-1.006 1.329-1.302 2.062-.287.706-1 2.14-1.287 2.845l5.414 1.849c.461-.998.891-2.002 1.291-3.014.336-.85.649-1.767.259-2.612"/>
  <path fill="#263238" d="M299.634 21.21a.411.411 0 0 1 .056.104c.047.102.082.208.105.315.083.4.07.81-.038 1.208a11.483 11.483 0 0 1-.655 1.78l-.947 2.238-.024.059-.079-.027-3.811-1.298-1.605-.548-.064-.023.02-.048c.437-1.028.928-1.97 1.294-2.84.16-.416.357-.824.589-1.219a3.36 3.36 0 0 1 .845-.935c.536-.403 1.247-.627 1.985-.622.199.005.397.034.586.084.065.017.127.04.187.066a3.222 3.222 0 0 0-.774-.108c-.713.012-1.394.238-1.907.634a3.272 3.272 0 0 0-.806.919 8.06 8.06 0 0 0-.568 1.212c-.36.875-.845 1.821-1.276 2.843l-.044-.071 1.606.547 3.806 1.304-.103.032.968-2.23c.275-.576.504-1.165.685-1.764.115-.39.142-.793.081-1.19-.052-.275-.125-.419-.112-.422Z"/>
  <path fill="#EB996E" d="M292.698 31.757c-.02.003-.062-.247-.245-.668a3.12 3.12 0 0 0-.444-.723 2.513 2.513 0 0 0-.943-.72l.016.004-5.865-.608-3.536-.38-1.542-.171-1.34-.17-.584-.076a.89.89 0 0 0-.482.07l-.76.292-.484.181a.98.98 0 0 1-.173.055.908.908 0 0 1 .159-.077l.471-.202.749-.311a.996.996 0 0 1 .535-.085l.585.066 1.342.156 1.543.16 3.537.37 5.861.637h.01l.006.003c.401.184.736.448.973.765.183.233.327.484.429.747.067.165.119.333.154.504.017.06.026.12.028.18Z"/>
  <path fill="#263238" d="M289.01 29.346a1.502 1.502 0 0 1-.082-.34l-.185-.928-.636-3.062c-.245-1.184-.469-2.257-.637-3.062l-.181-.93a1.486 1.486 0 0 1-.046-.344c.048.11.083.222.105.336l.23.923c.185.781.43 1.862.68 3.058.251 1.196.46 2.28.592 3.068.067.394.112.713.138.935.021.114.028.23.022.346Z"/>
  <path fill="#E1261C" d="M345.138 95.45c0-.25-42.873-.45-95.749-.45-52.893 0-95.757.2-95.757.45 0 .248 42.864.45 95.757.45 52.876-.007 95.749-.21 95.749-.45ZM10.689 87.128c-.803.512-2.297.32-2.976-.007-.68-.328-.95-.792-1.19-1.236-.557-1.013-1.114-2.075-.6-3.093.127-.309.432-.595.881-.828.228-.114.515-.198.833-.244a3.96 3.96 0 0 1 .98-.015c.75.104 1.204.46 1.526.798.946.998 1.41 2.082 1.357 3.174.043.511-.24 1.017-.814 1.451"/>
  <path fill="#000" d="M10.689 87.128c-.803.512-2.297.32-2.976-.007-.68-.328-.95-.792-1.19-1.236-.557-1.013-1.114-2.075-.6-3.093.127-.309.432-.595.881-.828.228-.114.515-.198.833-.244a3.96 3.96 0 0 1 .98-.015c.75.104 1.204.46 1.526.798.946.998 1.41 2.082 1.357 3.174.043.511-.24 1.017-.814 1.451" opacity=".2"/>
  <path fill="#E1261C" d="M7.64 89.732c-1.28-.303-2.732-.406-4.145-.291-.77.022-1.501.165-2.079.407-.529.26-.653.731-.076.967.373.127.828.187 1.286.172 1.1.008 2.325-.068 3.186.255.49.185.808.485 1.4.58.298.037.613.027.898-.028.284-.056.523-.153.68-.278.3-.257.38-.558.223-.841-.059-.197-.214-.384-.452-.547a2.98 2.98 0 0 0-.92-.396Zm5.131-1.829c-.383-.25-.631-.54-.723-.846-.092-.306-.024-.618.197-.908.458-.58 1.245-1.09 2.276-1.472 1.173-.467 2.527-.822 3.986-1.044a8.57 8.57 0 0 1 1.773-.119c.301.012.59.059.845.136.254.077.464.182.612.306.392.377-.03.823-.479 1.185a20.858 20.858 0 0 1-2.682 1.82c-.8.46-1.71.913-2.9 1.11-1.19.196-2.41.156-3.013-.237"/>
  <path fill="#263238" d="M10.295 94.995a.582.582 0 0 1-.056-.237l-.097-.649a4.772 4.772 0 0 0-.254-.952 4.86 4.86 0 0 0-.667-1.13c-.28-.366-.668-.712-1.154-1.028-.395-.256-.906-.468-1.497-.62-.4-.1-.832-.17-1.279-.206a4.869 4.869 0 0 1-.5-.04 7.448 7.448 0 0 1 1.845.185c.622.148 1.163.363 1.58.626.507.32.91.674 1.197 1.05.29.372.511.756.66 1.147.113.319.184.64.214.964a6.2 6.2 0 0 1 .03.651c.01.08.003.16-.022.24Z"/>
  <path fill="#263238" d="M10.228 94.497a.227.227 0 0 1-.007-.11l.02-.315c.017-.273.039-.668.036-1.156.004-.976-.098-2.325-.357-3.809-.26-1.484-.645-2.822-1.01-3.782a9.574 9.574 0 0 0-.255-.648c-.083-.19-.145-.354-.212-.487-.056-.125-.1-.227-.138-.307a.246.246 0 0 1-.034-.109.346.346 0 0 1 .075.105l.176.303c.078.132.157.295.247.485s.191.405.286.646a18.43 18.43 0 0 1 1.071 3.787c.26 1.487.339 2.84.297 3.817-.015.49-.06.885-.1 1.156l-.058.314a.26.26 0 0 1-.037.11Z"/>
  <path fill="#263238" d="M10.362 91.892c-.01-.11-.002-.219.024-.328a4.71 4.71 0 0 1 .264-.887c.176-.436.406-.866.686-1.289a9.485 9.485 0 0 1 1.236-1.52c.85-.906 2.04-1.731 3.514-2.436a9.52 9.52 0 0 1 .814-.338c.124-.048.235-.095.346-.132l.314-.096c.189-.064.388-.12.596-.17a24.45 24.45 0 0 0-1.966.785c-1.428.711-2.588 1.533-3.43 2.428-.483.489-.898.992-1.241 1.506a8.539 8.539 0 0 0-.726 1.274 7.022 7.022 0 0 0-.327.878 1.08 1.08 0 0 1-.104.325Z"/>
</svg>
