<svg xmlns="http://www.w3.org/2000/svg" width="13" height="14" fill="none" viewBox="0 0 13 14">
  <rect width="13" height="13" y=".5" fill="#7C827D" rx="2"/>
  <path fill="#fff" d="M5.094 7a1.406 1.406 0 1 1 2.811 0 1.406 1.406 0 0 1-2.811 0ZM6.5 2.5c.311 0 .563.252.563.563v.609a3.375 3.375 0 0 1 2.765 2.765h.61a.562.562 0 1 1 0 1.125h-.61a3.372 3.372 0 0 1-2.765 2.766v.61a.562.562 0 1 1-1.125 0v-.61a3.375 3.375 0 0 1-2.766-2.765h-.61a.562.562 0 1 1 0-1.125h.61a3.378 3.378 0 0 1 2.765-2.766v-.61c0-.31.252-.562.563-.562ZM4.25 7a2.25 2.25 0 1 0 4.5 0 2.25 2.25 0 0 0-4.5 0Z"/>
</svg>
