<svg xmlns="http://www.w3.org/2000/svg" width="13" height="12" fill="none" viewBox="0 0 13 12">
  <rect width="12.188" height="11.875" y=".063" fill="#7C827D" rx="2"/>
  <path fill="#fff" d="M6.094 9.938 3.72 7.139a9.766 9.766 0 0 1-.098-.127A3.063 3.063 0 0 1 3 5.157a3.094 3.094 0 0 1 6.188 0 3.061 3.061 0 0 1-.623 1.856s-.085.111-.098.126l-2.373 2.8ZM4.072 6.674l.08.105 1.942 2.289 1.943-2.292.079-.103c.33-.436.51-.97.509-1.517a2.531 2.531 0 1 0-5.063 0c0 .548.179 1.081.51 1.518Z"/>
  <path fill="#fff" d="M7.25 7.094h-.563V6.53H5.563v.563H5V6.53a.563.563 0 0 1 .563-.562h1.125a.563.563 0 0 1 .562.562v.563ZM6.125 5.687a.844.844 0 1 1 0-1.687.844.844 0 0 1 0 1.688Zm0-1.125a.281.281 0 1 0 0 .563.281.281 0 0 0 0-.563Z"/>
</svg>
