<svg width="375" height="513" viewBox="0 0 375 513" fill="none" xmlns="http://www.w3.org/2000/svg">
<g opacity="0.2">
<path d="M103.079 180.472L47.5283 256.427L-139.999 0H-28.9138L103.079 180.472Z" fill="#C4C4C4"/>
<path d="M346.124 0L158.596 256.427L103.079 180.472L235.056 0H346.124Z" fill="#C4C4C4"/>
</g>
<g opacity="0.2">
<path d="M346.123 512.817H235.055L103.078 332.364L-28.9148 512.817H-140L47.5273 256.427L103.078 180.471L158.595 256.427L346.123 512.817Z" fill="#C4C4C4"/>
<path d="M103.079 180.472L47.5283 256.427L-139.999 0H-28.9138L103.079 180.472Z" fill="#C4C4C4"/>
<path d="M346.124 0L158.596 256.427L103.079 180.472L235.055 0H346.124Z" fill="#C4C4C4"/>
<path d="M515.001 510.744H403.933L271.956 330.291L139.963 510.744H28.8779L216.405 254.354L271.956 178.398L327.473 254.354L515.001 510.744Z" fill="#C4C4C4"/>
</g>
</svg>
