<svg width="147" height="81" viewBox="0 0 147 81" fill="none" xmlns="http://www.w3.org/2000/svg">
<path d="M33.2713 30.1974H5.14893V49.1614H33.2713V30.1974Z" fill="#AC5C45"/>
<path opacity="0.3" d="M33.2713 30.1974H5.14893V49.1614H33.2713V30.1974Z" fill="black"/>
<path d="M26.2256 49.0273C26.2003 49.0273 26.1797 44.8003 26.1797 39.5873C26.1797 34.3743 26.2003 30.1473 26.2256 30.1473C26.2508 30.1473 26.2711 34.3736 26.2711 39.5873C26.2711 44.801 26.2494 49.0273 26.2256 49.0273Z" fill="#9A6847"/>
<path d="M30.8869 44.8447H28.731V46.9756H30.8869V44.8447Z" fill="#9A6847"/>
<path d="M16.9229 30.2461H13.7285V34.2925H16.9229V30.2461Z" fill="#9A6847"/>
<path d="M16.9229 45.0583H13.7285V49.1048H16.9229V45.0583Z" fill="#9A6847"/>
<path d="M33.0262 30.1975C33.0024 30.2007 32.9783 30.2022 32.9541 30.2017L32.7431 30.2057L31.9308 30.2131L28.9435 30.2256L19.0884 30.2371L9.23135 30.2256L6.2443 30.2131L5.43208 30.2057L5.221 30.2017C5.19688 30.2022 5.17276 30.2007 5.14893 30.1975C5.1728 30.1946 5.19689 30.1932 5.221 30.1935L5.43208 30.1897L6.2443 30.1821L9.23135 30.1694L19.0884 30.1576L28.9435 30.1694L31.9308 30.1821L32.7431 30.1897L32.9541 30.1935C32.9783 30.1932 33.0023 30.1945 33.0262 30.1975Z" fill="#9A6847"/>
<path d="M56.6818 30.1743H28.5594V49.1383H56.6818V30.1743Z" fill="#CA804E"/>
<path d="M49.636 49.0046C49.6107 49.0046 49.5901 44.7774 49.5901 39.5646C49.5901 34.3518 49.6107 30.1234 49.636 30.1234C49.6612 30.1234 49.6815 34.3497 49.6815 39.5646C49.6815 44.7795 49.6609 49.0046 49.636 49.0046Z" fill="#9A6847"/>
<path d="M54.2969 44.8219H52.141V46.9527H54.2969V44.8219Z" fill="#9A6847"/>
<path opacity="0.5" d="M40.3329 30.2229H37.1385V34.2694H40.3329V30.2229Z" fill="#936445"/>
<path opacity="0.5" d="M40.3329 45.0354H37.1385V49.0819H40.3329V45.0354Z" fill="#936445"/>
<path d="M56.4367 30.1739C56.4129 30.1772 56.3888 30.1786 56.3647 30.1782L56.1536 30.1819L55.3414 30.1895L52.354 30.202L42.4989 30.2136L32.6419 30.202L29.6548 30.1895L28.8426 30.1819L28.6315 30.1782C28.6074 30.1786 28.5833 30.1772 28.5594 30.1739C28.5833 30.171 28.6074 30.1697 28.6315 30.1699L28.8426 30.1661L29.6548 30.1586L32.6419 30.1458L42.4989 30.134L52.354 30.1458L55.3414 30.1586L56.1536 30.1661L56.3647 30.1699C56.3888 30.1696 56.4129 30.171 56.4367 30.1739Z" fill="#9A6847"/>
<path d="M58.2601 11.21H30.1377V30.174H58.2601V11.21Z" fill="#CA804E"/>
<path d="M51.2142 30.0399C51.1889 30.0399 51.1686 25.8129 51.1686 20.5999C51.1686 15.3869 51.1889 11.1599 51.2142 11.1599C51.2394 11.1599 51.26 15.3862 51.26 20.5999C51.26 25.8136 51.2394 30.0399 51.2142 30.0399Z" fill="#9A6847"/>
<path d="M55.8758 25.8572H53.7198V27.988H55.8758V25.8572Z" fill="#9A6847"/>
<path d="M41.9118 11.2587H38.7174V15.3051H41.9118V11.2587Z" fill="#9A6847"/>
<path d="M41.9118 26.0708H38.7174V30.1173H41.9118V26.0708Z" fill="#9A6847"/>
<path d="M58.015 11.2099C57.9911 11.213 57.967 11.2143 57.9429 11.2139L57.7318 11.2179L56.9196 11.2253L53.9323 11.2378L44.0771 11.2493L34.2201 11.2378L31.2331 11.2253L30.4209 11.2179L30.2098 11.2139C30.1857 11.2143 30.1616 11.213 30.1377 11.2099C30.1615 11.2067 30.1857 11.2052 30.2098 11.2057L30.4209 11.2019L31.2331 11.1943L34.2201 11.1816L44.0771 11.1698L53.9323 11.1816L56.9196 11.1943L57.7318 11.2019L57.9429 11.2057C57.967 11.2052 57.9912 11.2067 58.015 11.2099Z" fill="#9A6847"/>
<path d="M55.2533 70.277V68.0553H3.29395C3.1096 68.0553 2.93281 68.1193 2.80246 68.2333C2.67211 68.3473 2.59888 68.5018 2.59888 68.663V69.6693C2.59888 69.8305 2.67211 69.9851 2.80246 70.099C2.93281 70.213 3.1096 70.277 3.29395 70.277H4.7405V71.2883C4.7405 71.4469 4.66844 71.599 4.54016 71.7111C4.41189 71.8233 4.23791 71.8863 4.0565 71.8863H3.28288C3.19307 71.8863 3.10413 71.9017 3.02115 71.9317C2.93816 71.9618 2.86275 72.0058 2.79923 72.0613C2.73571 72.1168 2.68533 72.1827 2.65095 72.2553C2.61657 72.3278 2.59888 72.4056 2.59888 72.4841V73.51C2.59888 73.5885 2.61657 73.6663 2.65095 73.7388C2.68533 73.8113 2.73571 73.8773 2.79923 73.9328C2.86275 73.9883 2.93816 74.0323 3.02115 74.0623C3.10413 74.0924 3.19307 74.1078 3.28288 74.1078H55.2533V71.8863H43.1413V70.277H55.2533ZM17.1948 70.277H20.3084V71.8863H17.1948V70.277ZM15.119 71.8863H12.0054V70.277H15.119V71.8863ZM22.3839 70.277H25.4976V71.8863H22.3839V70.277ZM27.5733 70.277H30.687V71.8863H27.5733V70.277ZM32.7627 70.277H35.8761V71.8863H32.7627V70.277ZM6.81627 70.277H9.92964V71.8863H6.81627V70.277ZM41.0655 71.8863H37.9519V70.277H41.0655V71.8863Z" fill="#455A64"/>
<path d="M97.1366 32.0171C97.2214 31.9409 97.2881 31.8507 97.3327 31.7517C97.3774 31.6528 97.3991 31.5471 97.3965 31.4408C97.394 31.3344 97.3674 31.2296 97.3181 31.1324C97.2688 31.0351 97.198 30.9474 97.1096 30.8744L88.3447 23.6322C88.1689 23.4893 87.9375 23.4102 87.6975 23.411C87.4574 23.4119 87.2267 23.4925 87.0523 23.6367C86.8707 23.7875 86.765 23.9951 86.7584 24.214C86.7518 24.4329 86.8449 24.6451 87.0172 24.804L90.5133 28.0199L88.6934 29.5499L87.7438 28.8993L81.1332 35.5188L77.5999 32.5471L73.3401 43.5006L74.1852 58.3752H83.9837L83.2997 40.7073L89.8638 32.515L89.9138 30.5668L91.7941 28.8766L95.8663 32.0562C96.0428 32.1939 96.2732 32.2667 96.5096 32.2594C96.746 32.2521 96.97 32.1653 97.135 32.0171H97.1366Z" fill="#263238"/>
<path d="M92.6389 57.3027L98.5987 42.8331L96.3596 42.0403V39.2341L112.655 39.0132C113.039 39.0063 113.407 38.8779 113.69 38.6517C113.974 38.4256 114.154 38.1171 114.197 37.7836L116.589 19.1833C116.643 18.7671 116.87 18.3827 117.227 18.1035C117.584 17.8244 118.046 17.6701 118.525 17.67C118.788 17.6701 119.048 17.7165 119.29 17.8066C119.531 17.8966 119.749 18.0284 119.931 18.1941C120.113 18.3597 120.255 18.5558 120.348 18.7705C120.441 18.9852 120.483 19.2142 120.472 19.4436L119.571 38.6106L128.08 38.6507L128.37 42.1468L103.206 43.0072L96.6447 57.0943L92.6389 57.3027Z" fill="#455A64"/>
<path d="M96.3875 56.9469L75.2047 57.0944V58.3284L83.9774 58.2298L97.9563 58.137L131.841 53.953L128.001 41.1695H105.065C104.668 41.1644 104.276 41.2439 103.922 41.401C103.569 41.5582 103.264 41.7883 103.035 42.0715L96.3875 56.9469Z" fill="#263238"/>
<path d="M86.2351 3.49643L70.8369 46.434L70.9449 58.3756H75.8438V46.5077L88.4604 3.61089L122.644 3.44404L129.182 48.1252H133.039L125.085 3.75721C124.96 3.1764 124.607 2.65198 124.087 2.27466C123.567 1.89733 122.912 1.6908 122.236 1.6908H89.0118C88.3885 1.69075 87.7817 1.86639 87.2815 2.19164C86.7813 2.5169 86.4144 2.97445 86.2351 3.49643Z" fill="#455A64"/>
<path d="M68.0729 72.1702V60.7006L70.9447 58.3758L97.9298 58.0723L102.799 54.617C103.704 53.9745 104.818 53.5978 105.983 53.5404L111.18 53.2839C111.18 53.2839 113.512 51.8785 115.762 50.4861C118.62 48.716 122.036 47.765 125.538 47.7643H140.499C140.768 47.7643 141.035 47.8105 141.283 47.9005C141.532 47.9905 141.758 48.1224 141.948 48.2887C142.138 48.455 142.289 48.6524 142.392 48.8697C142.495 49.087 142.548 49.3199 142.548 49.555V72.1709L68.0729 72.1702Z" fill="#E1261C"/>
<path d="M142.548 68.474H67.808V72.2448H142.548V68.474Z" fill="#263238"/>
<path d="M71.6759 72.1284C71.6495 73.7263 72.1656 75.2952 73.1591 76.6366C74.1525 77.978 75.5786 79.0318 77.257 79.6646C78.9355 80.2974 80.7908 80.4808 82.5885 80.1917C84.3861 79.9026 86.0454 79.1539 87.3563 78.0403C88.6673 76.9267 89.5712 75.4983 89.9536 73.9356C90.336 72.3729 90.1798 70.7461 89.5048 69.261C88.8297 67.7759 87.6661 66.4992 86.1611 65.5923C84.6562 64.6854 82.8774 64.189 81.0497 64.166C78.599 64.1351 76.2346 64.9566 74.4767 66.4499C72.7188 67.9431 71.7113 69.9857 71.6759 72.1284Z" fill="#263238"/>
<path d="M71.6782 72.1077C71.6782 72.1145 71.6782 72.1214 71.6766 72.1284C71.6536 74.2642 72.5989 76.321 74.3056 77.8492C76.0123 79.3774 78.3417 80.2525 80.7844 80.2833C83.2271 80.3142 85.5844 79.4981 87.3408 78.0137C89.0973 76.5292 90.11 74.4971 90.1576 72.3616C90.1576 72.3545 90.1576 72.3477 90.1576 72.3406L71.6782 72.1077Z" fill="#263238"/>
<path d="M74.4295 72.163C74.411 73.2848 74.7734 74.3862 75.4709 75.3279C76.1683 76.2696 77.1695 77.0094 78.3479 77.4536C79.5262 77.8979 80.8287 78.0266 82.0908 77.8236C83.3528 77.6207 84.5176 77.095 85.438 76.3132C86.3583 75.5314 86.9929 74.5286 87.2613 73.4315C87.5298 72.3344 87.4201 71.1924 86.9462 70.1498C86.4723 69.1072 85.6554 68.2109 84.5988 67.5742C83.5423 66.9375 82.2935 66.589 81.0104 66.5729C79.2898 66.5512 77.6299 67.1279 76.3957 68.1763C75.1616 69.2246 74.4543 70.6587 74.4295 72.163Z" fill="#FAFAFA"/>
<path d="M81.0097 66.5729C79.2892 66.5512 77.6292 67.1279 76.3951 68.1763C75.1609 69.2246 74.4536 70.6587 74.4288 72.163L87.4036 72.3265C87.4283 70.8223 86.7686 69.371 85.5695 68.292C84.3705 67.213 82.7303 66.5946 81.0097 66.5729Z" fill="#E0E0E0"/>
<path d="M76.9646 72.195C76.9534 72.8784 77.1741 73.5494 77.599 74.123C78.0238 74.6967 78.6337 75.1474 79.3515 75.418C80.0694 75.6886 80.8628 75.7671 81.6316 75.6434C82.4004 75.5198 83.11 75.1996 83.6707 74.7233C84.2313 74.2471 84.6179 73.6361 84.7814 72.9678C84.9449 72.2995 84.8781 71.6038 84.5894 70.9687C84.3007 70.3335 83.803 69.7875 83.1594 69.3997C82.5157 69.0119 81.755 68.7996 80.9734 68.7898C79.9253 68.7766 78.9142 69.128 78.1624 69.7666C77.4106 70.4052 76.9798 71.2787 76.9646 72.195Z" fill="#263238"/>
<path d="M116.9 72.1284C116.874 73.7263 117.39 75.2952 118.383 76.6366C119.377 77.978 120.803 79.0318 122.481 79.6646C124.16 80.2974 126.015 80.4808 127.813 80.1917C129.61 79.9026 131.27 79.1539 132.581 78.0403C133.892 76.9267 134.795 75.4983 135.178 73.9356C135.56 72.3729 135.404 70.7461 134.729 69.261C134.054 67.7759 132.89 66.4992 131.385 65.5923C129.88 64.6854 128.102 64.189 126.274 64.166C123.823 64.1351 121.459 64.9566 119.701 66.4499C117.943 67.9431 116.936 69.9857 116.9 72.1284Z" fill="#263238"/>
<path d="M116.902 72.1077C116.902 72.1145 116.901 72.1214 116.9 72.1284C116.878 74.2642 117.823 76.321 119.529 77.8492C121.236 79.3774 123.566 80.2525 126.008 80.2833C128.451 80.3142 130.808 79.4981 132.565 78.0137C134.321 76.5292 135.334 74.4971 135.381 72.3616C135.381 72.3545 135.381 72.3477 135.381 72.3406L116.902 72.1077Z" fill="#263238"/>
<path d="M119.654 72.163C119.635 73.2848 119.998 74.3862 120.695 75.3279C121.393 76.2697 122.394 77.0094 123.572 77.4536C124.751 77.8979 126.053 78.0266 127.315 77.8236C128.577 77.6206 129.742 77.095 130.662 76.3131C131.583 75.5313 132.217 74.5285 132.486 73.4314C132.754 72.3343 132.644 71.1922 132.17 70.1496C131.696 69.107 130.879 68.2107 129.823 67.5741C128.766 66.9374 127.517 66.589 126.234 66.5729C124.514 66.5512 122.854 67.128 121.62 68.1764C120.386 69.2247 119.679 70.6587 119.654 72.163Z" fill="#FAFAFA"/>
<path d="M126.234 66.5729C124.514 66.5512 122.854 67.128 121.62 68.1764C120.386 69.2247 119.678 70.6587 119.654 72.163L132.628 72.3265C132.653 70.8222 131.993 69.3709 130.794 68.2919C129.595 67.2129 127.955 66.5945 126.234 66.5729Z" fill="#E0E0E0"/>
<path d="M122.189 72.195C122.178 72.8784 122.398 73.5494 122.823 74.123C123.248 74.6967 123.858 75.1474 124.576 75.418C125.294 75.6886 126.087 75.7671 126.856 75.6434C127.625 75.5198 128.334 75.1996 128.895 74.7233C129.456 74.2471 129.842 73.6361 130.006 72.9678C130.169 72.2995 130.102 71.6038 129.814 70.9687C129.525 70.3335 129.027 69.7875 128.384 69.3997C127.74 69.0119 126.979 68.7996 126.198 68.7898C125.679 68.7832 125.163 68.8661 124.681 69.0337C124.199 69.2013 123.759 69.4503 123.387 69.7665C123.014 70.0827 122.717 70.4599 122.511 70.8766C122.306 71.2933 122.196 71.7413 122.189 72.195Z" fill="#263238"/>
<path d="M138.168 66.4941C138.15 66.4772 138.135 66.4584 138.123 66.4382L138.004 66.2682L137.815 65.9905C137.733 65.8622 137.643 65.7382 137.545 65.619C136.953 64.8387 136.253 64.1249 135.461 63.4938C135.223 63.2831 134.935 63.0999 134.652 62.8913C134.363 62.6893 134.044 62.5017 133.719 62.3013C133.376 62.1246 133.039 61.9159 132.657 61.7533C132.468 61.6684 132.281 61.5761 132.085 61.4937L131.479 61.2577C129.691 60.585 127.751 60.2774 125.807 60.3586C123.862 60.4397 121.964 60.9074 120.258 61.726L119.681 62.0091C119.494 62.108 119.317 62.2154 119.139 62.316C118.777 62.5097 118.464 62.7455 118.142 62.9498C117.841 63.1766 117.542 63.39 117.278 63.6149C117.021 63.8462 116.754 64.0524 116.539 64.2821C115.82 64.9762 115.201 65.745 114.697 66.5713C114.612 66.698 114.535 66.829 114.467 66.9635L114.309 67.2559C114.268 67.3293 114.236 67.3881 114.21 67.4348C114.218 67.4395 114.223 67.4467 114.226 67.455C114.228 67.4633 114.227 67.4721 114.222 67.4795C114.218 67.487 114.21 67.4928 114.201 67.4956C114.191 67.4984 114.181 67.498 114.172 67.4947C114.163 67.4913 114.156 67.4852 114.152 67.4774C114.148 67.4696 114.148 67.4608 114.151 67.4527C114.154 67.4446 114.16 67.4377 114.168 67.4335C114.177 67.4293 114.187 67.428 114.196 67.4298L114.284 67.246L114.43 66.9479C114.493 66.8112 114.566 66.678 114.648 66.5491C115.137 65.7092 115.748 64.9279 116.465 64.2245C116.679 63.9913 116.945 63.7815 117.203 63.5467C117.468 63.3182 117.767 63.1011 118.07 62.871C118.394 62.6629 118.707 62.4226 119.071 62.2265C119.25 62.1246 119.428 62.0155 119.616 61.915L120.197 61.6256C121.918 60.793 123.836 60.3173 125.801 60.2355C127.766 60.1537 129.727 60.4678 131.531 61.1536L132.141 61.3934C132.338 61.4777 132.527 61.5714 132.717 61.658C133.101 61.8232 133.44 62.0356 133.784 62.2161C134.11 62.42 134.432 62.6112 134.72 62.8165C135.002 63.0289 135.29 63.2156 135.529 63.4301C136.32 64.0707 137.013 64.7977 137.591 65.593C137.687 65.7146 137.774 65.8412 137.852 65.9721L138.03 66.2564L138.138 66.4325C138.151 66.452 138.161 66.4727 138.168 66.4941Z" fill="#263238"/>
<path d="M92.9834 67.9808C92.9687 67.9606 92.9567 67.9389 92.9477 67.9163C92.924 67.8665 92.8938 67.803 92.8562 67.7235C92.8157 67.636 92.7672 67.5313 92.7107 67.4092L92.4948 66.9872C92.0229 66.0957 91.4365 65.2541 90.747 64.4785C89.7404 63.3166 88.4561 62.3604 86.9836 61.6767C86.1019 61.3006 85.167 61.0284 84.2034 60.8672C83.1706 60.6819 82.1173 60.598 81.0633 60.6171C80.0091 60.6307 78.9601 60.7487 77.9364 60.969C76.9844 61.1778 76.0665 61.4913 75.2047 61.9019C73.733 62.5865 72.4167 63.5005 71.3209 64.5989C70.5881 65.3434 69.95 66.1554 69.4179 67.0205C69.229 67.3273 69.0878 67.5675 68.9974 67.733C68.9528 67.8099 68.9164 67.8712 68.8894 67.9192C68.8979 67.9243 68.9038 67.9319 68.9061 67.9407C68.9084 67.9494 68.9068 67.9586 68.9018 67.9664C68.8967 67.9742 68.8885 67.9801 68.8787 67.9828C68.8689 67.9856 68.8583 67.985 68.849 67.9813C68.8397 67.9776 68.8323 67.9709 68.8283 67.9626C68.8243 67.9544 68.824 67.9451 68.8275 67.9366C68.8309 67.9282 68.8378 67.9212 68.8469 67.917C68.856 67.9128 68.8665 67.9117 68.8765 67.914C68.901 67.8646 68.9326 67.8016 68.9717 67.7226C69.0527 67.5534 69.1877 67.3093 69.3696 66.9981C69.8862 66.1195 70.516 65.2954 71.2467 64.542C72.3411 63.4263 73.6624 62.4975 75.1437 61.8025C76.0138 61.3844 76.9412 61.065 77.9037 60.8521C78.9374 60.628 79.997 60.5079 81.0619 60.4944C82.1261 60.4751 83.1894 60.5606 84.2317 60.7492C85.2066 60.9141 86.1521 61.1919 87.043 61.5752C88.5279 62.2705 89.8191 63.2435 90.8247 64.4249C91.5116 65.2095 92.0888 66.063 92.5439 66.9674C92.6206 67.1271 92.6892 67.2696 92.7496 67.395C92.8014 67.5191 92.8458 67.6257 92.8827 67.7145L92.9612 67.9118C92.9715 67.934 92.9789 67.9571 92.9834 67.9808Z" fill="#263238"/>
<path d="M68.0536 68.0553H27.0823V72.2445H68.0536V68.0553Z" fill="#263238"/>
<path d="M66.944 69.8327C66.944 70.039 66.874 70.2407 66.7429 70.4123C66.6117 70.5839 66.4254 70.7176 66.2073 70.7966C65.9892 70.8756 65.7493 70.8962 65.5178 70.856C65.2863 70.8157 65.0737 70.7163 64.9068 70.5704C64.7399 70.4245 64.6262 70.2386 64.5802 70.0362C64.5341 69.8338 64.5578 69.624 64.6481 69.4334C64.7384 69.2427 64.8914 69.0798 65.0876 68.9651C65.2839 68.8505 65.5146 68.7893 65.7506 68.7893C65.9073 68.7893 66.0625 68.8162 66.2073 68.8687C66.3521 68.9211 66.4837 68.9979 66.5945 69.0948C66.7053 69.1917 66.7932 69.3068 66.8532 69.4333C66.9132 69.5599 66.944 69.6956 66.944 69.8327Z" fill="#455A64"/>
<path d="M67.5165 1.36145H64.0964V60.7589H67.5165V1.36145Z" fill="#455A64"/>
<path d="M116.152 64.1433C116.152 64.1773 110.387 64.2049 103.276 64.2049C96.1652 64.2049 90.4003 64.1773 90.4003 64.1433C90.4003 64.1093 96.1638 64.0819 103.276 64.0819C110.388 64.0819 116.152 64.1102 116.152 64.1433Z" fill="#263238"/>
<path d="M110.904 63.2534C110.865 63.2534 110.833 61.0612 110.833 58.3576C110.833 55.654 110.865 53.4613 110.904 53.4613C110.943 53.4613 110.975 55.653 110.975 58.3576C110.975 61.0622 110.943 63.2534 110.904 63.2534Z" fill="#263238"/>
<path d="M70.707 0H63.7274V2.72344H70.707V0Z" fill="#263238"/>
<path d="M68.0538 60.2692H63.5597V68.1095H68.0538V60.2692Z" fill="#263238"/>
<path d="M57.6185 49.1461H29.4961V68.1101H57.6185V49.1461Z" fill="#AC5C45"/>
<path opacity="0.3" d="M57.6185 49.1461H29.4961V68.1101H57.6185V49.1461Z" fill="black"/>
<path d="M50.5732 67.9761C50.5479 67.9761 50.5276 63.7491 50.5276 58.5361C50.5276 53.3231 50.5479 49.0961 50.5732 49.0961C50.5984 49.0961 50.619 53.3221 50.619 58.5361C50.619 63.75 50.5979 67.9761 50.5732 67.9761Z" fill="#9A6847"/>
<path d="M55.2343 63.7935H53.0784V65.9243H55.2343V63.7935Z" fill="#9A6847"/>
<path d="M41.2703 49.1948H38.0759V53.2413H41.2703V49.1948Z" fill="#9A6847"/>
<path d="M41.2703 64.0073H38.0759V68.0538H41.2703V64.0073Z" fill="#9A6847"/>
<path d="M57.3719 49.1457C57.3481 49.1489 57.324 49.1503 57.2999 49.1497L57.0888 49.1537L56.2765 49.1613L53.2892 49.1738L43.4338 49.1851L33.577 49.1738L30.59 49.1611L29.7778 49.1537L29.5667 49.1497C29.5426 49.1503 29.5185 49.149 29.4946 49.1457C29.5185 49.1426 29.5426 49.1413 29.5667 49.1417L29.7778 49.1377L30.59 49.1304L33.577 49.1176L43.4338 49.1058L53.2892 49.1176L56.2765 49.1304L57.0888 49.1377L57.2999 49.1417C57.324 49.1413 57.3481 49.1426 57.3719 49.1457Z" fill="#9A6847"/>
<path d="M28.1226 49.146H0.000244141V68.11H28.1226V49.146Z" fill="#CA804E"/>
<path d="M21.0768 67.9759C21.0516 67.9759 21.0312 63.749 21.0312 58.5359C21.0312 53.3229 21.0516 49.0959 21.0768 49.0959C21.1021 49.0959 21.1224 53.322 21.1224 58.5359C21.1224 63.7499 21.1021 67.9759 21.0768 67.9759Z" fill="#9A6847"/>
<path d="M25.7376 63.7935H23.5817V65.9243H25.7376V63.7935Z" fill="#9A6847"/>
<path opacity="0.5" d="M11.7736 49.1948H8.57922V53.2413H11.7736V49.1948Z" fill="#936445"/>
<path opacity="0.5" d="M11.7736 64.0072H8.57922V68.0537H11.7736V64.0072Z" fill="#936445"/>
<path d="M27.8773 49.1457C27.8535 49.149 27.8295 49.1503 27.8055 49.1497L27.5941 49.1537L26.7819 49.1613L23.7948 49.1738L13.9394 49.1851L4.08239 49.1738L1.09535 49.1611L0.2834 49.1537L0.0720452 49.1497C0.0480219 49.1503 0.0239897 49.149 0.000244141 49.1457C0.0240078 49.1426 0.0480253 49.1413 0.0720452 49.1417L0.2834 49.1377L1.09535 49.1304L4.08239 49.1176L13.9394 49.1058L23.7948 49.1176L26.7819 49.1304L27.5941 49.1377L27.8055 49.1417C27.8295 49.1413 27.8535 49.1426 27.8773 49.1457Z" fill="#9A6847"/>
<path d="M143.729 54.3011C145.179 54.6061 146.394 55.8934 146.37 57.1976C146.34 57.8513 146.065 58.4783 145.588 58.9821C145.111 59.486 144.457 59.8389 143.729 59.9866" fill="#E1261C"/>
<g opacity="0.6">
<path opacity="0.6" d="M143.729 54.3011C145.179 54.6061 146.394 55.8934 146.37 57.1976C146.34 57.8513 146.065 58.4783 145.588 58.9821C145.111 59.486 144.457 59.8389 143.729 59.9866" fill="white"/>
</g>
<path d="M143.788 53.5685H142.548V60.746H143.788V53.5685Z" fill="#E1261C"/>
<path opacity="0.3" d="M143.788 53.5685H142.548V60.746H143.788V53.5685Z" fill="black"/>
<path d="M84.838 24.8103C84.6885 24.7096 84.5858 24.565 84.5486 24.4033C84.5114 24.2415 84.5423 24.0735 84.6355 23.9301C84.842 23.6122 85.0863 23.2398 85.197 23.0849C85.3327 22.9008 85.4559 22.7099 85.566 22.5131C85.6002 22.3958 85.6715 22.2893 85.7718 22.2059C85.8721 22.1224 85.9972 22.0653 86.1328 22.0411C86.463 22.0036 86.798 22.0122 87.1251 22.0666L90.5017 22.7038L92.0735 23.3851L90.543 24.5651L89.6935 24.3386C89.4384 24.5335 88.4364 24.635 88.0971 24.5982C87.6623 24.551 86.7917 24.3044 86.2972 24.3858L85.8216 24.4431L86.0481 24.61C86.4626 24.5829 86.8776 24.657 87.2468 24.824C87.3067 24.8584 87.3527 24.9085 87.3784 24.967C87.404 25.0255 87.4079 25.0896 87.3897 25.1502C87.3714 25.2108 87.3318 25.2648 87.2765 25.3047C87.2211 25.3445 87.1529 25.3681 87.0814 25.3722L85.9714 25.4355C85.671 25.3119 85.3822 25.1678 85.1076 25.0046C85.0216 24.9359 84.9316 24.8711 84.838 24.8103Z" fill="#FFBE9D"/>
<path d="M85.8219 24.4431C85.7675 24.4772 85.7048 24.4998 85.6386 24.5089C85.4599 24.5536 85.2702 24.5515 85.0928 24.503C84.9651 24.4671 84.8524 24.3989 84.7689 24.3071C84.7216 24.2514 84.6881 24.1877 84.6706 24.1199C84.6531 24.0522 84.652 23.9821 84.6674 23.914C84.6878 23.8364 84.7372 23.7671 84.8078 23.7169C84.8779 23.6717 84.9566 23.6376 85.0402 23.6161C85.2011 23.5691 85.3654 23.5316 85.532 23.5038C85.8505 23.4507 86.1724 23.4147 86.4959 23.3959C86.6452 23.3872 86.7864 23.3811 86.9211 23.382C86.9537 23.382 86.9902 23.3837 87.0234 23.386C87.0504 23.3871 87.0775 23.3862 87.1043 23.3832C87.1604 23.3764 87.2161 23.3671 87.2712 23.3553C87.7006 23.2609 87.963 23.1743 87.9705 23.193C87.7609 23.304 87.5334 23.387 87.2957 23.4394C87.2377 23.4547 87.1788 23.4673 87.1192 23.4771C87.0842 23.4825 87.0486 23.4847 87.0131 23.484C86.9829 23.484 86.9545 23.484 86.9213 23.484C86.7926 23.4873 86.6514 23.4972 86.5059 23.509C86.213 23.5326 85.8907 23.5677 85.5587 23.6244C85.3984 23.6509 85.2401 23.6862 85.0847 23.7299C84.9271 23.7698 84.824 23.8306 84.7929 23.9409C84.7804 23.9935 84.7801 24.0477 84.792 24.1004C84.8039 24.1531 84.8278 24.2032 84.8623 24.2477C84.9293 24.3265 85.0206 24.3871 85.1255 24.4223C85.2858 24.4727 85.4581 24.4866 85.6262 24.4627C85.7504 24.4487 85.8184 24.4329 85.8219 24.4431Z" fill="#EB996E"/>
<path d="M86.2417 22.9052C86.2782 22.8967 86.3438 23.0527 86.2779 23.2394C86.212 23.4261 86.059 23.5226 86.035 23.499C86.0058 23.4754 86.0914 23.3593 86.1429 23.2038C86.1945 23.0483 86.2012 22.9107 86.2417 22.9052Z" fill="#EB996E"/>
<path d="M86.7701 23.0916C86.8079 23.0949 86.8184 23.2096 86.7253 23.3155C86.6322 23.4215 86.5029 23.442 86.4894 23.4099C86.4759 23.3779 86.5458 23.3193 86.6138 23.2398C86.6818 23.1603 86.7307 23.0862 86.7701 23.0916Z" fill="#EB996E"/>
<path d="M100.064 22.4331C100.53 22.2646 97.3963 25.0789 97.3963 25.0789L91.609 23.1932L89.5662 24.2904L95.7899 28.1207C96.4296 28.5142 97.2091 28.6947 97.9876 28.6298C98.7662 28.5649 99.4926 28.2588 100.036 27.7667L103.709 24.0546L100.064 22.4331Z" fill="#FFBE9D"/>
<path d="M103.458 11.152C102.651 11.0168 102.145 10.798 102.124 10.5268C102.08 9.9661 104.119 9.38837 106.676 9.23686C109.234 9.08535 111.343 9.41717 111.387 9.97814C111.408 10.2486 110.945 10.5228 110.172 10.7513" fill="#E1261C"/>
<g opacity="0.4">
<path opacity="0.4" d="M103.899 11.1049C103.183 10.9848 102.717 10.7922 102.716 10.5508C102.714 9.87887 104.484 9.54186 106.751 9.40734C109.019 9.27282 110.888 9.56711 110.926 10.0644C110.945 10.3041 110.535 10.547 109.851 10.7488" fill="black"/>
</g>
<path d="M102.741 10.2253C102.741 10.2253 103.219 7.80557 103.267 7.68639C103.314 7.56721 104.01 6.47878 105.841 6.07097L107.374 5.98035C107.374 5.98035 109.598 6.46344 110.031 6.90335C110.465 7.34325 110.809 9.58313 110.809 9.58313L106.447 9.02097L103.572 9.81747L102.741 10.2253Z" fill="#E1261C"/>
<path d="M106.321 5.76853L105.663 5.80747C105.509 5.98519 105.433 6.2052 105.449 6.42768C105.45 6.84611 105.564 9.71091 105.564 9.71091L107.481 9.52069L107.146 5.99368L107.808 6.0817L107.772 5.88299L107.585 5.71472L106.321 5.76853Z" fill="#E1261C"/>
<path d="M110.328 18.9567L105.631 19.0464C105.571 18.6136 105.616 15.9112 105.616 15.9112C105.616 15.9112 103.827 15.7755 103.686 14.2294C103.544 12.6834 103.573 9.57881 103.573 9.57881L103.593 9.44193C105.581 8.55079 107.949 8.34146 109.808 9.42588L110.084 9.58683L110.328 18.9567Z" fill="#FFBE9D"/>
<path d="M105.615 15.9113C106.432 15.8611 107.216 15.6072 107.873 15.1797C107.873 15.1797 107.386 16.3486 105.61 16.3137L105.615 15.9113Z" fill="#EB996E"/>
<path d="M109.99 11.2025C110.019 11.1891 111.181 10.8159 111.225 11.876C111.268 12.9362 110.042 12.7554 110.037 12.7257C110.032 12.6959 109.99 11.2025 109.99 11.2025Z" fill="#FFBE9D"/>
<path d="M110.392 12.312C110.398 12.3085 110.414 12.3243 110.45 12.3373C110.501 12.3546 110.558 12.3539 110.608 12.3354C110.685 12.2895 110.746 12.2266 110.785 12.1532C110.825 12.0798 110.842 11.9985 110.833 11.9177C110.833 11.8267 110.809 11.737 110.763 11.6552C110.751 11.6224 110.729 11.5928 110.7 11.5689C110.672 11.5451 110.637 11.5277 110.599 11.5183C110.574 11.5136 110.549 11.5164 110.526 11.5263C110.504 11.5363 110.486 11.5527 110.476 11.5729C110.461 11.6031 110.47 11.6241 110.463 11.626C110.457 11.6278 110.436 11.609 110.445 11.5651C110.45 11.5386 110.466 11.5146 110.49 11.4971C110.522 11.474 110.564 11.463 110.605 11.4664C110.655 11.4735 110.703 11.4916 110.742 11.5192C110.782 11.5467 110.813 11.5828 110.833 11.6238C110.888 11.7141 110.917 11.8148 110.918 11.9172C110.928 12.0114 110.906 12.106 110.854 12.1891C110.802 12.2722 110.724 12.3402 110.628 12.3845C110.596 12.3938 110.562 12.3966 110.528 12.3928C110.495 12.389 110.463 12.3787 110.434 12.3625C110.395 12.3375 110.387 12.3139 110.392 12.312Z" fill="#EB996E"/>
<path d="M104.161 11.4874C104.164 11.5451 104.194 11.5992 104.242 11.6382C104.291 11.6772 104.355 11.6979 104.421 11.6961C104.454 11.6963 104.486 11.6909 104.516 11.6802C104.545 11.6695 104.573 11.6537 104.595 11.6337C104.618 11.6137 104.636 11.5899 104.648 11.5638C104.661 11.5376 104.667 11.5096 104.666 11.4813C104.663 11.4237 104.633 11.3697 104.584 11.3307C104.536 11.2917 104.472 11.2709 104.406 11.2727C104.373 11.2724 104.341 11.2778 104.311 11.2885C104.281 11.2992 104.254 11.3151 104.231 11.3351C104.209 11.3551 104.191 11.3788 104.178 11.405C104.166 11.4312 104.16 11.4592 104.161 11.4874Z" fill="#263238"/>
<path d="M104.078 11.2696C104.111 11.2965 104.294 11.1613 104.565 11.1457C104.837 11.1302 105.046 11.2375 105.073 11.2066C105.086 11.1929 105.051 11.1427 104.959 11.0926C104.836 11.0282 104.693 10.9988 104.55 11.0084C104.409 11.0161 104.274 11.0632 104.165 11.1427C104.086 11.2033 104.061 11.2571 104.078 11.2696Z" fill="#263238"/>
<path d="M106.839 11.4005C106.843 11.4582 106.872 11.5123 106.921 11.5512C106.97 11.5902 107.034 11.611 107.1 11.6092C107.132 11.6094 107.165 11.604 107.194 11.5933C107.224 11.5826 107.251 11.5668 107.274 11.5468C107.297 11.5268 107.315 11.503 107.327 11.4768C107.34 11.4507 107.346 11.4226 107.345 11.3944C107.341 11.3368 107.312 11.2827 107.263 11.2438C107.215 11.2048 107.15 11.184 107.085 11.1858C107.052 11.1855 107.02 11.1908 106.99 11.2015C106.96 11.2122 106.933 11.2281 106.91 11.2481C106.887 11.2681 106.869 11.2918 106.857 11.318C106.845 11.3442 106.839 11.3723 106.839 11.4005Z" fill="#263238"/>
<path d="M106.755 11.1553C106.789 11.1822 106.971 11.0469 107.243 11.0314C107.514 11.0158 107.723 11.1232 107.751 11.0922C107.764 11.0786 107.729 11.0283 107.637 10.9783C107.514 10.9138 107.371 10.8844 107.228 10.894C107.086 10.9018 106.951 10.9489 106.843 11.0283C106.764 11.0894 106.739 11.1432 106.755 11.1553Z" fill="#263238"/>
<path d="M105.906 12.9771C105.76 12.9461 105.609 12.9315 105.459 12.9334C105.389 12.9313 105.322 12.9233 105.307 12.8824C105.297 12.8201 105.308 12.7564 105.34 12.6998C105.394 12.549 105.45 12.3908 105.509 12.2252C105.669 11.8223 105.792 11.4088 105.877 10.9888C105.68 11.3794 105.519 11.7832 105.396 12.1964C105.34 12.363 105.287 12.5216 105.234 12.6733C105.196 12.7491 105.19 12.8342 105.217 12.9136C105.228 12.9344 105.245 12.9526 105.266 12.9668C105.287 12.981 105.312 12.9909 105.338 12.9957C105.377 13.0025 105.417 13.005 105.457 13.003C105.607 13.011 105.758 13.0023 105.906 12.9771Z" fill="#263238"/>
<path d="M106.717 13.0941C106.673 13.0941 106.692 13.3537 106.454 13.5507C106.216 13.7478 105.899 13.7395 105.899 13.7752C105.897 13.7917 105.973 13.8212 106.107 13.8165C106.28 13.8084 106.444 13.7471 106.571 13.6435C106.692 13.544 106.764 13.4071 106.772 13.2619C106.775 13.1533 106.737 13.0913 106.717 13.0941Z" fill="#263238"/>
<path d="M106.612 10.2277C106.644 10.2907 106.913 10.244 107.235 10.2589C107.557 10.2678 107.821 10.3344 107.858 10.2737C107.875 10.2449 107.826 10.1869 107.717 10.1305C107.572 10.0619 107.411 10.0231 107.247 10.017C107.082 10.0109 106.918 10.0377 106.767 10.0953C106.653 10.1435 106.599 10.1977 106.612 10.2277Z" fill="#263238"/>
<path d="M104.124 10.5755C104.176 10.6267 104.36 10.5594 104.583 10.5436C104.808 10.52 105.002 10.5552 105.042 10.4964C105.059 10.4678 105.025 10.4157 104.938 10.3694C104.821 10.3148 104.688 10.2917 104.557 10.3031C104.425 10.3145 104.3 10.3599 104.198 10.4334C104.124 10.4931 104.102 10.5504 104.124 10.5755Z" fill="#263238"/>
<path d="M110.112 10.1955C110.098 10.6274 110.147 11.0611 110.134 11.4935C110.117 11.657 110.07 11.8171 109.993 11.9669C109.968 12.0535 109.912 12.1309 109.833 12.1882C109.755 12.2454 109.658 12.2797 109.556 12.2862C109.454 12.2926 109.352 12.2709 109.265 12.2241C109.178 12.1772 109.11 12.1077 109.07 12.0252C108.974 11.8549 108.922 11.6678 108.92 11.4777C108.917 11.2879 108.88 11.0998 108.81 10.9203C108.695 10.7331 108.558 10.557 108.402 10.3949C108.323 10.3133 108.268 10.2169 108.24 10.1133C108.212 10.0098 108.212 9.90193 108.24 9.79831C108.893 9.78036 109.54 9.9178 110.111 10.196" fill="#263238"/>
<path d="M103.574 10.3886L103.545 9.52084L106.379 8.59619L110.063 9.31269L110.135 10.243C108.007 9.55921 105.66 9.6113 103.574 10.3886Z" fill="#455A64"/>
<path d="M103.711 9.32675L103.593 9.44216L102.596 10.0753C103.901 9.69161 105.256 9.45202 106.628 9.36215C108.135 9.33106 109.64 9.45423 111.114 9.72914L109.687 9.08934C109.456 8.90055 109.184 8.7542 108.887 8.65895C108.59 8.56369 108.274 8.52145 107.958 8.53474L105.357 8.64424C105.044 8.65744 104.738 8.72454 104.456 8.84168C104.173 8.95883 103.92 9.12369 103.711 9.32675Z" fill="#E1261C"/>
<path d="M105.52 8.57317C105.569 8.17071 105.582 7.76551 105.558 7.36131C105.571 6.95675 105.547 6.55193 105.487 6.15063C105.438 6.55311 105.425 6.9583 105.449 7.36249C105.436 7.76706 105.46 8.17185 105.52 8.57317Z" fill="#263238"/>
<path d="M107.807 6.08183C107.647 6.03105 107.48 5.9993 107.31 5.98743C107.258 5.99127 107.209 6.01202 107.172 6.04566C107.136 6.07931 107.116 6.12347 107.115 6.16962C107.121 6.25175 107.127 6.33679 107.133 6.42474C107.149 6.60646 107.167 6.79927 107.185 7.00175C107.224 7.41098 107.266 7.78055 107.303 8.04889C107.312 8.1949 107.339 8.33963 107.383 8.48053C107.401 8.3354 107.399 8.18906 107.38 8.04417C107.364 7.77536 107.334 7.40437 107.294 6.99491C107.273 6.79266 107.253 6.59985 107.234 6.41836C107.224 6.33262 107.215 6.24978 107.207 6.16986C107.207 6.14193 107.218 6.11483 107.239 6.0936C107.259 6.07237 107.288 6.05846 107.32 6.05445C107.481 6.07666 107.644 6.08582 107.807 6.08183Z" fill="#263238"/>
<path d="M102.53 10.0681C102.535 10.0744 102.648 10.0176 102.866 9.93519C102.974 9.89247 103.109 9.84339 103.258 9.77117C103.433 9.69212 103.583 9.57495 103.692 9.43086C103.82 9.26566 103.827 9.04641 103.971 8.88192C104.102 8.70704 104.386 8.69123 104.66 8.66574C105.217 8.61288 105.831 8.57135 106.476 8.54893C107.122 8.52651 107.739 8.52131 108.299 8.52532C108.555 8.50518 108.811 8.56359 109.023 8.69052C109.109 8.76019 109.189 8.83658 109.259 8.91874L109.369 9.03414L109.425 9.08842C109.448 9.10757 109.475 9.12278 109.505 9.13326C109.904 9.27486 110.23 9.35982 110.453 9.43298C110.567 9.47336 110.683 9.50834 110.802 9.53777C110.776 9.52032 110.748 9.50625 110.718 9.49599C110.662 9.47239 110.578 9.43841 110.468 9.39829C110.252 9.31522 109.922 9.21704 109.538 9.07237C109.518 9.06509 109.5 9.05478 109.484 9.04193L109.43 8.98836L109.325 8.87319C109.253 8.78592 109.171 8.7047 109.082 8.63058C108.855 8.48818 108.579 8.42 108.301 8.43801C107.738 8.42857 107.121 8.43022 106.472 8.45358C105.823 8.47694 105.207 8.52037 104.649 8.57843C104.51 8.5889 104.373 8.60822 104.237 8.63624C104.1 8.66439 103.979 8.73528 103.897 8.83566C103.741 9.02989 103.74 9.24914 103.627 9.39546C103.528 9.53312 103.391 9.64674 103.228 9.72586C103.085 9.80043 102.954 9.85471 102.848 9.90239C102.743 9.95006 102.661 9.98947 102.608 10.0187C102.555 10.048 102.528 10.0664 102.53 10.0681Z" fill="#263238"/>
<path d="M102.928 10.1796C102.955 10.1707 102.98 10.1579 103.002 10.1418C103.068 10.1009 103.138 10.0643 103.21 10.0323C103.476 9.91463 103.755 9.82192 104.044 9.75575C104.998 9.53617 105.983 9.4359 106.969 9.45792C107.55 9.4598 108.103 9.44942 108.601 9.4768C109.097 9.50913 109.548 9.56388 109.92 9.6184C110.106 9.64742 110.273 9.67999 110.418 9.7128C110.541 9.73307 110.658 9.77717 110.76 9.84189C110.801 9.87126 110.834 9.90853 110.856 9.95081C110.878 9.99308 110.889 10.0392 110.887 10.0857C110.89 10.0857 110.905 10.0621 110.902 10.0104C110.893 9.93521 110.852 9.86553 110.789 9.81451C110.686 9.73995 110.565 9.68756 110.434 9.66158C110.289 9.62241 110.122 9.58488 109.935 9.55137C109.496 9.47623 109.053 9.42171 108.608 9.38806C108.103 9.35549 107.549 9.36446 106.97 9.36163C105.974 9.33805 104.979 9.44877 104.022 9.68991C103.731 9.76292 103.451 9.86674 103.189 9.99906C103.118 10.0352 103.051 10.0776 102.989 10.1256C102.946 10.1591 102.925 10.1772 102.928 10.1796Z" fill="#263238"/>
<path d="M105.945 5.86601C106.036 5.87304 106.126 5.8736 106.217 5.86766L106.87 5.84407C107.125 5.83793 107.358 5.80937 107.52 5.82377C107.564 5.82596 107.607 5.83609 107.646 5.85352C107.685 5.87094 107.72 5.89529 107.748 5.92501C107.741 5.90358 107.727 5.8844 107.708 5.87003C107.657 5.8295 107.593 5.80392 107.524 5.79686C107.305 5.78671 107.086 5.78978 106.868 5.80607L106.215 5.83982C106.125 5.84226 106.034 5.85102 105.945 5.86601Z" fill="#FAFAFA"/>
<path d="M105.834 8.66758C105.879 8.67165 105.925 8.67244 105.971 8.66993L106.344 8.66521C106.659 8.66144 107.094 8.65837 107.575 8.66521L108.253 8.67985C108.436 8.67817 108.619 8.69081 108.8 8.71761C108.921 8.73918 109.029 8.79616 109.107 8.87903C109.133 8.91109 109.155 8.9456 109.173 8.98193C109.167 8.94134 109.149 8.90278 109.121 8.8703C109.044 8.77983 108.933 8.71635 108.808 8.69141C108.626 8.66007 108.44 8.64426 108.254 8.64421C108.046 8.63595 107.816 8.62982 107.576 8.62651C107.094 8.61967 106.658 8.62651 106.343 8.63784L105.97 8.65483C105.924 8.65577 105.879 8.66004 105.834 8.66758Z" fill="#FAFAFA"/>
<path d="M107.256 8.24728C107.257 8.21847 107.254 8.18964 107.248 8.16138C107.236 8.08539 107.224 8.00869 107.212 7.92986C107.182 7.73422 107.142 7.464 107.109 7.16451C107.075 6.86503 107.055 6.59292 107.041 6.3961C107.036 6.31657 107.03 6.2394 107.025 6.1627C107.025 6.13387 107.022 6.10512 107.014 6.07703C107.008 6.10542 107.006 6.13434 107.008 6.16317C107.008 6.21839 107.008 6.2984 107.01 6.39704C107.016 6.59481 107.032 6.86786 107.064 7.16829C107.097 7.46872 107.142 7.73894 107.181 7.93387C107.2 8.03134 107.217 8.10993 107.23 8.16397C107.235 8.19252 107.244 8.22047 107.256 8.24728Z" fill="#FAFAFA"/>
<path d="M109.502 9.18567C109.529 9.19965 109.557 9.21089 109.587 9.21918L109.824 9.2973L110.613 9.54109C110.758 9.57991 110.901 9.6277 111.039 9.6841C111.15 9.7293 111.239 9.80703 111.291 9.90382C111.325 9.96939 111.333 10.0431 111.314 10.1132C111.297 10.162 111.275 10.184 111.279 10.187C111.302 10.168 111.32 10.1441 111.33 10.1176C111.358 10.0443 111.354 9.96482 111.32 9.89367C111.268 9.7886 111.175 9.70325 111.058 9.65319C110.918 9.59397 110.774 9.54449 110.626 9.50521L109.834 9.27181L109.591 9.20502C109.562 9.19538 109.532 9.18888 109.502 9.18567Z" fill="#FAFAFA"/>
<path d="M89.5522 51.363L89.7951 55.1938C89.7951 55.1938 85.4223 56.6975 85.3899 57.4096L93.9027 57.2621L93.8023 51.2792L89.5522 51.363Z" fill="#E1261C"/>
<g opacity="0.4">
<path opacity="0.4" d="M89.5522 51.363L89.7951 55.1938C89.7951 55.1938 85.4223 56.6975 85.3899 57.4096L93.9027 57.2621L93.8023 51.2792L89.5522 51.363Z" fill="black"/>
</g>
<path d="M92.4215 54.8255C92.5039 54.8459 92.5748 54.8921 92.6206 54.9553C92.6664 55.0186 92.684 55.0944 92.6698 55.1682C92.6496 55.2409 92.5982 55.3041 92.5263 55.3446C92.4544 55.3852 92.3674 55.4001 92.2833 55.3863C92.196 55.3645 92.1211 55.3152 92.073 55.2479C92.0249 55.1807 92.007 55.1002 92.0228 55.0221C92.0526 54.9477 92.1143 54.8864 92.195 54.8511C92.2756 54.8159 92.3687 54.8095 92.4547 54.8333" fill="#E0E0E0"/>
<path d="M93.904 57.2619L93.867 56.6592L85.7186 57.0259C85.7186 57.0259 85.3432 57.1768 85.3912 57.4094L93.904 57.2619Z" fill="#E0E0E0"/>
<path d="M89.6566 55.1583C89.6587 55.1946 89.8671 55.2076 90.0742 55.3209C90.2847 55.4295 90.3938 55.585 90.4318 55.5699C90.4699 55.5623 90.4029 55.3461 90.1492 55.2128C89.8955 55.0795 89.6482 55.1252 89.6566 55.1583Z" fill="#263238"/>
<path d="M88.7723 55.4967C88.7636 55.5321 88.945 55.5911 89.0897 55.7419C89.2395 55.8894 89.2786 56.0551 89.3202 56.0529C89.3594 56.0579 89.3834 55.8446 89.1993 55.6595C89.0152 55.4745 88.7725 55.462 88.7723 55.4967Z" fill="#263238"/>
<path d="M88.2863 56.4406C88.3244 56.4477 88.3781 56.265 88.2669 56.068C88.1557 55.8709 87.9595 55.7949 87.943 55.8256C87.9201 55.8558 88.0488 55.9604 88.1373 56.1234C88.2297 56.2837 88.245 56.4369 88.2863 56.4406Z" fill="#263238"/>
<path d="M89.7129 54.2799C89.7312 54.3127 89.9207 54.2593 90.1558 54.269C90.3915 54.2749 90.5758 54.3398 90.5969 54.3091C90.6204 54.2825 90.4387 54.151 90.1615 54.1439C89.8843 54.1368 89.6918 54.2516 89.7129 54.2799Z" fill="#263238"/>
<g opacity="0.3">
<path opacity="0.3" d="M89.6027 52.1218L89.645 52.8045L93.829 52.6988L93.8203 52.0831L89.6027 52.1218Z" fill="black"/>
</g>
<path d="M89.6799 53.5063C89.8204 53.5368 89.9677 53.5335 90.1062 53.4969C90.2594 53.4704 90.4083 53.4276 90.5497 53.3694C90.6337 53.3351 90.7148 53.2956 90.7926 53.2514C90.84 53.2276 90.8828 53.1973 90.9195 53.1618C90.9461 53.1354 90.9619 53.1021 90.9646 53.0671C90.9672 53.032 90.9565 52.9972 90.934 52.968C90.9126 52.943 90.8848 52.9228 90.8529 52.9089C90.8209 52.895 90.7856 52.8878 90.7499 52.888C90.6959 52.8886 90.6423 52.896 90.5907 52.9102C90.5001 52.9311 90.4119 52.9592 90.3272 52.9942C90.1848 53.0535 90.0539 53.1319 89.9393 53.2267C89.7455 53.39 89.681 53.5269 89.6964 53.5335C89.7153 53.545 89.809 53.4296 90.0068 53.2942C90.1221 53.2158 90.2485 53.1506 90.3828 53.1004C90.4615 53.0711 90.5427 53.0474 90.6258 53.0296C90.7154 53.0074 90.7921 53.006 90.8161 53.0402C90.8247 53.0534 90.8258 53.0586 90.8074 53.082C90.7802 53.1077 90.7488 53.1298 90.7143 53.1476C90.6428 53.1903 90.5684 53.2292 90.4916 53.2642C90.3608 53.3236 90.2239 53.3722 90.0827 53.4093C89.9459 53.4331 89.8113 53.4655 89.6799 53.5063Z" fill="#263238"/>
<path d="M89.7352 53.5574C89.8134 53.4497 89.85 53.3228 89.8394 53.1956C89.8438 53.0575 89.821 52.9198 89.7722 52.7885C89.7429 52.7105 89.7047 52.6353 89.6582 52.564C89.6342 52.5152 89.5962 52.4726 89.5478 52.4405C89.4994 52.4083 89.4423 52.3876 89.3821 52.3804C89.3442 52.3818 89.3075 52.3926 89.2764 52.4116C89.2452 52.4306 89.221 52.4569 89.2064 52.4876C89.1855 52.5315 89.1718 52.5777 89.1656 52.6249C89.153 52.7084 89.1548 52.793 89.171 52.876C89.1979 53.0151 89.2634 53.1462 89.3619 53.2579C89.5327 53.4467 89.7071 53.4882 89.7103 53.4759C89.7238 53.4575 89.5773 53.3898 89.4458 53.2067C89.3699 53.1011 89.3212 52.9824 89.303 52.8588C89.2924 52.7871 89.2934 52.7145 89.306 52.6431C89.3173 52.5638 89.35 52.4994 89.384 52.5069C89.4264 52.5055 89.4995 52.564 89.536 52.6266C89.5794 52.6903 89.6163 52.7573 89.6461 52.8267C89.6964 52.9458 89.727 53.0706 89.7371 53.1972C89.7538 53.4155 89.7125 53.5524 89.7352 53.5574Z" fill="#263238"/>
<path d="M112.536 35.0859C112.536 35.0859 111.605 39.2564 110.06 39.3157C108.165 39.3881 94.4435 39.5517 94.4435 39.5517L95.2803 52.9128L89.2914 52.7866L86.8982 39.6208C86.6317 38.4392 86.8576 37.2132 87.5352 36.1646C87.5514 36.141 87.5676 36.1155 87.5843 36.091C88.0962 35.3554 88.8157 34.7472 89.6736 34.3245C90.5316 33.9019 91.4993 33.679 92.4841 33.6772L103.881 33.5273L112.536 35.0859Z" fill="#263238"/>
<path d="M91.8789 51.3628L92.1218 55.1936C92.1218 55.1936 87.7489 56.6974 87.7166 57.4094L96.2293 57.2619L96.1286 51.2791L91.8789 51.3628Z" fill="#E1261C"/>
<path d="M94.7476 54.8255C94.8299 54.8459 94.9008 54.8921 94.9467 54.9554C94.9925 55.0186 95.01 55.0944 94.9959 55.1682C94.9757 55.2409 94.9243 55.3041 94.8524 55.3446C94.7805 55.3852 94.6935 55.4001 94.6094 55.3863C94.5221 55.3645 94.4471 55.3153 94.3989 55.248C94.3508 55.1808 94.3328 55.1003 94.3486 55.0221C94.3784 54.9478 94.4402 54.8865 94.5208 54.8512C94.6014 54.816 94.6946 54.8096 94.7805 54.8333" fill="#E0E0E0"/>
<path d="M96.2311 57.2619L96.1938 56.6592L88.0457 57.0259C88.0457 57.0259 87.67 57.1767 87.7183 57.4094L96.2311 57.2619Z" fill="#E0E0E0"/>
<path d="M91.9847 55.1582C91.9868 55.1946 92.1949 55.2075 92.4022 55.3208C92.6128 55.4294 92.7218 55.5849 92.7596 55.5698C92.798 55.5623 92.731 55.3461 92.4773 55.2127C92.2235 55.0794 91.9749 55.1252 91.9847 55.1582Z" fill="#263238"/>
<path d="M91.0984 55.4966C91.0898 55.532 91.2712 55.591 91.4159 55.7418C91.5657 55.8893 91.6048 56.055 91.6464 56.0529C91.6855 56.0578 91.7096 55.8445 91.5255 55.6595C91.3414 55.4745 91.0987 55.4619 91.0984 55.4966Z" fill="#263238"/>
<path d="M90.6124 56.4407C90.6502 56.4478 90.7039 56.2651 90.5927 56.068C90.4815 55.871 90.2853 55.795 90.2688 55.8257C90.2459 55.8559 90.3746 55.9604 90.4632 56.1235C90.5517 56.2866 90.5711 56.4369 90.6124 56.4407Z" fill="#263238"/>
<path d="M92.0392 54.2798C92.0573 54.3126 92.247 54.2593 92.4821 54.269C92.7178 54.2749 92.9021 54.3398 92.9229 54.3091C92.9464 54.2824 92.765 54.1509 92.4875 54.1439C92.21 54.1368 92.0181 54.2515 92.0392 54.2798Z" fill="#263238"/>
<g opacity="0.3">
<path opacity="0.3" d="M91.928 52.1217L91.9704 52.8045L96.1543 52.6987L96.1456 52.083L91.928 52.1217Z" fill="black"/>
</g>
<path d="M92.0062 53.5063C92.1467 53.5367 92.2939 53.5335 92.4325 53.4968C92.5857 53.4703 92.7346 53.4275 92.876 53.3694C92.96 53.335 93.0411 53.2956 93.1189 53.2514C93.1663 53.2275 93.2091 53.1972 93.2458 53.1617C93.2724 53.1354 93.2882 53.1021 93.2909 53.067C93.2935 53.0319 93.2828 52.9971 93.2603 52.9679C93.2389 52.943 93.2111 52.9227 93.1792 52.9088C93.1472 52.8949 93.1119 52.8878 93.0762 52.8879C93.0221 52.8885 92.9684 52.896 92.9167 52.9101C92.8262 52.9311 92.7381 52.9592 92.6535 52.9941C92.5111 53.0534 92.3802 53.1318 92.2656 53.2266C92.0715 53.3899 92.0073 53.5268 92.0227 53.5334C92.0419 53.545 92.1353 53.4296 92.3334 53.2941C92.4487 53.2156 92.5751 53.1505 92.7094 53.1003C92.7881 53.071 92.8693 53.0474 92.9523 53.0295C93.0422 53.0074 93.1189 53.0059 93.1413 53.0402C93.1502 53.0534 93.1513 53.0586 93.1329 53.0819C93.1057 53.1076 93.0743 53.1297 93.0398 53.1475C92.9683 53.1902 92.8939 53.2291 92.8171 53.2641C92.6863 53.3235 92.5494 53.3721 92.4082 53.4093C92.2717 53.4331 92.1373 53.4655 92.0062 53.5063Z" fill="#263238"/>
<path d="M92.0615 53.5573C92.1398 53.4496 92.1763 53.3228 92.1657 53.1955C92.1726 52.9745 92.11 52.756 91.9846 52.564C91.9606 52.5152 91.9225 52.4726 91.8741 52.4405C91.8258 52.4083 91.7687 52.3876 91.7085 52.3804C91.6705 52.3817 91.6338 52.3925 91.6027 52.4115C91.5716 52.4305 91.5473 52.4569 91.5327 52.4875C91.5119 52.5314 91.4982 52.5776 91.492 52.6249C91.4791 52.7083 91.4809 52.793 91.4974 52.876C91.5242 53.015 91.5898 53.1461 91.6882 53.2578C91.8591 53.4466 92.0335 53.4882 92.0367 53.4759C92.0502 53.4575 91.9036 53.3897 91.7722 53.2066C91.6963 53.1011 91.6476 52.9824 91.6294 52.8587C91.6187 52.7871 91.6197 52.7145 91.6324 52.643C91.6437 52.5637 91.6764 52.4993 91.7104 52.5069C91.7527 52.5055 91.8259 52.564 91.8623 52.6265C91.9058 52.6902 91.9427 52.7572 91.9725 52.8266C92.0228 52.9457 92.0534 53.0705 92.0634 53.1972C92.0802 53.4155 92.0386 53.5523 92.0615 53.5573Z" fill="#263238"/>
<path d="M114.047 35.0858C114.047 35.0858 113.117 39.2564 111.572 39.3156C109.676 39.388 95.9551 39.5516 95.9551 39.5516L96.7919 52.9127L90.8032 52.7865L88.41 39.6207C88.1435 38.4391 88.3694 37.2132 89.0468 36.1645C89.063 36.1409 89.0794 36.1154 89.0959 36.0909C89.6078 35.3554 90.3272 34.7471 91.1852 34.3244C92.0431 33.9018 93.0109 33.6789 93.9957 33.6771L105.393 33.5272L114.047 35.0858Z" fill="#263238"/>
<path d="M102.37 18.3333L104.163 28.8303L102.942 33.5458L114.047 36.404C115.049 35.1499 115.089 31.1625 115.053 28.3428C114.992 23.3731 115.242 23.1319 114.997 21.3885C114.754 19.6657 114.332 18.524 113.279 17.976L110.266 16.6213C110.266 16.6213 108.558 17.5717 107.521 17.5198C107.521 17.5198 106.286 17.5644 105.602 16.9914C105.602 16.9914 103.108 17.6527 102.37 18.3333Z" fill="#E1261C"/>
<path d="M102.369 18.3335L98.6676 22.7939L103.708 25.3805L103.323 23.7589L102.369 18.3335Z" fill="#E1261C"/>
<path d="M93.5502 33.7433C93.5295 33.7488 93.508 33.7517 93.4863 33.7518L93.2989 33.7645C93.1975 33.77 93.0965 33.7803 92.9964 33.7952C92.8591 33.811 92.7229 33.8336 92.5885 33.8627C91.7285 34.0463 90.9344 34.4143 90.2779 34.9334C89.8259 35.2892 89.4373 35.702 89.125 36.1583C88.7669 36.6811 88.5448 37.2665 88.4745 37.8728C88.409 38.5457 88.4381 39.2232 88.5611 39.8899C88.6691 40.5875 88.827 41.3097 88.9137 42.0576C89.105 43.546 89.362 44.9566 89.6028 46.2381L90.2614 49.6414C90.4477 50.6104 90.5915 51.3958 90.6806 51.9401C90.7218 52.2041 90.7544 52.4131 90.7783 52.5671C90.787 52.633 90.7943 52.6865 90.7999 52.7307C90.8038 52.7493 90.8047 52.7682 90.8026 52.7871C90.794 52.7697 90.7883 52.7513 90.7856 52.7326L90.7505 52.5709C90.7199 52.4181 90.6786 52.2104 90.6264 51.9476C90.5149 51.3956 90.3564 50.6156 90.1637 49.6563C89.9669 48.6852 89.7337 47.5342 89.4751 46.2579C89.2273 44.9764 88.9658 43.5647 88.7733 42.0722C88.6872 41.3278 88.5323 40.6102 88.4243 39.9069C88.3014 39.2304 88.2749 38.5432 88.3452 37.861C88.4208 37.2396 88.6527 36.6406 89.0243 36.1068C89.3464 35.6442 89.7469 35.2269 90.212 34.8692C90.8843 34.3476 91.6983 33.9853 92.5763 33.8169C92.8955 33.753 93.2233 33.7282 93.5502 33.7433Z" fill="#455A64"/>
<path d="M97.8047 30.5018C97.8047 30.5018 102.088 31.7113 105.419 32.7674C105.985 32.9465 106.592 33.0006 107.187 32.9249C107.782 32.8492 108.347 32.646 108.831 32.3334C109.449 31.9338 109.907 31.3737 110.14 30.7329L112.421 24.4499L108.613 23.2828L106.067 28.9306L96.5924 27.8414" fill="#FFBE9D"/>
<path d="M92.1389 29.2064L92.103 28.9095C92.1264 28.6897 92.2311 28.4825 92.4013 28.3195C92.4931 28.2314 92.6019 28.1582 92.7228 28.1033L93.8449 27.5923C94.0145 27.5152 94.2084 27.4886 94.3969 27.5166L96.6956 27.8583L99.3307 28.1611L98.7857 30.7835L97.567 30.4295C97.567 30.4295 96.6827 30.8576 96.1387 30.7557C96.1387 30.7557 95.634 31.05 95.4269 30.835C95.4269 30.835 94.9737 31.1746 94.8061 31.1519C94.6385 31.1293 94.3011 30.9594 94.314 30.8576L94.327 30.7217C94.2402 30.7614 94.1429 30.7802 94.045 30.776C93.9472 30.7719 93.8524 30.745 93.7704 30.6981C93.6533 30.6192 93.5637 30.5134 93.5115 30.3925C93.3011 30.3728 93.1024 30.2979 92.9417 30.1775C92.8363 30.0414 92.7656 29.887 92.7347 29.7248C92.7347 29.7248 92.2231 29.5132 92.1389 29.2064Z" fill="#FFBE9D"/>
<path d="M93.8332 28.2556C93.8494 28.2542 93.8775 28.3628 93.8211 28.5294C93.7369 28.7382 93.5983 28.927 93.4162 29.0809C93.214 29.2624 93.0261 29.4113 92.9093 29.5343C92.7924 29.6572 92.7322 29.742 92.7128 29.7344C92.6933 29.7269 92.7241 29.6244 92.8296 29.4824C92.9737 29.3073 93.1364 29.1445 93.3155 28.9962C93.4846 28.8521 93.6246 28.6841 93.7296 28.4992C93.8019 28.3566 93.8111 28.2549 93.8332 28.2556Z" fill="#EB996E"/>
<path d="M94.2713 29.3046C94.23 29.5206 94.127 29.7241 93.972 29.8962C93.7487 30.1983 93.5036 30.3987 93.4758 30.3765C93.7146 30.0047 93.9803 29.6467 94.2713 29.3046Z" fill="#EB996E"/>
<path d="M94.8576 29.9986C94.8903 30.017 94.7944 30.1888 94.6441 30.3819C94.4937 30.5749 94.3458 30.7158 94.314 30.6962C94.2821 30.6766 94.3782 30.5048 94.5277 30.3127C94.6773 30.1206 94.8252 29.98 94.8576 29.9986Z" fill="#EB996E"/>
<path d="M94.7496 29.7227C94.7431 29.7376 94.6902 29.7393 94.6203 29.702C94.5751 29.6761 94.5365 29.6423 94.5071 29.6026C94.4777 29.563 94.4581 29.5184 94.4496 29.4717C94.441 29.4251 94.4437 29.3773 94.4575 29.3317C94.4713 29.286 94.4959 29.2433 94.5296 29.2064C94.5836 29.1519 94.6338 29.1391 94.6451 29.1514C94.6721 29.175 94.5582 29.2946 94.5879 29.4528C94.6176 29.6109 94.7653 29.693 94.7496 29.7227Z" fill="#EB996E"/>
<path d="M95.3901 30.4274C95.3831 30.4425 95.3391 30.4458 95.2821 30.4171C95.2444 30.3972 95.2117 30.371 95.1859 30.3398C95.1601 30.3087 95.1418 30.2733 95.132 30.2358C95.1176 30.1957 95.1167 30.1528 95.1294 30.1122C95.1421 30.0717 95.168 30.0352 95.2038 30.0071C95.2737 29.9665 95.3283 29.9948 95.3215 30.0102C95.292 30.0352 95.2713 30.0669 95.2617 30.1018C95.2522 30.1368 95.2542 30.1733 95.2675 30.2072C95.297 30.3274 95.4049 30.397 95.3901 30.4274Z" fill="#EB996E"/>
<path d="M94.3766 28.9718C94.3747 28.9871 94.3177 28.9996 94.2359 28.9668C94.1823 28.9439 94.1364 28.9092 94.1025 28.8663C94.0686 28.8233 94.048 28.7734 94.0426 28.7214C94.0372 28.6695 94.0471 28.6171 94.0715 28.5695C94.0959 28.5219 94.134 28.4806 94.182 28.4495C94.2554 28.4042 94.3139 28.4073 94.3191 28.4219C94.3345 28.4483 94.1676 28.5427 94.1841 28.7103C94.2022 28.8776 94.386 28.9434 94.3766 28.9718Z" fill="#EB996E"/>
<path d="M112.44 18.8325C111.571 18.5021 110.5 18.8354 109.871 19.4072C109.242 19.979 108.953 20.7363 108.683 21.4689C108.421 22.1752 107.771 23.6085 107.51 24.3146L112.447 26.1632C112.867 25.1658 113.26 24.1611 113.625 23.149C113.931 22.2994 114.217 21.3823 113.861 20.5376" fill="#E1261C"/>
<path d="M113.86 20.5378C113.882 20.5706 113.899 20.6054 113.911 20.6417C113.954 20.7438 113.986 20.8491 114.007 20.9562C114.082 21.3572 114.07 21.767 113.972 22.1641C113.82 22.7686 113.62 23.3632 113.375 23.9438C113.115 24.6187 112.825 25.3716 112.511 26.1825L112.489 26.241L112.417 26.2143L108.941 24.9163L107.478 24.3679L107.419 24.3457L107.438 24.2973C107.836 23.2698 108.284 22.3265 108.618 21.4582C108.763 21.0409 108.943 20.6333 109.155 20.2386C109.345 19.8888 109.606 19.5721 109.926 19.3038C110.415 18.8999 111.063 18.6767 111.736 18.681C111.918 18.6866 112.098 18.715 112.271 18.7652C112.33 18.7825 112.386 18.8048 112.441 18.8318C112.213 18.7647 111.975 18.728 111.735 18.723C111.085 18.735 110.463 18.9616 109.996 19.3573C109.69 19.6229 109.441 19.9341 109.261 20.2763C109.056 20.6691 108.882 21.0739 108.743 21.488C108.414 22.3635 107.972 23.3096 107.579 24.331L107.539 24.2602L109.003 24.8078L112.475 26.1114L112.381 26.1433C112.7 25.3355 112.997 24.5857 113.263 23.9133C113.514 23.3376 113.723 22.7485 113.888 22.1495C113.993 21.7598 114.018 21.3569 113.962 20.9595C113.915 20.6844 113.848 20.5404 113.86 20.5378Z" fill="#263238"/>
<path d="M107.534 31.0841C107.516 31.0874 107.478 30.8377 107.31 30.4167C107.21 30.1619 107.074 29.9189 106.906 29.6931C106.692 29.3948 106.396 29.1474 106.046 28.9733L106.06 28.9769L100.711 28.3689L97.4864 27.9885L96.08 27.8179L94.8583 27.6475L94.3255 27.572C94.1743 27.5502 94.0192 27.5747 93.8863 27.6413L93.1926 27.9342L92.7515 28.1152C92.7014 28.1387 92.6484 28.1573 92.5936 28.1707C92.6386 28.1402 92.6873 28.1141 92.7388 28.093L93.168 27.8915L93.8512 27.5797C93.998 27.5036 94.1701 27.4736 94.339 27.4948L94.8729 27.5616L96.0965 27.7169L97.5045 27.8764L100.73 28.2472L106.075 28.8844H106.084L106.089 28.8869C106.455 29.0716 106.761 29.3349 106.977 29.6518C107.144 29.8851 107.275 30.1363 107.368 30.399C107.43 30.5639 107.477 30.7325 107.509 30.9036C107.524 30.9628 107.533 31.0233 107.534 31.0841Z" fill="#EB996E"/>
<path d="M104.17 28.6734C104.133 28.5624 104.109 28.4487 104.096 28.3338C104.052 28.0926 103.995 27.7803 103.927 27.4051C103.774 26.6001 103.571 25.5282 103.347 24.3435C103.123 23.1588 102.919 22.0859 102.766 21.2809C102.7 20.905 102.644 20.5925 102.601 20.3511C102.575 20.2379 102.561 20.1229 102.559 20.0074C102.603 20.1165 102.635 20.2289 102.655 20.3433C102.709 20.5828 102.78 20.8932 102.864 21.2665C103.034 22.0474 103.257 23.1281 103.485 24.3241C103.713 25.5202 103.905 26.6051 104.025 27.3921C104.086 27.786 104.127 28.1058 104.15 28.3271C104.169 28.4418 104.176 28.5577 104.17 28.6734Z" fill="#263238"/>
</svg>
