<svg width="342" height="118" viewBox="0 0 342 118" fill="none" xmlns="http://www.w3.org/2000/svg">
<g opacity="0.05" clip-path="url(#clip0_1_8288)">
<path d="M342 0H0V118H342V0Z" fill="white"/>
<path d="M214.566 40.8701H186.443V59.8341H214.566V40.8701Z" fill="#AC5C45"/>
<path opacity="0.3" d="M214.566 40.8701H186.443V59.8341H214.566V40.8701Z" fill="black"/>
<path d="M207.52 59.7001C207.495 59.7001 207.474 55.4731 207.474 50.2601C207.474 45.0471 207.495 40.8201 207.52 40.8201C207.545 40.8201 207.566 45.0464 207.566 50.2601C207.566 55.4738 207.544 59.7001 207.52 59.7001Z" fill="#9A6847"/>
<path d="M212.181 55.5175H210.025V57.6483H212.181V55.5175Z" fill="#9A6847"/>
<path d="M198.217 40.9188H195.023V44.9653H198.217V40.9188Z" fill="#9A6847"/>
<path d="M198.217 55.7311H195.023V59.7775H198.217V55.7311Z" fill="#9A6847"/>
<path d="M214.321 40.8702C214.297 40.8735 214.273 40.8749 214.249 40.8745L214.037 40.8785L213.225 40.8858L210.238 40.8983L200.383 40.9099L190.526 40.8983L187.539 40.8858L186.727 40.8785L186.515 40.8745C186.491 40.8749 186.467 40.8735 186.443 40.8702C186.467 40.8673 186.491 40.866 186.515 40.8662L186.727 40.8624L187.539 40.8549L190.526 40.8421L200.383 40.8303L210.238 40.8421L213.225 40.8549L214.037 40.8624L214.249 40.8662C214.273 40.8659 214.297 40.8673 214.321 40.8702V40.8702Z" fill="#9A6847"/>
<path d="M237.976 40.847H209.854V59.8111H237.976V40.847Z" fill="#CA804E"/>
<path d="M230.931 59.6773C230.905 59.6773 230.885 55.4501 230.885 50.2373C230.885 45.0246 230.905 40.7961 230.931 40.7961C230.956 40.7961 230.976 45.0224 230.976 50.2373C230.976 55.4522 230.956 59.6773 230.931 59.6773Z" fill="#9A6847"/>
<path d="M235.591 55.4946H233.436V57.6255H235.591V55.4946Z" fill="#9A6847"/>
<path opacity="0.5" d="M221.627 40.8956H218.433V44.9421H221.627V40.8956Z" fill="#936445"/>
<path opacity="0.5" d="M221.627 55.7081H218.433V59.7546H221.627V55.7081Z" fill="#936445"/>
<path d="M237.731 40.8466C237.707 40.8499 237.683 40.8513 237.659 40.8509L237.448 40.8547L236.636 40.8622L233.649 40.8747L223.793 40.8863L213.936 40.8747L210.949 40.8622L210.137 40.8547L209.926 40.8509C209.902 40.8513 209.878 40.8499 209.854 40.8466C209.878 40.8437 209.902 40.8424 209.926 40.8426L210.137 40.8389L210.949 40.8313L213.936 40.8186L223.793 40.8068L233.649 40.8186L236.636 40.8313L237.448 40.8389L237.659 40.8426C237.683 40.8424 237.707 40.8437 237.731 40.8466V40.8466Z" fill="#9A6847"/>
<path d="M239.555 21.8827H211.432V40.8467H239.555V21.8827Z" fill="#CA804E"/>
<path d="M232.508 40.7126C232.483 40.7126 232.463 36.4856 232.463 31.2726C232.463 26.0596 232.483 21.8326 232.508 21.8326C232.534 21.8326 232.554 26.0589 232.554 31.2726C232.554 36.4864 232.534 40.7126 232.508 40.7126Z" fill="#9A6847"/>
<path d="M237.17 36.5299H235.014V38.6608H237.17V36.5299Z" fill="#9A6847"/>
<path d="M223.206 21.9314H220.012V25.9778H223.206V21.9314Z" fill="#9A6847"/>
<path d="M223.206 36.7435H220.012V40.79H223.206V36.7435Z" fill="#9A6847"/>
<path d="M239.309 21.8827C239.286 21.8857 239.261 21.8871 239.237 21.8867L239.026 21.8907L238.214 21.898L235.227 21.9105L225.372 21.9221L215.515 21.9105L212.528 21.898L211.715 21.8907L211.504 21.8867C211.48 21.8871 211.456 21.8857 211.432 21.8827C211.456 21.8794 211.48 21.878 211.504 21.8784L211.715 21.8746L212.528 21.8671L215.515 21.8543L225.372 21.8425L235.227 21.8543L238.214 21.8671L239.026 21.8746L239.237 21.8784C239.261 21.878 239.286 21.8794 239.309 21.8827V21.8827Z" fill="#9A6847"/>
<path d="M236.548 80.9497V78.728H184.588C184.404 78.728 184.227 78.7921 184.097 78.906C183.967 79.02 183.893 79.1746 183.893 79.3357V80.342C183.893 80.5032 183.967 80.6578 184.097 80.7718C184.227 80.8857 184.404 80.9497 184.588 80.9497H186.035V81.961C186.035 82.1196 185.963 82.2717 185.835 82.3839C185.706 82.496 185.532 82.559 185.351 82.559H184.577C184.488 82.559 184.399 82.5744 184.316 82.6045C184.233 82.6345 184.157 82.6785 184.094 82.734C184.03 82.7895 183.98 82.8555 183.945 82.928C183.911 83.0005 183.893 83.0783 183.893 83.1568V84.1827C183.893 84.2612 183.911 84.339 183.945 84.4115C183.98 84.4841 184.03 84.55 184.094 84.6055C184.157 84.661 184.233 84.705 184.316 84.7351C184.399 84.7651 184.488 84.7805 184.577 84.7805H236.548V82.559H224.436V80.9497H236.548ZM198.489 80.9497H201.603V82.559H198.489V80.9497ZM196.413 82.559H193.3V80.9497H196.413V82.559ZM203.678 80.9497H206.792V82.559H203.678V80.9497ZM208.868 80.9497H211.981V82.559H208.868V80.9497ZM214.057 80.9497H217.171V82.559H214.057V80.9497ZM188.111 80.9497H191.224V82.559H188.111V80.9497ZM222.36 82.559H219.246V80.9497H222.36V82.559Z" fill="#455A64"/>
<path d="M278.431 42.6898C278.516 42.6136 278.583 42.5234 278.627 42.4245C278.672 42.3255 278.693 42.2198 278.691 42.1135C278.688 42.0072 278.662 41.9023 278.613 41.8051C278.563 41.7079 278.492 41.6202 278.404 41.5471L269.639 34.305C269.463 34.162 269.232 34.0829 268.992 34.0837C268.752 34.0846 268.521 34.1653 268.347 34.3094V34.3094C268.165 34.4602 268.059 34.6678 268.053 34.8867C268.046 35.1056 268.139 35.3178 268.312 35.4767L271.808 38.6927L269.988 40.2227L269.038 39.572L262.428 46.1916L258.894 43.2199L254.635 54.1733L255.48 69.0479H265.278L264.594 51.38L271.158 43.1878L271.208 41.2396L273.089 39.5493L277.161 42.729C277.337 42.8666 277.568 42.9394 277.804 42.9321C278.04 42.9248 278.264 42.838 278.429 42.6898H278.431Z" fill="#263238"/>
<path d="M273.933 67.9754L279.893 53.5058L277.654 52.7131V49.9068L293.95 49.6859C294.333 49.6791 294.701 49.5506 294.985 49.3245C295.268 49.0983 295.448 48.7898 295.491 48.4563L297.884 29.856C297.937 29.4398 298.164 29.0554 298.521 28.7763C298.879 28.4971 299.341 28.3428 299.82 28.3428V28.3428C300.083 28.3428 300.342 28.3892 300.584 28.4793C300.826 28.5693 301.044 28.7011 301.226 28.8668C301.408 29.0324 301.549 29.2285 301.642 29.4432C301.735 29.658 301.778 29.8869 301.767 30.1163L300.866 49.2833L309.375 49.3234L309.665 52.8195L284.501 53.68L277.939 67.767L273.933 67.9754Z" fill="#455A64"/>
<path d="M277.682 67.6196L256.499 67.7671V69.0011L265.272 68.9025L279.251 68.8097L313.136 64.6257L309.295 51.8423H286.359C285.963 51.8371 285.57 51.9166 285.217 52.0738C284.863 52.2309 284.558 52.4611 284.329 52.7443L277.682 67.6196Z" fill="#263238"/>
<path d="M267.53 14.1692L252.131 57.1068L252.239 69.0484H257.138V57.1804L269.755 14.2836L303.938 14.1168L310.476 58.7979H314.334L306.38 14.4299C306.255 13.8491 305.902 13.3247 305.382 12.9474C304.861 12.5701 304.207 12.3635 303.531 12.3635H270.306C269.683 12.3635 269.076 12.5391 268.576 12.8644C268.076 13.1896 267.709 13.6472 267.53 14.1692V14.1692Z" fill="#455A64"/>
<path d="M249.367 82.8429V71.3734L252.239 69.0485L279.224 68.745L284.093 65.2897C284.999 64.6473 286.113 64.2705 287.277 64.2131L292.474 63.9566C292.474 63.9566 294.807 62.5512 297.056 61.1588C299.914 59.3887 303.33 58.4377 306.833 58.437H321.794C322.063 58.437 322.329 58.4833 322.578 58.5733C322.826 58.6632 323.052 58.7951 323.242 58.9614C323.433 59.1277 323.584 59.3251 323.687 59.5424C323.789 59.7597 323.842 59.9926 323.842 60.2278V82.8437L249.367 82.8429Z" fill="#E1261C"/>
<path d="M323.842 79.1467H249.103V82.9175H323.842V79.1467Z" fill="#263238"/>
<path d="M252.97 82.8011C252.944 84.399 253.46 85.9679 254.454 87.3093C255.447 88.6508 256.873 89.7045 258.552 90.3373C260.23 90.9701 262.085 91.1535 263.883 90.8644C265.681 90.5753 267.34 89.8266 268.651 88.713C269.962 87.5995 270.866 86.171 271.248 84.6083C271.631 83.0456 271.474 81.4188 270.799 79.9338C270.124 78.4487 268.961 77.1719 267.456 76.265C265.951 75.3581 264.172 74.8618 262.344 74.8387C259.894 74.8078 257.529 75.6294 255.771 77.1226C254.013 78.6158 253.006 80.6585 252.97 82.8011V82.8011Z" fill="#263238"/>
<path d="M252.973 82.7804C252.973 82.7872 252.973 82.7941 252.971 82.8012C252.948 84.9369 253.893 86.9938 255.6 88.5219C257.307 90.0501 259.636 90.9253 262.079 90.9561C264.522 90.9869 266.879 90.1709 268.635 88.6864C270.392 87.2019 271.405 85.1698 271.452 83.0343C271.452 83.0272 271.452 83.0204 271.452 83.0133L252.973 82.7804Z" fill="#263238"/>
<path d="M255.724 82.8357C255.706 83.9575 256.068 85.0589 256.765 86.0006C257.463 86.9424 258.464 87.6821 259.642 88.1264C260.821 88.5706 262.123 88.6994 263.385 88.4964C264.647 88.2934 265.812 87.7678 266.733 86.986C267.653 86.2042 268.287 85.2013 268.556 84.1042C268.824 83.0071 268.715 81.8651 268.241 80.8225C267.767 79.7799 266.95 78.8836 265.893 78.2469C264.837 77.6102 263.588 77.2618 262.305 77.2456C260.584 77.2239 258.924 77.8007 257.69 78.849C256.456 79.8974 255.749 81.3314 255.724 82.8357Z" fill="#FAFAFA"/>
<path d="M262.304 77.2456C260.584 77.2239 258.924 77.8007 257.69 78.849C256.455 79.8974 255.748 81.3314 255.723 82.8357L268.698 82.9993C268.723 81.495 268.063 80.0438 266.864 78.9647C265.665 77.8857 264.025 77.2673 262.304 77.2456V77.2456Z" fill="#E0E0E0"/>
<path d="M258.259 82.8678C258.248 83.5511 258.469 84.2221 258.894 84.7958C259.318 85.3695 259.928 85.8201 260.646 86.0907C261.364 86.3614 262.157 86.4398 262.926 86.3162C263.695 86.1925 264.405 85.8723 264.965 85.396C265.526 84.9198 265.912 84.3089 266.076 83.6406C266.239 82.9722 266.173 82.2765 265.884 81.6414C265.595 81.0063 265.098 80.4603 264.454 80.0724C263.81 79.6846 263.05 79.4723 262.268 79.4625C261.22 79.4493 260.209 79.8007 259.457 80.4393C258.705 81.0779 258.274 81.9514 258.259 82.8678V82.8678Z" fill="#263238"/>
<path d="M298.195 82.8011C298.168 84.399 298.684 85.9679 299.678 87.3093C300.671 88.6508 302.097 89.7045 303.776 90.3373C305.454 90.9701 307.309 91.1535 309.107 90.8644C310.905 90.5753 312.564 89.8266 313.875 88.713C315.186 87.5995 316.09 86.171 316.472 84.6083C316.855 83.0456 316.698 81.4188 316.023 79.9338C315.348 78.4487 314.185 77.1719 312.68 76.265C311.175 75.3581 309.396 74.8618 307.568 74.8387C305.118 74.8078 302.753 75.6294 300.995 77.1226C299.237 78.6158 298.23 80.6585 298.195 82.8011V82.8011Z" fill="#263238"/>
<path d="M298.197 82.7804C298.197 82.7872 298.195 82.7941 298.195 82.8012C298.172 84.9369 299.117 86.9938 300.824 88.5219C302.531 90.0501 304.86 90.9253 307.303 90.9561C309.746 90.9869 312.103 90.1709 313.859 88.6864C315.616 87.2019 316.628 85.1698 316.676 83.0343C316.676 83.0272 316.676 83.0204 316.676 83.0133L298.197 82.7804Z" fill="#263238"/>
<path d="M300.948 82.8357C300.93 83.9575 301.292 85.0589 301.99 86.0007C302.687 86.9424 303.688 87.6821 304.867 88.1264C306.045 88.5706 307.347 88.6994 308.61 88.4964C309.872 88.2933 311.036 87.7677 311.957 86.9859C312.877 86.2041 313.512 85.2012 313.78 84.1041C314.048 83.007 313.939 81.8649 313.465 80.8223C312.991 79.7797 312.174 78.8834 311.117 78.2468C310.061 77.6101 308.812 77.2617 307.529 77.2456C305.808 77.224 304.148 77.8008 302.914 78.8491C301.68 79.8974 300.973 81.3315 300.948 82.8357V82.8357Z" fill="#FAFAFA"/>
<path d="M307.529 77.2456C305.808 77.224 304.148 77.8008 302.914 78.8491C301.68 79.8975 300.973 81.3315 300.948 82.8357L313.923 82.9993C313.947 81.495 313.288 80.0437 312.089 78.9647C310.889 77.8856 309.249 77.2673 307.529 77.2456V77.2456Z" fill="#E0E0E0"/>
<path d="M303.483 82.8678C303.472 83.5511 303.693 84.2221 304.118 84.7958C304.543 85.3695 305.152 85.8201 305.87 86.0907C306.588 86.3614 307.382 86.4398 308.15 86.3162C308.919 86.1925 309.629 85.8723 310.189 85.396C310.75 84.9198 311.137 84.3089 311.3 83.6406C311.464 82.9722 311.397 82.2765 311.108 81.6414C310.819 81.0063 310.322 80.4603 309.678 80.0724C309.034 79.6846 308.274 79.4723 307.492 79.4625C306.973 79.456 306.458 79.5388 305.975 79.7064C305.493 79.874 305.053 80.123 304.681 80.4392C304.309 80.7554 304.011 81.1327 303.806 81.5493C303.6 81.966 303.491 82.414 303.483 82.8678V82.8678Z" fill="#263238"/>
<path d="M319.462 77.1668C319.445 77.1499 319.43 77.1311 319.417 77.1109L319.298 76.941L319.109 76.6632C319.028 76.535 318.938 76.4109 318.839 76.2917C318.247 75.5114 317.547 74.7976 316.756 74.1666C316.517 73.9558 316.229 73.7727 315.946 73.564C315.658 73.362 315.338 73.1744 315.013 72.974C314.67 72.7973 314.333 72.5887 313.951 72.4261C313.762 72.3411 313.576 72.2488 313.379 72.1665L312.774 71.9305C310.986 71.2577 309.046 70.9502 307.101 71.0313C305.157 71.1124 303.259 71.5801 301.552 72.3987L300.975 72.6819C300.789 72.7808 300.612 72.8881 300.434 72.9887C300.072 73.1824 299.759 73.4182 299.437 73.6226C299.135 73.8494 298.837 74.0627 298.573 74.2876C298.315 74.5189 298.048 74.7252 297.834 74.9548C297.114 75.6489 296.495 76.4178 295.991 77.244C295.906 77.3708 295.829 77.5017 295.762 77.6362L295.604 77.9286C295.563 78.002 295.53 78.0608 295.504 78.1075C295.512 78.1123 295.518 78.1195 295.52 78.1278C295.523 78.136 295.521 78.1448 295.517 78.1523C295.512 78.1598 295.504 78.1655 295.495 78.1683C295.486 78.1711 295.476 78.1708 295.467 78.1674C295.458 78.1641 295.451 78.1579 295.447 78.1501C295.443 78.1424 295.442 78.1336 295.445 78.1254C295.448 78.1173 295.454 78.1105 295.463 78.1062C295.471 78.102 295.481 78.1007 295.491 78.1026L295.578 77.9187L295.724 77.6206C295.787 77.4839 295.86 77.3507 295.942 77.2218C296.431 76.382 297.042 75.6007 297.759 74.8972C297.973 74.664 298.24 74.4542 298.498 74.2194C298.763 73.991 299.062 73.7739 299.364 73.5438C299.688 73.3356 300.001 73.0954 300.366 72.8992C300.545 72.7973 300.723 72.6883 300.91 72.5877L301.491 72.2984C303.213 71.4657 305.13 70.9901 307.095 70.9082C309.061 70.8264 311.021 71.1405 312.825 71.8264L313.435 72.0662C313.633 72.1504 313.822 72.2441 314.011 72.3307C314.395 72.4959 314.734 72.7083 315.078 72.8889C315.404 73.0928 315.726 73.2839 316.014 73.4892C316.296 73.7016 316.585 73.8883 316.824 74.1028C317.615 74.7434 318.308 75.4704 318.886 76.2658C318.982 76.3873 319.069 76.5139 319.147 76.6448L319.325 76.9292L319.433 77.1052C319.445 77.1247 319.455 77.1454 319.462 77.1668V77.1668Z" fill="#263238"/>
<path d="M274.278 78.6535C274.263 78.6333 274.251 78.6117 274.242 78.5891C274.218 78.5393 274.188 78.4758 274.151 78.3962C274.11 78.3088 274.062 78.204 274.005 78.0819L273.789 77.6599C273.317 76.7685 272.731 75.9268 272.041 75.1512C271.035 73.9893 269.75 73.0332 268.278 72.3495C267.396 71.9734 266.461 71.7012 265.498 71.54C264.465 71.3547 263.412 71.2708 262.358 71.2898C261.303 71.3034 260.254 71.4214 259.231 71.6417C258.279 71.8505 257.361 72.164 256.499 72.5746C255.027 73.2592 253.711 74.1732 252.615 75.2716C251.882 76.0161 251.244 76.8281 250.712 77.6932C250.523 78 250.382 78.2402 250.292 78.4057C250.247 78.4826 250.211 78.544 250.184 78.5919C250.192 78.597 250.198 78.6047 250.2 78.6134C250.203 78.6222 250.201 78.6313 250.196 78.6391C250.191 78.6469 250.183 78.6528 250.173 78.6555C250.163 78.6583 250.153 78.6578 250.143 78.654C250.134 78.6503 250.127 78.6436 250.123 78.6354C250.119 78.6271 250.118 78.6178 250.122 78.6094C250.125 78.6009 250.132 78.5939 250.141 78.5897C250.15 78.5855 250.161 78.5844 250.171 78.5867C250.195 78.5374 250.227 78.4744 250.266 78.3953C250.347 78.2261 250.482 77.9821 250.664 77.6708C251.18 76.7922 251.81 75.9682 252.541 75.2147C253.635 74.0991 254.957 73.1702 256.438 72.4752C257.308 72.0571 258.236 71.7378 259.198 71.5249C260.232 71.3007 261.291 71.1806 262.356 71.1671C263.42 71.1478 264.484 71.2333 265.526 71.422C266.501 71.5868 267.446 71.8646 268.337 72.248C269.822 72.9433 271.113 73.9163 272.119 75.0977C272.806 75.8822 273.383 76.7358 273.838 77.6401C273.915 77.7998 273.983 77.9423 274.044 78.0677C274.096 78.1919 274.14 78.2984 274.177 78.3873L274.256 78.5846C274.266 78.6068 274.273 78.6299 274.278 78.6535V78.6535Z" fill="#263238"/>
<path d="M249.348 78.728H208.377V82.9173H249.348V78.728Z" fill="#263238"/>
<path d="M248.239 80.5054C248.239 80.7117 248.169 80.9135 248.037 81.085C247.906 81.2566 247.72 81.3904 247.502 81.4693C247.284 81.5483 247.044 81.569 246.812 81.5287C246.581 81.4884 246.368 81.3891 246.201 81.2432C246.034 81.0972 245.921 80.9113 245.875 80.7089C245.829 80.5066 245.852 80.2968 245.943 80.1061C246.033 79.9155 246.186 79.7525 246.382 79.6379C246.578 79.5232 246.809 79.462 247.045 79.462C247.202 79.462 247.357 79.489 247.502 79.5414C247.647 79.5938 247.778 79.6707 247.889 79.7676C248 79.8644 248.088 79.9795 248.148 80.1061C248.208 80.2327 248.239 80.3684 248.239 80.5054Z" fill="#455A64"/>
<path d="M248.811 12.0342H245.391V71.4316H248.811V12.0342Z" fill="#455A64"/>
<path d="M297.446 74.816C297.446 74.85 291.681 74.8776 284.57 74.8776C277.46 74.8776 271.695 74.85 271.695 74.816C271.695 74.782 277.458 74.7546 284.57 74.7546C291.683 74.7546 297.446 74.783 297.446 74.816Z" fill="#263238"/>
<path d="M292.198 73.9261C292.159 73.9261 292.128 71.7339 292.128 69.0303C292.128 66.3267 292.159 64.134 292.198 64.134C292.238 64.134 292.269 66.3258 292.269 69.0303C292.269 71.7349 292.238 73.9261 292.198 73.9261Z" fill="#263238"/>
<path d="M252.002 10.6727H245.022V13.3962H252.002V10.6727Z" fill="#263238"/>
<path d="M249.348 70.9419H244.854V78.7823H249.348V70.9419Z" fill="#263238"/>
<path d="M238.913 59.8188H210.791V78.7829H238.913V59.8188Z" fill="#AC5C45"/>
<path opacity="0.3" d="M238.913 59.8188H210.791V78.7829H238.913V59.8188Z" fill="black"/>
<path d="M231.868 78.6488C231.842 78.6488 231.822 74.4218 231.822 69.2088C231.822 63.9958 231.842 59.7688 231.868 59.7688C231.893 59.7688 231.913 63.9949 231.913 69.2088C231.913 74.4227 231.892 78.6488 231.868 78.6488Z" fill="#9A6847"/>
<path d="M236.529 74.4662H234.373V76.597H236.529V74.4662Z" fill="#9A6847"/>
<path d="M222.565 59.8676H219.37V63.914H222.565V59.8676Z" fill="#9A6847"/>
<path d="M222.565 74.6801H219.37V78.7265H222.565V74.6801Z" fill="#9A6847"/>
<path d="M238.666 59.8184C238.643 59.8217 238.618 59.823 238.594 59.8225L238.383 59.8265L237.571 59.834L234.584 59.8465L224.728 59.8579L214.871 59.8465L211.884 59.8338L211.072 59.8265L210.861 59.8225C210.837 59.823 210.813 59.8217 210.789 59.8184C210.813 59.8154 210.837 59.814 210.861 59.8144L211.072 59.8104L211.884 59.8031L214.871 59.7904L224.728 59.7786L234.584 59.7904L237.571 59.8031L238.383 59.8104L238.594 59.8144C238.618 59.814 238.642 59.8154 238.666 59.8184V59.8184Z" fill="#9A6847"/>
<path d="M209.417 59.8187H181.295V78.7828H209.417V59.8187Z" fill="#CA804E"/>
<path d="M202.372 78.6487C202.346 78.6487 202.326 74.4217 202.326 69.2087C202.326 63.9957 202.346 59.7687 202.372 59.7687C202.397 59.7687 202.417 63.9947 202.417 69.2087C202.417 74.4226 202.397 78.6487 202.372 78.6487Z" fill="#9A6847"/>
<path d="M207.032 74.4662H204.876V76.597H207.032V74.4662Z" fill="#9A6847"/>
<path opacity="0.5" d="M193.068 59.8676H189.874V63.914H193.068V59.8676Z" fill="#936445"/>
<path opacity="0.5" d="M193.068 74.6799H189.874V78.7264H193.068V74.6799Z" fill="#936445"/>
<path d="M209.172 59.8184C209.148 59.8217 209.124 59.823 209.1 59.8225L208.889 59.8265L208.077 59.834L205.09 59.8465L195.234 59.8579L185.377 59.8465L182.39 59.8338L181.578 59.8265L181.367 59.8225C181.343 59.823 181.319 59.8217 181.295 59.8184C181.319 59.8154 181.343 59.814 181.367 59.8144L181.578 59.8104L182.39 59.8031L185.377 59.7904L195.234 59.7786L205.09 59.7904L208.077 59.8031L208.889 59.8104L209.1 59.8144C209.124 59.814 209.148 59.8154 209.172 59.8184V59.8184Z" fill="#9A6847"/>
<path d="M325.023 64.9739C326.473 65.2788 327.689 66.5662 327.665 67.8703C327.635 68.524 327.36 69.151 326.883 69.6549C326.405 70.1587 325.752 70.5117 325.023 70.6594" fill="#E1261C"/>
<g opacity="0.6">
<path opacity="0.6" d="M325.023 64.9739C326.473 65.2788 327.689 66.5662 327.665 67.8703C327.635 68.524 327.36 69.151 326.883 69.6549C326.405 70.1587 325.752 70.5117 325.023 70.6594" fill="white"/>
</g>
<path d="M325.082 64.2412H323.842V71.4187H325.082V64.2412Z" fill="#E1261C"/>
<path opacity="0.3" d="M325.082 64.2412H323.842V71.4187H325.082V64.2412Z" fill="black"/>
<path d="M266.132 35.4831C265.983 35.3823 265.88 35.2378 265.843 35.076C265.806 34.9143 265.837 34.7462 265.93 34.6028C266.136 34.2849 266.381 33.9125 266.491 33.7577C266.627 33.5736 266.75 33.3826 266.86 33.1858C266.895 33.0686 266.966 32.9621 267.066 32.8786C267.166 32.7951 267.292 32.738 267.427 32.7138C267.757 32.6763 268.092 32.6849 268.42 32.7393L271.796 33.3765L273.368 34.0579L271.837 35.2379L270.988 35.0113C270.733 35.2062 269.731 35.3077 269.392 35.2709C268.957 35.2237 268.086 34.9771 267.592 35.0585L267.116 35.1158L267.343 35.2827C267.757 35.2556 268.172 35.3297 268.541 35.4968C268.601 35.5312 268.647 35.5812 268.673 35.6397C268.698 35.6982 268.702 35.7623 268.684 35.8229C268.666 35.8835 268.626 35.9375 268.571 35.9774C268.516 36.0172 268.447 36.0409 268.376 36.045L267.266 36.1082C266.965 35.9846 266.677 35.8405 266.402 35.6773C266.316 35.6086 266.226 35.5438 266.132 35.4831V35.4831Z" fill="#FFBE9D"/>
<path d="M267.116 35.1158C267.062 35.15 266.999 35.1725 266.933 35.1816C266.754 35.2263 266.565 35.2242 266.387 35.1757C266.26 35.1398 266.147 35.0717 266.063 34.9799C266.016 34.9241 265.983 34.8604 265.965 34.7927C265.948 34.725 265.947 34.6548 265.962 34.5867C265.982 34.5092 266.032 34.4398 266.102 34.3896C266.172 34.3444 266.251 34.3103 266.335 34.2889C266.496 34.2418 266.66 34.2043 266.827 34.1765C267.145 34.1234 267.467 34.0874 267.79 34.0687C267.94 34.0599 268.081 34.0538 268.216 34.0547C268.248 34.0547 268.285 34.0564 268.318 34.0588C268.345 34.0599 268.372 34.0589 268.399 34.0559C268.455 34.0491 268.511 34.0398 268.566 34.0281C268.995 33.9337 269.258 33.8471 269.265 33.8657C269.055 33.9767 268.828 34.0597 268.59 34.1121C268.532 34.1275 268.473 34.1401 268.414 34.1499C268.379 34.1552 268.343 34.1575 268.308 34.1567C268.277 34.1567 268.249 34.1567 268.216 34.1567C268.087 34.16 267.946 34.1699 267.8 34.1817C267.508 34.2053 267.185 34.2405 266.853 34.2971C266.693 34.3237 266.535 34.3589 266.379 34.4026C266.222 34.4425 266.119 34.5034 266.087 34.6136C266.075 34.6662 266.075 34.7204 266.087 34.7731C266.098 34.8258 266.122 34.8759 266.157 34.9204C266.224 34.9993 266.315 35.0599 266.42 35.095C266.58 35.1455 266.753 35.1593 266.921 35.1354C267.045 35.1215 267.113 35.1057 267.116 35.1158Z" fill="#EB996E"/>
<path d="M267.536 33.578C267.573 33.5695 267.638 33.7255 267.572 33.9121C267.506 34.0988 267.353 34.1953 267.329 34.1717C267.3 34.1481 267.386 34.032 267.437 33.8765C267.489 33.721 267.496 33.5834 267.536 33.578Z" fill="#EB996E"/>
<path d="M268.064 33.7643C268.102 33.7676 268.113 33.8823 268.02 33.9883C267.926 34.0942 267.797 34.1148 267.784 34.0827C267.77 34.0506 267.84 33.9921 267.908 33.9125C267.976 33.833 268.025 33.7589 268.064 33.7643Z" fill="#EB996E"/>
<path d="M281.358 33.1058C281.824 32.9373 278.691 35.7516 278.691 35.7516L272.903 33.8659L270.861 34.9631L277.084 38.7934C277.724 39.1869 278.503 39.3675 279.282 39.3026C280.061 39.2376 280.787 38.9315 281.33 38.4394L285.003 34.7273L281.358 33.1058Z" fill="#FFBE9D"/>
<path d="M284.752 21.8247C283.945 21.6895 283.439 21.4707 283.418 21.1996C283.375 20.6388 285.413 20.0611 287.971 19.9096C290.529 19.7581 292.638 20.0899 292.682 20.6509C292.702 20.9213 292.24 21.1956 291.467 21.424" fill="#E1261C"/>
<g opacity="0.4">
<path opacity="0.4" d="M285.193 21.7776C284.478 21.6575 284.012 21.4649 284.011 21.2235C284.009 20.5516 285.779 20.2146 288.046 20.0801C290.313 19.9455 292.183 20.2398 292.221 20.7371C292.24 20.9769 291.83 21.2197 291.146 21.4215" fill="black"/>
</g>
<path d="M284.035 20.898C284.035 20.898 284.513 18.4783 284.561 18.3591C284.609 18.2399 285.304 17.1515 287.136 16.7437L288.669 16.6531C288.669 16.6531 290.892 17.1362 291.326 17.5761C291.759 18.016 292.104 20.2559 292.104 20.2559L287.742 19.6937L284.866 20.4902L284.035 20.898Z" fill="#E1261C"/>
<path d="M287.616 16.4413L286.958 16.4802C286.804 16.6579 286.728 16.8779 286.743 17.1004C286.745 17.5188 286.858 20.3836 286.858 20.3836L288.775 20.1934L288.44 16.6664L289.102 16.7544L289.066 16.5557L288.879 16.3875L287.616 16.4413Z" fill="#E1261C"/>
<path d="M291.622 29.6295L286.925 29.7192C286.865 29.2863 286.911 26.5839 286.911 26.5839C286.911 26.5839 285.122 26.4482 284.98 24.9022C284.839 23.3561 284.868 20.2515 284.868 20.2515L284.887 20.1147C286.876 19.2235 289.244 19.0142 291.103 20.0986L291.378 20.2596L291.622 29.6295Z" fill="#FFBE9D"/>
<path d="M286.91 26.584C287.727 26.5338 288.511 26.2799 289.168 25.8524C289.168 25.8524 288.681 27.0213 286.904 26.9864L286.91 26.584Z" fill="#EB996E"/>
<path d="M291.284 21.8752C291.314 21.8618 292.476 21.4887 292.519 22.5488C292.563 23.6089 291.336 23.4281 291.331 23.3984C291.327 23.3686 291.284 21.8752 291.284 21.8752Z" fill="#FFBE9D"/>
<path d="M291.687 22.9847C291.692 22.9812 291.709 22.997 291.745 23.01C291.796 23.0274 291.852 23.0267 291.903 23.0081C291.979 22.9622 292.04 22.8993 292.08 22.8259C292.12 22.7525 292.136 22.6712 292.128 22.5904C292.127 22.4994 292.103 22.4097 292.058 22.328C292.045 22.2951 292.024 22.2655 291.995 22.2416C291.966 22.2178 291.931 22.2004 291.893 22.1911C291.869 22.1863 291.843 22.1891 291.821 22.1991C291.798 22.209 291.781 22.2255 291.771 22.2456C291.756 22.2758 291.764 22.2968 291.758 22.2987C291.752 22.3006 291.731 22.2817 291.739 22.2378C291.745 22.2113 291.761 22.1873 291.784 22.1698C291.817 22.1468 291.858 22.1358 291.9 22.1392C291.95 22.1462 291.997 22.1643 292.037 22.1919C292.077 22.2195 292.108 22.2555 292.127 22.2966C292.182 22.3869 292.212 22.4875 292.213 22.5899C292.222 22.6841 292.2 22.7787 292.149 22.8618C292.097 22.945 292.019 23.0129 291.923 23.0572C291.891 23.0665 291.857 23.0694 291.823 23.0656C291.789 23.0618 291.757 23.0514 291.729 23.0352C291.69 23.0102 291.682 22.9866 291.687 22.9847Z" fill="#EB996E"/>
<path d="M285.455 22.1602C285.459 22.2178 285.488 22.2719 285.537 22.3109C285.586 22.3499 285.65 22.3707 285.716 22.3688C285.748 22.369 285.78 22.3637 285.81 22.353C285.84 22.3422 285.867 22.3264 285.89 22.3064C285.913 22.2864 285.931 22.2627 285.943 22.2365C285.955 22.2103 285.962 22.1823 285.961 22.154C285.957 22.0964 285.928 22.0424 285.879 22.0034C285.831 21.9645 285.766 21.9437 285.7 21.9454C285.668 21.9452 285.636 21.9505 285.606 21.9613C285.576 21.972 285.549 21.9878 285.526 22.0078C285.503 22.0278 285.485 22.0516 285.473 22.0777C285.461 22.1039 285.455 22.1319 285.455 22.1602V22.1602Z" fill="#263238"/>
<path d="M285.373 21.9424C285.406 21.9693 285.588 21.834 285.86 21.8185C286.132 21.8029 286.341 21.9103 286.368 21.8793C286.381 21.8657 286.345 21.8154 286.254 21.7654C286.131 21.7009 285.988 21.6715 285.845 21.6811C285.703 21.6889 285.569 21.7359 285.46 21.8154C285.38 21.876 285.356 21.9299 285.373 21.9424Z" fill="#263238"/>
<path d="M288.134 22.0733C288.138 22.1309 288.167 22.185 288.216 22.224C288.265 22.2629 288.329 22.2837 288.395 22.2819C288.427 22.2821 288.459 22.2768 288.489 22.266C288.519 22.2553 288.546 22.2395 288.569 22.2195C288.592 22.1995 288.61 22.1757 288.622 22.1496C288.634 22.1234 288.641 22.0954 288.64 22.0671C288.636 22.0095 288.607 21.9555 288.558 21.9165C288.51 21.8776 288.445 21.8567 288.379 21.8585C288.347 21.8582 288.315 21.8636 288.285 21.8743C288.255 21.885 288.228 21.9008 288.205 21.9208C288.182 21.9408 288.164 21.9646 288.152 21.9908C288.14 22.0169 288.134 22.045 288.134 22.0733V22.0733Z" fill="#263238"/>
<path d="M288.05 21.828C288.084 21.8549 288.266 21.7197 288.538 21.7041C288.809 21.6885 289.018 21.7959 289.045 21.765C289.059 21.7513 289.023 21.701 288.932 21.651C288.809 21.5865 288.666 21.5571 288.523 21.5667C288.381 21.5746 288.246 21.6216 288.137 21.701C288.058 21.7621 288.034 21.816 288.05 21.828Z" fill="#263238"/>
<path d="M287.201 23.6498C287.054 23.6189 286.904 23.6042 286.753 23.6061C286.684 23.604 286.617 23.596 286.602 23.5552C286.591 23.4928 286.603 23.4291 286.634 23.3725C286.688 23.2218 286.745 23.0636 286.804 22.8979C286.964 22.495 287.087 22.0816 287.172 21.6615C286.975 22.0521 286.814 22.4559 286.691 22.8691C286.635 23.0357 286.581 23.1943 286.529 23.3461C286.491 23.4218 286.485 23.5069 286.511 23.5863C286.523 23.6071 286.54 23.6253 286.561 23.6395C286.582 23.6538 286.607 23.6637 286.633 23.6684C286.672 23.6753 286.712 23.6777 286.752 23.6758C286.902 23.6838 287.053 23.675 287.201 23.6498V23.6498Z" fill="#263238"/>
<path d="M288.012 23.7668C287.968 23.7668 287.987 24.0264 287.749 24.2235C287.51 24.4205 287.194 24.4123 287.194 24.4479C287.191 24.4644 287.268 24.4939 287.401 24.4892C287.574 24.4811 287.739 24.4199 287.865 24.3162C287.987 24.2167 288.059 24.0799 288.067 23.9346C288.07 23.8261 288.032 23.764 288.012 23.7668Z" fill="#263238"/>
<path d="M287.907 20.9005C287.939 20.9635 288.208 20.9167 288.53 20.9316C288.852 20.9406 289.115 21.0071 289.153 20.9465C289.17 20.9177 289.12 20.8596 289.011 20.8032C288.866 20.7346 288.706 20.6958 288.541 20.6897C288.377 20.6836 288.213 20.7104 288.062 20.7681C287.948 20.8162 287.893 20.8705 287.907 20.9005Z" fill="#263238"/>
<path d="M285.419 21.2482C285.471 21.2994 285.654 21.2321 285.878 21.2163C286.102 21.1927 286.297 21.2279 286.337 21.1691C286.354 21.1406 286.319 21.0884 286.232 21.0422C286.116 20.9875 285.983 20.9645 285.851 20.9759C285.719 20.9872 285.594 21.0326 285.492 21.1061C285.419 21.1658 285.397 21.2232 285.419 21.2482Z" fill="#263238"/>
<path d="M291.407 20.8682C291.393 21.3001 291.442 21.7339 291.428 22.1662C291.412 22.3298 291.365 22.4898 291.288 22.6396C291.262 22.7262 291.206 22.8036 291.128 22.8609C291.049 22.9182 290.952 22.9525 290.85 22.9589C290.748 22.9653 290.647 22.9436 290.56 22.8968C290.472 22.85 290.404 22.7804 290.365 22.6979C290.268 22.5276 290.217 22.3405 290.214 22.1504C290.212 21.9607 290.175 21.7725 290.104 21.593C289.99 21.4058 289.853 21.2297 289.696 21.0676C289.618 20.986 289.563 20.8896 289.535 20.786C289.507 20.6825 289.506 20.5747 289.534 20.471C290.188 20.4531 290.834 20.5905 291.405 20.8687" fill="#263238"/>
<path d="M284.869 21.0613L284.839 20.1936L287.674 19.2689L291.357 19.9854L291.429 20.9157C289.301 20.2319 286.955 20.284 284.869 21.0613V21.0613Z" fill="#455A64"/>
<path d="M285.006 19.9995L284.887 20.1149L283.89 20.7481C285.195 20.3643 286.55 20.1247 287.923 20.0349C289.429 20.0038 290.935 20.127 292.408 20.4019L290.982 19.7621C290.75 19.5733 290.478 19.4269 290.181 19.3317C289.884 19.2364 289.568 19.1942 289.252 19.2075L286.651 19.317C286.339 19.3302 286.033 19.3973 285.75 19.5144C285.468 19.6316 285.215 19.7964 285.006 19.9995V19.9995Z" fill="#E1261C"/>
<path d="M286.815 19.2459C286.864 18.8434 286.877 18.4382 286.853 18.034C286.866 17.6295 286.842 17.2247 286.781 16.8234C286.732 17.2258 286.72 17.631 286.743 18.0352C286.731 18.4398 286.755 18.8446 286.815 19.2459V19.2459Z" fill="#263238"/>
<path d="M289.102 16.7546C288.942 16.7038 288.775 16.672 288.605 16.6602C288.552 16.664 288.503 16.6847 288.467 16.7184C288.431 16.752 288.41 16.7962 288.409 16.8423C288.415 16.9245 288.421 17.0095 288.428 17.0975C288.444 17.2792 288.461 17.472 288.479 17.6745C288.519 18.0837 288.56 18.4533 288.597 18.7216C288.606 18.8676 288.633 19.0124 288.678 19.1533C288.695 19.0081 288.694 18.8618 288.674 18.7169C288.658 18.4481 288.628 18.0771 288.589 17.6676C288.568 17.4654 288.547 17.2726 288.528 17.0911C288.519 17.0053 288.51 16.9225 288.502 16.8426C288.501 16.8147 288.512 16.7876 288.533 16.7663C288.554 16.7451 288.583 16.7312 288.614 16.7272C288.776 16.7494 288.939 16.7586 289.102 16.7546V16.7546Z" fill="#263238"/>
<path d="M283.825 20.7408C283.829 20.7472 283.943 20.6903 284.16 20.6079C284.268 20.5652 284.403 20.5161 284.552 20.4439C284.728 20.3649 284.878 20.2477 284.987 20.1036C285.115 19.9384 285.122 19.7191 285.265 19.5546C285.397 19.3798 285.681 19.364 285.955 19.3385C286.511 19.2856 287.125 19.2441 287.771 19.2217C288.417 19.1992 289.033 19.194 289.593 19.1981C289.85 19.1779 290.106 19.2363 290.318 19.3633C290.404 19.4329 290.483 19.5093 290.554 19.5915L290.664 19.7069L290.72 19.7611C290.743 19.7803 290.77 19.7955 290.8 19.806C291.199 19.9476 291.525 20.0326 291.748 20.1057C291.862 20.1461 291.978 20.1811 292.096 20.2105C292.071 20.1931 292.043 20.179 292.013 20.1687C291.957 20.1451 291.872 20.1111 291.763 20.071C291.547 19.9879 291.216 19.8898 290.833 19.7451C290.813 19.7378 290.795 19.7275 290.779 19.7147L290.725 19.6611L290.619 19.5459C290.547 19.4586 290.466 19.3774 290.377 19.3033C290.15 19.1609 289.874 19.0927 289.595 19.1107C289.033 19.1013 288.415 19.1029 287.767 19.1263C287.118 19.1497 286.502 19.1931 285.943 19.2512C285.805 19.2616 285.667 19.281 285.532 19.309C285.395 19.3371 285.274 19.408 285.192 19.5084C285.036 19.7026 285.035 19.9219 284.922 20.0682C284.823 20.2059 284.685 20.3195 284.523 20.3986C284.38 20.4732 284.248 20.5274 284.143 20.5751C284.037 20.6228 283.956 20.6622 283.903 20.6915C283.85 20.7207 283.823 20.7391 283.825 20.7408Z" fill="#263238"/>
<path d="M284.222 20.8523C284.249 20.8434 284.275 20.8306 284.297 20.8146C284.363 20.7737 284.432 20.7371 284.504 20.7051C284.77 20.5874 285.05 20.4946 285.338 20.4285C286.292 20.2089 287.277 20.1086 288.264 20.1306C288.845 20.1325 289.397 20.1222 289.895 20.1495C290.391 20.1819 290.843 20.2366 291.214 20.2911C291.4 20.3202 291.567 20.3527 291.712 20.3855C291.836 20.4058 291.953 20.4499 292.055 20.5146C292.096 20.544 292.129 20.5813 292.151 20.6235C292.173 20.6658 292.183 20.712 292.182 20.7584C292.184 20.7584 292.199 20.7348 292.196 20.6831C292.187 20.6079 292.147 20.5383 292.083 20.4872C291.98 20.4127 291.859 20.3603 291.729 20.3343C291.584 20.2951 291.416 20.2576 291.229 20.2241C290.79 20.149 290.347 20.0944 289.902 20.0608C289.397 20.0282 288.843 20.0372 288.264 20.0344C287.268 20.0108 286.274 20.1215 285.316 20.3626C285.025 20.4356 284.746 20.5395 284.483 20.6718C284.412 20.7079 284.345 20.7503 284.283 20.7983C284.241 20.8318 284.22 20.85 284.222 20.8523Z" fill="#263238"/>
<path d="M287.24 16.5387C287.33 16.5458 287.421 16.5463 287.511 16.5404L288.165 16.5168C288.419 16.5107 288.652 16.4821 288.814 16.4965C288.858 16.4987 288.901 16.5088 288.94 16.5262C288.98 16.5437 289.014 16.568 289.042 16.5977C289.036 16.5763 289.022 16.5571 289.002 16.5428C288.951 16.5022 288.887 16.4767 288.819 16.4696C288.6 16.4594 288.381 16.4625 288.162 16.4788L287.51 16.5125C287.419 16.515 287.329 16.5237 287.24 16.5387V16.5387Z" fill="#FAFAFA"/>
<path d="M287.128 19.3403C287.174 19.3444 287.22 19.3452 287.266 19.3427L287.639 19.3379C287.954 19.3342 288.389 19.3311 288.87 19.3379L289.547 19.3526C289.731 19.3509 289.914 19.3635 290.095 19.3903C290.215 19.4119 290.323 19.4689 290.402 19.5518C290.428 19.5838 290.45 19.6183 290.467 19.6547C290.462 19.6141 290.444 19.5755 290.415 19.543C290.339 19.4526 290.228 19.3891 290.103 19.3641C289.92 19.3328 289.735 19.317 289.549 19.3169C289.34 19.3087 289.111 19.3025 288.87 19.2992C288.389 19.2924 287.953 19.2992 287.638 19.3106L287.265 19.3276C287.219 19.3285 287.173 19.3328 287.128 19.3403V19.3403Z" fill="#FAFAFA"/>
<path d="M288.551 18.92C288.552 18.8912 288.549 18.8624 288.542 18.8341C288.531 18.7581 288.519 18.6814 288.507 18.6026C288.476 18.4069 288.437 18.1367 288.403 17.8372C288.37 17.5378 288.349 17.2657 288.336 17.0688C288.33 16.9893 288.325 16.9121 288.319 16.8354C288.32 16.8066 288.316 16.7779 288.309 16.7498C288.303 16.7781 288.301 16.8071 288.302 16.8359C288.302 16.8911 288.302 16.9711 288.305 17.0698C288.31 17.2675 288.326 17.5406 288.359 17.841C288.391 18.1414 288.437 18.4117 288.475 18.6066C288.494 18.7041 288.511 18.7827 288.525 18.8367C288.53 18.8652 288.538 18.8932 288.551 18.92V18.92Z" fill="#FAFAFA"/>
<path d="M290.796 19.8584C290.823 19.8724 290.852 19.8836 290.882 19.8919L291.119 19.97L291.907 20.2138C292.053 20.2526 292.195 20.3004 292.333 20.3568C292.444 20.402 292.533 20.4798 292.586 20.5765C292.62 20.6421 292.628 20.7159 292.608 20.7859C292.592 20.8347 292.57 20.8567 292.573 20.8597C292.597 20.8407 292.614 20.8169 292.625 20.7904C292.652 20.7171 292.648 20.6375 292.614 20.5664C292.563 20.4613 292.47 20.376 292.352 20.3259C292.213 20.2667 292.069 20.2172 291.92 20.1779L291.128 19.9445L290.885 19.8778C290.857 19.8681 290.827 19.8616 290.796 19.8584Z" fill="#FAFAFA"/>
<path d="M270.847 62.0358L271.09 65.8665C271.09 65.8665 266.717 67.3703 266.684 68.0824L275.197 67.9349L275.097 61.952L270.847 62.0358Z" fill="#E1261C"/>
<g opacity="0.4">
<path opacity="0.4" d="M270.847 62.0358L271.09 65.8665C271.09 65.8665 266.717 67.3703 266.684 68.0824L275.197 67.9349L275.097 61.952L270.847 62.0358Z" fill="black"/>
</g>
<path d="M273.716 65.4983C273.798 65.5187 273.869 65.5649 273.915 65.6281C273.961 65.6914 273.979 65.7672 273.964 65.841C273.944 65.9137 273.893 65.9769 273.821 66.0174C273.749 66.058 273.662 66.0729 273.578 66.0591C273.491 66.0373 273.416 65.988 273.368 65.9207C273.319 65.8535 273.302 65.773 273.317 65.6949C273.347 65.6205 273.409 65.5592 273.49 65.5239C273.57 65.4887 273.663 65.4823 273.749 65.5061" fill="#E0E0E0"/>
<path d="M275.198 67.9348L275.161 67.332L267.013 67.6988C267.013 67.6988 266.638 67.8496 266.686 68.0823L275.198 67.9348Z" fill="#E0E0E0"/>
<path d="M270.951 65.8311C270.953 65.8674 271.161 65.8804 271.368 65.9937C271.579 66.1022 271.688 66.2578 271.726 66.2427C271.764 66.2351 271.697 66.0189 271.444 65.8856C271.19 65.7523 270.943 65.798 270.951 65.8311Z" fill="#263238"/>
<path d="M270.067 66.1695C270.058 66.2049 270.239 66.2639 270.384 66.4147C270.534 66.5622 270.573 66.7279 270.615 66.7257C270.654 66.7307 270.678 66.5174 270.494 66.3323C270.31 66.1473 270.067 66.1348 270.067 66.1695Z" fill="#263238"/>
<path d="M269.581 67.1134C269.619 67.1205 269.672 66.9378 269.561 66.7408C269.45 66.5437 269.254 66.4677 269.237 66.4984C269.214 66.5286 269.343 66.6332 269.432 66.7962C269.524 66.9565 269.539 67.1096 269.581 67.1134Z" fill="#263238"/>
<path d="M271.007 64.9527C271.026 64.9855 271.215 64.9321 271.45 64.9418C271.686 64.9477 271.87 65.0126 271.891 64.9819C271.915 64.9553 271.733 64.8238 271.456 64.8167C271.179 64.8096 270.986 64.9243 271.007 64.9527Z" fill="#263238"/>
<g opacity="0.3">
<path opacity="0.3" d="M270.897 62.7946L270.94 63.4773L275.124 63.3716L275.115 62.7559L270.897 62.7946Z" fill="black"/>
</g>
<path d="M270.974 64.1791C271.115 64.2096 271.262 64.2063 271.401 64.1697C271.554 64.1432 271.703 64.1004 271.844 64.0422C271.928 64.0079 272.009 63.9684 272.087 63.9242C272.134 63.9004 272.177 63.8701 272.214 63.8346C272.24 63.8082 272.256 63.7749 272.259 63.7399C272.262 63.7048 272.251 63.67 272.228 63.6408C272.207 63.6158 272.179 63.5956 272.147 63.5817C272.115 63.5678 272.08 63.5606 272.044 63.5608C271.99 63.5613 271.937 63.5688 271.885 63.583C271.795 63.6039 271.706 63.632 271.622 63.667C271.479 63.7263 271.348 63.8047 271.234 63.8995C271.04 64.0628 270.975 64.1996 270.991 64.2063C271.01 64.2178 271.103 64.1024 271.301 63.9669C271.417 63.8885 271.543 63.8234 271.677 63.7732C271.756 63.7439 271.837 63.7202 271.92 63.7024C272.01 63.6802 272.086 63.6788 272.111 63.713C272.119 63.7262 272.12 63.7314 272.102 63.7548C272.075 63.7805 272.043 63.8026 272.009 63.8204C271.937 63.8631 271.863 63.902 271.786 63.937C271.655 63.9964 271.518 64.045 271.377 64.0821C271.24 64.1059 271.106 64.1383 270.974 64.1791V64.1791Z" fill="#263238"/>
<path d="M271.029 64.2302C271.108 64.1225 271.144 63.9956 271.134 63.8684C271.138 63.7303 271.115 63.5926 271.066 63.4613C271.037 63.3833 270.999 63.3081 270.953 63.2368C270.929 63.188 270.891 63.1454 270.842 63.1132C270.794 63.0811 270.737 63.0604 270.676 63.0532C270.638 63.0546 270.602 63.0654 270.571 63.0844C270.54 63.1034 270.515 63.1297 270.501 63.1604C270.48 63.2043 270.466 63.2505 270.46 63.2977C270.447 63.3812 270.449 63.4658 270.465 63.5488C270.492 63.6879 270.558 63.819 270.656 63.9307C270.827 64.1195 271.001 64.161 271.005 64.1487C271.018 64.1303 270.872 64.0626 270.74 63.8795C270.664 63.7739 270.615 63.6552 270.597 63.5316C270.587 63.4599 270.588 63.3873 270.6 63.3159C270.612 63.2366 270.644 63.1722 270.678 63.1797C270.721 63.1783 270.794 63.2368 270.83 63.2994C270.874 63.3631 270.911 63.43 270.94 63.4995C270.991 63.6186 271.021 63.7434 271.031 63.87C271.048 64.0883 271.007 64.2252 271.029 64.2302Z" fill="#263238"/>
<path d="M293.83 45.7586C293.83 45.7586 292.9 49.9292 291.355 49.9884C289.459 50.0609 275.738 50.2244 275.738 50.2244L276.575 63.5856L270.586 63.4593L268.192 50.2936C267.926 49.112 268.152 47.886 268.83 46.8374C268.846 46.8138 268.862 46.7883 268.879 46.7637C269.391 46.0282 270.11 45.42 270.968 44.9973C271.826 44.5746 272.794 44.3517 273.778 44.3499L285.176 44.2001L293.83 45.7586Z" fill="#263238"/>
<path d="M273.173 62.0356L273.416 65.8663C273.416 65.8663 269.043 67.3701 269.011 68.0821L277.524 67.9346L277.423 61.9518L273.173 62.0356Z" fill="#E1261C"/>
<path d="M276.042 65.4983C276.124 65.5186 276.195 65.5648 276.241 65.6281C276.287 65.6913 276.304 65.7671 276.29 65.8409C276.27 65.9136 276.218 65.9768 276.147 66.0174C276.075 66.0579 275.988 66.0728 275.904 66.059C275.816 66.0373 275.741 65.988 275.693 65.9207C275.645 65.8535 275.627 65.773 275.643 65.6949C275.673 65.6205 275.734 65.5592 275.815 65.524C275.896 65.4887 275.989 65.4823 276.075 65.5061" fill="#E0E0E0"/>
<path d="M277.525 67.9346L277.488 67.3319L269.34 67.6986C269.34 67.6986 268.964 67.8495 269.013 68.0821L277.525 67.9346Z" fill="#E0E0E0"/>
<path d="M273.279 65.831C273.281 65.8673 273.489 65.8803 273.696 65.9936C273.907 66.1021 274.016 66.2577 274.054 66.2425C274.092 66.235 274.025 66.0188 273.771 65.8855C273.518 65.7521 273.269 65.7979 273.279 65.831Z" fill="#263238"/>
<path d="M272.393 66.1694C272.384 66.2048 272.566 66.2638 272.71 66.4146C272.86 66.5621 272.899 66.7277 272.941 66.7256C272.98 66.7306 273.004 66.5172 272.82 66.3322C272.636 66.1472 272.393 66.1347 272.393 66.1694Z" fill="#263238"/>
<path d="M271.907 67.1134C271.944 67.1205 271.998 66.9378 271.887 66.7408C271.776 66.5437 271.579 66.4677 271.563 66.4984C271.54 66.5286 271.669 66.6332 271.757 66.7962C271.846 66.9593 271.865 67.1096 271.907 67.1134Z" fill="#263238"/>
<path d="M273.333 64.9525C273.351 64.9854 273.541 64.932 273.776 64.9417C274.012 64.9476 274.196 65.0125 274.217 64.9818C274.241 64.9551 274.059 64.8237 273.782 64.8166C273.504 64.8095 273.312 64.9242 273.333 64.9525Z" fill="#263238"/>
<g opacity="0.3">
<path opacity="0.3" d="M273.222 62.7944L273.265 63.4772L277.449 63.3715L277.44 62.7557L273.222 62.7944Z" fill="black"/>
</g>
<path d="M273.301 64.179C273.441 64.2095 273.588 64.2062 273.727 64.1696C273.88 64.143 274.029 64.1002 274.17 64.0421C274.254 64.0077 274.335 63.9683 274.413 63.9241C274.461 63.9002 274.503 63.8699 274.54 63.8344C274.567 63.8081 274.583 63.7748 274.585 63.7397C274.588 63.7047 274.577 63.6698 274.555 63.6407C274.533 63.6157 274.505 63.5955 274.473 63.5816C274.441 63.5677 274.406 63.5605 274.371 63.5607C274.316 63.5612 274.263 63.5687 274.211 63.5829C274.121 63.6038 274.032 63.6319 273.948 63.6669C273.805 63.7261 273.674 63.8045 273.56 63.8993C273.366 64.0626 273.302 64.1995 273.317 64.2061C273.336 64.2177 273.43 64.1023 273.628 63.9668C273.743 63.8884 273.869 63.8232 274.004 63.7731C274.082 63.7438 274.164 63.7201 274.247 63.7023C274.337 63.6801 274.413 63.6787 274.436 63.7129C274.445 63.7261 274.446 63.7313 274.427 63.7547C274.4 63.7803 274.369 63.8024 274.334 63.8203C274.263 63.8629 274.188 63.9019 274.111 63.9369C273.981 63.9963 273.844 64.0449 273.702 64.082C273.566 64.1058 273.432 64.1382 273.301 64.179V64.179Z" fill="#263238"/>
<path d="M273.356 64.23C273.434 64.1223 273.471 63.9955 273.46 63.8682C273.467 63.6472 273.404 63.4288 273.279 63.2367C273.255 63.1879 273.217 63.1453 273.168 63.1132C273.12 63.081 273.063 63.0603 273.003 63.0531C272.965 63.0544 272.928 63.0652 272.897 63.0842C272.866 63.1032 272.842 63.1296 272.827 63.1602C272.806 63.2041 272.792 63.2504 272.786 63.2976C272.773 63.381 272.775 63.4657 272.792 63.5487C272.819 63.6877 272.884 63.8189 272.983 63.9306C273.153 64.1193 273.328 64.1609 273.331 64.1486C273.345 64.1302 273.198 64.0625 273.066 63.8793C272.991 63.7738 272.942 63.6551 272.924 63.5315C272.913 63.4598 272.914 63.3872 272.927 63.3158C272.938 63.2365 272.971 63.172 273.005 63.1796C273.047 63.1782 273.12 63.2367 273.157 63.2992C273.2 63.3629 273.237 63.4299 273.267 63.4994C273.317 63.6185 273.348 63.7432 273.358 63.8699C273.374 64.0882 273.333 64.2251 273.356 64.23Z" fill="#263238"/>
<path d="M295.341 45.7585C295.341 45.7585 294.411 49.9291 292.866 49.9883C290.97 50.0608 277.249 50.2243 277.249 50.2243L278.086 63.5855L272.097 63.4592L269.704 50.2935C269.438 49.1119 269.664 47.8859 270.341 46.8373C270.357 46.8137 270.374 46.7882 270.39 46.7636C270.902 46.0281 271.621 45.4198 272.479 44.9972C273.337 44.5745 274.305 44.3516 275.29 44.3498L286.687 44.2L295.341 45.7585Z" fill="#263238"/>
<path d="M283.664 29.006L285.458 39.5031L284.236 44.2186L295.341 47.0768C296.344 45.8227 296.383 41.8352 296.348 39.0155C296.286 34.0458 296.537 33.8046 296.291 32.0613C296.048 30.3385 295.626 29.1967 294.573 28.6487L291.56 27.2941C291.56 27.2941 289.852 28.2444 288.815 28.1925C288.815 28.1925 287.58 28.2371 286.896 27.6641C286.897 27.6641 284.402 28.3254 283.664 29.006Z" fill="#E1261C"/>
<path d="M283.664 29.0062L279.962 33.4666L285.002 36.0532L284.617 34.4316L283.664 29.0062Z" fill="#E1261C"/>
<path d="M274.845 44.416C274.824 44.4215 274.802 44.4244 274.781 44.4245L274.593 44.4373C274.492 44.4428 274.391 44.453 274.291 44.4679C274.153 44.4837 274.017 44.5063 273.883 44.5354C273.023 44.719 272.229 45.087 271.572 45.6062C271.12 45.9619 270.732 46.3747 270.419 46.831C270.061 47.3539 269.839 47.9392 269.769 48.5455C269.703 49.2185 269.733 49.8959 269.856 50.5626C269.964 51.2603 270.121 51.9824 270.208 52.7303C270.399 54.2187 270.656 55.6293 270.897 56.9108L271.556 60.3142C271.742 61.2832 271.886 62.0686 271.975 62.6128C272.016 62.8768 272.049 63.0858 272.073 63.2398C272.081 63.3057 272.089 63.3593 272.094 63.4034C272.098 63.422 272.099 63.441 272.097 63.4598C272.088 63.4424 272.083 63.4241 272.08 63.4053L272.045 63.2436C272.014 63.0909 271.973 62.8831 271.921 62.6203C271.809 62.0683 271.651 61.2884 271.458 60.329C271.261 59.3579 271.028 58.2069 270.77 56.9306C270.522 55.6491 270.26 54.2374 270.068 52.7449C269.982 52.0006 269.827 51.2829 269.719 50.5796C269.596 49.9031 269.569 49.2159 269.64 48.5337C269.715 47.9124 269.947 47.3133 270.319 46.7796C270.641 46.3169 271.041 45.8996 271.506 45.542C272.179 45.0203 272.993 44.658 273.871 44.4896C274.19 44.4257 274.518 44.401 274.845 44.416V44.416Z" fill="#455A64"/>
<path d="M279.099 41.1746C279.099 41.1746 283.382 42.3841 286.713 43.4402C287.279 43.6193 287.886 43.6733 288.482 43.5976C289.077 43.5219 289.641 43.3187 290.125 43.0062V43.0062C290.743 42.6066 291.202 42.0464 291.434 41.4056L293.715 35.1226L289.907 33.9556L287.361 39.6033L277.887 38.5141" fill="#FFBE9D"/>
<path d="M273.433 39.8791L273.397 39.5822C273.421 39.3624 273.525 39.1553 273.695 38.9922V38.9922C273.787 38.9042 273.896 38.831 274.017 38.776L275.139 38.2651C275.309 38.1879 275.503 38.1613 275.691 38.1893L277.99 38.531L280.625 38.8338L280.08 41.4563L278.861 41.1023C278.861 41.1023 277.977 41.5304 277.433 41.4284C277.433 41.4284 276.928 41.7227 276.721 41.5077C276.721 41.5077 276.268 41.8473 276.1 41.8247C275.933 41.802 275.595 41.6321 275.608 41.5304L275.621 41.3944C275.534 41.4341 275.437 41.4529 275.339 41.4487C275.241 41.4446 275.147 41.4177 275.065 41.3708C274.948 41.292 274.858 41.1861 274.806 41.0652C274.595 41.0456 274.397 40.9706 274.236 40.8502C274.13 40.7141 274.06 40.5597 274.029 40.3976C274.029 40.3976 273.517 40.1859 273.433 39.8791Z" fill="#FFBE9D"/>
<path d="M275.127 38.9284C275.144 38.9269 275.172 39.0355 275.115 39.2021C275.031 39.411 274.892 39.5998 274.71 39.7536C274.508 39.9351 274.32 40.084 274.203 40.207C274.087 40.33 274.026 40.4147 274.007 40.4071C273.988 40.3996 274.018 40.2972 274.124 40.1551C274.268 39.98 274.431 39.8172 274.61 39.6689C274.779 39.5249 274.919 39.3568 275.024 39.1719C275.096 39.0294 275.105 38.9277 275.127 38.9284Z" fill="#EB996E"/>
<path d="M275.566 39.9773C275.524 40.1934 275.421 40.3969 275.266 40.5689C275.043 40.871 274.798 41.0714 274.77 41.0492C275.009 40.6775 275.275 40.3194 275.566 39.9773Z" fill="#EB996E"/>
<path d="M276.152 40.6713C276.184 40.6897 276.089 40.8616 275.938 41.0546C275.788 41.2476 275.64 41.3885 275.608 41.369C275.576 41.3494 275.672 41.1776 275.822 40.9855C275.971 40.7933 276.119 40.6527 276.152 40.6713Z" fill="#EB996E"/>
<path d="M276.044 40.3955C276.037 40.4103 275.984 40.412 275.914 40.3747C275.869 40.3488 275.831 40.315 275.801 40.2754C275.772 40.2357 275.752 40.1911 275.744 40.1444C275.735 40.0978 275.738 40.0501 275.752 40.0044C275.765 39.9587 275.79 39.916 275.824 39.8791C275.878 39.8246 275.928 39.8118 275.939 39.8241C275.966 39.8477 275.852 39.9674 275.882 40.1255C275.912 40.2836 276.059 40.3657 276.044 40.3955Z" fill="#EB996E"/>
<path d="M276.684 41.1002C276.677 41.1153 276.633 41.1186 276.576 41.0898C276.538 41.07 276.506 41.0437 276.48 41.0126C276.454 40.9814 276.436 40.946 276.426 40.9085C276.412 40.8684 276.411 40.8255 276.423 40.7849C276.436 40.7444 276.462 40.7079 276.498 40.6799C276.568 40.6393 276.622 40.6676 276.616 40.6829C276.586 40.7079 276.565 40.7397 276.556 40.7746C276.546 40.8095 276.548 40.846 276.562 40.88C276.591 41.0001 276.699 41.0697 276.684 41.1002Z" fill="#EB996E"/>
<path d="M275.671 39.6445C275.669 39.6598 275.612 39.6723 275.53 39.6395C275.476 39.6166 275.43 39.582 275.397 39.539C275.363 39.496 275.342 39.4461 275.337 39.3942C275.331 39.3422 275.341 39.2899 275.366 39.2422C275.39 39.1946 275.428 39.1533 275.476 39.1222C275.549 39.0769 275.608 39.08 275.613 39.0946C275.629 39.1211 275.462 39.2155 275.478 39.383C275.496 39.5503 275.68 39.6162 275.671 39.6445Z" fill="#EB996E"/>
<path d="M293.735 29.5053C292.865 29.1749 291.794 29.5081 291.165 30.0799C290.536 30.6517 290.248 31.4091 289.978 32.1416C289.716 32.848 289.066 34.2812 288.804 34.9873L293.742 36.8359C294.162 35.8386 294.554 34.8338 294.919 33.8217C295.225 32.9721 295.511 32.055 295.155 31.2104" fill="#E1261C"/>
<path d="M295.154 31.2105C295.176 31.2433 295.193 31.2782 295.205 31.3144C295.248 31.4165 295.28 31.5218 295.301 31.629C295.377 32.0299 295.365 32.4397 295.266 32.8368C295.114 33.4413 294.915 34.036 294.669 34.6165C294.409 35.2915 294.119 36.0443 293.806 36.8552L293.783 36.9137L293.711 36.8871L290.236 35.5891L288.772 35.0406L288.714 35.0184L288.732 34.97C289.13 33.9425 289.578 32.9992 289.912 32.1309C290.058 31.7136 290.237 31.306 290.45 30.9113C290.64 30.5616 290.901 30.2449 291.22 29.9765C291.709 29.5726 292.357 29.3495 293.03 29.3537C293.212 29.3593 293.392 29.3877 293.565 29.438C293.624 29.4553 293.681 29.4776 293.735 29.5045C293.507 29.4374 293.27 29.4008 293.03 29.3957C292.379 29.4077 291.758 29.6343 291.29 30.0301C290.985 30.2956 290.735 30.6069 290.555 30.9491C290.35 31.3418 290.177 31.7467 290.037 32.1607C289.709 33.0362 289.266 33.9824 288.873 35.0038L288.833 34.933L290.297 35.4805L293.769 36.7842L293.675 36.816C293.995 36.0082 294.291 35.2584 294.557 34.5861C294.808 34.0103 295.017 33.4212 295.182 32.8222C295.287 32.4325 295.312 32.0296 295.256 31.6323C295.209 31.3571 295.142 31.2131 295.154 31.2105Z" fill="#263238"/>
<path d="M288.828 41.7568C288.81 41.7601 288.772 41.5105 288.605 41.0894C288.504 40.8347 288.368 40.5917 288.2 40.3659C287.986 40.0675 287.691 39.8202 287.34 39.6461L287.355 39.6496L282.006 39.0417L278.781 38.6612L277.374 38.4906L276.153 38.3202L275.62 38.2447C275.469 38.2229 275.314 38.2474 275.181 38.3141L274.487 38.6069L274.046 38.788C273.996 38.8115 273.943 38.8301 273.888 38.8434C273.933 38.8129 273.982 38.7869 274.033 38.7658L274.462 38.5642L275.146 38.2525C275.292 38.1763 275.464 38.1463 275.633 38.1675L276.167 38.2343L277.391 38.3896L278.799 38.5491L282.024 38.9199L287.369 39.5571H287.378L287.384 39.5597C287.749 39.7444 288.055 40.0076 288.272 40.3246C288.438 40.5578 288.57 40.809 288.663 41.0717C288.724 41.2366 288.771 41.4053 288.803 41.5763C288.819 41.6356 288.827 41.6961 288.828 41.7568V41.7568Z" fill="#EB996E"/>
<path d="M285.465 39.3461C285.428 39.2351 285.403 39.1215 285.391 39.0065C285.347 38.7653 285.29 38.4531 285.221 38.0778C285.069 37.2728 284.866 36.2009 284.642 35.0162C284.418 33.8315 284.214 32.7586 284.061 31.9536C283.994 31.5777 283.939 31.2652 283.896 31.0238C283.87 30.9106 283.855 30.7956 283.853 30.6802C283.897 30.7892 283.93 30.9017 283.95 31.016C284.004 31.2555 284.074 31.5659 284.159 31.9392C284.328 32.7202 284.551 33.8008 284.78 34.9968C285.008 36.1929 285.199 37.2778 285.32 38.0648C285.381 38.4587 285.421 38.7785 285.445 38.9999C285.464 39.1145 285.471 39.2304 285.465 39.3461V39.3461Z" fill="#263238"/>
<path d="M336.654 105.449C336.654 105.2 297.553 105 249.331 105C201.092 105 162 105.2 162 105.449C162 105.698 201.092 105.9 249.331 105.9C297.554 105.893 336.654 105.691 336.654 105.449Z" fill="#E1261C"/>
<path d="M31.6362 97.1281C30.9038 97.6397 29.5413 97.4481 28.9221 97.1208C28.3028 96.7934 28.0557 96.3287 27.8363 95.8853C27.3293 94.8724 26.8208 93.8099 27.2891 92.792C27.4053 92.4832 27.6836 92.1968 28.0935 91.9644C28.301 91.8499 28.5629 91.7656 28.8531 91.7201C29.1433 91.6745 29.4516 91.6692 29.747 91.7048C30.431 91.8089 30.845 92.1655 31.1382 92.5032C32.0012 93.5004 32.424 94.5845 32.3758 95.6769C32.4154 96.1882 32.1569 96.6938 31.6339 97.1281" fill="#E1261C"/>
<g opacity="0.2">
<path opacity="0.2" d="M31.6362 97.1281C30.9038 97.6397 29.5413 97.4481 28.9221 97.1208C28.3028 96.7934 28.0557 96.3287 27.8363 95.8853C27.3293 94.8724 26.8208 93.8099 27.2891 92.792C27.4053 92.4832 27.6836 92.1968 28.0935 91.9644C28.301 91.8499 28.5629 91.7656 28.8531 91.7201C29.1433 91.6745 29.4516 91.6692 29.747 91.7048C30.431 91.8089 30.845 92.1655 31.1382 92.5032C32.0012 93.5004 32.424 94.5845 32.3758 95.6769C32.4154 96.1882 32.1569 96.6938 31.6339 97.1281" fill="black"/>
</g>
<path d="M28.8565 99.7322C27.6888 99.4285 26.3638 99.3264 25.0758 99.441C24.3736 99.4633 23.7061 99.6065 23.1793 99.8479C22.6973 100.109 22.5842 100.579 23.11 100.815C23.4504 100.942 23.8655 101.002 24.2833 100.987C25.2865 100.995 26.4037 100.919 27.1889 101.242C27.6362 101.427 27.9254 101.727 28.4657 101.822C28.7373 101.859 29.0245 101.849 29.284 101.794C29.5435 101.738 29.7611 101.641 29.9039 101.516C30.1778 101.259 30.2509 100.958 30.1082 100.675C30.054 100.478 29.9128 100.291 29.6956 100.128C29.4785 99.964 29.1913 99.8288 28.8565 99.7322Z" fill="#E1261C"/>
<path d="M33.5354 97.903C33.1859 97.6529 32.9595 97.3624 32.8759 97.0567C32.7922 96.751 32.8538 96.4394 33.0553 96.1488C33.4727 95.5686 34.1911 95.0592 35.1314 94.6764C36.2006 94.2097 37.4354 93.8554 38.7667 93.6333C39.2827 93.5336 39.8343 93.4929 40.3836 93.5141C40.6579 93.5262 40.9222 93.5727 41.1538 93.6497C41.3854 93.7266 41.5772 93.8317 41.7124 93.9557C42.0695 94.3333 41.6851 94.7786 41.2756 95.1411C40.5534 95.7799 39.7354 96.3884 38.8291 96.9609C38.0995 97.4211 37.2692 97.8735 36.1843 98.0701C35.0995 98.2667 33.986 98.2273 33.4365 97.8341" fill="#E1261C"/>
<path d="M31.277 104.995C31.2438 104.917 31.2265 104.838 31.2254 104.758C31.2022 104.585 31.1725 104.368 31.1374 104.109C31.0917 103.79 31.0143 103.472 30.9053 103.157C30.7612 102.773 30.5579 102.395 30.2975 102.028C30.0421 101.661 29.6878 101.315 29.245 100.999C28.8847 100.743 28.4183 100.531 27.8798 100.379C27.5145 100.279 27.1208 100.209 26.7133 100.173C26.559 100.168 26.4061 100.155 26.2573 100.133C26.4118 100.125 26.5674 100.126 26.7215 100.136C27.1453 100.158 27.5578 100.22 27.9395 100.318C28.507 100.466 29.0004 100.681 29.3809 100.944C29.8434 101.264 30.2113 101.618 30.4726 101.994C30.7372 102.366 30.9388 102.75 31.075 103.141C31.1773 103.46 31.2422 103.782 31.2692 104.105C31.2943 104.38 31.298 104.602 31.297 104.756C31.3069 104.836 31.3001 104.916 31.277 104.995V104.995Z" fill="#263238"/>
<path d="M31.2161 104.497C31.2056 104.46 31.2033 104.423 31.2093 104.386C31.2143 104.304 31.2203 104.2 31.2276 104.072C31.2431 103.799 31.2631 103.404 31.2604 102.916C31.264 101.94 31.1715 100.591 30.9348 99.1071C30.6981 97.6229 30.3466 96.2852 30.0146 95.3247C29.9371 95.084 29.8573 94.8671 29.7816 94.6773C29.7059 94.4876 29.6489 94.3233 29.5882 94.1902C29.5372 94.0654 29.497 93.9635 29.4624 93.8834C29.4435 93.8479 29.433 93.8113 29.4309 93.7744C29.4617 93.8076 29.4847 93.8425 29.4993 93.8785C29.5417 93.9583 29.5946 94.0588 29.6598 94.1822C29.7314 94.3141 29.8035 94.4772 29.8851 94.6667C29.9667 94.8562 30.0597 95.0724 30.1459 95.3129C30.6022 96.5652 30.9284 97.8293 31.1231 99.0998C31.3607 100.587 31.4318 101.939 31.394 102.917C31.3799 103.406 31.3393 103.802 31.3028 104.073C31.2809 104.201 31.2636 104.305 31.2494 104.387C31.2465 104.424 31.2354 104.461 31.2161 104.497V104.497Z" fill="#263238"/>
<path d="M31.3383 101.892C31.3292 101.783 31.3363 101.673 31.3597 101.564C31.3939 101.353 31.466 101.049 31.6005 100.677C31.7618 100.241 31.9709 99.811 32.2266 99.3879C32.5326 98.8681 32.9093 98.3602 33.3538 97.868C34.1282 96.9621 35.2141 96.1366 36.5586 95.4315C36.792 95.3109 37.0398 95.1979 37.3005 95.0934C37.4141 95.0462 37.5148 94.999 37.6165 94.9621L37.9029 94.8661C38.0751 94.8022 38.2569 94.7455 38.4464 94.6964C37.8178 94.9384 37.2189 95.2003 36.653 95.4806C35.3511 96.1922 34.2934 97.0136 33.5253 97.9093C33.0844 98.3977 32.7062 98.9006 32.393 99.4148C32.1315 99.8336 31.9106 100.259 31.7314 100.689C31.5809 101.057 31.4897 101.358 31.4332 101.567C31.418 101.676 31.3862 101.785 31.3383 101.892V101.892Z" fill="#263238"/>
</g>
<defs>
<clipPath id="clip0_1_8288">
<rect width="342" height="118" fill="white"/>
</clipPath>
</defs>
</svg>
