<svg width="58" height="30" viewBox="0 0 58 30" fill="none" xmlns="http://www.w3.org/2000/svg">
<mask id="path-1-inside-1_1687_21863" fill="white">
<path d="M0.849365 3.49318C0.849365 1.67745 2.32131 0.205505 4.13704 0.205505H54.7124C56.5281 0.205505 58 1.67745 58 3.49318V26.5069C58 28.3226 56.5281 29.7945 54.7124 29.7945H4.13704C2.32131 29.7945 0.849365 28.3226 0.849365 26.5069V3.49318Z"/>
</mask>
<path d="M0.849365 3.49318C0.849365 1.67745 2.32131 0.205505 4.13704 0.205505H54.7124C56.5281 0.205505 58 1.67745 58 3.49318V26.5069C58 28.3226 56.5281 29.7945 54.7124 29.7945H4.13704C2.32131 29.7945 0.849365 28.3226 0.849365 26.5069V3.49318Z" fill="#F9E3E3"/>
<path d="M8.78202 20V11.8193H13.7769V13.0442H10.2091V15.2748H13.5691V16.5052H10.2091V20H8.78202ZM17.0975 20.1292C16.4008 20.1292 15.8577 19.9307 15.4681 19.5337C15.0786 19.1329 14.8838 18.5841 14.8838 17.8874V14.2353H16.266V17.8649C16.266 18.247 16.3652 18.5336 16.5638 18.7246C16.7623 18.9119 17.0357 19.0055 17.3841 19.0055C17.7998 19.0055 18.107 18.9025 18.3055 18.6965C18.5078 18.4867 18.6089 18.1515 18.6089 17.6908V14.2353H20.0023V18.4493L20.0697 20H18.6314L18.6089 19.146C18.5902 19.2284 18.5471 19.3202 18.4797 19.4213C18.416 19.5187 18.3261 19.6236 18.21 19.7359C18.0976 19.8483 17.9422 19.9419 17.7437 20.0169C17.5489 20.0918 17.3335 20.1292 17.0975 20.1292ZM21.6149 20V11.8137H22.9914V20H21.6149ZM25.2388 20V15.168H24.1657V14.2353H25.2388V14.0106C25.2388 13.7484 25.2445 13.5311 25.2557 13.3588C25.2669 13.1865 25.2913 13.0105 25.3287 12.8307C25.3662 12.6472 25.4186 12.5011 25.4861 12.3924C25.5572 12.2801 25.6509 12.1733 25.767 12.0722C25.8869 11.9673 26.0329 11.8886 26.2052 11.8362C26.3775 11.78 26.5836 11.7369 26.8233 11.707C27.0668 11.6733 27.3477 11.6564 27.6661 11.6564H27.9639L27.9133 12.7408C27.6998 12.7408 27.5293 12.7445 27.402 12.752C27.2784 12.7595 27.1623 12.782 27.0536 12.8195C26.9488 12.8532 26.872 12.8944 26.8233 12.9431C26.7746 12.988 26.7334 13.0648 26.6997 13.1734C26.666 13.2783 26.6454 13.3907 26.6379 13.5105C26.6304 13.6267 26.6266 13.7877 26.6266 13.9937V14.2353H27.9245V15.168H26.6266V20H25.2388ZM29.1775 13.0442V11.8193H30.5259V13.0442H29.1775ZM29.1831 20V14.2353H30.5259V20H29.1831ZM32.1216 20V11.8137H33.4982V20H32.1216ZM35.077 20V11.8137H36.4535V20H35.077ZM39.3302 16.4266H42.1957C42.1283 16.0183 41.9766 15.7055 41.7406 15.4883C41.5046 15.271 41.2162 15.1624 40.8753 15.1624C40.4746 15.1624 40.1393 15.2748 39.8696 15.4995C39.5999 15.7243 39.4201 16.0333 39.3302 16.4266ZM40.9765 20.1292C40.0063 20.1292 39.2403 19.852 38.6785 19.2977C38.1204 18.7433 37.8413 18.0185 37.8413 17.1233C37.8413 16.7188 37.9087 16.3348 38.0436 15.9715C38.1784 15.6081 38.3676 15.286 38.6111 15.0051C38.8583 14.7242 39.1692 14.5013 39.5437 14.3365C39.9221 14.1717 40.3397 14.0893 40.7967 14.0893C41.2537 14.0893 41.6526 14.1679 41.9934 14.3252C42.3343 14.4826 42.604 14.7036 42.8025 14.9882C43.001 15.2692 43.1471 15.5857 43.2408 15.9378C43.3382 16.2899 43.3869 16.6794 43.3869 17.1064C43.3869 17.2151 43.3775 17.2975 43.3588 17.3536H39.3134C39.3359 17.9155 39.5063 18.3313 39.8247 18.601C40.1468 18.8707 40.5738 19.0055 41.1057 19.0055C41.7275 19.0055 42.3343 18.7995 42.9261 18.3875L43.3026 19.3988C42.9392 19.6498 42.5722 19.8352 42.2013 19.9551C41.8342 20.0712 41.426 20.1292 40.9765 20.1292ZM47.5334 19.0055C47.7881 19.0055 48.0109 18.9549 48.202 18.8538C48.393 18.7489 48.5428 18.6066 48.6515 18.4268C48.7638 18.2433 48.8462 18.0429 48.8987 17.8256C48.9549 17.6084 48.983 17.3743 48.983 17.1233C48.983 16.5614 48.8612 16.1045 48.6177 15.7524C48.3743 15.3965 48.0091 15.2186 47.5221 15.2186C47.1962 15.2186 46.9209 15.3066 46.6962 15.4827C46.4752 15.6587 46.316 15.8835 46.2186 16.1569C46.125 16.4303 46.0782 16.745 46.0782 17.1008C46.0782 17.3593 46.1044 17.599 46.1568 17.82C46.213 18.041 46.2954 18.2433 46.404 18.4268C46.5164 18.6066 46.6681 18.7489 46.8591 18.8538C47.0539 18.9549 47.2787 19.0055 47.5334 19.0055ZM47.2468 20.1292C46.5014 20.1292 45.8759 19.8558 45.3702 19.3089C44.8683 18.762 44.6173 18.041 44.6173 17.1458C44.6173 16.7375 44.6754 16.3517 44.7915 15.9883C44.9076 15.625 45.0743 15.301 45.2915 15.0163C45.5125 14.7316 45.801 14.5069 46.1568 14.3421C46.5127 14.1735 46.9116 14.0893 47.3536 14.0893C47.7506 14.0893 48.0859 14.1717 48.3593 14.3365C48.6365 14.4975 48.8294 14.6661 48.938 14.8421V11.8137H50.3202V18.4605C50.3202 18.483 50.337 18.9961 50.3707 20H48.9436L48.9324 19.264C48.8987 19.3501 48.8425 19.4381 48.7638 19.528C48.6852 19.6179 48.5803 19.7116 48.4492 19.809C48.3181 19.9026 48.1477 19.9794 47.9379 20.0393C47.7281 20.0993 47.4978 20.1292 47.2468 20.1292Z" fill="#E1261C"/>
<path d="M0.849365 0.205505H58H0.849365ZM58 29.7945H0.849365H58ZM4.13704 29.7945C1.76902 29.7945 -0.150635 27.8749 -0.150635 25.5069V4.49318C-0.150635 2.12516 1.76902 0.205505 4.13704 0.205505H4.13704C2.87359 0.205505 1.84937 1.67745 1.84937 3.49318V26.5069C1.84937 28.3226 2.87359 29.7945 4.13704 29.7945H4.13704ZM58 0.205505V29.7945V0.205505Z" fill="#E1261C" mask="url(#path-1-inside-1_1687_21863)"/>
</svg>
