<svg width="9" height="10" viewBox="0 0 9 10" fill="none" xmlns="http://www.w3.org/2000/svg">
<path d="M3.09375 5C3.09375 4.22305 3.72305 3.59375 4.5 3.59375C5.27695 3.59375 5.90625 4.22305 5.90625 5C5.90625 5.77695 5.27695 6.40625 4.5 6.40625C3.72305 6.40625 3.09375 5.77695 3.09375 5ZM4.5 0.5C4.81113 0.5 5.0625 0.751895 5.0625 1.0625V1.67158C6.47578 1.90871 7.59199 3.02422 7.82754 4.4375H8.4375C8.74863 4.4375 9 4.68887 9 5C9 5.31113 8.74863 5.5625 8.4375 5.5625H7.82754C7.59199 6.97578 6.47578 8.09199 5.0625 8.32754V8.9375C5.0625 9.24863 4.81113 9.5 4.5 9.5C4.18887 9.5 3.9375 9.24863 3.9375 8.9375V8.32754C2.52422 8.09199 1.40871 6.97578 1.17158 5.5625H0.5625C0.251895 5.5625 0 5.31113 0 5C0 4.68887 0.251895 4.4375 0.5625 4.4375H1.17158C1.40871 3.02422 2.52422 1.90871 3.9375 1.67158V1.0625C3.9375 0.751895 4.18887 0.5 4.5 0.5ZM2.25 5C2.25 6.24277 3.25723 7.25 4.5 7.25C5.74277 7.25 6.75 6.24277 6.75 5C6.75 3.75723 5.74277 2.75 4.5 2.75C3.25723 2.75 2.25 3.75723 2.25 5Z" fill="white"/>
</svg>
