<svg width="12" height="12" viewBox="0 0 12 12" fill="none" xmlns="http://www.w3.org/2000/svg">
<path d="M9.21975 5.99996L7.20825 8.01146C7.14181 8.0776 7.10256 8.16623 7.09822 8.25987C7.09389 8.35352 7.12479 8.4454 7.18483 8.51739C7.24488 8.58939 7.32971 8.63628 7.42261 8.64884C7.51552 8.66139 7.60975 8.63869 7.68675 8.58521L7.7385 8.54246L10.413 5.86496L10.4505 5.81246L10.4708 5.77046L10.488 5.71946L10.4918 5.70446C10.4973 5.67833 10.5001 5.65168 10.5 5.62496L10.4962 5.68046L10.4985 5.65721V5.59346L10.4872 5.52896L10.4723 5.48171L10.4423 5.42471L10.401 5.37221L7.7385 2.70821C7.67236 2.64177 7.58373 2.60251 7.49008 2.59818C7.39643 2.59384 7.30456 2.62474 7.23256 2.68479C7.16057 2.74483 7.11367 2.82967 7.10112 2.92257C7.08857 3.01547 7.11127 3.10971 7.16475 3.18671L7.20825 3.23921L9.21975 5.24921L6 5.24996C3.3585 5.24996 1.58625 6.73196 1.503 8.84471L1.5 8.99996C1.5 9.09941 1.53951 9.1948 1.60984 9.26512C1.68016 9.33545 1.77554 9.37496 1.875 9.37496C1.97446 9.37496 2.06984 9.33545 2.14016 9.26512C2.21049 9.1948 2.25 9.09941 2.25 8.99996C2.25 7.29521 3.60525 6.07196 5.8035 6.00296L6 5.99996H9.21975Z" fill="#0089C8"/>
</svg>
