<svg width="13" height="12" viewBox="0 0 13 12" fill="none" xmlns="http://www.w3.org/2000/svg">
<rect y="0.0625" width="12.1875" height="11.875" rx="2" fill="#7C827D"/>
<path d="M6.09375 9.9375L3.72113 7.13934C3.68816 7.09733 3.65553 7.05505 3.62325 7.0125C3.21797 6.47863 2.99902 5.82653 3 5.15625C3 4.33574 3.32595 3.54883 3.90614 2.96864C4.48633 2.38845 5.27324 2.0625 6.09375 2.0625C6.91427 2.0625 7.70117 2.38845 8.28137 2.96864C8.86156 3.54883 9.1875 4.33574 9.1875 5.15625C9.18849 5.82623 8.96964 6.47803 8.56453 7.01166L8.56425 7.0125C8.56425 7.0125 8.47988 7.12331 8.46722 7.13822L6.09375 9.9375ZM4.07213 6.67359C4.07269 6.67359 4.13794 6.76022 4.15285 6.77878L6.09375 9.06788L8.03719 6.77569C8.04957 6.76022 8.11538 6.67303 8.11566 6.67275C8.44673 6.23656 8.62565 5.70385 8.625 5.15625C8.625 4.48492 8.35832 3.84109 7.88362 3.36639C7.40892 2.89168 6.76508 2.625 6.09375 2.625C5.42242 2.625 4.77859 2.89168 4.30389 3.36639C3.82919 3.84109 3.5625 4.48492 3.5625 5.15625C3.56191 5.70419 3.74103 6.23721 4.07241 6.67359H4.07213Z" fill="white"/>
<path d="M7.25 7.09375H6.6875V6.53125H5.5625V7.09375H5V6.53125C5.00015 6.38211 5.05946 6.23912 5.16492 6.13367C5.27037 6.02821 5.41336 5.9689 5.5625 5.96875H6.6875C6.83664 5.9689 6.97963 6.02821 7.08508 6.13367C7.19054 6.23912 7.24985 6.38211 7.25 6.53125V7.09375ZM6.125 5.6875C5.95812 5.6875 5.79499 5.63802 5.65624 5.5453C5.51748 5.45259 5.40934 5.32081 5.34548 5.16664C5.28162 5.01246 5.26491 4.84281 5.29746 4.67914C5.33002 4.51547 5.41038 4.36513 5.52838 4.24713C5.64638 4.12913 5.79672 4.04877 5.96039 4.01621C6.12406 3.98366 6.29371 4.00037 6.44789 4.06423C6.60206 4.12809 6.73384 4.23623 6.82655 4.37499C6.91927 4.51374 6.96875 4.67687 6.96875 4.84375C6.96853 5.06746 6.87956 5.28194 6.72137 5.44013C6.56319 5.59831 6.34871 5.68728 6.125 5.6875ZM6.125 4.5625C6.06937 4.5625 6.015 4.579 5.96875 4.6099C5.92249 4.6408 5.88645 4.68473 5.86516 4.73612C5.84387 4.78751 5.8383 4.84406 5.84915 4.89862C5.86001 4.95318 5.88679 5.00329 5.92613 5.04262C5.96546 5.08196 6.01557 5.10874 6.07013 5.1196C6.12469 5.13045 6.18124 5.12488 6.23263 5.10359C6.28402 5.0823 6.32795 5.04626 6.35885 5C6.38976 4.95375 6.40625 4.89938 6.40625 4.84375C6.40618 4.76918 6.37652 4.69769 6.32379 4.64496C6.27106 4.59223 6.19957 4.56257 6.125 4.5625Z" fill="white"/>
</svg>
