<svg width="58" height="45" viewBox="0 0 58 45" fill="none" xmlns="http://www.w3.org/2000/svg">
<g opacity="0.3" clip-path="url(#clip0_2301_30020)">
<path d="M13.7785 24.3432C13.3236 21.9085 14.0398 19.1386 16.0305 17.6649C15.9177 20.356 16.7604 23.0003 18.4095 25.13C19.0485 25.9489 19.8445 26.7933 19.8197 27.8318C19.8044 28.478 19.4549 29.08 18.9944 29.5335C18.5338 29.987 17.9665 30.314 17.406 30.6358L17.3188 30.7716C15.6756 28.9182 14.2334 26.778 13.7785 24.3432Z" fill="#F0F0F0"/>
<path d="M16.0666 17.7021C15.2302 19.5739 15.0049 21.6616 15.4226 23.6687C15.5049 24.1024 15.655 24.5204 15.8674 24.9074C16.0865 25.2776 16.4008 25.5824 16.7775 25.7901C17.1249 25.9909 17.5035 26.156 17.7961 26.4376C17.9437 26.5841 18.0587 26.76 18.1335 26.954C18.2084 27.148 18.2413 27.3556 18.2303 27.5632C18.2163 28.0812 18.017 28.5633 17.8057 29.028C17.5711 29.5439 17.3193 30.0761 17.3345 30.6561C17.3363 30.7264 17.2272 30.7252 17.2253 30.655C17.1989 29.6458 17.9285 28.8353 18.091 27.8669C18.1669 27.4151 18.107 26.9376 17.7894 26.5874C17.5116 26.2811 17.1213 26.1105 16.7678 25.9103C16.3973 25.7131 16.0807 25.4281 15.8458 25.0803C15.6143 24.7054 15.4484 24.2939 15.355 23.8633C15.1293 22.8974 15.0569 21.9019 15.1405 20.9135C15.2296 19.7848 15.5111 18.6797 15.9729 17.646C16.0015 17.5821 16.095 17.6386 16.0666 17.7021L16.0666 17.7021Z" fill="white"/>
<path d="M15.2502 23.0304C14.904 23.0547 14.5603 22.9552 14.2807 22.7496C14.001 22.544 13.8035 22.2457 13.7235 21.9079C13.7075 21.8395 13.8131 21.8115 13.8291 21.88C13.903 22.1946 14.087 22.4725 14.3478 22.6635C14.6086 22.8544 14.9291 22.9458 15.2514 22.9212C15.3214 22.9159 15.3199 23.0251 15.2502 23.0304Z" fill="white"/>
<path d="M16.5881 25.7115C17.0582 25.18 17.3106 24.4908 17.2951 23.7814C17.2935 23.7111 17.4027 23.7123 17.4043 23.7825C17.419 24.5208 17.1549 25.2375 16.6645 25.7896C16.6177 25.8421 16.5416 25.7639 16.5881 25.7116V25.7115Z" fill="white"/>
<path d="M15.3576 19.8526C15.4936 19.8711 15.632 19.8555 15.7604 19.8073C15.8889 19.7591 16.0033 19.6797 16.0935 19.5763C16.1396 19.5232 16.2157 19.6015 16.1699 19.6543C16.0697 19.7681 15.9432 19.8556 15.8014 19.9092C15.6596 19.9628 15.5069 19.9808 15.3565 19.9618C15.3422 19.9612 15.3286 19.9551 15.3186 19.9449C15.3086 19.9346 15.3028 19.921 15.3025 19.9066C15.3027 19.8922 15.3086 19.8784 15.319 19.8683C15.3293 19.8582 15.3432 19.8525 15.3576 19.8526H15.3576Z" fill="white"/>
<path d="M24.1713 19.6788C24.1435 19.7128 24.1157 19.7468 24.0881 19.7817C23.7163 20.2409 23.3823 20.7295 23.0896 21.2427C23.0664 21.2821 23.0434 21.3223 23.0213 21.3622C22.3293 22.6062 21.8743 23.9679 21.6794 25.3781C21.6024 25.9393 21.5682 26.5055 21.577 27.0719C21.5893 27.8542 21.6649 28.7013 21.4251 29.4207C21.401 29.4961 21.3721 29.5698 21.3388 29.6416L17.4913 30.8675C17.4811 30.8659 17.4712 30.8652 17.461 30.8636L17.3096 30.9195C17.3071 30.8904 17.3052 30.86 17.3027 30.8309C17.3012 30.8139 17.3005 30.7967 17.299 30.7798C17.2982 30.7685 17.2975 30.7571 17.2962 30.7469C17.2959 30.7431 17.2957 30.7393 17.2957 30.7364C17.2944 30.7262 17.2943 30.7165 17.2932 30.7072C17.2818 30.5378 17.2712 30.368 17.2624 30.1978C17.2622 30.1969 17.2622 30.1969 17.2627 30.1957C17.1967 28.8988 17.2383 27.585 17.4781 26.3193C17.4853 26.2812 17.4922 26.2422 17.5012 26.2036C17.6124 25.6337 17.77 25.0738 17.9725 24.5295C18.0843 24.2318 18.2111 23.94 18.3524 23.6552C18.719 22.9199 19.1989 22.2469 19.7746 21.6607C20.9225 20.4925 22.4312 19.7043 24.0478 19.6795C24.0892 19.6788 24.1297 19.6785 24.1713 19.6788Z" fill="#F0F0F0"/>
<path d="M24.1779 19.7304C22.3832 20.7213 20.9464 22.2526 20.0715 24.1067C19.876 24.5025 19.7442 24.9266 19.6809 25.3635C19.6329 25.791 19.7003 26.2236 19.8761 26.6162C20.0326 26.9857 20.2355 27.3454 20.2995 27.7465C20.3292 27.9523 20.315 28.162 20.258 28.3619C20.201 28.5618 20.1023 28.7475 19.9685 28.9066C19.6455 29.3118 19.1961 29.5767 18.7476 29.8205C18.2497 30.0912 17.7282 30.3645 17.3911 30.8368C17.3502 30.894 17.2638 30.8273 17.3046 30.7702C17.8911 29.9484 18.9616 29.7406 19.6744 29.0653C20.0071 28.7502 20.2467 28.3329 20.204 27.862C20.1666 27.4502 19.9577 27.079 19.7959 26.7063C19.6189 26.3258 19.5377 25.9077 19.5595 25.4885C19.6004 25.0498 19.7156 24.6213 19.9003 24.2213C20.3017 23.3142 20.8432 22.4758 21.5051 21.7369C22.2557 20.8894 23.1458 20.1765 24.1369 19.6292C24.1982 19.5953 24.2389 19.6967 24.1779 19.7304Z" fill="white"/>
<path d="M20.3179 23.4931C20.0268 23.3041 19.8123 23.0177 19.7128 22.6852C19.6133 22.3526 19.6352 21.9955 19.7747 21.6777C19.8031 21.6134 19.9043 21.6546 19.8758 21.7189C19.7454 22.0147 19.725 22.3473 19.8183 22.6568C19.9115 22.9663 20.1124 23.2322 20.3845 23.4066C20.4436 23.4446 20.3767 23.5309 20.3179 23.4931H20.3179Z" fill="white"/>
<path d="M19.7721 26.4394C20.4675 26.298 21.084 25.8997 21.4987 25.3239C21.5397 25.2668 21.6262 25.3335 21.5852 25.3905C21.1525 25.9889 20.5101 26.4021 19.7861 26.5477C19.7171 26.5615 19.7035 26.4531 19.7721 26.4394V26.4394Z" fill="white"/>
<path d="M22.317 21.0205C22.4144 21.1171 22.5343 21.188 22.6659 21.2269C22.7975 21.2657 22.9366 21.2712 23.0709 21.243C23.1397 21.2283 23.1533 21.3366 23.0849 21.3512C22.9364 21.3817 22.7827 21.3754 22.6373 21.3329C22.4918 21.2903 22.359 21.2127 22.2504 21.107C22.2393 21.0979 22.2321 21.0849 22.2303 21.0707C22.2284 21.0564 22.2321 21.0421 22.2404 21.0304C22.2493 21.019 22.2623 21.0116 22.2767 21.0097C22.291 21.0079 22.3055 21.0117 22.317 21.0205V21.0205Z" fill="white"/>
<path d="M30.2143 6.36484C30.2272 6.42151 30.2356 6.4791 30.2395 6.53708L34.7507 9.13957L35.8472 8.50833L37.0161 10.0386L35.1836 11.3448C35.0355 11.4503 34.8572 11.5049 34.6755 11.5005C34.4937 11.4961 34.3183 11.4328 34.1756 11.3202L29.5238 7.65037C29.3139 7.72808 29.0852 7.74004 28.8683 7.68465C28.6514 7.62925 28.4566 7.50914 28.3096 7.34029C28.1626 7.17143 28.0706 6.96183 28.0456 6.73936C28.0207 6.5169 28.0641 6.29212 28.17 6.09491C28.2759 5.89771 28.4394 5.73743 28.6386 5.63539C28.8379 5.53335 29.0635 5.4944 29.2854 5.5237C29.5073 5.553 29.7151 5.64918 29.881 5.79944C30.047 5.94969 30.1632 6.14691 30.2143 6.36485V6.36484Z" fill="#FFB6B6"/>
<path d="M34.8139 8.85223C34.8282 8.78584 34.8567 8.72333 34.8974 8.66895C34.938 8.61456 34.99 8.5696 35.0496 8.53712L37.1323 7.40233C37.4097 7.193 37.7587 7.1022 38.1029 7.14986C38.4471 7.19751 38.7584 7.37972 38.9685 7.65652C39.1785 7.93333 39.2702 8.28215 39.2234 8.62647C39.1767 8.97079 38.9953 9.28252 38.719 9.49329L37.0498 11.1891C37.0021 11.2375 36.9446 11.275 36.8812 11.2992C36.8177 11.3233 36.7498 11.3335 36.682 11.3291C36.6142 11.3246 36.5482 11.3056 36.4885 11.2733C36.4287 11.2411 36.3766 11.1963 36.3357 11.1421L34.8985 9.23658C34.8576 9.18237 34.8289 9.11997 34.8143 9.05364C34.7997 8.98731 34.7995 8.91861 34.8139 8.85223Z" fill="#3F3D56"/>
<path d="M38.5343 2.255C38.8339 1.29998 39.5154 0.424078 40.4578 0.101231C41.4003 -0.221615 42.7803 0.270185 43.4888 0.976319C44.7849 2.26798 45.1011 6.7053 44.2107 8.10754C44.0336 8.09817 43.4225 8.09124 43.2432 8.08452L42.9896 7.23935V8.07619C41.5905 8.03295 40.1338 8.06002 38.6764 8.08802C38.5458 7.09522 38.2346 3.21001 38.5343 2.255Z" fill="#2F2E41"/>
<path d="M38.1332 42.3415H36.8571L36.2501 37.4192L38.1335 37.4193L38.1332 42.3415Z" fill="#FFB6B6"/>
<path d="M49.3053 41.548L48.0704 41.8698L46.2413 37.2598L48.0639 36.7848L49.3053 41.548Z" fill="#FFB6B6"/>
<path d="M42.2727 12.1092L42.5619 12.861L42.504 13.6128L36.8449 15.5729L37.1257 12.2827L37.7618 11.5308L42.2727 12.1092Z" fill="#FFB6B6"/>
<path d="M40.4829 5.34364C41.5992 5.34364 42.5041 4.4387 42.5041 3.32241C42.5041 2.20611 41.5992 1.30117 40.4829 1.30117C39.3666 1.30117 38.4617 2.20611 38.4617 3.32241C38.4617 4.4387 39.3666 5.34364 40.4829 5.34364Z" fill="#FFB7B7"/>
<path d="M39.094 0.690405C39.4824 0.453642 39.9273 0.325568 40.3821 0.319572C40.8369 0.313576 41.2849 0.429879 41.6794 0.656321C42.0739 0.882763 42.4003 1.21103 42.6245 1.60679C42.8487 2.00255 42.9624 2.45128 42.9538 2.90604C41.852 3.18764 40.6779 3.30543 39.4337 2.97386L39.1493 2.27778L38.9816 2.97438C38.6009 3.24214 38.2336 3.24166 37.8794 2.97293C37.8644 2.51945 37.9687 2.06997 38.1818 1.66942C38.395 1.26887 38.7095 0.931281 39.094 0.690405Z" fill="#2F2E41"/>
<path d="M38.7042 44.7647H37.7987L37.637 43.9097L37.2231 44.7647H34.8213C34.7062 44.7647 34.5941 44.7279 34.5014 44.6597C34.4086 44.5915 34.3402 44.4954 34.3059 44.3855C34.2716 44.2756 34.2734 44.1576 34.3109 44.0487C34.3485 43.9399 34.4198 43.8459 34.5146 43.7805L36.4325 42.4559V41.5916L38.4498 41.712L38.7042 44.7647Z" fill="#2F2E41"/>
<path d="M50.5809 43.7196L49.7046 43.948L49.3325 43.1615L49.1476 44.0932L46.8236 44.699C46.7122 44.7281 46.5944 44.7207 46.4874 44.6781C46.3805 44.6355 46.29 44.5598 46.2291 44.4621C46.1682 44.3644 46.1402 44.2497 46.1491 44.135C46.1579 44.0202 46.2033 43.9112 46.2785 43.8241L47.8003 42.0585L47.5823 41.2221L49.5647 40.8298L50.5809 43.7196Z" fill="#2F2E41"/>
<path d="M49.1482 38.4524L45.4076 30.7642L44.2333 21.4067C45.0429 19.9031 43.5393 16.8435 43.5393 16.8435V15.5589L37.7147 16.6578V16.6578C36.5233 19.9071 35.9456 23.3494 36.0109 26.8096L36.2456 39.2484H36.172C36.0498 39.2484 35.9326 39.2969 35.8462 39.3833C35.7598 39.4697 35.7113 39.5869 35.7113 39.709C35.7113 39.8312 35.7598 39.9484 35.8462 40.0348C35.9326 40.1212 36.0498 40.1697 36.172 40.1697H38.4753C38.5974 40.1697 38.7146 40.1212 38.801 40.0348C38.8874 39.9484 38.9359 39.8312 38.9359 39.709C38.9359 39.5869 38.8874 39.4697 38.801 39.3833C38.7146 39.2969 38.5974 39.2484 38.4753 39.2484H38.4159L40.0694 23.424L41.992 31.2329L46.6382 38.4229C46.5197 38.4321 46.4094 38.4869 46.3304 38.5758C46.2514 38.6647 46.21 38.7807 46.2148 38.8994C46.2195 39.0182 46.2702 39.1305 46.356 39.2128C46.4418 39.295 46.5562 39.3408 46.675 39.3405H48.9784C49.0855 39.3406 49.1893 39.3033 49.2719 39.2351C49.3545 39.1669 49.4107 39.072 49.4308 38.9668C49.451 38.8616 49.4337 38.7526 49.3822 38.6587C49.3306 38.5648 49.2478 38.4919 49.1482 38.4524H49.1482Z" fill="#2F2E41"/>
<path d="M44.0663 17.6311H44.0663C44.0471 17.5559 44.0047 17.4887 43.945 17.4391C43.8853 17.3896 43.8115 17.3602 43.7341 17.3552C43.6573 16.4774 43.15 10.848 43.1307 10.6828L43.13 10.6758L42.9831 7.53801C42.9778 7.42405 42.9306 7.31605 42.8507 7.23464C42.7708 7.15322 42.6637 7.10411 42.5499 7.09666L41.774 7.04595C41.7634 7.04559 41.7533 7.04112 41.7459 7.03346C41.7385 7.02581 41.7344 7.01557 41.7344 7.00492C41.7344 6.91925 41.7175 6.83441 41.6847 6.75525C41.6519 6.6761 41.6038 6.60417 41.5433 6.54359C41.4827 6.48301 41.4108 6.43495 41.3316 6.40216C41.2524 6.36937 41.1676 6.3525 41.0819 6.3525H38.785C38.6362 6.35256 38.4925 6.40692 38.381 6.50537C38.2695 6.60382 38.1977 6.7396 38.1791 6.88722C38.1781 6.89738 38.1733 6.90679 38.1656 6.91355C38.158 6.92032 38.1481 6.92395 38.1379 6.92371L38.1376 6.92371C37.8766 6.91833 37.6223 7.0067 37.4209 7.17277C37.2195 7.33884 37.0843 7.57161 37.0398 7.82885C36.7258 9.65592 36.0964 13.8027 36.4076 16.1081C36.5159 16.9106 36.4667 18.1176 36.4257 18.7891C36.4216 18.854 36.4304 18.919 36.4515 18.9805C36.4726 19.042 36.5057 19.0987 36.5488 19.1474C36.4572 19.1739 36.3794 19.2348 36.3318 19.3174C36.2843 19.4001 36.2707 19.4979 36.2939 19.5904H36.2939C36.3178 19.6852 36.3784 19.7666 36.4623 19.8167C36.5462 19.8668 36.6466 19.8815 36.7413 19.8577L43.799 18.0785C43.8938 18.0546 43.9752 17.9941 44.0253 17.9101C44.0754 17.8262 44.0901 17.7258 44.0663 17.6311Z" fill="#3F3D56"/>
<path d="M32.402 30.8229C32.4007 30.6168 32.3264 30.4179 32.1924 30.2613C32.0584 30.1048 31.8733 30.0008 31.6699 29.9677L19.157 27.913C19.037 27.8931 18.9142 27.8986 18.7965 27.929L15.864 28.6872L14.1814 29.1228L11.0763 29.9255C10.8889 29.9742 10.7229 30.0837 10.6044 30.2369C10.4859 30.39 10.4216 30.5782 10.4215 30.7719V43.8836C10.4224 44.0835 10.4915 44.2771 10.6173 44.4324C10.7431 44.5878 10.9181 44.6956 11.1135 44.738L23.8587 44.5937C23.9186 44.6065 23.9796 44.6129 24.0408 44.6126C24.13 44.6128 24.2187 44.5993 24.3038 44.5726L31.8761 44.761C32.0548 44.7052 32.2107 44.5933 32.3208 44.4419C32.4309 44.2905 32.4892 44.1076 32.4872 43.9204L32.402 30.8229Z" fill="white"/>
<path d="M32.402 30.8229C32.4007 30.6168 32.3264 30.4179 32.1924 30.2613C32.0584 30.1048 31.8733 30.0008 31.6699 29.9677L19.157 27.913C19.037 27.8931 18.9142 27.8986 18.7965 27.929L15.864 28.6872L14.1814 29.1228L11.0763 29.9255C10.8889 29.9742 10.7229 30.0837 10.6044 30.2369C10.4859 30.39 10.4216 30.5782 10.4215 30.7719V43.8836C10.4224 44.0835 10.4915 44.2771 10.6173 44.4324C10.7431 44.5878 10.9181 44.6956 11.1135 44.738L23.8587 44.5937C23.9186 44.6065 23.9796 44.6129 24.0408 44.6126C24.13 44.6128 24.2187 44.5993 24.3038 44.5726L31.8761 44.761C32.0548 44.7052 32.2107 44.5933 32.3208 44.4419C32.4309 44.2905 32.4892 44.1076 32.4872 43.9204L32.402 30.8229ZM31.8105 44.5527L24.2382 44.7328C24.1302 44.7664 24.0154 44.7719 23.9046 44.7488L11.1586 44.5246C11.0122 44.4927 10.881 44.4118 10.7867 44.2952C10.6924 44.1787 10.6407 44.0335 10.64 43.8836V30.7719C10.6401 30.6376 10.6814 30.5067 10.7582 30.3966C10.8351 30.2866 10.9438 30.2027 11.0698 30.1564C11.0898 30.1489 11.1102 30.1425 11.131 30.1374L14.416 29.2881L16.3586 28.7856L18.8511 28.1409C18.9045 28.1267 18.9597 28.1196 19.015 28.1198C19.0506 28.1198 19.0862 28.1227 19.1213 28.1286L31.6342 30.1833C31.7349 30.1999 31.8304 30.2396 31.9131 30.2994C31.9958 30.3592 32.0634 30.4374 32.1106 30.5279C32.1579 30.6196 32.1828 30.7211 32.1834 30.8243L32.2687 43.9219C32.2702 44.0623 32.2265 44.1995 32.144 44.3131C32.0615 44.4267 31.9445 44.5107 31.8105 44.5527Z" fill="#CCCCCC"/>
<path d="M32.1105 30.5279C32.102 30.5334 32.0926 30.5376 32.0828 30.5402L28.4023 31.5352L27.2565 31.8448L23.9978 32.7254C23.9885 32.7277 23.9789 32.7289 23.9693 32.729C23.9628 32.7289 23.9562 32.7284 23.9497 32.7276L10.8096 30.3319L10.7659 30.3239C10.7375 30.3186 10.7123 30.3022 10.6959 30.2783C10.6795 30.2544 10.6732 30.225 10.6784 30.1965C10.6836 30.168 10.6998 30.1428 10.7236 30.1262C10.7474 30.1097 10.7767 30.1033 10.8053 30.1083L11.0697 30.1564L23.965 32.5076L26.7736 31.7486L28.3448 31.324L31.9685 30.3443L32.026 30.329C32.0509 30.3224 32.0773 30.3248 32.1006 30.3357C32.1239 30.3467 32.1426 30.3654 32.1535 30.3887C32.1563 30.3943 32.1585 30.4002 32.16 30.4062C32.166 30.4291 32.1644 30.4533 32.1555 30.4753C32.1466 30.4972 32.1308 30.5157 32.1105 30.5279Z" fill="#CCCCCC"/>
<path d="M24.0783 44.6381C24.0184 44.6381 23.9696 44.5899 23.9691 44.8984L23.8598 32.9893C23.8592 32.5605 23.9077 32.5111 23.9681 32.5105H23.9691C24.029 32.5105 24.0778 32.5587 24.0783 32.9873L24.1876 44.8964C24.1881 44.5882 24.1396 44.6375 24.0793 44.6381H24.0783Z" fill="#CCCCCC"/>
<path d="M28.4329 44.7763L27.2561 44.7888L26.7732 31.7486L14.4511 29.2969C14.4391 29.2948 14.4271 29.2918 14.4155 29.2881C14.3208 29.2612 14.2381 29.2029 14.1809 29.1228L15.8635 28.6872L16.358 28.7856L28.0501 31.1113C28.1116 31.1234 28.1697 31.1487 28.2205 31.1854C28.2713 31.2221 28.3135 31.2694 28.3443 31.324C28.3808 31.3873 28.4321 44.7006 28.4329 44.7763Z" fill="#CCCCCC"/>
<path d="M37.8582 6.95502C37.8573 6.79973 37.8013 6.64981 37.7003 6.53184C37.5993 6.41387 37.4598 6.33547 37.3065 6.31056L27.8762 4.76197C27.7857 4.747 27.6932 4.75112 27.6044 4.77405L25.3943 5.34551L24.1263 5.67378L21.7861 6.27872C21.6448 6.31541 21.5197 6.39794 21.4304 6.51338C21.3411 6.62882 21.2926 6.77064 21.2926 6.9166V14.6458C21.2933 14.7964 21.3454 14.9423 21.4402 15.0594C21.535 15.1765 21.6669 15.2577 21.8141 15.2897L31.4196 17.3335C31.4647 17.3431 31.5107 17.3479 31.5569 17.3477C31.6241 17.3479 31.6909 17.3377 31.755 17.3175L37.4619 15.5153C37.5966 15.4733 37.7141 15.389 37.7971 15.2749C37.8801 15.1607 37.924 15.0229 37.9225 14.8818L37.8582 6.95502Z" fill="white"/>
<path d="M27.7696 5.32957C27.7627 5.32956 27.7558 5.33045 27.7492 5.3322L21.9308 6.83687C21.9132 6.84144 21.8976 6.85174 21.8864 6.86615C21.8753 6.88056 21.8692 6.89826 21.8692 6.91648V14.6456C21.8693 14.6644 21.8758 14.6826 21.8876 14.6973C21.8994 14.7119 21.9159 14.722 21.9343 14.726L31.5398 16.7697C31.5537 16.7727 31.5682 16.772 31.5817 16.7677L37.2887 14.9656C37.3055 14.9603 37.3202 14.9498 37.3306 14.9355C37.3409 14.9213 37.3464 14.904 37.3461 14.8864L37.2822 6.95964C37.282 6.94024 37.275 6.92153 37.2624 6.9068C37.2498 6.89207 37.2324 6.88228 37.2132 6.87917L27.7829 5.33064C27.7785 5.32994 27.774 5.32958 27.7696 5.32957Z" fill="#0091C7"/>
<path d="M37.8582 6.95502C37.8573 6.79973 37.8013 6.64981 37.7003 6.53184C37.5993 6.41387 37.4598 6.33547 37.3065 6.31056L27.8762 4.76197C27.7857 4.747 27.6932 4.75112 27.6044 4.77405L25.3943 5.34551L24.1263 5.67378L21.7861 6.27872C21.6448 6.31541 21.5197 6.39794 21.4304 6.51338C21.3411 6.62882 21.2926 6.77064 21.2926 6.9166V14.6458C21.2933 14.7964 21.3454 14.9423 21.4402 15.0594C21.535 15.1765 21.6669 15.2577 21.8141 15.2897L31.4196 17.3335C31.4647 17.3431 31.5107 17.3479 31.5569 17.3477C31.6241 17.3479 31.6909 17.3377 31.755 17.3175L37.4619 15.5153C37.5966 15.4733 37.7141 15.389 37.7971 15.2749C37.8801 15.1607 37.924 15.0229 37.9225 14.8818L37.8582 6.95502ZM37.4125 15.3583L31.7056 17.1605C31.6242 17.1859 31.5377 17.1901 31.4542 17.1726L21.8481 15.1289C21.7378 15.1048 21.6389 15.0438 21.5678 14.956C21.4968 14.8682 21.4578 14.7588 21.4573 14.6458V6.9166C21.4574 6.81544 21.4884 6.71674 21.5464 6.63379C21.6043 6.55085 21.6862 6.48766 21.7812 6.45274C21.7962 6.44708 21.8116 6.44231 21.8273 6.43846L24.303 5.79839L25.7671 5.41962L27.6456 4.9338C27.6859 4.92305 27.7274 4.91769 27.7691 4.91788C27.796 4.91787 27.8228 4.92007 27.8492 4.92446L37.2796 6.47305C37.3555 6.4855 37.4275 6.51545 37.4898 6.56051C37.5521 6.60558 37.6031 6.66454 37.6387 6.73271C37.6743 6.80182 37.6931 6.87837 37.6936 6.95613L37.7578 14.883C37.759 14.9888 37.726 15.0922 37.6638 15.1778C37.6016 15.2634 37.5135 15.3267 37.4125 15.3583V15.3583Z" fill="#3F3D56"/>
<path d="M37.6392 6.73271C37.6328 6.73691 37.6257 6.74006 37.6183 6.74203L34.8445 7.4919L33.981 7.7252L31.525 8.38888C31.518 8.3906 31.5108 8.39152 31.5036 8.39162C31.4986 8.39153 31.4937 8.39117 31.4887 8.39053L21.5857 6.58503L21.5528 6.579C21.5313 6.57498 21.5123 6.56263 21.4999 6.54463C21.4875 6.52664 21.4828 6.50448 21.4867 6.48299C21.4906 6.46151 21.5029 6.44245 21.5208 6.42999C21.5388 6.41753 21.5609 6.41268 21.5824 6.41651L21.7817 6.45274L31.5003 8.22474L33.617 7.65274L34.8011 7.3327L37.5321 6.59436L37.5755 6.58284C37.5942 6.5779 37.6141 6.57969 37.6317 6.58792C37.6492 6.59615 37.6634 6.61028 37.6716 6.62785C37.6737 6.63205 37.6753 6.63646 37.6765 6.64102C37.681 6.65829 37.6798 6.67655 37.6731 6.69308C37.6664 6.70961 37.6545 6.72351 37.6392 6.73271Z" fill="#3F3D56"/>
<path d="M31.5856 17.3669C31.5639 17.3669 31.5431 17.3584 31.5277 17.3431C31.5123 17.3278 31.5035 17.3071 31.5033 17.2853L31.421 8.31003C31.4208 8.28819 31.4293 8.26718 31.4446 8.25159C31.4599 8.23601 31.4807 8.22714 31.5026 8.22694H31.5033C31.525 8.22694 31.5458 8.23551 31.5613 8.25079C31.5767 8.26607 31.5854 8.28682 31.5856 8.30853L31.668 17.2838C31.6682 17.3057 31.6597 17.3267 31.6444 17.3423C31.6291 17.3579 31.6082 17.3667 31.5864 17.3669H31.5856Z" fill="#3F3D56"/>
<path d="M34.8438 16.2751L33.9803 16.5084L33.6163 7.65274L24.3298 5.80498C24.3207 5.80336 24.3117 5.80116 24.3029 5.79839C24.2315 5.77807 24.1692 5.73414 24.1261 5.67377L25.3942 5.34551L25.7669 5.41962L34.5786 7.17241C34.625 7.18156 34.6688 7.20062 34.7071 7.22829C34.7454 7.25596 34.7772 7.29158 34.8004 7.3327C34.8279 7.38046 34.8432 16.218 34.8438 16.2751Z" fill="#3F3D56"/>
<path d="M34.4576 11.226C34.5018 11.2637 34.5429 11.3049 34.5806 11.3492L39.7535 10.745L40.2565 9.58413L42.1078 10.1144L41.4169 12.2561C41.3611 12.4291 41.2506 12.5794 41.1022 12.6843C40.9537 12.7892 40.7752 12.8431 40.5935 12.8379L34.6707 12.6696C34.5487 12.8572 34.3724 13.0033 34.1653 13.0883C33.9582 13.1733 33.7301 13.1932 33.5114 13.1454C33.2927 13.0976 33.0938 12.9844 32.941 12.8208C32.7882 12.6572 32.6889 12.4509 32.6562 12.2295C32.6235 12.008 32.659 11.7818 32.758 11.5811C32.8569 11.3803 33.0147 11.2144 33.2103 11.1054C33.4058 10.9965 33.6299 10.9497 33.8527 10.9712C34.0755 10.9927 34.2865 11.0816 34.4576 11.226Z" fill="#FFB6B6"/>
<path d="M39.6319 10.4771C39.6038 10.4153 39.5893 10.3481 39.5895 10.2802C39.5897 10.2123 39.6045 10.1453 39.633 10.0836L40.6269 7.93007C40.7245 7.5966 40.9504 7.31546 41.255 7.1483C41.5596 6.98113 41.9181 6.94158 42.2518 7.03832C42.5855 7.13506 42.8673 7.36019 43.0352 7.66435C43.2032 7.96851 43.2437 8.32688 43.1479 8.66086L42.8206 11.0177C42.8112 11.085 42.7875 11.1495 42.751 11.2067C42.7145 11.264 42.6661 11.3127 42.609 11.3496C42.552 11.3865 42.4877 11.4106 42.4205 11.4204C42.3533 11.4301 42.2848 11.4253 42.2196 11.4062L39.9292 10.735C39.864 10.7159 39.8037 10.683 39.7524 10.6385C39.7011 10.594 39.66 10.5389 39.6319 10.4771Z" fill="#3F3D56"/>
<path d="M56.9842 44.8722H0.203559C0.17452 44.8721 0.146698 44.8605 0.126194 44.84C0.105689 44.8194 0.0941772 44.7916 0.0941772 44.7625C0.0941772 44.7335 0.105689 44.7056 0.126194 44.6851C0.146698 44.6645 0.17452 44.6529 0.203559 44.6528H56.9842C57.0133 44.6528 57.0412 44.6644 57.0617 44.685C57.0823 44.7055 57.0939 44.7334 57.0939 44.7625C57.0939 44.7916 57.0823 44.8195 57.0617 44.8401C57.0412 44.8607 57.0133 44.8722 56.9842 44.8722Z" fill="#CACACA"/>
<path d="M11.1599 33.2159C12.9821 33.2159 14.4592 31.7387 14.4592 29.9165C14.4592 28.0944 12.9821 26.6172 11.1599 26.6172C9.33771 26.6172 7.86053 28.0944 7.86053 29.9165C7.86053 31.7387 9.33771 33.2159 11.1599 33.2159Z" fill="#0091C7"/>
<path d="M10.7095 31.6337C10.6525 31.6337 10.5963 31.6204 10.5453 31.5949C10.4944 31.5695 10.4501 31.5324 10.4159 31.4869L9.51578 30.2867C9.45738 30.2088 9.43231 30.1109 9.44607 30.0146C9.45984 29.9182 9.51132 29.8313 9.58919 29.7729C9.66706 29.7145 9.76494 29.6894 9.8613 29.7032C9.95765 29.717 10.0446 29.7684 10.103 29.8463L10.6919 30.6314L12.2043 28.3627C12.231 28.3225 12.2654 28.2879 12.3054 28.2609C12.3455 28.2339 12.3905 28.2151 12.4378 28.2056C12.4852 28.1961 12.5339 28.196 12.5813 28.2053C12.6287 28.2146 12.6738 28.2332 12.7139 28.26C12.7541 28.2868 12.7886 28.3212 12.8155 28.3614C12.8423 28.4015 12.861 28.4466 12.8704 28.494C12.8798 28.5413 12.8797 28.5901 12.8702 28.6374C12.8607 28.6848 12.842 28.7298 12.8151 28.7699L11.0149 31.4703C10.9823 31.5191 10.9385 31.5594 10.8871 31.5878C10.8358 31.6162 10.7784 31.6319 10.7197 31.6336C10.7163 31.6336 10.7129 31.6337 10.7095 31.6337Z" fill="white"/>
<path d="M25.2086 12.3918C25.1984 12.3918 25.1881 12.3907 25.1781 12.3884L22.322 11.7435C22.2863 11.7354 22.2553 11.7134 22.2357 11.6825C22.2162 11.6515 22.2097 11.614 22.2178 11.5783C22.2259 11.5426 22.2478 11.5115 22.2787 11.4919C22.3097 11.4723 22.3471 11.4658 22.3829 11.4738L25.239 12.1188C25.2721 12.1263 25.3014 12.1457 25.3211 12.1734C25.3408 12.2011 25.3496 12.2351 25.3459 12.2689C25.3421 12.3027 25.3261 12.3339 25.3007 12.3566C25.2754 12.3792 25.2426 12.3918 25.2086 12.3918Z" fill="white"/>
<path d="M14.2169 38.3488C14.2068 38.3509 14.1966 38.3519 14.1863 38.3517L11.2587 38.3024C11.2221 38.3017 11.1873 38.2865 11.1619 38.2602C11.1365 38.2339 11.1225 38.1985 11.1231 38.1619C11.1237 38.1253 11.1388 38.0904 11.1651 38.065C11.1914 38.0395 11.2267 38.0255 11.2633 38.026L14.1909 38.0753C14.2249 38.0759 14.2575 38.089 14.2825 38.1121C14.3074 38.1351 14.323 38.1666 14.3262 38.2005C14.3294 38.2343 14.32 38.2681 14.2999 38.2955C14.2797 38.3229 14.2502 38.3419 14.2169 38.3488Z" fill="#E6E6E6"/>
<path d="M15.2297 39.9151C15.2196 39.9171 15.2094 39.9181 15.1991 39.9179L12.2715 39.8686C12.2349 39.868 12.2001 39.8528 12.1746 39.8264C12.1492 39.8001 12.1353 39.7648 12.1359 39.7282C12.1365 39.6916 12.1516 39.6567 12.1779 39.6312C12.2042 39.6057 12.2395 39.5917 12.2761 39.5923L15.2037 39.6416C15.2377 39.6421 15.2703 39.6552 15.2952 39.6783C15.3202 39.7014 15.3357 39.7329 15.3389 39.7667C15.3422 39.8005 15.3328 39.8344 15.3126 39.8618C15.2925 39.8891 15.2629 39.9081 15.2297 39.9151Z" fill="#E6E6E6"/>
</g>
<defs>
<clipPath id="clip0_2301_30020">
<rect width="57" height="44.8984" fill="white" transform="translate(0.09375)"/>
</clipPath>
</defs>
</svg>
