<svg width="10" height="8" viewBox="0 0 10 8" fill="none" xmlns="http://www.w3.org/2000/svg">
<path d="M8.21975 4L6.20825 6.0115C6.14181 6.07764 6.10256 6.16627 6.09822 6.25992C6.09389 6.35357 6.12479 6.44544 6.18483 6.51744C6.24487 6.58943 6.32971 6.63633 6.42261 6.64888C6.51552 6.66143 6.60975 6.63873 6.68675 6.58525L6.7385 6.5425L9.413 3.865L9.4505 3.8125L9.47075 3.7705L9.488 3.7195L9.49175 3.7045C9.49735 3.67837 9.50011 3.65172 9.5 3.625L9.49625 3.6805L9.4985 3.65725V3.5935L9.48725 3.529L9.47225 3.48175L9.44225 3.42475L9.401 3.37225L6.7385 0.70825C6.67236 0.641812 6.58373 0.602557 6.49008 0.598223C6.39643 0.593888 6.30456 0.624787 6.23256 0.684831C6.16057 0.744875 6.11367 0.829708 6.10112 0.922612C6.08857 1.01552 6.11127 1.10975 6.16475 1.18675L6.20825 1.23925L8.21975 3.24925L5 3.25C2.3585 3.25 0.58625 4.732 0.503 6.84475L0.5 7C0.5 7.09946 0.539509 7.19484 0.609835 7.26516C0.680161 7.33549 0.775544 7.375 0.875 7.375C0.974456 7.375 1.06984 7.33549 1.14016 7.26516C1.21049 7.19484 1.25 7.09946 1.25 7C1.25 5.29525 2.60525 4.072 4.8035 4.003L5 4H8.21975Z" fill="#0089C8"/>
</svg>
