<svg width="200" height="107" viewBox="0 0 200 107" fill="none" xmlns="http://www.w3.org/2000/svg">
<path d="M199.556 105.444C199.556 105.119 154.941 104.858 99.9173 104.858C44.8751 104.858 0.26947 105.119 0.26947 105.444C0.26947 105.769 44.8751 106.032 99.9173 106.032C154.942 106.023 199.556 105.76 199.556 105.444Z" fill="#E1261C"/>
<path d="M119.088 32.4037C118.918 32.2722 118.8 32.0835 118.758 31.8725C118.715 31.6614 118.751 31.442 118.857 31.2549C119.093 30.84 119.372 30.354 119.498 30.1519C119.653 29.9116 119.793 29.6624 119.919 29.4056C119.958 29.2526 120.039 29.1136 120.154 29.0046C120.268 28.8957 120.411 28.8212 120.566 28.7896C120.942 28.7406 121.325 28.7519 121.698 28.8229L125.551 29.6545L127.344 30.5437L125.598 32.0837L124.628 31.788C124.337 32.0424 123.194 32.1748 122.807 32.1268C122.311 32.0652 121.317 31.7433 120.753 31.8496L120.211 31.9244L120.469 32.1422C120.942 32.1069 121.415 32.2036 121.837 32.4216C121.905 32.4665 121.958 32.5317 121.987 32.6081C122.016 32.6845 122.021 32.7681 122 32.8472C121.979 32.9263 121.934 32.9968 121.871 33.0488C121.807 33.1008 121.73 33.1317 121.648 33.137L120.381 33.2196C120.039 33.0582 119.709 32.8702 119.396 32.6572C119.298 32.5675 119.195 32.4829 119.088 32.4037Z" fill="#FFBE9D"/>
<path d="M120.211 31.9243C120.149 31.9689 120.077 31.9983 120.002 32.0102C119.798 32.0685 119.581 32.0658 119.379 32.0025C119.233 31.9556 119.104 31.8667 119.009 31.7469C118.955 31.6742 118.917 31.5909 118.897 31.5026C118.877 31.4142 118.876 31.3226 118.893 31.2337C118.917 31.1326 118.973 31.0421 119.053 30.9766C119.134 30.9176 119.223 30.8731 119.319 30.845C119.502 30.7837 119.69 30.7347 119.88 30.6984C120.243 30.6291 120.611 30.5821 120.98 30.5577C121.15 30.5463 121.311 30.5383 121.465 30.5395C121.502 30.5395 121.544 30.5417 121.582 30.5447C121.612 30.5462 121.643 30.545 121.674 30.541C121.738 30.5321 121.802 30.52 121.864 30.5047C122.354 30.3815 122.654 30.2685 122.662 30.2928C122.423 30.4376 122.164 30.546 121.892 30.6144C121.826 30.6344 121.759 30.6509 121.691 30.6636C121.651 30.6706 121.61 30.6736 121.57 30.6726C121.535 30.6726 121.503 30.6726 121.465 30.6726C121.318 30.6769 121.157 30.6898 120.991 30.7052C120.657 30.736 120.289 30.7819 119.91 30.8558C119.727 30.8905 119.547 30.9365 119.37 30.9935C119.19 31.0456 119.072 31.125 119.037 31.2689C119.022 31.3375 119.022 31.4083 119.036 31.4771C119.049 31.5459 119.076 31.6112 119.116 31.6693C119.192 31.7722 119.296 31.8513 119.416 31.8972C119.599 31.963 119.796 31.9811 119.987 31.9498C120.129 31.9317 120.207 31.911 120.211 31.9243Z" fill="#EB996E"/>
<path d="M120.69 29.9172C120.731 29.9061 120.806 30.1097 120.731 30.3534C120.656 30.597 120.481 30.7229 120.454 30.6921C120.42 30.6614 120.518 30.5098 120.577 30.3068C120.636 30.1039 120.643 29.9243 120.69 29.9172Z" fill="#EB996E"/>
<path d="M121.293 30.1606C121.336 30.1649 121.348 30.3146 121.241 30.4529C121.135 30.5912 120.988 30.618 120.972 30.5761C120.957 30.5342 121.037 30.4578 121.114 30.354C121.192 30.2502 121.248 30.1535 121.293 30.1606Z" fill="#EB996E"/>
<path d="M136.462 29.3011C136.993 29.0811 133.418 32.7541 133.418 32.7541L126.814 30.2931L124.483 31.725L131.585 36.7239C132.315 37.2374 133.204 37.4731 134.092 37.3884C134.981 37.3036 135.81 36.9041 136.429 36.2619L140.62 31.4173L136.462 29.3011Z" fill="#FFBE9D"/>
<path d="M140.334 14.5783C139.413 14.4018 138.836 14.1163 138.812 13.7624C138.762 13.0306 141.088 12.2766 144.007 12.0789C146.925 11.8812 149.332 12.3142 149.382 13.0463C149.405 13.3993 148.877 13.7572 147.996 14.0553" fill="#E1261C"/>
<g opacity="0.4">
<path opacity="0.4" d="M140.836 14.5168C140.02 14.36 139.488 14.1087 139.487 13.7936C139.485 12.9167 141.505 12.4769 144.092 12.3014C146.678 12.1258 148.811 12.5099 148.855 13.1588C148.877 13.4718 148.409 13.7887 147.628 14.052" fill="black"/>
</g>
<path d="M139.515 13.3689C139.515 13.3689 140.061 10.211 140.115 10.0554C140.17 9.8999 140.963 8.4794 143.053 7.94718L144.802 7.8289C144.802 7.8289 147.339 8.45938 147.834 9.0335C148.329 9.60761 148.722 12.5308 148.722 12.5308L143.744 11.7972L140.463 12.8367L139.515 13.3689Z" fill="#E1261C"/>
<path d="M143.601 7.55251L142.85 7.60333C142.674 7.83527 142.588 8.1224 142.605 8.41276C142.607 8.95884 142.737 12.6976 142.737 12.6976L144.924 12.4494L144.541 7.84634L145.297 7.96123L145.256 7.70189L145.043 7.48228L143.601 7.55251Z" fill="#E1261C"/>
<path d="M148.173 24.7642L142.813 24.8812C142.745 24.3164 142.796 20.7894 142.796 20.7894C142.796 20.7894 140.756 20.6123 140.594 18.5946C140.432 16.5769 140.465 12.5252 140.465 12.5252L140.488 12.3465C142.757 11.1835 145.458 10.9103 147.58 12.3256L147.894 12.5357L148.173 24.7642Z" fill="#FFBE9D"/>
<path d="M142.796 20.7896C143.728 20.7241 144.622 20.3928 145.372 19.8348C145.372 19.8348 144.816 21.3604 142.789 21.3148L142.796 20.7896Z" fill="#EB996E"/>
<path d="M147.787 14.6442C147.82 14.6266 149.146 14.1397 149.196 15.5232C149.246 16.9067 147.846 16.6708 147.841 16.632C147.835 16.5932 147.787 14.6442 147.787 14.6442Z" fill="#FFBE9D"/>
<path d="M148.246 16.0922C148.252 16.0876 148.271 16.1082 148.312 16.1252C148.37 16.1478 148.435 16.1469 148.493 16.1227C148.58 16.0628 148.65 15.9808 148.695 15.885C148.74 15.7891 148.759 15.683 148.749 15.5776C148.749 15.4589 148.722 15.3418 148.67 15.2351C148.655 15.1922 148.631 15.1536 148.598 15.1224C148.565 15.0913 148.525 15.0686 148.482 15.0564C148.454 15.0502 148.425 15.0539 148.399 15.0669C148.374 15.0798 148.353 15.1013 148.342 15.1276C148.325 15.167 148.335 15.1944 148.327 15.1969C148.32 15.1993 148.297 15.1747 148.306 15.1174C148.312 15.0828 148.331 15.0515 148.357 15.0287C148.394 14.9986 148.442 14.9842 148.489 14.9887C148.546 14.9978 148.6 15.0215 148.646 15.0575C148.691 15.0935 148.727 15.1405 148.749 15.1941C148.812 15.3119 148.845 15.4433 148.846 15.5769C148.857 15.6998 148.832 15.8233 148.773 15.9318C148.714 16.0403 148.625 16.129 148.516 16.1868C148.479 16.1989 148.44 16.2027 148.402 16.1977C148.363 16.1928 148.327 16.1792 148.294 16.1581C148.25 16.1255 148.24 16.0947 148.246 16.0922Z" fill="#EB996E"/>
<path d="M141.136 15.0163C141.14 15.0915 141.174 15.1621 141.229 15.213C141.285 15.2639 141.358 15.291 141.434 15.2885C141.47 15.2889 141.507 15.2818 141.541 15.2678C141.575 15.2539 141.606 15.2332 141.632 15.2071C141.658 15.181 141.679 15.15 141.693 15.1158C141.707 15.0817 141.714 15.0451 141.713 15.0082C141.709 14.9331 141.675 14.8625 141.62 14.8117C141.564 14.7608 141.491 14.7337 141.416 14.736C141.379 14.7356 141.342 14.7427 141.308 14.7566C141.274 14.7706 141.243 14.7913 141.217 14.8174C141.191 14.8435 141.17 14.8745 141.156 14.9087C141.143 14.9428 141.136 14.9794 141.136 15.0163Z" fill="#263238"/>
<path d="M141.042 14.732C141.081 14.7671 141.289 14.5906 141.598 14.5703C141.908 14.5499 142.147 14.6901 142.178 14.6497C142.193 14.6319 142.152 14.5663 142.048 14.501C141.908 14.4169 141.744 14.3785 141.581 14.391C141.42 14.4011 141.266 14.4625 141.142 14.5663C141.051 14.6454 141.023 14.7156 141.042 14.732Z" fill="#263238"/>
<path d="M144.193 14.9028C144.197 14.9781 144.231 15.0486 144.286 15.0995C144.342 15.1503 144.415 15.1775 144.491 15.1751C144.527 15.1754 144.564 15.1684 144.598 15.1544C144.632 15.1404 144.663 15.1198 144.689 15.0937C144.715 15.0676 144.736 15.0366 144.75 15.0024C144.764 14.9682 144.771 14.9317 144.77 14.8948C144.766 14.8196 144.732 14.7491 144.677 14.6982C144.621 14.6474 144.548 14.6202 144.473 14.6225C144.436 14.6222 144.399 14.6292 144.365 14.6431C144.331 14.6571 144.3 14.6777 144.274 14.7038C144.248 14.7299 144.227 14.761 144.213 14.7951C144.199 14.8293 144.192 14.8659 144.193 14.9028Z" fill="#263238"/>
<path d="M144.097 14.5827C144.135 14.6178 144.343 14.4413 144.653 14.421C144.963 14.4007 145.201 14.5408 145.232 14.5005C145.247 14.4826 145.207 14.417 145.102 14.3517C144.962 14.2676 144.799 14.2291 144.636 14.2417C144.474 14.2519 144.32 14.3133 144.196 14.417C144.106 14.4968 144.078 14.567 144.097 14.5827Z" fill="#263238"/>
<path d="M143.127 16.9603C142.96 16.9199 142.789 16.9008 142.617 16.9033C142.537 16.9005 142.461 16.89 142.444 16.8367C142.432 16.7554 142.445 16.6722 142.481 16.5984C142.543 16.4016 142.607 16.1952 142.675 15.979C142.857 15.4532 142.998 14.9136 143.094 14.3654C142.869 14.8751 142.686 15.4022 142.546 15.9414C142.482 16.1588 142.421 16.3658 142.361 16.5639C142.318 16.6627 142.31 16.7738 142.341 16.8774C142.354 16.9046 142.374 16.9283 142.398 16.9469C142.422 16.9654 142.449 16.9783 142.479 16.9846C142.524 16.9935 142.569 16.9967 142.615 16.9941C142.786 17.0046 142.959 16.9932 143.127 16.9603Z" fill="#263238"/>
<path d="M144.054 17.1129C144.003 17.1129 144.025 17.4517 143.753 17.7088C143.481 17.966 143.12 17.9552 143.12 18.0017C143.117 18.0233 143.205 18.0618 143.357 18.0556C143.554 18.0451 143.742 17.9651 143.886 17.8299C144.025 17.7 144.107 17.5214 144.117 17.3318C144.12 17.1902 144.077 17.1092 144.054 17.1129Z" fill="#263238"/>
<path d="M143.934 13.3721C143.97 13.4544 144.277 13.3934 144.644 13.4128C145.012 13.4245 145.312 13.5113 145.355 13.4322C145.375 13.3946 145.318 13.3188 145.194 13.2452C145.029 13.1557 144.845 13.105 144.657 13.0971C144.47 13.0891 144.283 13.1241 144.11 13.1993C143.981 13.2622 143.918 13.333 143.934 13.3721Z" fill="#263238"/>
<path d="M141.095 13.8258C141.154 13.8927 141.363 13.8049 141.618 13.7842C141.874 13.7534 142.096 13.7993 142.142 13.7226C142.161 13.6854 142.122 13.6173 142.023 13.5569C141.889 13.4857 141.738 13.4555 141.588 13.4704C141.437 13.4853 141.295 13.5444 141.178 13.6404C141.095 13.7183 141.069 13.7932 141.095 13.8258Z" fill="#263238"/>
<path d="M147.926 13.33C147.91 13.8937 147.966 14.4598 147.95 15.024C147.932 15.2375 147.878 15.4463 147.79 15.6419C147.761 15.7548 147.697 15.8558 147.608 15.9306C147.518 16.0054 147.407 16.0501 147.291 16.0585C147.175 16.0669 147.059 16.0386 146.959 15.9775C146.86 15.9163 146.782 15.8256 146.737 15.7179C146.627 15.4957 146.568 15.2514 146.565 15.0034C146.563 14.7557 146.52 14.5101 146.44 14.2759C146.309 14.0316 146.153 13.8018 145.974 13.5903C145.885 13.4837 145.822 13.3579 145.79 13.2228C145.758 13.0876 145.757 12.9469 145.789 12.8117C146.535 12.7882 147.273 12.9676 147.924 13.3306" fill="#263238"/>
<path d="M140.466 13.5821L140.433 12.4496L143.667 11.2429L147.87 12.178L147.952 13.3921C145.524 12.4997 142.846 12.5677 140.466 13.5821Z" fill="#455A64"/>
<path d="M140.622 12.1962L140.487 12.3468L139.35 13.1732C140.839 12.6724 142.385 12.3597 143.951 12.2424C145.67 12.2018 147.388 12.3626 149.069 12.7213L147.441 11.8864C147.177 11.64 146.867 11.449 146.528 11.3247C146.189 11.2003 145.829 11.1452 145.468 11.1626L142.5 11.3055C142.144 11.3227 141.794 11.4103 141.472 11.5631C141.15 11.716 140.861 11.9312 140.622 12.1962Z" fill="#E1261C"/>
<path d="M142.686 11.2128C142.742 10.6875 142.757 10.1587 142.73 9.63122C142.744 9.10322 142.717 8.57491 142.648 8.05118C142.593 8.57644 142.578 9.10524 142.605 9.63276C142.591 10.1607 142.618 10.689 142.686 11.2128Z" fill="#263238"/>
<path d="M145.296 7.96143C145.114 7.89516 144.923 7.85372 144.729 7.83823C144.669 7.84324 144.613 7.87032 144.572 7.91423C144.531 7.95814 144.507 8.01578 144.506 8.076C144.513 8.18319 144.52 8.29417 144.527 8.40895C144.546 8.64611 144.565 8.89775 144.586 9.16201C144.631 9.69608 144.678 10.1784 144.72 10.5286C144.731 10.7192 144.762 10.9081 144.813 11.0919C144.832 10.9025 144.831 10.7115 144.808 10.5224C144.79 10.1716 144.756 9.68746 144.711 9.15308C144.687 8.88913 144.664 8.63749 144.642 8.40064C144.631 8.28873 144.621 8.18062 144.611 8.07631C144.611 8.03987 144.624 8.00449 144.647 7.97679C144.671 7.94908 144.704 7.93093 144.74 7.9257C144.924 7.95468 145.11 7.96664 145.296 7.96143Z" fill="#263238"/>
<path d="M139.275 13.1637C139.281 13.1721 139.41 13.0978 139.658 12.9903C139.781 12.9346 139.935 12.8705 140.105 12.7763C140.306 12.6731 140.477 12.5202 140.602 12.3321C140.748 12.1165 140.756 11.8304 140.919 11.6157C141.069 11.3875 141.393 11.3669 141.706 11.3336C142.341 11.2646 143.041 11.2104 143.778 11.1811C144.515 11.1519 145.218 11.1451 145.858 11.1503C146.15 11.1241 146.442 11.2003 146.684 11.3659C146.783 11.4569 146.873 11.5566 146.953 11.6638L147.079 11.8144L147.143 11.8852C147.169 11.9102 147.2 11.9301 147.234 11.9438C147.69 12.1286 148.061 12.2394 148.315 12.3349C148.445 12.3876 148.578 12.4333 148.713 12.4717C148.684 12.4489 148.652 12.4305 148.618 12.4172C148.554 12.3864 148.458 12.342 148.333 12.2896C148.087 12.1812 147.709 12.0531 147.272 11.8643C147.249 11.8548 147.228 11.8413 147.21 11.8246L147.148 11.7546L147.028 11.6043C146.946 11.4904 146.853 11.3844 146.751 11.2877C146.493 11.1019 146.177 11.0129 145.86 11.0364C145.218 11.0241 144.513 11.0262 143.773 11.0567C143.033 11.0872 142.33 11.1439 141.693 11.2196C141.535 11.2333 141.378 11.2585 141.223 11.2951C141.066 11.3318 140.929 11.4244 140.835 11.5554C140.657 11.8089 140.656 12.095 140.527 12.2859C140.414 12.4656 140.257 12.6139 140.071 12.7171C139.909 12.8145 139.759 12.8853 139.638 12.9475C139.518 13.0097 139.425 13.0612 139.364 13.0994C139.304 13.1376 139.273 13.1616 139.275 13.1637Z" fill="#263238"/>
<path d="M139.729 13.3093C139.76 13.2976 139.788 13.281 139.814 13.26C139.889 13.2066 139.968 13.1589 140.051 13.1171C140.354 12.9635 140.673 12.8425 141.002 12.7561C142.091 12.4696 143.215 12.3387 144.34 12.3674C145.003 12.3699 145.634 12.3563 146.202 12.3921C146.768 12.4343 147.283 12.5057 147.707 12.5769C147.919 12.6147 148.109 12.6573 148.275 12.7001C148.416 12.7265 148.55 12.7841 148.666 12.8685C148.713 12.9069 148.75 12.9555 148.775 13.0107C148.801 13.0659 148.813 13.1261 148.811 13.1867C148.814 13.1867 148.83 13.1559 148.827 13.0885C148.817 12.9903 148.771 12.8994 148.698 12.8328C148.581 12.7355 148.442 12.6671 148.294 12.6332C148.128 12.5821 147.937 12.5331 147.724 12.4894C147.223 12.3913 146.718 12.3202 146.209 12.2763C145.634 12.2337 145.001 12.2455 144.341 12.2418C143.204 12.211 142.069 12.3555 140.977 12.6702C140.645 12.7655 140.326 12.901 140.027 13.0737C139.945 13.1208 139.869 13.1761 139.798 13.2388C139.75 13.2825 139.726 13.3062 139.729 13.3093Z" fill="#263238"/>
<path d="M143.172 7.67951C143.275 7.68869 143.379 7.68941 143.482 7.68167L144.227 7.65087C144.518 7.64286 144.784 7.60559 144.968 7.62438C145.019 7.62724 145.068 7.64046 145.112 7.66321C145.157 7.68595 145.197 7.71772 145.228 7.75651C145.221 7.72854 145.205 7.70351 145.183 7.68475C145.125 7.63186 145.052 7.59848 144.973 7.58927C144.724 7.57601 144.474 7.58003 144.225 7.60128L143.48 7.64532C143.376 7.64851 143.273 7.65994 143.172 7.67951Z" fill="#FAFAFA"/>
<path d="M143.045 11.336C143.097 11.3413 143.149 11.3423 143.202 11.3391L143.628 11.3329C143.987 11.328 144.483 11.324 145.032 11.3329L145.805 11.352C146.014 11.3498 146.224 11.3663 146.43 11.4013C146.567 11.4294 146.691 11.5038 146.78 11.6119C146.81 11.6538 146.835 11.6988 146.855 11.7462C146.848 11.6933 146.828 11.6429 146.796 11.6006C146.708 11.4825 146.582 11.3996 146.439 11.3671C146.231 11.3262 146.019 11.3056 145.807 11.3055C145.569 11.2947 145.307 11.2867 145.033 11.2824C144.483 11.2735 143.985 11.2824 143.627 11.2972L143.201 11.3193C143.148 11.3206 143.096 11.3261 143.045 11.336Z" fill="#FAFAFA"/>
<path d="M144.667 10.7875C144.669 10.7499 144.666 10.7123 144.658 10.6754C144.645 10.5762 144.631 10.4761 144.617 10.3732C144.582 10.1179 144.538 9.76526 144.499 9.3744C144.461 8.98355 144.438 8.62843 144.422 8.37156C144.416 8.26776 144.41 8.16705 144.404 8.06695C144.404 8.02933 144.4 7.99181 144.391 7.95514C144.385 7.99219 144.382 8.02994 144.384 8.06756C144.384 8.13963 144.384 8.24404 144.387 8.37279C144.393 8.63089 144.412 8.98725 144.449 9.37933C144.486 9.77142 144.538 10.1241 144.581 10.3785C144.603 10.5057 144.622 10.6083 144.638 10.6788C144.643 10.716 144.653 10.7525 144.667 10.7875Z" fill="#FAFAFA"/>
<path d="M147.23 12.0121C147.261 12.0304 147.294 12.045 147.328 12.0559L147.598 12.1578L148.498 12.476C148.664 12.5266 148.826 12.589 148.984 12.6626C149.11 12.7216 149.212 12.823 149.272 12.9494C149.311 13.0349 149.32 13.1312 149.298 13.2226C149.279 13.2863 149.254 13.315 149.258 13.319C149.285 13.2941 149.305 13.263 149.316 13.2284C149.348 13.1327 149.344 13.029 149.305 12.9361C149.246 12.799 149.14 12.6876 149.006 12.6223C148.847 12.545 148.682 12.4804 148.513 12.4291L147.609 12.1245L147.332 12.0374C147.299 12.0248 147.265 12.0163 147.23 12.0121Z" fill="#FAFAFA"/>
<path d="M124.467 67.057L124.744 72.0565C124.744 72.0565 119.755 74.019 119.718 74.9483L129.431 74.7558L129.317 66.9477L124.467 67.057Z" fill="#E1261C"/>
<g opacity="0.4">
<path opacity="0.4" d="M124.467 67.057L124.744 72.0565C124.744 72.0565 119.755 74.019 119.718 74.9483L129.431 74.7558L129.317 66.9477L124.467 67.057Z" fill="black"/>
</g>
<path d="M127.741 71.576C127.835 71.6026 127.916 71.6629 127.968 71.7454C128.021 71.828 128.041 71.9269 128.025 72.0232C128.002 72.1181 127.943 72.2005 127.861 72.2535C127.779 72.3064 127.68 72.3259 127.584 72.3078C127.484 72.2794 127.399 72.2151 127.344 72.1273C127.289 72.0395 127.268 71.9345 127.286 71.8326C127.32 71.7355 127.391 71.6554 127.483 71.6094C127.575 71.5634 127.681 71.5551 127.779 71.5862" fill="#E0E0E0"/>
<path d="M129.433 74.7556L129.391 73.969L120.093 74.4476C120.093 74.4476 119.665 74.6444 119.719 74.9481L129.433 74.7556Z" fill="#E0E0E0"/>
<path d="M124.586 72.0102C124.589 72.0576 124.826 72.0745 125.063 72.2224C125.303 72.3641 125.427 72.567 125.471 72.5473C125.514 72.5375 125.438 72.2553 125.148 72.0813C124.859 71.9073 124.577 71.967 124.586 72.0102Z" fill="#263238"/>
<path d="M123.577 72.4519C123.567 72.4981 123.774 72.5751 123.939 72.7719C124.11 72.9644 124.155 73.1806 124.202 73.1778C124.247 73.1843 124.274 72.9059 124.064 72.6644C123.854 72.4229 123.577 72.4066 123.577 72.4519Z" fill="#263238"/>
<path d="M123.023 73.6839C123.066 73.6931 123.127 73.4547 123 73.1975C122.873 72.9403 122.65 72.8412 122.631 72.8812C122.605 72.9206 122.752 73.0571 122.853 73.2699C122.958 73.479 122.975 73.6789 123.023 73.6839Z" fill="#263238"/>
<path d="M124.651 70.8638C124.672 70.9066 124.888 70.837 125.156 70.8496C125.425 70.8573 125.635 70.942 125.659 70.902C125.686 70.8671 125.479 70.6956 125.163 70.6863C124.846 70.6771 124.627 70.8268 124.651 70.8638Z" fill="#263238"/>
<g opacity="0.3">
<path opacity="0.3" d="M124.524 68.0472L124.573 68.9383L129.347 68.8003L129.337 67.9967L124.524 68.0472Z" fill="black"/>
</g>
<path d="M124.613 69.8542C124.773 69.894 124.941 69.8898 125.099 69.8419C125.274 69.8073 125.444 69.7515 125.605 69.6756C125.701 69.6307 125.794 69.5793 125.882 69.5216C125.936 69.4904 125.985 69.4509 126.027 69.4046C126.057 69.3702 126.076 69.3267 126.079 69.281C126.082 69.2352 126.069 69.1897 126.044 69.1517C126.019 69.1191 125.988 69.0927 125.951 69.0745C125.915 69.0564 125.874 69.0471 125.834 69.0473C125.772 69.048 125.711 69.0577 125.652 69.0762C125.549 69.1035 125.448 69.1402 125.351 69.1859C125.189 69.2632 125.039 69.3656 124.909 69.4893C124.688 69.7024 124.614 69.881 124.631 69.8897C124.653 69.9047 124.76 69.7541 124.986 69.5773C125.117 69.475 125.261 69.39 125.415 69.3245C125.504 69.2862 125.597 69.2553 125.692 69.2321C125.794 69.2031 125.882 69.2013 125.909 69.2459C125.919 69.2632 125.92 69.27 125.899 69.3004C125.868 69.334 125.832 69.3628 125.793 69.3861C125.711 69.4418 125.627 69.4926 125.539 69.5382C125.39 69.6158 125.233 69.6792 125.072 69.7276C124.916 69.7587 124.763 69.801 124.613 69.8542Z" fill="#263238"/>
<path d="M124.676 69.9208C124.766 69.7802 124.807 69.6147 124.795 69.4486C124.8 69.2684 124.774 69.0887 124.718 68.9173C124.685 68.8156 124.641 68.7174 124.588 68.6244C124.561 68.5607 124.518 68.5051 124.462 68.4631C124.407 68.4211 124.342 68.3941 124.273 68.3848C124.23 68.3866 124.188 68.4007 124.153 68.4255C124.117 68.4502 124.089 68.4846 124.073 68.5246C124.049 68.5819 124.033 68.6422 124.026 68.7039C124.012 68.8128 124.014 68.9233 124.033 69.0316C124.063 69.213 124.138 69.3842 124.25 69.5299C124.445 69.7763 124.644 69.8305 124.648 69.8145C124.663 69.7905 124.496 69.7021 124.346 69.4631C124.259 69.3254 124.204 69.1705 124.183 69.0091C124.171 68.9156 124.172 68.8208 124.187 68.7276C124.199 68.6241 124.237 68.54 124.276 68.5499C124.324 68.548 124.407 68.6244 124.449 68.706C124.499 68.7892 124.541 68.8766 124.575 68.9672C124.632 69.1226 124.667 69.2855 124.678 69.4508C124.697 69.7357 124.65 69.9143 124.676 69.9208Z" fill="#263238"/>
<path d="M150.692 45.814C150.692 45.814 149.631 51.257 147.868 51.3343C145.705 51.4289 130.048 51.6423 130.048 51.6423L131.003 69.0798L124.169 68.915L121.439 51.7326C121.135 50.1905 121.392 48.5904 122.166 47.2219C122.184 47.1911 122.203 47.1578 122.222 47.1258C122.806 46.1659 123.627 45.3721 124.606 44.8204C125.585 44.2688 126.689 43.9779 127.813 43.9756L140.817 43.78L150.692 45.814Z" fill="#263238"/>
<path d="M127.122 67.0569L127.4 72.0564C127.4 72.0564 122.41 74.0189 122.373 74.9482L132.086 74.7557L131.972 66.9476L127.122 67.0569Z" fill="#E1261C"/>
<path d="M130.396 71.576C130.49 71.6025 130.571 71.6629 130.623 71.7454C130.676 71.8279 130.696 71.9268 130.679 72.0232C130.656 72.1181 130.598 72.2005 130.516 72.2534C130.434 72.3064 130.334 72.3258 130.238 72.3078C130.139 72.2794 130.053 72.2151 129.998 72.1273C129.943 72.0396 129.923 71.9345 129.941 71.8325C129.975 71.7355 130.045 71.6555 130.137 71.6095C130.229 71.5635 130.336 71.5551 130.434 71.5861" fill="#E0E0E0"/>
<path d="M132.088 74.7556L132.045 73.969L122.748 74.4477C122.748 74.4477 122.319 74.6445 122.375 74.9481L132.088 74.7556Z" fill="#E0E0E0"/>
<path d="M127.243 72.0102C127.245 72.0576 127.483 72.0745 127.719 72.2224C127.96 72.3641 128.084 72.5671 128.127 72.5473C128.171 72.5375 128.094 72.2553 127.805 72.0813C127.515 71.9073 127.232 71.9671 127.243 72.0102Z" fill="#263238"/>
<path d="M126.232 72.4519C126.222 72.4981 126.429 72.5751 126.594 72.7719C126.765 72.9644 126.81 73.1806 126.857 73.1779C126.902 73.1843 126.929 72.9059 126.719 72.6644C126.509 72.4229 126.232 72.4066 126.232 72.4519Z" fill="#263238"/>
<path d="M125.678 73.6839C125.721 73.6931 125.782 73.4547 125.655 73.1976C125.528 72.9404 125.304 72.8412 125.286 72.8812C125.259 72.9207 125.406 73.0571 125.507 73.2699C125.608 73.4828 125.631 73.679 125.678 73.6839Z" fill="#263238"/>
<path d="M127.305 70.8638C127.326 70.9066 127.542 70.837 127.811 70.8496C128.08 70.8573 128.29 70.942 128.314 70.902C128.34 70.8672 128.133 70.6956 127.817 70.6864C127.5 70.6771 127.281 70.8268 127.305 70.8638Z" fill="#263238"/>
<g opacity="0.3">
<path opacity="0.3" d="M127.178 68.0473L127.227 68.9383L132.001 68.8003L131.991 67.9968L127.178 68.0473Z" fill="black"/>
</g>
<path d="M127.268 69.8543C127.428 69.894 127.596 69.8898 127.754 69.8419C127.929 69.8073 128.099 69.7515 128.26 69.6756C128.356 69.6308 128.449 69.5793 128.537 69.5216C128.591 69.4904 128.64 69.4509 128.682 69.4046C128.712 69.3702 128.731 69.3267 128.734 69.281C128.737 69.2352 128.724 69.1898 128.699 69.1517C128.674 69.1191 128.643 69.0927 128.606 69.0746C128.57 69.0564 128.529 69.0471 128.489 69.0473C128.427 69.0481 128.366 69.0578 128.307 69.0763C128.203 69.1036 128.103 69.1403 128.006 69.1859C127.844 69.2632 127.694 69.3656 127.564 69.4893C127.342 69.7024 127.269 69.8811 127.287 69.8897C127.308 69.9048 127.415 69.7542 127.641 69.5774C127.773 69.475 127.917 69.39 128.07 69.3245C128.16 69.2863 128.253 69.2554 128.347 69.2321C128.45 69.2032 128.537 69.2013 128.563 69.246C128.573 69.2632 128.574 69.27 128.553 69.3005C128.522 69.334 128.486 69.3628 128.447 69.3861C128.366 69.4418 128.281 69.4926 128.193 69.5383C128.044 69.6158 127.888 69.6792 127.726 69.7277C127.571 69.7587 127.417 69.801 127.268 69.8543Z" fill="#263238"/>
<path d="M127.331 69.9208C127.42 69.7803 127.462 69.6147 127.45 69.4486C127.458 69.1602 127.386 68.8751 127.243 68.6244C127.216 68.5607 127.172 68.5052 127.117 68.4632C127.062 68.4212 126.997 68.3942 126.928 68.3848C126.885 68.3866 126.843 68.4007 126.807 68.4254C126.772 68.4502 126.744 68.4846 126.728 68.5246C126.704 68.5819 126.688 68.6423 126.681 68.7039C126.666 68.8128 126.668 68.9233 126.687 69.0316C126.718 69.2131 126.793 69.3842 126.905 69.53C127.1 69.7764 127.299 69.8306 127.303 69.8145C127.318 69.7905 127.151 69.7021 127.001 69.4631C126.914 69.3254 126.859 69.1705 126.838 69.0091C126.826 68.9156 126.827 68.8208 126.841 68.7276C126.854 68.6241 126.891 68.54 126.93 68.5499C126.979 68.5481 127.062 68.6244 127.104 68.7061C127.153 68.7892 127.195 68.8766 127.229 68.9672C127.287 69.1227 127.322 69.2855 127.333 69.4508C127.352 69.7357 127.305 69.9143 127.331 69.9208Z" fill="#263238"/>
<path d="M152.417 45.8141C152.417 45.8141 151.356 51.257 149.593 51.3344C147.43 51.4289 131.773 51.6424 131.773 51.6424L132.728 69.0798L125.895 68.915L123.164 51.7326C122.86 50.1905 123.118 48.5906 123.891 47.2219C123.909 47.1911 123.928 47.1579 123.947 47.1258C124.531 46.1659 125.352 45.3721 126.331 44.8205C127.31 44.2689 128.414 43.978 129.538 43.9756L142.543 43.78L152.417 45.8141Z" fill="#263238"/>
<path d="M139.093 23.9505L141.139 37.65L139.745 43.8042L152.417 47.5344C153.561 45.8977 153.606 40.6937 153.565 37.0137C153.495 30.5278 153.781 30.2131 153.501 27.9379C153.224 25.6895 152.742 24.1994 151.54 23.4842L148.103 21.7163C148.103 21.7163 146.154 22.9566 144.97 22.8888C144.97 22.8888 143.561 22.947 142.781 22.1992C142.781 22.1992 139.935 23.0622 139.093 23.9505Z" fill="#E1261C"/>
<path d="M139.092 23.9507L134.869 29.7719L140.62 33.1476L140.18 31.0313L139.092 23.9507Z" fill="#E1261C"/>
<path d="M129.029 44.062C129.006 44.0692 128.981 44.0729 128.956 44.0731L128.743 44.0897C128.627 44.0969 128.512 44.1103 128.397 44.1297C128.241 44.1504 128.085 44.1798 127.932 44.2178C126.951 44.4574 126.045 44.9377 125.295 45.6152C124.78 46.0795 124.336 46.6183 123.98 47.2137C123.571 47.8961 123.318 48.6601 123.238 49.4514C123.163 50.3296 123.196 51.2137 123.337 52.0838C123.46 52.9943 123.64 53.9368 123.739 54.9128C123.957 56.8554 124.25 58.6963 124.525 60.3687L125.277 64.8104C125.489 66.0751 125.653 67.1001 125.755 67.8103C125.802 68.1549 125.839 68.4277 125.866 68.6287C125.876 68.7146 125.885 68.7845 125.891 68.8421C125.895 68.8664 125.897 68.8912 125.894 68.9157C125.884 68.8931 125.878 68.8691 125.875 68.8446L125.835 68.6336C125.8 68.4342 125.753 68.1631 125.693 67.8202C125.566 67.0998 125.385 66.0818 125.165 64.8298C124.941 63.5624 124.675 62.0603 124.379 60.3946C124.097 58.7222 123.798 56.8797 123.579 54.9319C123.48 53.9605 123.304 53.0239 123.18 52.106C123.04 51.2231 123.01 50.3263 123.09 49.436C123.176 48.625 123.441 47.8432 123.865 47.1466C124.233 46.5428 124.69 45.9982 125.22 45.5315C125.987 44.8506 126.916 44.3778 127.918 44.1581C128.282 44.0747 128.656 44.0423 129.029 44.062Z" fill="#455A64"/>
<path d="M133.885 39.8315C133.885 39.8315 138.772 41.41 142.573 42.7883C143.218 43.0221 143.911 43.0926 144.591 42.9938C145.27 42.895 145.914 42.6298 146.466 42.2219C147.172 41.7004 147.694 40.9693 147.96 40.1331L150.562 31.9332L146.217 30.4101L143.312 37.7809L132.501 36.3594" fill="#FFBE9D"/>
<path d="M127.42 38.1408L127.379 37.7533C127.405 37.4665 127.525 37.1961 127.719 36.9833C127.824 36.8684 127.948 36.7729 128.086 36.7012L129.366 36.0344C129.56 35.9336 129.781 35.8989 129.996 35.9355L132.619 36.3815L135.626 36.7766L135.004 40.1991L133.613 39.7371C133.613 39.7371 132.604 40.2959 131.984 40.1628C131.984 40.1628 131.408 40.5469 131.171 40.2663C131.171 40.2663 130.654 40.7095 130.463 40.6799C130.272 40.6504 129.887 40.4286 129.901 40.2958L129.916 40.1184C129.817 40.1703 129.706 40.1947 129.594 40.1893C129.483 40.1839 129.375 40.1488 129.281 40.0876C129.148 39.9847 129.045 39.8466 128.986 39.6888C128.746 39.6631 128.519 39.5653 128.336 39.4082C128.215 39.2306 128.135 39.0291 128.099 38.8174C128.099 38.8174 127.516 38.5412 127.42 38.1408Z" fill="#FFBE9D"/>
<path d="M129.353 36.9001C129.371 36.8983 129.403 37.04 129.339 37.2574C129.243 37.53 129.085 37.7764 128.877 37.9772C128.646 38.2141 128.432 38.4084 128.298 38.5689C128.165 38.7293 128.096 38.8399 128.074 38.8301C128.052 38.8202 128.087 38.6865 128.207 38.5011C128.372 38.2726 128.557 38.0602 128.762 37.8666C128.955 37.6786 129.115 37.4593 129.234 37.218C129.317 37.032 129.327 36.8992 129.353 36.9001Z" fill="#EB996E"/>
<path d="M129.853 38.269C129.806 38.551 129.688 38.8166 129.511 39.0412C129.257 39.4354 128.977 39.6969 128.945 39.6679C129.218 39.1828 129.521 38.7155 129.853 38.269Z" fill="#EB996E"/>
<path d="M130.522 39.1749C130.559 39.1989 130.45 39.4231 130.278 39.6751C130.107 39.927 129.938 40.1109 129.902 40.0853C129.865 40.0598 129.975 39.8355 130.146 39.5848C130.316 39.3341 130.485 39.1505 130.522 39.1749Z" fill="#EB996E"/>
<path d="M130.398 38.8147C130.391 38.8341 130.331 38.8363 130.251 38.7876C130.199 38.7539 130.155 38.7097 130.122 38.6579C130.088 38.6062 130.066 38.548 130.056 38.4871C130.046 38.4262 130.05 38.3639 130.065 38.3043C130.081 38.2447 130.109 38.189 130.147 38.1408C130.209 38.0697 130.266 38.053 130.279 38.069C130.31 38.0998 130.18 38.256 130.214 38.4624C130.248 38.6687 130.416 38.7759 130.398 38.8147Z" fill="#EB996E"/>
<path d="M131.13 39.7346C131.122 39.7543 131.071 39.7586 131.006 39.721C130.963 39.6951 130.926 39.6609 130.897 39.6202C130.867 39.5796 130.846 39.5334 130.835 39.4845C130.819 39.4321 130.818 39.3761 130.832 39.3232C130.847 39.2702 130.876 39.2226 130.917 39.186C130.997 39.133 131.059 39.17 131.051 39.19C131.018 39.2226 130.994 39.2641 130.983 39.3096C130.972 39.3552 130.975 39.4029 130.99 39.4472C131.023 39.604 131.147 39.6948 131.13 39.7346Z" fill="#EB996E"/>
<path d="M129.973 37.8348C129.971 37.8548 129.906 37.8711 129.813 37.8283C129.751 37.7984 129.699 37.7532 129.66 37.6971C129.622 37.641 129.598 37.5759 129.592 37.5081C129.586 37.4403 129.597 37.372 129.625 37.3098C129.653 37.2477 129.696 37.1937 129.751 37.1532C129.835 37.0941 129.902 37.0981 129.908 37.1172C129.925 37.1517 129.735 37.2749 129.754 37.4935C129.774 37.7119 129.984 37.7978 129.973 37.8348Z" fill="#EB996E"/>
<path d="M150.585 24.6021C149.593 24.1709 148.371 24.6058 147.653 25.352C146.935 26.0983 146.606 27.0867 146.298 28.0427C145.999 28.9646 145.257 30.8351 144.959 31.7566L150.593 34.1692C151.072 32.8676 151.52 31.5563 151.936 30.2354C152.286 29.1266 152.612 27.9297 152.206 26.8274" fill="#E1261C"/>
<path d="M152.204 26.8277C152.229 26.8704 152.248 26.9159 152.262 26.9632C152.311 27.0965 152.348 27.2339 152.372 27.3737C152.458 27.897 152.444 28.4318 152.332 28.9501C152.158 29.739 151.931 30.5151 151.651 31.2727C151.354 32.1536 151.023 33.1361 150.665 34.1944L150.64 34.2708L150.558 34.236L146.592 32.542L144.922 31.8262L144.855 31.7972L144.876 31.7341C145.331 30.3931 145.842 29.162 146.223 28.0289C146.389 27.4842 146.594 26.9523 146.836 26.4371C147.053 25.9807 147.351 25.5674 147.715 25.2171C148.273 24.69 149.013 24.3988 149.78 24.4043C149.988 24.4117 150.193 24.4487 150.39 24.5143C150.458 24.5369 150.523 24.566 150.585 24.6011C150.325 24.5136 150.054 24.4657 149.78 24.4591C149.037 24.4748 148.329 24.7706 147.795 25.287C147.446 25.6336 147.162 26.0398 146.956 26.4864C146.722 26.999 146.525 27.5274 146.365 28.0677C145.99 29.2103 145.485 30.4451 145.037 31.7781L144.992 31.6857L146.662 32.4003L150.624 34.1017L150.516 34.1433C150.881 33.089 151.219 32.1105 151.523 31.233C151.81 30.4816 152.048 29.7127 152.236 28.931C152.356 28.4224 152.384 27.8966 152.32 27.3781C152.267 27.0189 152.19 26.831 152.204 26.8277Z" fill="#263238"/>
<path d="M144.986 40.5914C144.965 40.5957 144.922 40.2699 144.731 39.7204C144.616 39.3879 144.461 39.0708 144.269 38.7761C144.024 38.3867 143.687 38.0639 143.288 37.8367L143.304 37.8413L137.201 37.0479L133.521 36.5514L131.916 36.3287L130.522 36.1063L129.914 36.0078C129.742 35.9794 129.565 36.0114 129.413 36.0983L128.622 36.4806L128.118 36.7168C128.061 36.7475 128.001 36.7718 127.938 36.7892C127.989 36.7494 128.045 36.7154 128.104 36.6878L128.594 36.4248L129.373 36.0179C129.54 35.9185 129.737 35.8794 129.93 35.9071L130.539 35.9942L131.935 36.1969L133.542 36.4051L137.222 36.889L143.321 37.7206H143.331L143.337 37.7239C143.754 37.965 144.103 38.3086 144.35 38.7222C144.541 39.0266 144.69 39.3544 144.796 39.6973C144.866 39.9125 144.92 40.1326 144.957 40.3558C144.974 40.4332 144.984 40.5121 144.986 40.5914Z" fill="#EB996E"/>
<path d="M141.147 37.4451C141.105 37.3004 141.077 37.152 141.062 37.0019C141.012 36.6872 140.947 36.2797 140.869 35.79C140.695 34.7394 140.464 33.3404 140.208 31.7943C139.953 30.2481 139.719 28.8479 139.545 27.7974C139.469 27.3067 139.405 26.8989 139.357 26.5838C139.327 26.4361 139.311 26.286 139.308 26.1354C139.358 26.2777 139.395 26.4245 139.418 26.5737C139.48 26.8863 139.56 27.2913 139.657 27.7786C139.85 28.7977 140.105 30.2081 140.365 31.769C140.626 33.33 140.844 34.7458 140.981 35.773C141.051 36.2871 141.097 36.7044 141.124 36.9933C141.146 37.1429 141.154 37.2942 141.147 37.4451Z" fill="#263238"/>
<path d="M85.3309 91.7415V88.8419H26.0434C25.8331 88.8419 25.6313 88.9255 25.4826 89.0742C25.3339 89.223 25.2503 89.4247 25.2503 89.635V90.9484C25.2503 91.1587 25.3339 91.3604 25.4826 91.5092C25.6313 91.6579 25.8331 91.7415 26.0434 91.7415H27.694V93.0612C27.694 93.2682 27.6117 93.4668 27.4654 93.6131C27.319 93.7595 27.1205 93.8417 26.9135 93.8417H26.0308C25.9283 93.8417 25.8268 93.8618 25.7321 93.901C25.6374 93.9402 25.5514 93.9977 25.4789 94.0701C25.4064 94.1426 25.3489 94.2286 25.3097 94.3233C25.2705 94.4179 25.2503 94.5194 25.2503 94.6219V95.9608C25.2503 96.0632 25.2705 96.1647 25.3097 96.2594C25.3489 96.3541 25.4064 96.4401 25.4789 96.5125C25.5514 96.585 25.6374 96.6424 25.7321 96.6816C25.8268 96.7208 25.9283 96.741 26.0308 96.7409H85.3309V93.8417H71.5107V91.7415H85.3309ZM41.9048 91.7415H45.4576V93.8417H41.9048V91.7415ZM39.5363 93.8417H35.9835V91.7415H39.5363V93.8417ZM47.8258 91.7415H51.3786V93.8417H47.8258V91.7415ZM53.7471 91.7415H57.2999V93.8417H53.7471V91.7415ZM59.6684 91.7415H63.2209V93.8417H59.6684V91.7415ZM30.0625 91.7415H33.615V93.8417H30.0625V91.7415ZM69.1422 93.8417H65.5894V91.7415H69.1422V93.8417Z" fill="#455A64"/>
<path d="M133.121 41.8089C133.218 41.7095 133.294 41.5918 133.345 41.4627C133.396 41.3335 133.42 41.1956 133.418 41.0568C133.415 40.9181 133.384 40.7812 133.328 40.6543C133.272 40.5274 133.191 40.413 133.09 40.3176L123.089 30.866C122.889 30.6794 122.624 30.5762 122.351 30.5773C122.077 30.5784 121.813 30.6837 121.614 30.8719C121.407 31.0686 121.287 31.3396 121.279 31.6253C121.272 31.9109 121.378 32.1879 121.574 32.3952L125.564 36.5923L123.487 38.5891L122.403 37.74L114.861 46.379L110.829 42.5007L105.968 56.7959L106.933 76.2085H118.113L117.333 53.1504L124.822 42.4588L124.879 39.9163L127.025 37.7104L131.671 41.8601C131.873 42.0397 132.136 42.1347 132.406 42.1252C132.675 42.1156 132.931 42.0023 133.119 41.8089H133.121Z" fill="#263238"/>
<path d="M127.989 74.8089L134.789 55.9248L132.234 54.8902V51.2278L150.828 50.9395C151.266 50.9306 151.686 50.763 152.009 50.4678C152.333 50.1726 152.538 49.77 152.587 49.3348L155.317 25.0598C155.378 24.5166 155.637 24.015 156.045 23.6507C156.452 23.2864 156.98 23.085 157.526 23.0849C157.826 23.085 158.123 23.1456 158.398 23.2631C158.674 23.3806 158.923 23.5526 159.131 23.7688C159.338 23.985 159.5 24.2409 159.606 24.5211C159.712 24.8014 159.76 25.1001 159.748 25.3995L158.72 50.4141L168.429 50.4664L168.76 55.0291L140.047 56.1521L132.56 74.5369L127.989 74.8089Z" fill="#455A64"/>
<path d="M132.267 74.3444L108.096 74.5369V76.1474L118.106 76.0187L134.057 75.8976L172.721 70.4371L168.338 53.7537H142.168C141.715 53.747 141.268 53.8507 140.864 54.0558C140.461 54.2609 140.113 54.5612 139.852 54.9308L132.267 74.3444Z" fill="#263238"/>
<path d="M120.682 4.5871L103.112 60.6243L103.235 76.2091H108.825V60.7204L123.221 4.73648L162.226 4.51872L169.686 62.8314H174.087L165.011 4.92744C164.869 4.16942 164.466 3.48502 163.872 2.99258C163.279 2.50013 162.532 2.2306 161.76 2.23059H123.85C123.139 2.23054 122.447 2.45975 121.876 2.88424C121.305 3.30872 120.886 3.90587 120.682 4.5871Z" fill="#455A64"/>
<path d="M99.9584 94.2123V79.2435L103.235 76.2094L134.026 75.8133L139.582 71.3039C140.615 70.4654 141.886 69.9737 143.215 69.8988L149.145 69.564C149.145 69.564 151.807 67.7298 154.373 65.9126C157.634 63.6025 161.532 62.3614 165.529 62.3605H182.6C182.907 62.3604 183.211 62.4209 183.494 62.5383C183.778 62.6557 184.035 62.8279 184.253 63.0449C184.47 63.2619 184.642 63.5196 184.759 63.8031C184.877 64.0867 184.937 64.3906 184.937 64.6976V94.2132L99.9584 94.2123Z" fill="#E1261C"/>
<path d="M184.937 89.3883H99.656V94.3095H184.937V89.3883Z" fill="#263238"/>
<path d="M104.07 94.1575C104.04 96.2429 104.629 98.2904 105.762 100.041C106.896 101.792 108.523 103.167 110.438 103.993C112.353 104.819 114.47 105.058 116.521 104.681C118.573 104.303 120.466 103.326 121.962 101.873C123.458 100.42 124.489 98.5555 124.925 96.516C125.362 94.4766 125.183 92.3535 124.413 90.4153C123.643 88.4772 122.315 86.8109 120.598 85.6273C118.881 84.4438 116.851 83.796 114.766 83.7659C111.969 83.7256 109.271 84.7978 107.266 86.7466C105.26 88.6954 104.11 91.3612 104.07 94.1575Z" fill="#263238"/>
<path d="M104.072 94.1306C104.072 94.1395 104.072 94.1485 104.07 94.1577C104.044 96.9451 105.123 99.6294 107.07 101.624C109.018 103.618 111.676 104.76 114.463 104.801C117.25 104.841 119.94 103.776 121.944 101.838C123.948 99.901 125.104 97.2489 125.158 94.462C125.158 94.4527 125.158 94.4438 125.158 94.4346L104.072 94.1306Z" fill="#263238"/>
<path d="M107.212 94.2027C107.191 95.6668 107.604 97.1042 108.4 98.3332C109.196 99.5622 110.338 100.528 111.683 101.107C113.027 101.687 114.513 101.855 115.953 101.59C117.394 101.325 118.723 100.639 119.773 99.6191C120.823 98.5988 121.547 97.29 121.853 95.8582C122.16 94.4264 122.034 92.936 121.494 91.5753C120.953 90.2146 120.021 89.0449 118.815 88.2139C117.61 87.383 116.185 86.9282 114.721 86.9071C112.758 86.8788 110.863 87.6315 109.455 88.9997C108.047 90.3679 107.24 92.2395 107.212 94.2027Z" fill="#FAFAFA"/>
<path d="M114.72 86.9071C112.757 86.8788 110.863 87.6315 109.455 88.9997C108.047 90.3679 107.24 92.2395 107.211 94.2027L122.016 94.4162C122.044 92.453 121.291 90.559 119.923 89.1508C118.555 87.7426 116.683 86.9355 114.72 86.9071Z" fill="#E0E0E0"/>
<path d="M110.105 94.2446C110.092 95.1364 110.344 96.0121 110.828 96.7608C111.313 97.5095 112.009 98.0977 112.828 98.4508C113.647 98.804 114.552 98.9064 115.43 98.745C116.307 98.5837 117.117 98.1658 117.756 97.5442C118.396 96.9227 118.837 96.1254 119.024 95.2531C119.21 94.3809 119.134 93.473 118.805 92.6441C118.475 91.8152 117.907 91.1026 117.173 90.5964C116.439 90.0903 115.57 89.8133 114.679 89.8005C113.483 89.7833 112.329 90.2418 111.471 91.0752C110.613 91.9087 110.122 93.0487 110.105 94.2446Z" fill="#263238"/>
<path d="M155.672 94.1575C155.642 96.2429 156.231 98.2904 157.365 100.041C158.498 101.792 160.126 103.167 162.041 103.993C163.956 104.819 166.073 105.058 168.124 104.681C170.175 104.303 172.068 103.326 173.564 101.873C175.06 100.42 176.092 98.5555 176.528 96.516C176.964 94.4766 176.786 92.3535 176.016 90.4153C175.246 88.4772 173.918 86.8109 172.201 85.6273C170.483 84.4438 168.454 83.796 166.368 83.7659C163.572 83.7256 160.874 84.7978 158.868 86.7466C156.862 88.6954 155.713 91.3612 155.672 94.1575Z" fill="#263238"/>
<path d="M155.674 94.1306C155.674 94.1395 155.673 94.1485 155.672 94.1577C155.646 96.9451 156.725 99.6294 158.672 101.624C160.62 103.618 163.277 104.76 166.065 104.801C168.852 104.841 171.542 103.776 173.546 101.838C175.55 99.901 176.706 97.2489 176.76 94.462C176.76 94.4527 176.76 94.4438 176.76 94.4346L155.674 94.1306Z" fill="#263238"/>
<path d="M158.814 94.2027C158.793 95.6668 159.206 97.1042 160.002 98.3332C160.798 99.5623 161.94 100.528 163.285 101.107C164.629 101.687 166.116 101.855 167.556 101.59C168.996 101.325 170.325 100.639 171.375 99.619C172.425 98.5987 173.149 97.2898 173.455 95.858C173.762 94.4262 173.637 92.9357 173.096 91.5751C172.555 90.2144 171.623 89.0447 170.417 88.2138C169.212 87.3829 167.787 86.9282 166.323 86.9071C164.359 86.8789 162.465 87.6317 161.057 88.9998C159.649 90.368 158.842 92.2395 158.814 94.2027Z" fill="#FAFAFA"/>
<path d="M166.323 86.9071C164.36 86.8789 162.466 87.6317 161.058 88.9998C159.649 90.368 158.842 92.2395 158.814 94.2027L173.619 94.4162C173.647 92.4529 172.894 90.5589 171.526 89.1506C170.158 87.7424 168.286 86.9354 166.323 86.9071Z" fill="#E0E0E0"/>
<path d="M161.707 94.2446C161.694 95.1365 161.946 96.0121 162.431 96.7608C162.915 97.5095 163.611 98.0977 164.43 98.4508C165.249 98.804 166.155 98.9064 167.032 98.745C167.909 98.5837 168.719 98.1658 169.359 97.5442C169.998 96.9227 170.44 96.1254 170.626 95.2531C170.813 94.3809 170.736 93.473 170.407 92.6441C170.078 91.8152 169.51 91.1026 168.775 90.5964C168.041 90.0903 167.173 89.8133 166.281 89.8005C165.689 89.7919 165.101 89.9001 164.55 90.1188C164 90.3375 163.498 90.6625 163.073 91.0751C162.649 91.4878 162.309 91.9801 162.075 92.5239C161.84 93.0678 161.715 93.6524 161.707 94.2446Z" fill="#263238"/>
<path d="M179.939 86.8043C179.919 86.7822 179.902 86.7577 179.888 86.7313L179.752 86.5095L179.536 86.147C179.443 85.9796 179.34 85.8178 179.228 85.6622C178.553 84.6438 177.754 83.7123 176.851 82.8887C176.578 82.6136 176.25 82.3746 175.927 82.1024C175.598 81.8387 175.233 81.5939 174.862 81.3324C174.471 81.1017 174.087 80.8294 173.651 80.6172C173.435 80.5063 173.222 80.3859 172.998 80.2784L172.307 79.9704C170.267 79.0924 168.053 78.691 165.834 78.7969C163.616 78.9028 161.45 79.5131 159.503 80.5815L158.844 80.9511C158.632 81.0801 158.43 81.2203 158.227 81.3515C157.813 81.6043 157.457 81.912 157.089 82.1787C156.745 82.4747 156.405 82.7532 156.103 83.0467C155.809 83.3485 155.505 83.6177 155.26 83.9174C154.439 84.8233 153.733 85.8267 153.157 86.905C153.06 87.0705 152.973 87.2414 152.896 87.4169L152.716 87.7985C152.669 87.8943 152.631 87.971 152.602 88.032C152.611 88.0382 152.618 88.0476 152.62 88.0584C152.623 88.0692 152.621 88.0806 152.616 88.0904C152.611 88.1002 152.602 88.1076 152.592 88.1113C152.581 88.1149 152.57 88.1145 152.559 88.1101C152.549 88.1058 152.541 88.0977 152.536 88.0876C152.532 88.0774 152.531 88.066 152.534 88.0554C152.538 88.0448 152.545 88.0358 152.555 88.0303C152.564 88.0248 152.576 88.0231 152.587 88.0255L152.686 87.7856L152.853 87.3966C152.925 87.2181 153.008 87.0443 153.102 86.876C153.66 85.78 154.357 84.7603 155.175 83.8423C155.419 83.538 155.723 83.2641 156.018 82.9577C156.32 82.6595 156.661 82.3762 157.006 82.0759C157.376 81.8042 157.733 81.4907 158.149 81.2347C158.353 81.1017 158.556 80.9594 158.77 80.8282L159.433 80.4506C161.398 79.3638 163.586 78.7431 165.828 78.6363C168.07 78.5295 170.307 78.9394 172.366 79.8346L173.062 80.1475C173.287 80.2574 173.503 80.3797 173.719 80.4928C174.157 80.7084 174.544 80.9856 174.937 81.2212C175.309 81.4873 175.676 81.7368 176.005 82.0047C176.327 82.2819 176.656 82.5255 176.929 82.8055C177.831 83.6416 178.622 84.5903 179.281 85.6283C179.391 85.787 179.49 85.9522 179.579 86.123L179.782 86.4941L179.905 86.7239C179.92 86.7494 179.931 86.7763 179.939 86.8043Z" fill="#263238"/>
<path d="M128.382 88.7446C128.365 88.7182 128.352 88.69 128.341 88.6605C128.314 88.5955 128.28 88.5126 128.237 88.4088C128.191 88.2947 128.135 88.1579 128.071 87.9986L127.825 87.4479C127.286 86.2844 126.617 85.186 125.83 84.1738C124.682 82.6574 123.216 81.4095 121.536 80.5173C120.53 80.0264 119.463 79.6712 118.364 79.4608C117.185 79.219 115.984 79.1095 114.781 79.1343C113.578 79.1521 112.381 79.3061 111.213 79.5936C110.127 79.8661 109.079 80.2752 108.096 80.8111C106.417 81.7045 104.915 82.8974 103.664 84.3309C102.828 85.3026 102.1 86.3623 101.493 87.4913C101.277 87.8917 101.116 88.2052 101.013 88.4211C100.962 88.5216 100.921 88.6016 100.89 88.6642C100.9 88.6708 100.906 88.6808 100.909 88.6923C100.912 88.7037 100.91 88.7156 100.904 88.7258C100.898 88.736 100.889 88.7436 100.878 88.7472C100.867 88.7508 100.855 88.7501 100.844 88.7452C100.833 88.7404 100.825 88.7317 100.82 88.7209C100.816 88.7101 100.815 88.698 100.819 88.687C100.823 88.6759 100.831 88.6668 100.842 88.6613C100.852 88.6558 100.864 88.6544 100.875 88.6574C100.903 88.593 100.939 88.5108 100.984 88.4076C101.076 88.1868 101.23 87.8683 101.438 87.462C102.027 86.3154 102.746 85.24 103.58 84.2567C104.829 82.8006 106.336 81.5884 108.026 80.6814C109.019 80.1358 110.077 79.719 111.176 79.4411C112.355 79.1485 113.564 78.9919 114.779 78.9742C115.994 78.949 117.207 79.0606 118.396 79.3068C119.509 79.5219 120.587 79.8845 121.604 80.3848C123.298 81.2922 124.772 82.5621 125.919 84.1039C126.703 85.1278 127.361 86.2418 127.881 87.422C127.968 87.6304 128.046 87.8164 128.115 87.9801C128.175 88.1421 128.225 88.2811 128.267 88.3971L128.357 88.6546C128.369 88.6836 128.377 88.7137 128.382 88.7446Z" fill="#263238"/>
<path d="M99.9367 88.8419H53.187V94.3092H99.9367V88.8419Z" fill="#263238"/>
<path d="M98.6703 91.1616C98.6703 91.4309 98.5905 91.6942 98.4409 91.9181C98.2912 92.142 98.0786 92.3165 97.8297 92.4196C97.5809 92.5227 97.3072 92.5496 97.043 92.4971C96.7789 92.4445 96.5362 92.3149 96.3458 92.1244C96.1554 91.934 96.0257 91.6914 95.9732 91.4272C95.9206 91.1631 95.9476 90.8893 96.0506 90.6405C96.1537 90.3917 96.3282 90.179 96.5522 90.0294C96.7761 89.8798 97.0394 89.7999 97.3087 89.7999C97.4875 89.7999 97.6646 89.8351 97.8298 89.9035C97.995 89.9719 98.1451 90.0722 98.2716 90.1987C98.398 90.3251 98.4983 90.4752 98.5668 90.6405C98.6352 90.8057 98.6704 90.9828 98.6703 91.1616Z" fill="#455A64"/>
<path d="M99.3236 1.80081H95.4212V79.3195H99.3236V1.80081Z" fill="#455A64"/>
<path d="M154.818 83.7365C154.818 83.7808 148.24 83.8169 140.126 83.8169C132.012 83.8169 125.435 83.7808 125.435 83.7365C125.435 83.6921 132.011 83.6564 140.126 83.6564C148.241 83.6564 154.818 83.6934 154.818 83.7365Z" fill="#263238"/>
<path d="M148.83 82.575C148.785 82.575 148.75 79.714 148.75 76.1856C148.75 72.6571 148.785 69.7955 148.83 69.7955C148.874 69.7955 148.91 72.6559 148.91 76.1856C148.91 79.7153 148.874 82.575 148.83 82.575Z" fill="#263238"/>
<path d="M102.964 0.0238495H95.0005V3.57817H102.964V0.0238495Z" fill="#263238"/>
<path d="M99.9368 78.6803H94.8089V88.9127H99.9368V78.6803Z" fill="#263238"/>
<path d="M54.0935 64.1633C54.0664 64.1675 54.039 64.1693 54.0116 64.1685L53.7704 64.1738L52.8436 64.1836L49.4353 64.2L38.1899 64.2147L26.9427 64.2L23.5343 64.1833L22.6079 64.1738L22.3667 64.1685C22.3393 64.1693 22.3119 64.1675 22.2848 64.1633C22.3119 64.1593 22.3393 64.1575 22.3667 64.1581L22.6079 64.1528L23.5343 64.1433L26.9427 64.1266L38.1899 64.1113L49.4353 64.1266L52.8436 64.1433L53.7704 64.1528L54.0116 64.1581C54.039 64.1575 54.0664 64.1593 54.0935 64.1633Z" fill="#9A6847"/>
<path d="M186.284 70.8914C187.939 71.2894 189.326 72.9695 189.298 74.6715C189.264 75.5247 188.951 76.3429 188.406 77.0005C187.861 77.6581 187.116 78.1187 186.284 78.3115" fill="#E1261C"/>
<g opacity="0.6">
<path opacity="0.6" d="M186.284 70.8914C187.939 71.2894 189.326 72.9695 189.298 74.6715C189.264 75.5247 188.951 76.3429 188.406 77.0005C187.861 77.6581 187.116 78.1187 186.284 78.3115" fill="white"/>
</g>
<path d="M186.352 69.9353H184.937V79.3025H186.352V69.9353Z" fill="#E1261C"/>
<path opacity="0.3" d="M186.352 69.9353H184.937V79.3025H186.352V69.9353Z" fill="black"/>
<path d="M6.36858 94.5843C5.87393 95.252 4.95363 95.0019 4.53536 94.5747C4.1171 94.1475 3.95016 93.5411 3.80201 92.9623C3.45952 91.6404 3.1161 90.2538 3.43241 88.9254C3.51089 88.5223 3.69887 88.1486 3.97573 87.8452C4.11584 87.6958 4.29277 87.5858 4.48879 87.5264C4.68481 87.4669 4.89302 87.46 5.09253 87.5064C5.55453 87.6423 5.8342 88.1077 6.03224 88.5484C6.61512 89.8498 6.90068 91.2648 6.86815 92.6904C6.89488 93.3577 6.72028 94.0175 6.36704 94.5843" fill="#E1261C"/>
<g opacity="0.2">
<path opacity="0.2" d="M6.36858 94.5843C5.87393 95.252 4.95363 95.0019 4.53536 94.5747C4.1171 94.1475 3.95016 93.5411 3.80201 92.9623C3.45952 91.6404 3.1161 90.2538 3.43241 88.9254C3.51089 88.5223 3.69887 88.1486 3.97573 87.8452C4.11584 87.6958 4.29277 87.5858 4.48879 87.5264C4.68481 87.4669 4.89302 87.46 5.09253 87.5064C5.55453 87.6423 5.8342 88.1077 6.03224 88.5484C6.61512 89.8498 6.90068 91.2648 6.86815 92.6904C6.89488 93.3577 6.72028 94.0175 6.36704 94.5843" fill="black"/>
</g>
<path d="M4.4907 97.9829C3.70199 97.5866 2.80703 97.4533 1.93707 97.6029C1.4628 97.632 1.01189 97.8189 0.656103 98.1339C0.330547 98.4745 0.254163 99.0886 0.609287 99.3967C0.839228 99.5615 1.11957 99.6407 1.40177 99.6206C2.07937 99.631 2.83397 99.5319 3.36435 99.9538C3.66649 100.195 3.86177 100.587 4.22674 100.711C4.41018 100.759 4.6042 100.745 4.77945 100.673C4.95471 100.601 5.10169 100.474 5.19818 100.31C5.38315 99.9758 5.43255 99.5828 5.33616 99.2128C5.29951 98.9565 5.20413 98.7122 5.05748 98.4988C4.91082 98.2855 4.71685 98.1089 4.4907 97.9829Z" fill="#E1261C"/>
<path d="M7.6509 95.5957C7.41484 95.2692 7.26192 94.89 7.20541 94.4911C7.1489 94.0922 7.19049 93.6855 7.32658 93.3063C7.60856 92.5491 8.09377 91.8842 8.7289 91.3847C9.45107 90.7756 10.2851 90.3132 11.1843 90.0233C11.5328 89.8931 11.9054 89.8401 12.2764 89.8678C12.4617 89.8835 12.6402 89.9442 12.7967 90.0446C12.9531 90.1451 13.0826 90.2822 13.174 90.4441C13.4151 90.9369 13.1555 91.5181 12.8789 91.9911C12.3911 92.8248 11.8386 93.6189 11.2265 94.3661C10.7337 94.9667 10.1728 95.5572 9.44008 95.8137C8.70734 96.0703 7.95521 96.0189 7.58407 95.5057" fill="#E1261C"/>
<path d="M6.12551 104.852C6.1031 104.75 6.09143 104.646 6.09071 104.542C6.075 104.316 6.05498 104.032 6.03126 103.695C6.0004 103.278 5.94807 102.863 5.87449 102.452C5.77714 101.951 5.63984 101.458 5.46393 100.979C5.29144 100.5 5.05212 100.048 4.75306 99.6366C4.50965 99.3016 4.19462 99.0251 3.83091 98.8272C3.58419 98.6965 3.31825 98.6058 3.04305 98.5586C2.93879 98.552 2.83554 98.5342 2.73505 98.5056C2.8394 98.4957 2.9445 98.497 3.04859 98.5093C3.33481 98.5388 3.61344 98.6194 3.87126 98.7471C4.25457 98.9409 4.5878 99.2208 4.84485 99.5649C5.15722 99.9822 5.40572 100.444 5.5822 100.934C5.76095 101.421 5.89709 101.922 5.98907 102.431C6.0582 102.848 6.10201 103.268 6.12028 103.689C6.13722 104.048 6.13968 104.339 6.13906 104.54C6.1457 104.644 6.14116 104.748 6.12551 104.852Z" fill="#263238"/>
<path d="M6.08473 104.201C6.0776 104.153 6.07605 104.105 6.08011 104.057C6.0835 103.949 6.0875 103.813 6.09243 103.647C6.1029 103.291 6.11645 102.775 6.1146 102.138C6.11707 100.864 6.05454 99.1041 5.89469 97.1671C5.73484 95.2301 5.49737 93.4843 5.27315 92.2308C5.22079 91.9166 5.16689 91.6336 5.11576 91.3859C5.06463 91.1383 5.02613 90.9239 4.98517 90.7502C4.95067 90.5873 4.92357 90.4542 4.90016 90.3498C4.88743 90.3034 4.8803 90.2556 4.87891 90.2075C4.89969 90.2508 4.91521 90.2964 4.92511 90.3434C4.95375 90.4475 4.98948 90.5787 5.03352 90.7398C5.08188 90.9119 5.13054 91.1248 5.18568 91.3721C5.24081 91.6194 5.30364 91.9015 5.36185 92.2154C5.67004 93.8498 5.89038 95.4995 6.02189 97.1576C6.18236 99.098 6.23041 100.863 6.20485 102.139C6.1953 102.778 6.16789 103.294 6.14325 103.649C6.12846 103.815 6.11676 103.95 6.10721 104.058C6.10524 104.106 6.0977 104.154 6.08473 104.201Z" fill="#263238"/>
<path d="M6.16739 100.802C6.16122 100.659 6.16606 100.516 6.18187 100.373C6.20497 100.098 6.25363 99.7014 6.34449 99.2157C6.45345 98.6474 6.59464 98.0859 6.76737 97.5337C6.97407 96.8554 7.2285 96.1925 7.52875 95.5501C8.0518 94.3679 8.78525 93.2905 9.69337 92.3703C9.85101 92.2129 10.0184 92.0655 10.1945 91.929C10.2712 91.8674 10.3392 91.8058 10.4079 91.7577L10.6014 91.6324C10.7177 91.549 10.8405 91.4749 10.9685 91.4109C10.5439 91.7267 10.1393 92.0685 9.75713 92.4344C8.8778 93.3631 8.16336 94.435 7.64456 95.604C7.34676 96.2414 7.09129 96.8978 6.87979 97.5688C6.70311 98.1153 6.55396 98.6704 6.43289 99.232C6.33125 99.7124 6.26965 100.105 6.23145 100.377C6.22119 100.52 6.19977 100.662 6.16739 100.802Z" fill="#263238"/>
</svg>
