<svg width="20" height="20" viewBox="0 0 20 20" fill="none" xmlns="http://www.w3.org/2000/svg">
<path d="M8.33329 15.0001C9.81244 14.9998 11.249 14.5046 12.4141 13.5934L16.0775 17.2567L17.2558 16.0784L13.5925 12.4151C14.5041 11.2498 14.9996 9.81295 15 8.33341C15 4.65758 12.0091 1.66675 8.33329 1.66675C4.65746 1.66675 1.66663 4.65758 1.66663 8.33341C1.66663 12.0092 4.65746 15.0001 8.33329 15.0001ZM8.33329 3.33341C11.0908 3.33341 13.3333 5.57591 13.3333 8.33341C13.3333 11.0909 11.0908 13.3334 8.33329 13.3334C5.57579 13.3334 3.33329 11.0909 3.33329 8.33341C3.33329 5.57591 5.57579 3.33341 8.33329 3.33341Z" fill="#E1261C"/>
</svg>
