<svg width="375" height="118" viewBox="0 0 375 118" fill="none" xmlns="http://www.w3.org/2000/svg">
<g opacity="0.05" clip-path="url(#clip0_1_9318)">
<path d="M375 0H0V118H375V0Z" fill="white"/>
<path d="M235.27 40.8701H204.434V59.8341H235.27V40.8701Z" fill="#AC5C45"/>
<path opacity="0.3" d="M235.27 40.8701H204.434V59.8341H235.27V40.8701Z" fill="black"/>
<path d="M227.544 59.7001C227.516 59.7001 227.494 55.4731 227.494 50.2601C227.494 45.0471 227.516 40.8201 227.544 40.8201C227.572 40.8201 227.594 45.0464 227.594 50.2601C227.594 55.4738 227.57 59.7001 227.544 59.7001Z" fill="#9A6847"/>
<path d="M232.655 55.5175H230.291V57.6483H232.655V55.5175Z" fill="#9A6847"/>
<path d="M217.344 40.9188H213.841V44.9653H217.344V40.9188Z" fill="#9A6847"/>
<path d="M217.344 55.7311H213.841V59.7775H217.344V55.7311Z" fill="#9A6847"/>
<path d="M235.001 40.8702C234.975 40.8735 234.948 40.8749 234.922 40.8745L234.69 40.8785L233.8 40.8858L230.524 40.8983L219.718 40.9099L208.91 40.8983L205.635 40.8858L204.744 40.8785L204.513 40.8745C204.486 40.8749 204.46 40.8735 204.434 40.8702C204.46 40.8673 204.486 40.866 204.513 40.8662L204.744 40.8624L205.635 40.8549L208.91 40.8421L219.718 40.8303L230.524 40.8421L233.8 40.8549L234.69 40.8624L234.922 40.8662C234.948 40.8659 234.975 40.8673 235.001 40.8702V40.8702Z" fill="#9A6847"/>
<path d="M260.939 40.847H230.103V59.8111H260.939V40.847Z" fill="#CA804E"/>
<path d="M253.213 59.6773C253.186 59.6773 253.163 55.4501 253.163 50.2373C253.163 45.0246 253.186 40.7961 253.213 40.7961C253.241 40.7961 253.263 45.0224 253.263 50.2373C253.263 55.4522 253.241 59.6773 253.213 59.6773Z" fill="#9A6847"/>
<path d="M258.324 55.4946H255.96V57.6255H258.324V55.4946Z" fill="#9A6847"/>
<path opacity="0.5" d="M243.013 40.8956H239.51V44.9421H243.013V40.8956Z" fill="#936445"/>
<path opacity="0.5" d="M243.013 55.7081H239.51V59.7546H243.013V55.7081Z" fill="#936445"/>
<path d="M260.67 40.8466C260.644 40.8499 260.618 40.8513 260.591 40.8509L260.36 40.8547L259.469 40.8622L256.194 40.8747L245.388 40.8863L234.579 40.8747L231.304 40.8622L230.414 40.8547L230.182 40.8509C230.156 40.8513 230.129 40.8499 230.103 40.8466C230.129 40.8437 230.156 40.8424 230.182 40.8426L230.414 40.8389L231.304 40.8313L234.579 40.8186L245.388 40.8068L256.194 40.8186L259.469 40.8313L260.36 40.8389L260.591 40.8426C260.618 40.8424 260.644 40.8437 260.67 40.8466V40.8466Z" fill="#9A6847"/>
<path d="M262.67 21.8827H231.834V40.8467H262.67V21.8827Z" fill="#CA804E"/>
<path d="M254.944 40.7126C254.916 40.7126 254.894 36.4856 254.894 31.2726C254.894 26.0596 254.916 21.8326 254.944 21.8326C254.971 21.8326 254.994 26.0589 254.994 31.2726C254.994 36.4864 254.971 40.7126 254.944 40.7126Z" fill="#9A6847"/>
<path d="M260.055 36.5299H257.691V38.6608H260.055V36.5299Z" fill="#9A6847"/>
<path d="M244.744 21.9314H241.241V25.9778H244.744V21.9314Z" fill="#9A6847"/>
<path d="M244.744 36.7435H241.241V40.79H244.744V36.7435Z" fill="#9A6847"/>
<path d="M262.401 21.8827C262.375 21.8857 262.348 21.8871 262.322 21.8867L262.09 21.8907L261.2 21.898L257.924 21.9105L247.118 21.9221L236.31 21.9105L233.035 21.898L232.144 21.8907L231.913 21.8867C231.886 21.8871 231.86 21.8857 231.834 21.8827C231.86 21.8794 231.886 21.878 231.913 21.8784L232.144 21.8746L233.035 21.8671L236.31 21.8543L247.118 21.8425L257.924 21.8543L261.2 21.8671L262.09 21.8746L262.322 21.8784C262.348 21.878 262.375 21.8794 262.401 21.8827V21.8827Z" fill="#9A6847"/>
<path d="M259.373 80.9497V78.728H202.4C202.197 78.728 202.004 78.7921 201.861 78.906C201.718 79.02 201.637 79.1746 201.637 79.3357V80.342C201.637 80.5032 201.718 80.6578 201.861 80.7718C202.004 80.8857 202.197 80.9497 202.4 80.9497H203.986V81.961C203.986 82.1196 203.907 82.2717 203.766 82.3839C203.625 82.496 203.435 82.559 203.236 82.559H202.387C202.289 82.559 202.191 82.5744 202.1 82.6045C202.009 82.6345 201.927 82.6785 201.857 82.734C201.787 82.7895 201.732 82.8555 201.695 82.928C201.657 83.0005 201.637 83.0783 201.637 83.1568V84.1827C201.637 84.2612 201.657 84.339 201.695 84.4115C201.732 84.4841 201.787 84.55 201.857 84.6055C201.927 84.661 202.009 84.705 202.1 84.7351C202.191 84.7651 202.289 84.7805 202.387 84.7805H259.373V82.559H246.092V80.9497H259.373ZM217.642 80.9497H221.056V82.559H217.642V80.9497ZM215.366 82.559H211.952V80.9497H215.366V82.559ZM223.332 80.9497H226.746V82.559H223.332V80.9497ZM229.022 80.9497H232.436V82.559H229.022V80.9497ZM234.712 80.9497H238.126V82.559H234.712V80.9497ZM206.262 80.9497H209.676V82.559H206.262V80.9497ZM243.816 82.559H240.402V80.9497H243.816V82.559Z" fill="#455A64"/>
<path d="M305.297 42.6898C305.39 42.6136 305.463 42.5234 305.512 42.4245C305.561 42.3255 305.585 42.2198 305.582 42.1135C305.579 42.0072 305.55 41.9023 305.496 41.8051C305.442 41.7079 305.364 41.6202 305.267 41.5471L295.657 34.305C295.464 34.162 295.21 34.0829 294.947 34.0837C294.684 34.0846 294.431 34.1653 294.24 34.3094V34.3094C294.04 34.4602 293.925 34.6678 293.917 34.8867C293.91 35.1056 294.012 35.3178 294.201 35.4767L298.035 38.6927L296.039 40.2227L294.998 39.572L287.749 46.1916L283.875 43.2199L279.204 54.1733L280.131 69.0479H290.875L290.125 51.38L297.323 43.1878L297.377 41.2396L299.439 39.5493L303.904 42.729C304.098 42.8666 304.35 42.9394 304.61 42.9321C304.869 42.9248 305.114 42.838 305.295 42.6898H305.297Z" fill="#263238"/>
<path d="M300.365 67.9754L306.9 53.5058L304.445 52.7131V49.9068L322.313 49.6859C322.734 49.6791 323.137 49.5506 323.448 49.3245C323.759 49.0983 323.956 48.7898 324.003 48.4563L326.627 29.856C326.686 29.4398 326.934 29.0554 327.326 28.7763C327.718 28.4971 328.225 28.3428 328.75 28.3428V28.3428C329.038 28.3428 329.323 28.3892 329.588 28.4793C329.853 28.5693 330.092 28.7011 330.291 28.8668C330.491 29.0324 330.646 29.2285 330.748 29.4432C330.85 29.658 330.896 29.8869 330.885 30.1163L329.896 49.2833L339.227 49.3234L339.545 52.8195L311.953 53.68L304.758 67.767L300.365 67.9754Z" fill="#455A64"/>
<path d="M304.476 67.6196L281.249 67.7671V69.0011L290.868 68.9025L306.196 68.8097L343.351 64.6257L339.139 51.8423H313.99C313.555 51.8371 313.126 51.9166 312.738 52.0738C312.35 52.2309 312.016 52.4611 311.765 52.7443L304.476 67.6196Z" fill="#263238"/>
<path d="M293.344 14.1692L276.46 57.1068L276.578 69.0484H281.95V57.1804L295.784 14.2836L333.266 14.1168L340.435 58.7979H344.664L335.943 14.4299C335.806 13.8491 335.419 13.3247 334.848 12.9474C334.278 12.5701 333.56 12.3635 332.819 12.3635H296.388C295.705 12.3635 295.04 12.5391 294.491 12.8644C293.943 13.1896 293.54 13.6472 293.344 14.1692V14.1692Z" fill="#455A64"/>
<path d="M273.429 82.8429V71.3734L276.578 69.0485L306.167 68.745L311.506 65.2897C312.499 64.6473 313.72 64.2705 314.997 64.2131L320.695 63.9566C320.695 63.9566 323.253 62.5512 325.719 61.1588C328.853 59.3887 332.599 58.4377 336.439 58.437H352.844C353.139 58.437 353.431 58.4833 353.704 58.5733C353.976 58.6632 354.224 58.7951 354.432 58.9614C354.641 59.1277 354.806 59.3251 354.919 59.5424C355.032 59.7597 355.09 59.9926 355.09 60.2278V82.8437L273.429 82.8429Z" fill="#E1261C"/>
<path d="M355.09 79.1467H273.138V82.9175H355.09V79.1467Z" fill="#263238"/>
<path d="M277.38 82.8011C277.351 84.399 277.917 85.9679 279.006 87.3093C280.095 88.6508 281.659 89.7045 283.499 90.3373C285.34 90.9701 287.374 91.1535 289.345 90.8644C291.316 90.5753 293.136 89.8266 294.573 88.713C296.011 87.5995 297.002 86.171 297.421 84.6083C297.84 83.0456 297.669 81.4188 296.929 79.9338C296.189 78.4487 294.913 77.1719 293.263 76.265C291.612 75.3581 289.662 74.8618 287.658 74.8387C284.971 74.8078 282.378 75.6294 280.451 77.1226C278.523 78.6158 277.419 80.6585 277.38 82.8011V82.8011Z" fill="#263238"/>
<path d="M277.382 82.7804C277.382 82.7872 277.382 82.7941 277.38 82.8012C277.355 84.9369 278.392 86.9938 280.263 88.5219C282.134 90.0501 284.689 90.9253 287.367 90.9561C290.045 90.9869 292.63 90.1709 294.556 88.6864C296.482 87.2019 297.592 85.1698 297.645 83.0343C297.645 83.0272 297.645 83.0204 297.645 83.0133L277.382 82.7804Z" fill="#263238"/>
<path d="M280.399 82.8357C280.379 83.9575 280.776 85.0589 281.541 86.0006C282.306 86.9424 283.403 87.6821 284.695 88.1264C285.987 88.5706 287.416 88.6994 288.799 88.4964C290.183 88.2934 291.46 87.7678 292.47 86.986C293.479 86.2042 294.175 85.2013 294.469 84.1042C294.763 83.0071 294.643 81.8651 294.123 80.8225C293.604 79.7799 292.708 78.8836 291.55 78.2469C290.391 77.6102 289.022 77.2618 287.615 77.2456C285.728 77.2239 283.908 77.8007 282.555 78.849C281.202 79.8974 280.426 81.3314 280.399 82.8357Z" fill="#FAFAFA"/>
<path d="M287.614 77.2456C285.728 77.2239 283.907 77.8007 282.554 78.849C281.201 79.8974 280.425 81.3314 280.398 82.8357L294.625 82.9993C294.652 81.495 293.929 80.0438 292.614 78.9647C291.299 77.8857 289.501 77.2673 287.614 77.2456V77.2456Z" fill="#E0E0E0"/>
<path d="M283.179 82.8678C283.166 83.5511 283.408 84.2221 283.874 84.7958C284.34 85.3695 285.009 85.8201 285.796 86.0907C286.583 86.3614 287.453 86.4398 288.296 86.3162C289.139 86.1925 289.917 85.8723 290.532 85.396C291.147 84.9198 291.57 84.3089 291.75 83.6406C291.929 82.9722 291.856 82.2765 291.539 81.6414C291.223 81.0063 290.677 80.4603 289.971 80.0724C289.265 79.6846 288.431 79.4723 287.574 79.4625C286.425 79.4493 285.316 79.8007 284.492 80.4393C283.668 81.0779 283.195 81.9514 283.179 82.8678V82.8678Z" fill="#263238"/>
<path d="M326.968 82.8011C326.939 84.399 327.505 85.9679 328.594 87.3093C329.683 88.6508 331.247 89.7045 333.087 90.3373C334.928 90.9701 336.962 91.1535 338.933 90.8644C340.904 90.5753 342.724 89.8266 344.161 88.713C345.599 87.5995 346.59 86.171 347.009 84.6083C347.428 83.0456 347.257 81.4188 346.517 79.9338C345.777 78.4487 344.501 77.1719 342.851 76.265C341.2 75.3581 339.25 74.8618 337.246 74.8387C334.559 74.8078 331.966 75.6294 330.039 77.1226C328.111 78.6158 327.006 80.6585 326.968 82.8011V82.8011Z" fill="#263238"/>
<path d="M326.97 82.7804C326.97 82.7872 326.968 82.7941 326.968 82.8012C326.943 84.9369 327.979 86.9938 329.851 88.5219C331.722 90.0501 334.276 90.9253 336.955 90.9561C339.633 90.9869 342.218 90.1709 344.144 88.6864C346.07 87.2019 347.18 85.1698 347.232 83.0343C347.232 83.0272 347.232 83.0204 347.232 83.0133L326.97 82.7804Z" fill="#263238"/>
<path d="M329.987 82.8357C329.967 83.9575 330.364 85.0589 331.129 86.0007C331.894 86.9424 332.992 87.6821 334.284 88.1264C335.576 88.5706 337.004 88.6994 338.388 88.4964C339.771 88.2933 341.049 87.7677 342.058 86.9859C343.067 86.2041 343.763 85.2012 344.057 84.1041C344.351 83.007 344.231 81.8649 343.711 80.8223C343.192 79.7797 342.296 78.8834 341.137 78.2468C339.979 77.6101 338.61 77.2617 337.203 77.2456C335.316 77.224 333.496 77.8008 332.143 78.8491C330.79 79.8974 330.014 81.3315 329.987 82.8357V82.8357Z" fill="#FAFAFA"/>
<path d="M337.202 77.2456C335.316 77.224 333.496 77.8008 332.143 78.8491C330.79 79.8975 330.014 81.3315 329.987 82.8357L344.214 82.9993C344.241 81.495 343.517 80.0437 342.202 78.9647C340.888 77.8856 339.089 77.2673 337.202 77.2456V77.2456Z" fill="#E0E0E0"/>
<path d="M332.767 82.8678C332.754 83.5511 332.996 84.2221 333.462 84.7958C333.928 85.3695 334.597 85.8201 335.384 86.0907C336.171 86.3614 337.041 86.4398 337.884 86.3162C338.727 86.1925 339.505 85.8723 340.12 85.396C340.735 84.9198 341.159 84.3089 341.338 83.6406C341.517 82.9722 341.444 82.2765 341.127 81.6414C340.811 81.0063 340.265 80.4603 339.559 80.0724C338.854 79.6846 338.019 79.4723 337.162 79.4625C336.593 79.456 336.028 79.5388 335.499 79.7064C334.971 79.874 334.488 80.123 334.08 80.4392C333.672 80.7554 333.346 81.1327 333.121 81.5493C332.895 81.966 332.775 82.414 332.767 82.8678V82.8678Z" fill="#263238"/>
<path d="M350.287 77.1668C350.268 77.1499 350.252 77.1311 350.238 77.1109L350.108 76.941L349.901 76.6632C349.811 76.535 349.712 76.4109 349.605 76.2917C348.955 75.5114 348.188 74.7976 347.32 74.1666C347.058 73.9558 346.742 73.7727 346.432 73.564C346.116 73.362 345.765 73.1744 345.409 72.974C345.033 72.7973 344.664 72.5887 344.245 72.4261C344.038 72.3411 343.833 72.2488 343.618 72.1665L342.954 71.9305C340.993 71.2577 338.866 70.9502 336.734 71.0313C334.601 71.1124 332.521 71.5801 330.649 72.3987L330.016 72.6819C329.812 72.7808 329.618 72.8881 329.423 72.9887C329.026 73.1824 328.683 73.4182 328.33 73.6226C327.999 73.8494 327.672 74.0627 327.382 74.2876C327.1 74.5189 326.807 74.7252 326.572 74.9548C325.783 75.6489 325.105 76.4178 324.551 77.244C324.458 77.3708 324.374 77.5017 324.3 77.6362L324.127 77.9286C324.082 78.002 324.046 78.0608 324.017 78.1075C324.026 78.1123 324.033 78.1195 324.035 78.1278C324.038 78.136 324.036 78.1448 324.031 78.1523C324.026 78.1598 324.018 78.1655 324.008 78.1683C323.998 78.1711 323.987 78.1708 323.977 78.1674C323.967 78.1641 323.959 78.1579 323.955 78.1501C323.95 78.1424 323.949 78.1336 323.953 78.1254C323.956 78.1173 323.963 78.1105 323.972 78.1062C323.982 78.102 323.993 78.1007 324.003 78.1026L324.099 77.9187L324.259 77.6206C324.328 77.4839 324.408 77.3507 324.498 77.2218C325.034 76.382 325.704 75.6007 326.49 74.8972C326.725 74.664 327.017 74.4542 327.3 74.2194C327.591 73.991 327.918 73.7739 328.25 73.5438C328.605 73.3356 328.949 73.0954 329.348 72.8992C329.545 72.7973 329.74 72.6883 329.945 72.5877L330.582 72.2984C332.47 71.4657 334.572 70.9901 336.727 70.9082C338.882 70.8264 341.032 71.1405 343.01 71.8264L343.679 72.0662C343.895 72.1504 344.103 72.2441 344.31 72.3307C344.731 72.4959 345.103 72.7083 345.48 72.8889C345.838 73.0928 346.191 73.2839 346.507 73.4892C346.816 73.7016 347.132 73.8883 347.395 74.1028C348.261 74.7434 349.021 75.4704 349.655 76.2658C349.76 76.3873 349.856 76.5139 349.942 76.6448L350.137 76.9292L350.255 77.1052C350.269 77.1247 350.28 77.1454 350.287 77.1668V77.1668Z" fill="#263238"/>
<path d="M300.743 78.6535C300.727 78.6333 300.714 78.6117 300.704 78.5891C300.678 78.5393 300.645 78.4758 300.604 78.3962C300.559 78.3088 300.506 78.204 300.444 78.0819L300.207 77.6599C299.69 76.7685 299.047 75.9268 298.291 75.1512C297.187 73.9893 295.779 73.0332 294.164 72.3495C293.198 71.9734 292.172 71.7012 291.116 71.54C289.983 71.3547 288.829 71.2708 287.673 71.2898C286.517 71.3034 285.367 71.4214 284.244 71.6417C283.2 71.8505 282.194 72.164 281.249 72.5746C279.635 73.2592 278.192 74.1732 276.99 75.2716C276.187 76.0161 275.487 76.8281 274.904 77.6932C274.697 78 274.542 78.2402 274.443 78.4057C274.394 78.4826 274.354 78.544 274.324 78.5919C274.333 78.597 274.34 78.6047 274.343 78.6134C274.345 78.6222 274.343 78.6313 274.338 78.6391C274.332 78.6469 274.323 78.6528 274.312 78.6555C274.302 78.6583 274.29 78.6578 274.28 78.654C274.27 78.6503 274.262 78.6436 274.257 78.6354C274.253 78.6271 274.252 78.6178 274.256 78.6094C274.26 78.6009 274.268 78.5939 274.278 78.5897C274.288 78.5855 274.299 78.5844 274.31 78.5867C274.337 78.5374 274.372 78.4744 274.414 78.3953C274.503 78.2261 274.651 77.9821 274.851 77.6708C275.417 76.7922 276.108 75.9682 276.909 75.2147C278.109 74.0991 279.558 73.1702 281.182 72.4752C282.136 72.0571 283.153 71.7378 284.208 71.5249C285.342 71.3007 286.504 71.1806 287.671 71.1671C288.838 71.1478 290.004 71.2333 291.147 71.422C292.216 71.5868 293.253 71.8646 294.229 72.248C295.858 72.9433 297.273 73.9163 298.376 75.0977C299.129 75.8822 299.762 76.7358 300.261 77.6401C300.345 77.7998 300.42 77.9423 300.487 78.0677C300.544 78.1919 300.592 78.2984 300.633 78.3873L300.719 78.5846C300.73 78.6068 300.738 78.6299 300.743 78.6535V78.6535Z" fill="#263238"/>
<path d="M273.408 78.728H228.483V82.9173H273.408V78.728Z" fill="#263238"/>
<path d="M272.191 80.5054C272.191 80.7117 272.115 80.9135 271.971 81.085C271.827 81.2566 271.623 81.3904 271.383 81.4693C271.144 81.5483 270.881 81.569 270.627 81.5287C270.374 81.4884 270.14 81.3891 269.957 81.2432C269.774 81.0972 269.65 80.9113 269.599 80.7089C269.549 80.5066 269.575 80.2968 269.674 80.1061C269.773 79.9155 269.941 79.7525 270.156 79.6379C270.371 79.5232 270.624 79.462 270.883 79.462C271.055 79.462 271.225 79.489 271.384 79.5414C271.542 79.5938 271.687 79.6707 271.808 79.7676C271.93 79.8644 272.026 79.9795 272.092 80.1061C272.157 80.2327 272.191 80.3684 272.191 80.5054Z" fill="#455A64"/>
<path d="M272.819 12.0342H269.069V71.4316H272.819V12.0342Z" fill="#455A64"/>
<path d="M326.147 74.816C326.147 74.85 319.826 74.8776 312.029 74.8776C304.232 74.8776 297.911 74.85 297.911 74.816C297.911 74.782 304.231 74.7546 312.029 74.7546C319.827 74.7546 326.147 74.783 326.147 74.816Z" fill="#263238"/>
<path d="M320.393 73.9261C320.35 73.9261 320.316 71.7339 320.316 69.0303C320.316 66.3267 320.35 64.134 320.393 64.134C320.436 64.134 320.47 66.3258 320.47 69.0303C320.47 71.7349 320.436 73.9261 320.393 73.9261Z" fill="#263238"/>
<path d="M276.317 10.6727H268.664V13.3962H276.317V10.6727Z" fill="#263238"/>
<path d="M273.408 70.9419H268.48V78.7823H273.408V70.9419Z" fill="#263238"/>
<path d="M261.966 59.8188H231.13V78.7829H261.966V59.8188Z" fill="#AC5C45"/>
<path opacity="0.3" d="M261.966 59.8188H231.13V78.7829H261.966V59.8188Z" fill="black"/>
<path d="M254.241 78.6488C254.213 78.6488 254.191 74.4218 254.191 69.2088C254.191 63.9958 254.213 59.7688 254.241 59.7688C254.269 59.7688 254.291 63.9949 254.291 69.2088C254.291 74.4227 254.268 78.6488 254.241 78.6488Z" fill="#9A6847"/>
<path d="M259.352 74.4662H256.988V76.597H259.352V74.4662Z" fill="#9A6847"/>
<path d="M244.04 59.8676H240.538V63.914H244.04V59.8676Z" fill="#9A6847"/>
<path d="M244.04 74.6801H240.538V78.7265H244.04V74.6801Z" fill="#9A6847"/>
<path d="M261.696 59.8184C261.669 59.8217 261.643 59.823 261.617 59.8225L261.385 59.8265L260.495 59.834L257.219 59.8465L246.413 59.8579L235.605 59.8465L232.329 59.8338L231.439 59.8265L231.207 59.8225C231.181 59.823 231.155 59.8217 231.128 59.8184C231.155 59.8154 231.181 59.814 231.207 59.8144L231.439 59.8104L232.329 59.8031L235.605 59.7904L246.413 59.7786L257.219 59.7904L260.495 59.8031L261.385 59.8104L261.617 59.8144C261.643 59.814 261.669 59.8154 261.696 59.8184V59.8184Z" fill="#9A6847"/>
<path d="M229.624 59.8187H198.788V78.7828H229.624V59.8187Z" fill="#CA804E"/>
<path d="M221.899 78.6487C221.871 78.6487 221.849 74.4217 221.849 69.2087C221.849 63.9957 221.871 59.7687 221.899 59.7687C221.926 59.7687 221.949 63.9947 221.949 69.2087C221.949 74.4226 221.926 78.6487 221.899 78.6487Z" fill="#9A6847"/>
<path d="M227.009 74.4662H224.645V76.597H227.009V74.4662Z" fill="#9A6847"/>
<path opacity="0.5" d="M211.698 59.8676H208.195V63.914H211.698V59.8676Z" fill="#936445"/>
<path opacity="0.5" d="M211.698 74.6799H208.195V78.7264H211.698V74.6799Z" fill="#936445"/>
<path d="M229.355 59.8184C229.329 59.8217 229.303 59.823 229.277 59.8225L229.045 59.8265L228.154 59.834L224.879 59.8465L214.073 59.8579L203.264 59.8465L199.989 59.8338L199.099 59.8265L198.867 59.8225C198.841 59.823 198.814 59.8217 198.788 59.8184C198.814 59.8154 198.841 59.814 198.867 59.8144L199.099 59.8104L199.989 59.8031L203.264 59.7904L214.073 59.7786L224.879 59.7904L228.154 59.8031L229.045 59.8104L229.277 59.8144C229.303 59.814 229.329 59.8154 229.355 59.8184V59.8184Z" fill="#9A6847"/>
<path d="M356.385 64.9739C357.975 65.2788 359.308 66.5662 359.282 67.8703C359.249 68.524 358.947 69.151 358.424 69.6549C357.901 70.1587 357.184 70.5117 356.385 70.6594" fill="#E1261C"/>
<g opacity="0.6">
<path opacity="0.6" d="M356.385 64.9739C357.975 65.2788 359.308 66.5662 359.282 67.8703C359.249 68.524 358.947 69.151 358.424 69.6549C357.901 70.1587 357.184 70.5117 356.385 70.6594" fill="white"/>
</g>
<path d="M356.45 64.2412H355.09V71.4187H356.45V64.2412Z" fill="#E1261C"/>
<path opacity="0.3" d="M356.45 64.2412H355.09V71.4187H356.45V64.2412Z" fill="black"/>
<path d="M291.812 35.4831C291.648 35.3823 291.535 35.2378 291.494 35.076C291.454 34.9143 291.487 34.7462 291.59 34.6028C291.816 34.2849 292.084 33.9125 292.205 33.7577C292.354 33.5736 292.489 33.3826 292.61 33.1858C292.648 33.0686 292.726 32.9621 292.836 32.8786C292.946 32.7951 293.083 32.738 293.232 32.7138C293.594 32.6763 293.961 32.6849 294.32 32.7393L298.022 33.3765L299.745 34.0579L298.067 35.2379L297.136 35.0113C296.856 35.2062 295.757 35.3077 295.385 35.2709C294.909 35.2237 293.954 34.9771 293.412 35.0585L292.89 35.1158L293.139 35.2827C293.593 35.2556 294.048 35.3297 294.453 35.4968C294.519 35.5312 294.569 35.5812 294.597 35.6397C294.625 35.6982 294.63 35.7623 294.61 35.8229C294.59 35.8835 294.546 35.9375 294.485 35.9774C294.425 36.0172 294.35 36.0409 294.272 36.045L293.055 36.1082C292.725 35.9846 292.408 35.8405 292.107 35.6773C292.013 35.6086 291.914 35.5438 291.812 35.4831V35.4831Z" fill="#FFBE9D"/>
<path d="M292.891 35.1158C292.831 35.15 292.762 35.1725 292.69 35.1816C292.494 35.2263 292.286 35.2242 292.091 35.1757C291.951 35.1398 291.828 35.0717 291.736 34.9799C291.684 34.9241 291.648 34.8604 291.628 34.7927C291.609 34.725 291.608 34.6548 291.625 34.5867C291.647 34.5092 291.701 34.4398 291.779 34.3896C291.856 34.3444 291.942 34.3103 292.034 34.2889C292.21 34.2418 292.39 34.2043 292.573 34.1765C292.922 34.1234 293.275 34.0874 293.63 34.0687C293.793 34.0599 293.948 34.0538 294.096 34.0547C294.132 34.0547 294.172 34.0564 294.208 34.0588C294.238 34.0599 294.268 34.0589 294.297 34.0559C294.358 34.0491 294.42 34.0398 294.48 34.0281C294.951 33.9337 295.238 33.8471 295.247 33.8657C295.017 33.9767 294.767 34.0597 294.507 34.1121C294.443 34.1275 294.379 34.1401 294.313 34.1499C294.275 34.1552 294.236 34.1575 294.197 34.1567C294.164 34.1567 294.133 34.1567 294.096 34.1567C293.955 34.16 293.8 34.1699 293.641 34.1817C293.32 34.2053 292.966 34.2405 292.602 34.2971C292.426 34.3237 292.253 34.3589 292.082 34.4026C291.91 34.4425 291.797 34.5034 291.763 34.6136C291.749 34.6662 291.748 34.7204 291.762 34.7731C291.775 34.8258 291.801 34.8759 291.839 34.9204C291.912 34.9993 292.012 35.0599 292.127 35.095C292.303 35.1455 292.492 35.1593 292.676 35.1354C292.812 35.1215 292.887 35.1057 292.891 35.1158Z" fill="#EB996E"/>
<path d="M293.351 33.578C293.391 33.5695 293.463 33.7255 293.391 33.9121C293.319 34.0988 293.151 34.1953 293.124 34.1717C293.092 34.1481 293.186 34.032 293.243 33.8765C293.299 33.721 293.307 33.5834 293.351 33.578Z" fill="#EB996E"/>
<path d="M293.93 33.7643C293.972 33.7676 293.983 33.8823 293.881 33.9883C293.779 34.0942 293.637 34.1148 293.622 34.0827C293.608 34.0506 293.684 33.9921 293.759 33.9125C293.833 33.833 293.887 33.7589 293.93 33.7643Z" fill="#EB996E"/>
<path d="M308.507 33.1058C309.017 32.9373 305.582 35.7516 305.582 35.7516L299.236 33.8659L296.996 34.9631L303.82 38.7934C304.522 39.1869 305.376 39.3675 306.23 39.3026C307.084 39.2376 307.88 38.9315 308.476 38.4394L312.503 34.7273L308.507 33.1058Z" fill="#FFBE9D"/>
<path d="M312.228 21.8247C311.343 21.6895 310.789 21.4707 310.766 21.1996C310.718 20.6388 312.953 20.0611 315.758 19.9096C318.562 19.7581 320.875 20.0899 320.923 20.6509C320.945 20.9213 320.438 21.1956 319.591 21.424" fill="#E1261C"/>
<g opacity="0.4">
<path opacity="0.4" d="M312.712 21.7776C311.927 21.6575 311.416 21.4649 311.415 21.2235C311.413 20.5516 313.354 20.2146 315.84 20.0801C318.326 19.9455 320.375 20.2398 320.418 20.7371C320.438 20.9769 319.988 21.2197 319.239 21.4215" fill="black"/>
</g>
<path d="M311.442 20.898C311.442 20.898 311.966 18.4783 312.019 18.3591C312.071 18.2399 312.833 17.1515 314.842 16.7437L316.523 16.6531C316.523 16.6531 318.961 17.1362 319.436 17.5761C319.911 18.016 320.289 20.2559 320.289 20.2559L315.506 19.6937L312.353 20.4902L311.442 20.898Z" fill="#E1261C"/>
<path d="M315.368 16.4413L314.646 16.4802C314.478 16.6579 314.394 16.8779 314.411 17.1004C314.413 17.5188 314.538 20.3836 314.538 20.3836L316.639 20.1934L316.272 16.6664L316.998 16.7544L316.959 16.5557L316.754 16.3875L315.368 16.4413Z" fill="#E1261C"/>
<path d="M319.761 29.6295L314.611 29.7192C314.545 29.2863 314.595 26.5839 314.595 26.5839C314.595 26.5839 312.634 26.4482 312.478 24.9022C312.323 23.3561 312.355 20.2515 312.355 20.2515L312.376 20.1147C314.557 19.2235 317.153 19.0142 319.191 20.0986L319.494 20.2596L319.761 29.6295Z" fill="#FFBE9D"/>
<path d="M314.594 26.584C315.49 26.5338 316.349 26.2799 317.07 25.8524C317.07 25.8524 316.535 27.0213 314.588 26.9864L314.594 26.584Z" fill="#EB996E"/>
<path d="M319.39 21.8752C319.423 21.8618 320.697 21.4887 320.744 22.5488C320.792 23.6089 319.448 23.4281 319.442 23.3984C319.437 23.3686 319.39 21.8752 319.39 21.8752Z" fill="#FFBE9D"/>
<path d="M319.832 22.9847C319.838 22.9812 319.856 22.997 319.895 23.01C319.951 23.0274 320.013 23.0267 320.068 23.0081C320.152 22.9622 320.219 22.8993 320.263 22.8259C320.306 22.7525 320.324 22.6712 320.315 22.5904C320.315 22.4994 320.289 22.4097 320.239 22.328C320.225 22.2951 320.201 22.2655 320.17 22.2416C320.138 22.2178 320.1 22.2004 320.058 22.1911C320.031 22.1863 320.003 22.1891 319.979 22.1991C319.954 22.209 319.935 22.2255 319.924 22.2456C319.907 22.2758 319.917 22.2968 319.91 22.2987C319.903 22.3006 319.88 22.2817 319.889 22.2378C319.895 22.2113 319.913 22.1873 319.938 22.1698C319.974 22.1468 320.02 22.1358 320.065 22.1392C320.12 22.1462 320.172 22.1643 320.216 22.1919C320.259 22.2195 320.293 22.2555 320.315 22.2966C320.375 22.3869 320.407 22.4875 320.408 22.5899C320.419 22.6841 320.394 22.7787 320.338 22.8618C320.281 22.945 320.195 23.0129 320.091 23.0572C320.055 23.0665 320.018 23.0694 319.981 23.0656C319.944 23.0618 319.909 23.0514 319.878 23.0352C319.835 23.0102 319.826 22.9866 319.832 22.9847Z" fill="#EB996E"/>
<path d="M312.999 22.1602C313.003 22.2178 313.036 22.2719 313.089 22.3109C313.142 22.3499 313.213 22.3707 313.285 22.3688C313.321 22.369 313.356 22.3637 313.389 22.353C313.421 22.3422 313.451 22.3264 313.476 22.3064C313.501 22.2864 313.521 22.2627 313.534 22.2365C313.548 22.2103 313.554 22.1823 313.554 22.154C313.55 22.0964 313.518 22.0424 313.464 22.0034C313.411 21.9645 313.34 21.9437 313.268 21.9454C313.233 21.9452 313.197 21.9505 313.165 21.9613C313.132 21.972 313.102 21.9878 313.077 22.0078C313.052 22.0278 313.032 22.0516 313.019 22.0777C313.006 22.1039 312.999 22.1319 312.999 22.1602V22.1602Z" fill="#263238"/>
<path d="M312.908 21.9424C312.945 21.9693 313.145 21.834 313.443 21.8185C313.741 21.8029 313.97 21.9103 314 21.8793C314.014 21.8657 313.975 21.8154 313.875 21.7654C313.74 21.7009 313.583 21.6715 313.426 21.6811C313.271 21.6889 313.123 21.7359 313.004 21.8154C312.917 21.876 312.89 21.9299 312.908 21.9424Z" fill="#263238"/>
<path d="M315.936 22.0733C315.941 22.1309 315.973 22.185 316.026 22.224C316.08 22.2629 316.15 22.2837 316.223 22.2819C316.258 22.2821 316.293 22.2768 316.326 22.266C316.359 22.2553 316.388 22.2395 316.413 22.2195C316.438 22.1995 316.458 22.1757 316.472 22.1496C316.485 22.1234 316.492 22.0954 316.491 22.0671C316.487 22.0095 316.455 21.9555 316.401 21.9165C316.348 21.8776 316.278 21.8567 316.205 21.8585C316.17 21.8582 316.135 21.8636 316.102 21.8743C316.069 21.885 316.039 21.9008 316.014 21.9208C315.989 21.9408 315.969 21.9646 315.956 21.9908C315.943 22.0169 315.936 22.045 315.936 22.0733V22.0733Z" fill="#263238"/>
<path d="M315.844 21.828C315.881 21.8549 316.081 21.7197 316.379 21.7041C316.677 21.6885 316.906 21.7959 316.936 21.765C316.95 21.7513 316.911 21.701 316.811 21.651C316.676 21.5865 316.519 21.5571 316.362 21.5667C316.207 21.5746 316.059 21.6216 315.94 21.701C315.853 21.7621 315.826 21.816 315.844 21.828Z" fill="#263238"/>
<path d="M314.913 23.6498C314.753 23.6189 314.588 23.6042 314.423 23.6061C314.346 23.604 314.273 23.596 314.257 23.5552C314.245 23.4928 314.257 23.4291 314.292 23.3725C314.351 23.2218 314.413 23.0636 314.478 22.8979C314.654 22.495 314.788 22.0816 314.881 21.6615C314.665 22.0521 314.489 22.4559 314.354 22.8691C314.293 23.0357 314.234 23.1943 314.177 23.3461C314.135 23.4218 314.128 23.5069 314.157 23.5863C314.17 23.6071 314.189 23.6253 314.212 23.6395C314.235 23.6538 314.262 23.6637 314.29 23.6684C314.333 23.6753 314.377 23.6777 314.421 23.6758C314.585 23.6838 314.751 23.675 314.913 23.6498V23.6498Z" fill="#263238"/>
<path d="M315.803 23.7668C315.754 23.7668 315.775 24.0264 315.514 24.2235C315.252 24.4205 314.905 24.4123 314.906 24.4479C314.903 24.4644 314.987 24.4939 315.133 24.4892C315.323 24.4811 315.503 24.4199 315.642 24.3162C315.775 24.2167 315.854 24.0799 315.863 23.9346C315.866 23.8261 315.825 23.764 315.803 23.7668Z" fill="#263238"/>
<path d="M315.687 20.9005C315.722 20.9635 316.017 20.9167 316.37 20.9316C316.723 20.9406 317.012 21.0071 317.054 20.9465C317.072 20.9177 317.018 20.8596 316.898 20.8032C316.739 20.7346 316.563 20.6958 316.383 20.6897C316.202 20.6836 316.023 20.7104 315.857 20.7681C315.732 20.8162 315.672 20.8705 315.687 20.9005Z" fill="#263238"/>
<path d="M312.959 21.2482C313.016 21.2994 313.217 21.2321 313.462 21.2163C313.708 21.1927 313.922 21.2279 313.966 21.1691C313.984 21.1406 313.947 21.0884 313.851 21.0422C313.723 20.9875 313.578 20.9645 313.433 20.9759C313.289 20.9872 313.152 21.0326 313.04 21.1061C312.959 21.1658 312.935 21.2232 312.959 21.2482Z" fill="#263238"/>
<path d="M319.525 20.8682C319.51 21.3001 319.563 21.7339 319.548 22.1662C319.53 22.3298 319.478 22.4898 319.394 22.6396C319.366 22.7262 319.305 22.8036 319.219 22.8609C319.133 22.9182 319.027 22.9525 318.915 22.9589C318.803 22.9653 318.691 22.9436 318.596 22.8968C318.5 22.85 318.426 22.7804 318.382 22.6979C318.277 22.5276 318.22 22.3405 318.217 22.1504C318.215 21.9607 318.174 21.7725 318.097 21.593C317.971 21.4058 317.821 21.2297 317.649 21.0676C317.563 20.986 317.503 20.8896 317.472 20.786C317.441 20.6825 317.441 20.5747 317.471 20.471C318.188 20.4531 318.897 20.5905 319.523 20.8687" fill="#263238"/>
<path d="M312.356 21.0613L312.324 20.1936L315.431 19.2689L319.471 19.9854L319.55 20.9157C317.216 20.2319 314.643 20.284 312.356 21.0613V21.0613Z" fill="#455A64"/>
<path d="M312.506 19.9995L312.376 20.1149L311.283 20.7481C312.714 20.3643 314.199 20.1247 315.705 20.0349C317.357 20.0038 319.007 20.127 320.623 20.4019L319.059 19.7621C318.805 19.5733 318.507 19.4269 318.181 19.3317C317.855 19.2364 317.509 19.1942 317.162 19.2075L314.31 19.317C313.968 19.3302 313.632 19.3973 313.323 19.5144C313.013 19.6316 312.736 19.7964 312.506 19.9995V19.9995Z" fill="#E1261C"/>
<path d="M314.49 19.2459C314.544 18.8434 314.558 18.4382 314.532 18.034C314.546 17.6295 314.519 17.2247 314.453 16.8234C314.399 17.2258 314.385 17.631 314.411 18.0352C314.398 18.4398 314.424 18.8446 314.49 19.2459V19.2459Z" fill="#263238"/>
<path d="M316.998 16.7546C316.822 16.7038 316.639 16.672 316.453 16.6602C316.395 16.664 316.341 16.6847 316.301 16.7184C316.262 16.752 316.239 16.7962 316.238 16.8423C316.245 16.9245 316.251 17.0095 316.258 17.0975C316.276 17.2792 316.295 17.472 316.315 17.6745C316.359 18.0837 316.404 18.4533 316.444 18.7216C316.454 18.8676 316.484 19.0124 316.533 19.1533C316.552 19.0081 316.55 18.8618 316.529 18.7169C316.511 18.4481 316.478 18.0771 316.435 17.6676C316.412 17.4654 316.39 17.2726 316.369 17.0911C316.358 17.0053 316.348 16.9225 316.339 16.8426C316.339 16.8147 316.351 16.7876 316.374 16.7663C316.397 16.7451 316.428 16.7312 316.463 16.7272C316.64 16.7494 316.819 16.7586 316.998 16.7546V16.7546Z" fill="#263238"/>
<path d="M311.211 20.7408C311.216 20.7472 311.34 20.6903 311.579 20.6079C311.697 20.5652 311.845 20.5161 312.009 20.4439C312.202 20.3649 312.366 20.2477 312.486 20.1036C312.626 19.9384 312.633 19.7191 312.791 19.5546C312.935 19.3798 313.246 19.364 313.547 19.3385C314.157 19.2856 314.83 19.2441 315.538 19.2217C316.246 19.1992 316.922 19.194 317.536 19.1981C317.817 19.1779 318.098 19.2363 318.33 19.3633C318.425 19.4329 318.512 19.5093 318.589 19.5915L318.71 19.7069L318.771 19.7611C318.797 19.7803 318.826 19.7955 318.859 19.806C319.297 19.9476 319.654 20.0326 319.898 20.1057C320.023 20.1461 320.151 20.1811 320.281 20.2105C320.253 20.1931 320.222 20.179 320.189 20.1687C320.128 20.1451 320.035 20.1111 319.915 20.071C319.678 19.9879 319.316 19.8898 318.895 19.7451C318.873 19.7378 318.853 19.7275 318.836 19.7147L318.777 19.6611L318.661 19.5459C318.582 19.4586 318.493 19.3774 318.395 19.3033C318.147 19.1609 317.843 19.0927 317.538 19.1107C316.922 19.1013 316.244 19.1029 315.533 19.1263C314.822 19.1497 314.147 19.1931 313.534 19.2512C313.382 19.2616 313.231 19.281 313.083 19.309C312.932 19.3371 312.8 19.408 312.71 19.5084C312.539 19.7026 312.538 19.9219 312.414 20.0682C312.305 20.2059 312.155 20.3195 311.976 20.3986C311.82 20.4732 311.675 20.5274 311.56 20.5751C311.444 20.6228 311.355 20.6622 311.297 20.6915C311.238 20.7207 311.209 20.7391 311.211 20.7408Z" fill="#263238"/>
<path d="M311.647 20.8523C311.677 20.8434 311.704 20.8306 311.729 20.8146C311.801 20.7737 311.877 20.7371 311.956 20.7051C312.248 20.5874 312.554 20.4946 312.87 20.4285C313.917 20.2089 314.997 20.1086 316.079 20.1306C316.715 20.1325 317.322 20.1222 317.867 20.1495C318.411 20.1819 318.907 20.2366 319.314 20.2911C319.518 20.3202 319.701 20.3527 319.86 20.3855C319.995 20.4058 320.124 20.4499 320.235 20.5146C320.28 20.544 320.316 20.5813 320.341 20.6235C320.365 20.6658 320.376 20.712 320.375 20.7584C320.377 20.7584 320.394 20.7348 320.39 20.6831C320.38 20.6079 320.336 20.5383 320.266 20.4872C320.154 20.4127 320.021 20.3603 319.878 20.3343C319.719 20.2951 319.535 20.2576 319.33 20.2241C318.849 20.149 318.363 20.0944 317.875 20.0608C317.322 20.0282 316.714 20.0372 316.079 20.0344C314.987 20.0108 313.896 20.1215 312.846 20.3626C312.527 20.4356 312.221 20.5395 311.933 20.6718C311.855 20.7079 311.782 20.7503 311.714 20.7983C311.667 20.8318 311.645 20.85 311.647 20.8523Z" fill="#263238"/>
<path d="M314.956 16.5387C315.055 16.5458 315.154 16.5463 315.254 16.5404L315.97 16.5168C316.249 16.5107 316.505 16.4821 316.682 16.4965C316.73 16.4987 316.777 16.5088 316.82 16.5262C316.863 16.5437 316.901 16.568 316.932 16.5977C316.925 16.5763 316.91 16.5571 316.889 16.5428C316.833 16.5022 316.762 16.4767 316.687 16.4696C316.447 16.4594 316.207 16.4625 315.967 16.4788L315.252 16.5125C315.152 16.515 315.053 16.5237 314.956 16.5387V16.5387Z" fill="#FAFAFA"/>
<path d="M314.834 19.3403C314.884 19.3444 314.934 19.3452 314.984 19.3427L315.393 19.3379C315.739 19.3342 316.216 19.3311 316.743 19.3379L317.486 19.3526C317.687 19.3509 317.888 19.3635 318.087 19.3903C318.218 19.4119 318.337 19.4689 318.423 19.5518C318.451 19.5838 318.476 19.6183 318.495 19.6547C318.489 19.6141 318.469 19.5755 318.438 19.543C318.354 19.4526 318.232 19.3891 318.095 19.3641C317.895 19.3328 317.692 19.317 317.488 19.3169C317.259 19.3087 317.008 19.3025 316.744 19.2992C316.216 19.2924 315.737 19.2992 315.393 19.3106L314.983 19.3276C314.933 19.3285 314.883 19.3328 314.834 19.3403V19.3403Z" fill="#FAFAFA"/>
<path d="M316.393 18.92C316.394 18.8912 316.391 18.8624 316.384 18.8341C316.371 18.7581 316.358 18.6814 316.345 18.6026C316.311 18.4069 316.268 18.1367 316.232 17.8372C316.195 17.5378 316.173 17.2657 316.158 17.0688C316.151 16.9893 316.146 16.9121 316.14 16.8354C316.14 16.8066 316.136 16.7779 316.128 16.7498C316.121 16.7781 316.119 16.8071 316.121 16.8359C316.121 16.8911 316.121 16.9711 316.124 17.0698C316.13 17.2675 316.147 17.5406 316.183 17.841C316.218 18.1414 316.268 18.4117 316.311 18.6066C316.331 18.7041 316.35 18.7827 316.365 18.8367C316.37 18.8652 316.38 18.8932 316.393 18.92V18.92Z" fill="#FAFAFA"/>
<path d="M318.855 19.8584C318.885 19.8724 318.916 19.8836 318.949 19.8919L319.209 19.97L320.073 20.2138C320.233 20.2526 320.389 20.3004 320.54 20.3568C320.662 20.402 320.76 20.4798 320.818 20.5765C320.855 20.6421 320.864 20.7159 320.842 20.7859C320.824 20.8347 320.8 20.8567 320.804 20.8597C320.83 20.8407 320.849 20.8169 320.86 20.7904C320.89 20.7171 320.886 20.6375 320.849 20.5664C320.792 20.4613 320.69 20.376 320.561 20.3259C320.409 20.2667 320.25 20.2172 320.088 20.1779L319.219 19.9445L318.953 19.8778C318.922 19.8681 318.889 19.8616 318.855 19.8584Z" fill="#FAFAFA"/>
<path d="M296.981 62.0358L297.247 65.8665C297.247 65.8665 292.452 67.3703 292.417 68.0824L301.751 67.9349L301.641 61.952L296.981 62.0358Z" fill="#E1261C"/>
<g opacity="0.4">
<path opacity="0.4" d="M296.981 62.0358L297.247 65.8665C297.247 65.8665 292.452 67.3703 292.417 68.0824L301.751 67.9349L301.641 61.952L296.981 62.0358Z" fill="black"/>
</g>
<path d="M300.127 65.4983C300.217 65.5187 300.295 65.5649 300.345 65.6281C300.395 65.6914 300.415 65.7672 300.399 65.841C300.377 65.9137 300.321 65.9769 300.242 66.0174C300.163 66.058 300.068 66.0729 299.975 66.0591C299.88 66.0373 299.798 65.988 299.745 65.9207C299.692 65.8535 299.672 65.773 299.69 65.6949C299.722 65.6205 299.79 65.5592 299.878 65.5239C299.967 65.4887 300.069 65.4823 300.163 65.5061" fill="#E0E0E0"/>
<path d="M301.752 67.9348L301.712 67.332L292.777 67.6988C292.777 67.6988 292.366 67.8496 292.418 68.0823L301.752 67.9348Z" fill="#E0E0E0"/>
<path d="M297.095 65.8311C297.098 65.8674 297.326 65.8804 297.553 65.9937C297.784 66.1022 297.904 66.2578 297.945 66.2427C297.987 66.2351 297.914 66.0189 297.635 65.8856C297.357 65.7523 297.086 65.798 297.095 65.8311Z" fill="#263238"/>
<path d="M296.126 66.1695C296.116 66.2049 296.315 66.2639 296.474 66.4147C296.638 66.5622 296.681 66.7279 296.726 66.7257C296.769 66.7307 296.796 66.5174 296.594 66.3323C296.392 66.1473 296.126 66.1348 296.126 66.1695Z" fill="#263238"/>
<path d="M295.593 67.1134C295.635 67.1205 295.693 66.9378 295.572 66.7408C295.45 66.5437 295.234 66.4677 295.216 66.4984C295.191 66.5286 295.332 66.6332 295.429 66.7962C295.531 66.9565 295.548 67.1096 295.593 67.1134Z" fill="#263238"/>
<path d="M297.157 64.9527C297.177 64.9855 297.385 64.9321 297.643 64.9418C297.901 64.9477 298.103 65.0126 298.126 64.9819C298.152 64.9553 297.953 64.8238 297.649 64.8167C297.345 64.8096 297.134 64.9243 297.157 64.9527Z" fill="#263238"/>
<g opacity="0.3">
<path opacity="0.3" d="M297.036 62.7946L297.083 63.4773L301.67 63.3716L301.661 62.7559L297.036 62.7946Z" fill="black"/>
</g>
<path d="M297.121 64.1791C297.275 64.2096 297.436 64.2063 297.588 64.1697C297.756 64.1432 297.92 64.1004 298.074 64.0422C298.167 64.0079 298.256 63.9684 298.341 63.9242C298.393 63.9004 298.44 63.8701 298.48 63.8346C298.509 63.8082 298.527 63.7749 298.529 63.7399C298.532 63.7048 298.521 63.67 298.496 63.6408C298.472 63.6158 298.442 63.5956 298.407 63.5817C298.372 63.5678 298.333 63.5606 298.294 63.5608C298.235 63.5613 298.176 63.5688 298.119 63.583C298.02 63.6039 297.923 63.632 297.831 63.667C297.674 63.7263 297.531 63.8047 297.405 63.8995C297.193 64.0628 297.122 64.1996 297.139 64.2063C297.16 64.2178 297.262 64.1024 297.479 63.9669C297.606 63.8885 297.744 63.8234 297.892 63.7732C297.978 63.7439 298.067 63.7202 298.158 63.7024C298.256 63.6802 298.34 63.6788 298.367 63.713C298.376 63.7262 298.377 63.7314 298.357 63.7548C298.327 63.7805 298.293 63.8026 298.255 63.8204C298.177 63.8631 298.095 63.902 298.011 63.937C297.867 63.9964 297.717 64.045 297.562 64.0821C297.413 64.1059 297.265 64.1383 297.121 64.1791V64.1791Z" fill="#263238"/>
<path d="M297.181 64.2302C297.267 64.1225 297.307 63.9956 297.296 63.8684C297.301 63.7303 297.276 63.5926 297.222 63.4613C297.19 63.3833 297.148 63.3081 297.097 63.2368C297.071 63.188 297.029 63.1454 296.976 63.1132C296.923 63.0811 296.86 63.0604 296.794 63.0532C296.753 63.0546 296.712 63.0654 296.678 63.0844C296.644 63.1034 296.618 63.1297 296.602 63.1604C296.579 63.2043 296.564 63.2505 296.557 63.2977C296.543 63.3812 296.545 63.4658 296.563 63.5488C296.592 63.6879 296.664 63.819 296.772 63.9307C296.959 64.1195 297.151 64.161 297.154 64.1487C297.169 64.1303 297.008 64.0626 296.864 63.8795C296.781 63.7739 296.727 63.6552 296.708 63.5316C296.696 63.4599 296.697 63.3873 296.711 63.3159C296.723 63.2366 296.759 63.1722 296.796 63.1797C296.843 63.1783 296.923 63.2368 296.963 63.2994C297.011 63.3631 297.051 63.43 297.084 63.4995C297.139 63.6186 297.172 63.7434 297.183 63.87C297.202 64.0883 297.157 64.2252 297.181 64.2302Z" fill="#263238"/>
<path d="M322.182 45.7586C322.182 45.7586 321.162 49.9292 319.468 49.9884C317.389 50.0609 302.344 50.2244 302.344 50.2244L303.262 63.5856L296.695 63.4593L294.071 50.2936C293.778 49.112 294.026 47.886 294.769 46.8374C294.787 46.8138 294.805 46.7883 294.823 46.7637C295.384 46.0282 296.173 45.42 297.114 44.9973C298.055 44.5746 299.116 44.3517 300.196 44.3499L312.693 44.2001L322.182 45.7586Z" fill="#263238"/>
<path d="M299.531 62.0356L299.798 65.8663C299.798 65.8663 295.003 67.3701 294.968 68.0821L304.302 67.9346L304.191 61.9518L299.531 62.0356Z" fill="#E1261C"/>
<path d="M302.677 65.4983C302.768 65.5186 302.845 65.5648 302.896 65.6281C302.946 65.6913 302.965 65.7671 302.95 65.8409C302.927 65.9136 302.871 65.9768 302.792 66.0174C302.713 66.0579 302.618 66.0728 302.526 66.059C302.43 66.0373 302.348 65.988 302.295 65.9207C302.242 65.8535 302.222 65.773 302.24 65.6949C302.272 65.6205 302.34 65.5592 302.429 65.524C302.517 65.4887 302.619 65.4823 302.713 65.5061" fill="#E0E0E0"/>
<path d="M304.304 67.9346L304.263 67.3319L295.329 67.6986C295.329 67.6986 294.917 67.8495 294.97 68.0821L304.304 67.9346Z" fill="#E0E0E0"/>
<path d="M299.648 65.831C299.65 65.8673 299.878 65.8803 300.106 65.9936C300.337 66.1021 300.456 66.2577 300.498 66.2425C300.54 66.235 300.466 66.0188 300.188 65.8855C299.91 65.7521 299.637 65.7979 299.648 65.831Z" fill="#263238"/>
<path d="M298.676 66.1694C298.667 66.2048 298.866 66.2638 299.024 66.4146C299.188 66.5621 299.231 66.7277 299.277 66.7256C299.32 66.7306 299.346 66.5172 299.144 66.3322C298.942 66.1472 298.676 66.1347 298.676 66.1694Z" fill="#263238"/>
<path d="M298.143 67.1134C298.185 67.1205 298.243 66.9378 298.122 66.7408C298 66.5437 297.784 66.4677 297.766 66.4984C297.741 66.5286 297.882 66.6332 297.979 66.7962C298.077 66.9593 298.098 67.1096 298.143 67.1134Z" fill="#263238"/>
<path d="M299.708 64.9525C299.727 64.9854 299.935 64.932 300.193 64.9417C300.452 64.9476 300.654 65.0125 300.677 64.9818C300.702 64.9551 300.503 64.8237 300.199 64.8166C299.895 64.8095 299.684 64.9242 299.708 64.9525Z" fill="#263238"/>
<g opacity="0.3">
<path opacity="0.3" d="M299.586 62.7944L299.632 63.4772L304.22 63.3715L304.21 62.7557L299.586 62.7944Z" fill="black"/>
</g>
<path d="M299.671 64.179C299.825 64.2095 299.987 64.2062 300.139 64.1696C300.307 64.143 300.47 64.1002 300.625 64.0421C300.717 64.0077 300.806 63.9683 300.891 63.9241C300.943 63.9002 300.99 63.8699 301.031 63.8344C301.06 63.8081 301.077 63.7748 301.08 63.7397C301.083 63.7047 301.071 63.6698 301.047 63.6407C301.023 63.6157 300.993 63.5955 300.957 63.5816C300.922 63.5677 300.884 63.5605 300.845 63.5607C300.785 63.5612 300.726 63.5687 300.67 63.5829C300.571 63.6038 300.474 63.6319 300.381 63.6669C300.225 63.7261 300.081 63.8045 299.956 63.8993C299.743 64.0626 299.673 64.1995 299.689 64.2061C299.71 64.2177 299.813 64.1023 300.03 63.9668C300.157 63.8884 300.295 63.8232 300.442 63.7731C300.529 63.7438 300.618 63.7201 300.709 63.7023C300.807 63.6801 300.891 63.6787 300.916 63.7129C300.926 63.7261 300.927 63.7313 300.907 63.7547C300.877 63.7803 300.843 63.8024 300.805 63.8203C300.726 63.8629 300.645 63.9019 300.561 63.9369C300.417 63.9963 300.267 64.0449 300.112 64.082C299.962 64.1058 299.815 64.1382 299.671 64.179V64.179Z" fill="#263238"/>
<path d="M299.732 64.23C299.818 64.1223 299.858 63.9955 299.846 63.8682C299.854 63.6472 299.785 63.4288 299.648 63.2367C299.621 63.1879 299.58 63.1453 299.527 63.1132C299.474 63.081 299.411 63.0603 299.345 63.0531C299.303 63.0544 299.263 63.0652 299.229 63.0842C299.195 63.1032 299.168 63.1296 299.152 63.1602C299.13 63.2041 299.114 63.2504 299.108 63.2976C299.094 63.381 299.096 63.4657 299.114 63.5487C299.143 63.6877 299.215 63.8189 299.323 63.9306C299.51 64.1193 299.701 64.1609 299.705 64.1486C299.72 64.1302 299.559 64.0625 299.415 63.8793C299.332 63.7738 299.278 63.6551 299.258 63.5315C299.247 63.4598 299.248 63.3872 299.262 63.3158C299.274 63.2365 299.31 63.172 299.347 63.1796C299.394 63.1782 299.474 63.2367 299.514 63.2992C299.561 63.3629 299.602 63.4299 299.635 63.4994C299.69 63.6185 299.723 63.7432 299.734 63.8699C299.753 64.0882 299.707 64.2251 299.732 64.23Z" fill="#263238"/>
<path d="M323.839 45.7585C323.839 45.7585 322.819 49.9291 321.125 49.9883C319.046 50.0608 304.001 50.2243 304.001 50.2243L304.919 63.5855L298.352 63.4592L295.728 50.2935C295.436 49.1119 295.684 47.8859 296.426 46.8373C296.444 46.8137 296.462 46.7882 296.48 46.7636C297.042 46.0281 297.83 45.4198 298.771 44.9972C299.712 44.5745 300.773 44.3516 301.853 44.3498L314.35 44.2L323.839 45.7585Z" fill="#263238"/>
<path d="M311.035 29.006L313.002 39.5031L311.662 44.2186L323.839 47.0768C324.938 45.8227 324.981 41.8352 324.943 39.0155C324.875 34.0458 325.15 33.8046 324.881 32.0613C324.614 30.3385 324.151 29.1967 322.996 28.6487L319.693 27.2941C319.693 27.2941 317.82 28.2444 316.683 28.1925C316.683 28.1925 315.329 28.2371 314.579 27.6641C314.58 27.6641 311.845 28.3254 311.035 29.006Z" fill="#E1261C"/>
<path d="M311.035 29.0062L306.976 33.4666L312.502 36.0532L312.08 34.4316L311.035 29.0062Z" fill="#E1261C"/>
<path d="M301.365 44.416C301.342 44.4215 301.318 44.4244 301.294 44.4245L301.089 44.4373C300.978 44.4428 300.867 44.453 300.757 44.4679C300.607 44.4837 300.457 44.5063 300.31 44.5354C299.367 44.719 298.496 45.087 297.776 45.6062C297.281 45.9619 296.855 46.3747 296.512 46.831C296.12 47.3539 295.876 47.9392 295.799 48.5455C295.727 49.2185 295.759 49.8959 295.894 50.5626C296.012 51.2603 296.186 51.9824 296.281 52.7303C296.49 54.2187 296.772 55.6293 297.036 56.9108L297.758 60.3142C297.963 61.2832 298.12 62.0686 298.218 62.6128C298.263 62.8768 298.299 63.0858 298.325 63.2398C298.335 63.3057 298.343 63.3593 298.349 63.4034C298.353 63.422 298.354 63.441 298.352 63.4598C298.342 63.4424 298.336 63.4241 298.333 63.4053L298.295 63.2436C298.261 63.0909 298.216 62.8831 298.159 62.6203C298.036 62.0683 297.863 61.2884 297.651 60.329C297.435 59.3579 297.18 58.2069 296.896 56.9306C296.624 55.6491 296.338 54.2374 296.127 52.7449C296.032 52.0006 295.862 51.2829 295.744 50.5796C295.609 49.9031 295.58 49.2159 295.657 48.5337C295.74 47.9124 295.994 47.3133 296.402 46.7796C296.755 46.3169 297.194 45.8996 297.704 45.542C298.441 45.0203 299.334 44.658 300.297 44.4896C300.647 44.4257 301.006 44.401 301.365 44.416V44.416Z" fill="#455A64"/>
<path d="M306.029 41.1746C306.029 41.1746 310.726 42.3841 314.379 43.4402C314.999 43.6193 315.665 43.6733 316.317 43.5976C316.97 43.5219 317.589 43.3187 318.119 43.0062V43.0062C318.797 42.6066 319.3 42.0464 319.555 41.4056L322.056 35.1226L317.881 33.9556L315.089 39.6033L304.7 38.5141" fill="#FFBE9D"/>
<path d="M299.817 39.8791L299.778 39.5822C299.803 39.3624 299.918 39.1553 300.105 38.9922V38.9922C300.205 38.9042 300.325 38.831 300.457 38.776L301.688 38.2651C301.874 38.1879 302.086 38.1613 302.293 38.1893L304.813 38.531L307.703 38.8338L307.105 41.4563L305.769 41.1023C305.769 41.1023 304.799 41.5304 304.203 41.4284C304.203 41.4284 303.649 41.7227 303.422 41.5077C303.422 41.5077 302.925 41.8473 302.741 41.8247C302.558 41.802 302.188 41.6321 302.202 41.5304L302.216 41.3944C302.121 41.4341 302.014 41.4529 301.907 41.4487C301.8 41.4446 301.696 41.4177 301.606 41.3708C301.477 41.292 301.379 41.1861 301.322 41.0652C301.091 41.0456 300.873 40.9706 300.697 40.8502C300.582 40.7141 300.504 40.5597 300.47 40.3976C300.47 40.3976 299.909 40.1859 299.817 39.8791Z" fill="#FFBE9D"/>
<path d="M301.675 38.9284C301.693 38.9269 301.723 39.0355 301.661 39.2021C301.569 39.411 301.417 39.5998 301.218 39.7536C300.996 39.9351 300.79 40.084 300.662 40.207C300.534 40.33 300.467 40.4147 300.446 40.4071C300.425 40.3996 300.459 40.2972 300.574 40.1551C300.732 39.98 300.911 39.8172 301.107 39.6689C301.293 39.5249 301.446 39.3568 301.561 39.1719C301.64 39.0294 301.651 38.9277 301.675 38.9284Z" fill="#EB996E"/>
<path d="M302.155 39.9773C302.11 40.1934 301.997 40.3969 301.827 40.5689C301.582 40.871 301.313 41.0714 301.283 41.0492C301.545 40.6775 301.836 40.3194 302.155 39.9773Z" fill="#EB996E"/>
<path d="M302.798 40.6713C302.834 40.6897 302.729 40.8616 302.564 41.0546C302.399 41.2476 302.237 41.3885 302.202 41.369C302.167 41.3494 302.272 41.1776 302.436 40.9855C302.6 40.7933 302.762 40.6527 302.798 40.6713Z" fill="#EB996E"/>
<path d="M302.68 40.3955C302.672 40.4103 302.614 40.412 302.538 40.3747C302.488 40.3488 302.446 40.315 302.414 40.2754C302.381 40.2357 302.36 40.1911 302.351 40.1444C302.341 40.0978 302.344 40.0501 302.359 40.0044C302.374 39.9587 302.401 39.916 302.438 39.8791C302.498 39.8246 302.553 39.8118 302.565 39.8241C302.595 39.8477 302.47 39.9674 302.502 40.1255C302.535 40.2836 302.697 40.3657 302.68 40.3955Z" fill="#EB996E"/>
<path d="M303.382 41.1002C303.374 41.1153 303.326 41.1186 303.263 41.0898C303.222 41.07 303.186 41.0437 303.158 41.0126C303.13 40.9814 303.11 40.946 303.099 40.9085C303.083 40.8684 303.082 40.8255 303.096 40.7849C303.11 40.7444 303.138 40.7079 303.178 40.6799C303.254 40.6393 303.314 40.6676 303.307 40.6829C303.274 40.7079 303.252 40.7397 303.241 40.7746C303.231 40.8095 303.233 40.846 303.247 40.88C303.28 41.0001 303.398 41.0697 303.382 41.1002Z" fill="#EB996E"/>
<path d="M302.27 39.6445C302.268 39.6598 302.206 39.6723 302.116 39.6395C302.057 39.6166 302.007 39.582 301.97 39.539C301.933 39.496 301.91 39.4461 301.904 39.3942C301.898 39.3422 301.909 39.2899 301.936 39.2422C301.963 39.1946 302.004 39.1533 302.057 39.1222C302.137 39.0769 302.202 39.08 302.207 39.0946C302.224 39.1211 302.041 39.2155 302.059 39.383C302.079 39.5503 302.281 39.6162 302.27 39.6445Z" fill="#EB996E"/>
<path d="M322.078 29.5053C321.124 29.1749 319.95 29.5081 319.26 30.0799C318.57 30.6517 318.254 31.4091 317.958 32.1416C317.671 32.848 316.958 34.2812 316.671 34.9873L322.085 36.8359C322.545 35.8386 322.976 34.8338 323.376 33.8217C323.712 32.9721 324.025 32.055 323.635 31.2104" fill="#E1261C"/>
<path d="M323.634 31.2105C323.658 31.2433 323.676 31.2782 323.69 31.3144C323.737 31.4165 323.772 31.5218 323.795 31.629C323.878 32.0299 323.865 32.4397 323.757 32.8368C323.59 33.4413 323.371 34.036 323.102 34.6165C322.817 35.2915 322.499 36.0443 322.155 36.8552L322.131 36.9137L322.052 36.8871L318.241 35.5891L316.636 35.0406L316.572 35.0184L316.592 34.97C317.029 33.9425 317.52 32.9992 317.886 32.1309C318.046 31.7136 318.242 31.306 318.475 30.9113C318.684 30.5616 318.97 30.2449 319.32 29.9765C319.856 29.5726 320.567 29.3495 321.305 29.3537C321.504 29.3593 321.702 29.3877 321.891 29.438C321.956 29.4553 322.018 29.4776 322.078 29.5045C321.828 29.4374 321.567 29.4008 321.304 29.3957C320.591 29.4077 319.91 29.6343 319.397 30.0301C319.062 30.2956 318.789 30.6069 318.591 30.9491C318.366 31.3418 318.176 31.7467 318.023 32.1607C317.663 33.0362 317.177 33.9824 316.746 35.0038L316.703 34.933L318.308 35.4805L322.115 36.7842L322.012 36.816C322.362 36.0082 322.688 35.2584 322.979 34.5861C323.255 34.0103 323.484 33.4212 323.665 32.8222C323.78 32.4325 323.807 32.0296 323.746 31.6323C323.694 31.3571 323.621 31.2131 323.634 31.2105Z" fill="#263238"/>
<path d="M316.698 41.7568C316.678 41.7601 316.636 41.5105 316.453 41.0894C316.342 40.8347 316.193 40.5917 316.009 40.3659C315.774 40.0675 315.45 39.8202 315.066 39.6461L315.082 39.6496L309.217 39.0417L305.681 38.6612L304.138 38.4906L302.799 38.3202L302.215 38.2447C302.049 38.2229 301.879 38.2474 301.733 38.3141L300.972 38.6069L300.489 38.788C300.434 38.8115 300.376 38.8301 300.316 38.8434C300.365 38.8129 300.418 38.7869 300.475 38.7658L300.946 38.5642L301.695 38.2525C301.856 38.1763 302.044 38.1463 302.229 38.1675L302.815 38.2343L304.157 38.3896L305.7 38.5491L309.237 38.9199L315.098 39.5571H315.108L315.114 39.5597C315.515 39.7444 315.85 40.0076 316.087 40.3246C316.27 40.5578 316.414 40.809 316.516 41.0717C316.583 41.2366 316.635 41.4053 316.67 41.5763C316.687 41.6356 316.696 41.6961 316.698 41.7568V41.7568Z" fill="#EB996E"/>
<path d="M313.009 39.3461C312.969 39.2351 312.942 39.1215 312.928 39.0065C312.88 38.7653 312.817 38.4531 312.742 38.0778C312.575 37.2728 312.353 36.2009 312.107 35.0162C311.861 33.8315 311.637 32.7586 311.47 31.9536C311.397 31.5777 311.336 31.2652 311.289 31.0238C311.26 30.9106 311.244 30.7956 311.242 30.6802C311.291 30.7892 311.326 30.9017 311.348 31.016C311.407 31.2555 311.485 31.5659 311.577 31.9392C311.763 32.7202 312.008 33.8008 312.258 34.9968C312.508 36.1929 312.718 37.2778 312.85 38.0648C312.917 38.4587 312.962 38.7785 312.988 38.9999C313.008 39.1145 313.016 39.2304 313.009 39.3461V39.3461Z" fill="#263238"/>
<path d="M369.138 105.449C369.138 105.2 326.265 105 273.389 105C220.496 105 177.632 105.2 177.632 105.449C177.632 105.698 220.496 105.9 273.389 105.9C326.265 105.893 369.138 105.691 369.138 105.449Z" fill="#E1261C"/>
<path d="M34.6887 97.1281C33.8857 97.6397 32.3917 97.4481 31.7127 97.1208C31.0337 96.7934 30.7627 96.3287 30.5222 95.8853C29.9662 94.8724 29.4087 93.8099 29.9222 92.792C30.0496 92.4832 30.3548 92.1968 30.8042 91.9644C31.0317 91.8499 31.3189 91.7656 31.6371 91.7201C31.9553 91.6745 32.2933 91.6692 32.6172 91.7048C33.3672 91.8089 33.8212 92.1655 34.1427 92.5032C35.089 93.5004 35.5525 94.5845 35.4997 95.6769C35.5431 96.1882 35.2597 96.6938 34.6862 97.1281" fill="#E1261C"/>
<g opacity="0.2">
<path opacity="0.2" d="M34.6887 97.1281C33.8857 97.6397 32.3917 97.4481 31.7127 97.1208C31.0337 96.7934 30.7627 96.3287 30.5222 95.8853C29.9662 94.8724 29.4087 93.8099 29.9222 92.792C30.0496 92.4832 30.3548 92.1968 30.8042 91.9644C31.0317 91.8499 31.3189 91.7656 31.6371 91.7201C31.9553 91.6745 32.2933 91.6692 32.6172 91.7048C33.3672 91.8089 33.8212 92.1655 34.1427 92.5032C35.089 93.5004 35.5525 94.5845 35.4997 95.6769C35.5431 96.1882 35.2597 96.6938 34.6862 97.1281" fill="black"/>
</g>
<path d="M31.6409 99.7322C30.3606 99.4285 28.9077 99.3264 27.4954 99.441C26.7255 99.4633 25.9935 99.6065 25.4159 99.8479C24.8874 100.109 24.7634 100.579 25.3399 100.815C25.7132 100.942 26.1683 101.002 26.6264 100.987C27.7264 100.995 28.9514 100.919 29.8124 101.242C30.3029 101.427 30.6199 101.727 31.2124 101.822C31.5102 101.859 31.8252 101.849 32.1097 101.794C32.3942 101.738 32.6328 101.641 32.7894 101.516C33.0897 101.259 33.1699 100.958 33.0134 100.675C32.9539 100.478 32.7991 100.291 32.561 100.128C32.323 99.964 32.0081 99.8288 31.6409 99.7322Z" fill="#E1261C"/>
<path d="M36.7713 97.903C36.3881 97.6529 36.1398 97.3624 36.0481 97.0567C35.9563 96.751 36.0239 96.4394 36.2448 96.1488C36.7025 95.5686 37.4902 95.0592 38.5213 94.6764C39.6936 94.2097 41.0476 93.8554 42.5073 93.6333C43.0731 93.5336 43.678 93.4929 44.2803 93.5141C44.581 93.5262 44.8709 93.5727 45.1248 93.6497C45.3787 93.7266 45.589 93.8317 45.7373 93.9557C46.1288 94.3333 45.7073 94.7786 45.2583 95.1411C44.4664 95.7799 43.5694 96.3884 42.5758 96.9609C41.7758 97.4211 40.8653 97.8735 39.6758 98.0701C38.4863 98.2667 37.2653 98.2273 36.6628 97.8341" fill="#E1261C"/>
<path d="M34.295 104.995C34.2586 104.917 34.2397 104.838 34.2385 104.758C34.213 104.585 34.1805 104.368 34.142 104.109C34.0919 103.79 34.007 103.472 33.8875 103.157C33.7295 102.773 33.5066 102.395 33.221 102.028C32.941 101.661 32.5525 101.315 32.067 100.999C31.6719 100.743 31.1605 100.531 30.57 100.379C30.1695 100.279 29.7378 100.209 29.291 100.173C29.1218 100.168 28.9541 100.155 28.791 100.133C28.9604 100.125 29.131 100.126 29.3 100.136C29.7647 100.158 30.217 100.22 30.6355 100.318C31.2578 100.466 31.7987 100.681 32.216 100.944C32.7231 101.264 33.1265 101.618 33.413 101.994C33.7032 102.366 33.9242 102.75 34.0735 103.141C34.1857 103.46 34.2569 103.782 34.2865 104.105C34.314 104.38 34.318 104.602 34.317 104.756C34.3278 104.836 34.3204 104.916 34.295 104.995V104.995Z" fill="#263238"/>
<path d="M34.2285 104.497C34.2169 104.46 34.2144 104.423 34.221 104.386C34.2265 104.304 34.233 104.2 34.241 104.072C34.258 103.799 34.28 103.404 34.277 102.916C34.281 101.94 34.1795 100.591 33.92 99.1071C33.6605 97.6229 33.275 96.2852 32.911 95.3247C32.826 95.084 32.7385 94.8671 32.6555 94.6773C32.5725 94.4876 32.51 94.3233 32.4435 94.1902C32.3875 94.0654 32.3435 93.9635 32.3055 93.8834C32.2848 93.8479 32.2733 93.8113 32.271 93.7744C32.3047 93.8076 32.3299 93.8425 32.346 93.8785C32.3925 93.9583 32.4505 94.0588 32.522 94.1822C32.6005 94.3141 32.6795 94.4772 32.769 94.6667C32.8585 94.8562 32.9605 95.0724 33.055 95.3129C33.5553 96.5652 33.913 97.8293 34.1265 99.0998C34.387 100.587 34.465 101.939 34.4235 102.917C34.408 103.406 34.3635 103.802 34.3235 104.073C34.2995 104.201 34.2805 104.305 34.265 104.387C34.2618 104.424 34.2496 104.461 34.2285 104.497V104.497Z" fill="#263238"/>
<path d="M34.3621 101.892C34.3521 101.783 34.36 101.673 34.3856 101.564C34.4231 101.353 34.5021 101.049 34.6496 100.677C34.8265 100.241 35.0557 99.811 35.3361 99.3879C35.6717 98.8681 36.0847 98.3602 36.5721 97.868C37.4212 96.9621 38.6119 96.1366 40.0861 95.4315C40.342 95.3109 40.6137 95.1979 40.8996 95.0934C41.0241 95.0462 41.1346 94.999 41.2461 94.9621L41.5601 94.8661C41.749 94.8022 41.9483 94.7455 42.1561 94.6964C41.4669 94.9384 40.8101 95.2003 40.1896 95.4806C38.7621 96.1922 37.6023 97.0136 36.7601 97.9093C36.2767 98.3977 35.862 98.9006 35.5186 99.4148C35.2318 99.8336 34.9897 100.259 34.7931 100.689C34.6281 101.057 34.5281 101.358 34.4661 101.567C34.4495 101.676 34.4147 101.785 34.3621 101.892V101.892Z" fill="#263238"/>
</g>
<defs>
<clipPath id="clip0_1_9318">
<rect width="375" height="118" fill="white"/>
</clipPath>
</defs>
</svg>
