<svg width="67" height="37" viewBox="0 0 67 37" fill="none" xmlns="http://www.w3.org/2000/svg">
<g opacity="0.2">
<path d="M15.2295 14.0544H2.35669V22.7351H15.2295V14.0544Z" fill="#AC5C45"/>
<path opacity="0.3" d="M15.2295 14.0544H2.35669V22.7351H15.2295V14.0544Z" fill="black"/>
<path d="M12.0046 22.6737C11.9931 22.6737 11.9836 20.7388 11.9836 18.3526C11.9836 15.9664 11.9931 14.0315 12.0046 14.0315C12.0162 14.0315 12.0255 15.966 12.0255 18.3526C12.0255 20.7391 12.0156 22.6737 12.0046 22.6737Z" fill="#9A6847"/>
<path d="M14.1375 20.7592H13.1506V21.7345H14.1375V20.7592Z" fill="#9A6847"/>
<path d="M7.74588 14.0768H6.28369V15.929H7.74588V14.0768Z" fill="#9A6847"/>
<path d="M7.74588 20.8569H6.28369V22.7092H7.74588V20.8569Z" fill="#9A6847"/>
<path d="M15.1173 14.0549C15.1064 14.0564 15.0954 14.057 15.0843 14.0568L14.9877 14.0587L14.6159 14.062L13.2485 14.0677L8.73737 14.073L4.22539 14.0677L2.85809 14.062L2.4863 14.0587L2.38968 14.0568C2.37864 14.057 2.3676 14.0564 2.35669 14.0549C2.36762 14.0535 2.37865 14.0529 2.38968 14.053L2.4863 14.0513L2.85809 14.0479L4.22539 14.042L8.73737 14.0366L13.2485 14.042L14.6159 14.0479L14.9877 14.0513L15.0843 14.053C15.0954 14.0529 15.1064 14.0535 15.1173 14.0549V14.0549Z" fill="#9A6847"/>
<path d="M25.9453 14.0439H13.0725V22.7246H25.9453V14.0439Z" fill="#CA804E"/>
<path d="M22.7205 22.6634C22.7089 22.6634 22.6995 20.7284 22.6995 18.3423C22.6995 15.9562 22.7089 14.0206 22.7205 14.0206C22.732 14.0206 22.7413 15.9552 22.7413 18.3423C22.7413 20.7293 22.7319 22.6634 22.7205 22.6634Z" fill="#9A6847"/>
<path d="M24.854 20.7488H23.8672V21.7242H24.854V20.7488Z" fill="#9A6847"/>
<path opacity="0.5" d="M18.4615 14.0662H16.9993V15.9184H18.4615V14.0662Z" fill="#936445"/>
<path opacity="0.5" d="M18.4615 20.8464H16.9993V22.6987H18.4615V20.8464Z" fill="#936445"/>
<path d="M25.8331 14.0438C25.8222 14.0453 25.8112 14.0459 25.8001 14.0457L25.7035 14.0474L25.3317 14.0509L23.9643 14.0566L19.4532 14.0619L14.9412 14.0566L13.5739 14.0509L13.2021 14.0474L13.1055 14.0457C13.0945 14.0459 13.0834 14.0453 13.0725 14.0438C13.0834 14.0424 13.0945 14.0418 13.1055 14.0419L13.2021 14.0402L13.5739 14.0367L14.9412 14.0309L19.4532 14.0255L23.9643 14.0309L25.3317 14.0367L25.7035 14.0402L25.8001 14.0419C25.8112 14.0418 25.8222 14.0424 25.8331 14.0438V14.0438Z" fill="#9A6847"/>
<path d="M26.668 5.36304H13.7952V14.0437H26.668V5.36304Z" fill="#CA804E"/>
<path d="M23.4427 13.9823C23.4312 13.9823 23.4219 12.0474 23.4219 9.66118C23.4219 7.27496 23.4312 5.34009 23.4427 5.34009C23.4543 5.34009 23.4637 7.27464 23.4637 9.66118C23.4637 12.0477 23.4543 13.9823 23.4427 13.9823Z" fill="#9A6847"/>
<path d="M25.577 12.0677H24.5901V13.0431H25.577V12.0677Z" fill="#9A6847"/>
<path d="M19.1849 5.38538H17.7227V7.23761H19.1849V5.38538Z" fill="#9A6847"/>
<path d="M19.1849 12.1655H17.7227V14.0178H19.1849V12.1655Z" fill="#9A6847"/>
<path d="M26.5558 5.36334C26.5449 5.36474 26.5338 5.36536 26.5228 5.36517L26.4262 5.36701L26.0544 5.37036L24.687 5.37608L20.1758 5.38138L15.6639 5.37608L14.2966 5.37036L13.9248 5.36701L13.8282 5.36517C13.8171 5.36536 13.8061 5.36474 13.7952 5.36334C13.8061 5.36185 13.8171 5.3612 13.8282 5.36139L13.9248 5.35966L14.2966 5.35621L15.6639 5.35037L20.1758 5.34497L24.687 5.35037L26.0544 5.35621L26.4262 5.35966L26.5228 5.36139C26.5338 5.3612 26.5449 5.36185 26.5558 5.36334V5.36334Z" fill="#9A6847"/>
<path d="M25.2916 32.4006V31.3837H1.50762C1.42323 31.3837 1.34231 31.413 1.28264 31.4651C1.22297 31.5173 1.18945 31.5881 1.18945 31.6618V32.1225C1.18945 32.1962 1.22297 32.267 1.28264 32.3192C1.34231 32.3713 1.42323 32.4006 1.50762 32.4006H2.16977V32.8635C2.16977 32.9361 2.13678 33.0058 2.07806 33.0571C2.01934 33.1084 1.93971 33.1373 1.85667 33.1373H1.50255C1.46144 33.1373 1.42073 33.1443 1.38274 33.1581C1.34476 33.1718 1.31024 33.192 1.28116 33.2174C1.25209 33.2428 1.22903 33.273 1.21329 33.3062C1.19755 33.3394 1.18945 33.375 1.18945 33.4109V33.8805C1.18945 33.9165 1.19755 33.952 1.21329 33.9852C1.22903 34.0185 1.25209 34.0486 1.28116 34.074C1.31024 34.0994 1.34476 34.1196 1.38274 34.1333C1.42073 34.1471 1.46144 34.1542 1.50255 34.1541H25.2916V33.1373H19.7474V32.4006H25.2916ZM7.87063 32.4006H9.29588V33.1373H7.87063V32.4006ZM6.92047 33.1373H5.49522V32.4006H6.92047V33.1373ZM10.2459 32.4006H11.6712V33.1373H10.2459V32.4006ZM12.6213 32.4006H14.0466V33.1373H12.6213V32.4006ZM14.9967 32.4006H16.4219V33.1373H14.9967V32.4006ZM3.11993 32.4006H4.54506V33.1373H3.11993V32.4006ZM18.7973 33.1373H17.372V32.4006H18.7973V33.1373Z" fill="#455A64"/>
<path d="M44.4637 14.8874C44.5026 14.8525 44.5331 14.8112 44.5535 14.7659C44.5739 14.7206 44.5839 14.6722 44.5827 14.6236C44.5816 14.5749 44.5694 14.5269 44.5468 14.4824C44.5243 14.4379 44.4918 14.3977 44.4514 14.3643L40.4393 11.0493C40.3588 10.9838 40.2529 10.9476 40.143 10.948C40.0331 10.9484 39.9275 10.9853 39.8477 11.0513V11.0513C39.7646 11.1203 39.7162 11.2154 39.7132 11.3156C39.7102 11.4157 39.7528 11.5129 39.8316 11.5856L41.432 13.0577L40.5989 13.758L40.1642 13.4602L37.1383 16.4903L35.5209 15.13L33.571 20.1439L33.9579 26.9526H38.4431L38.13 18.8652L41.1347 15.1153L41.1575 14.2235L42.0182 13.4498L43.8822 14.9053C43.963 14.9683 44.0685 15.0016 44.1767 14.9983C44.2849 14.9949 44.3875 14.9552 44.463 14.8874H44.4637Z" fill="#263238"/>
<path d="M42.4048 26.4617L45.1328 19.8384L44.1079 19.4755V18.191L51.5671 18.0898C51.7428 18.0867 51.9111 18.0279 52.0409 17.9244C52.1707 17.8209 52.253 17.6797 52.2727 17.527L53.3679 9.01286C53.3924 8.82234 53.4963 8.6464 53.6598 8.51862C53.8233 8.39085 54.0349 8.32021 54.2542 8.32019V8.32019C54.3744 8.3202 54.4933 8.34146 54.6039 8.38268C54.7145 8.4239 54.8144 8.48423 54.8976 8.56006C54.9809 8.63588 55.0457 8.72563 55.0883 8.82392C55.1309 8.92221 55.1503 9.027 55.1454 9.13202L54.7328 17.9056L58.6279 17.9239L58.7606 19.5242L47.242 19.9181L44.2384 26.3664L42.4048 26.4617Z" fill="#455A64"/>
<path d="M44.1206 26.2988L34.4243 26.3664V26.9312L38.44 26.8861L44.8387 26.8436L60.3494 24.9284L58.5912 19.0769H48.0926C47.911 19.0745 47.7315 19.1109 47.5696 19.1829C47.4077 19.2548 47.2683 19.3601 47.1634 19.4898L44.1206 26.2988Z" fill="#263238"/>
<path d="M39.4734 1.83225L32.425 21.4866L32.4745 26.9528H34.7169V21.5203L40.4921 1.88465L56.1394 1.80827L59.1321 22.2607H60.8977L57.2568 1.95162C57.1997 1.68576 57.0381 1.44571 56.7999 1.27299C56.5618 1.10028 56.2621 1.00574 55.9527 1.00574H40.7445C40.4591 1.00572 40.1814 1.08611 39.9524 1.235C39.7235 1.38388 39.5555 1.59332 39.4734 1.83225V1.83225Z" fill="#455A64"/>
<path d="M31.1597 33.2672V28.0171L32.4742 26.9529L44.8265 26.814L47.0552 25.2324C47.4697 24.9383 47.9796 24.7658 48.5126 24.7395L50.8915 24.6221C50.8915 24.6221 51.9593 23.9788 52.9889 23.3415C54.2971 22.5312 55.8608 22.0959 57.464 22.0956H64.3124C64.4355 22.0956 64.5574 22.1168 64.6712 22.1579C64.785 22.1991 64.8883 22.2595 64.9754 22.3356C65.0625 22.4117 65.1316 22.5021 65.1787 22.6016C65.2258 22.701 65.2501 22.8076 65.2501 22.9153V33.2675L31.1597 33.2672Z" fill="#E1261C"/>
<path d="M65.2502 31.5753H31.0386V33.3014H65.2502V31.5753Z" fill="#263238"/>
<path d="M32.8088 33.248C32.7967 33.9795 33.033 34.6976 33.4877 35.3116C33.9424 35.9256 34.5952 36.408 35.3635 36.6976C36.1318 36.9873 36.9811 37.0713 37.8039 36.9389C38.6268 36.8066 39.3863 36.4639 39.9864 35.9542C40.5865 35.4444 41.0002 34.7906 41.1753 34.0752C41.3503 33.3599 41.2788 32.6153 40.9698 31.9355C40.6608 31.2557 40.1282 30.6713 39.4393 30.2562C38.7504 29.841 37.9362 29.6138 37.0996 29.6033C35.9778 29.5891 34.8955 29.9652 34.0908 30.6487C33.2862 31.3322 32.825 32.2672 32.8088 33.248V33.248Z" fill="#263238"/>
<path d="M32.81 33.2385C32.81 33.2417 32.81 33.2448 32.8093 33.248C32.7988 34.2257 33.2315 35.1672 34.0127 35.8667C34.7939 36.5662 35.8602 36.9668 36.9783 36.9809C38.0964 36.995 39.1755 36.6215 39.9795 35.9419C40.7835 35.2624 41.247 34.3323 41.2688 33.3548C41.2688 33.3515 41.2688 33.3484 41.2688 33.3451L32.81 33.2385Z" fill="#263238"/>
<path d="M34.0696 33.2638C34.0612 33.7773 34.2271 34.2815 34.5463 34.7125C34.8656 35.1436 35.3239 35.4822 35.8632 35.6856C36.4026 35.8889 36.9988 35.9479 37.5765 35.8549C38.1542 35.762 38.6874 35.5214 39.1087 35.1636C39.53 34.8057 39.8204 34.3467 39.9433 33.8445C40.0662 33.3423 40.016 32.8195 39.7991 32.3423C39.5821 31.865 39.2082 31.4548 38.7246 31.1633C38.2409 30.8719 37.6693 30.7124 37.082 30.705C36.2944 30.6951 35.5346 30.9591 34.9697 31.4389C34.4048 31.9188 34.081 32.5753 34.0696 33.2638Z" fill="#FAFAFA"/>
<path d="M37.0817 30.705C36.2941 30.6951 35.5343 30.9591 34.9694 31.4389C34.4044 31.9188 34.0807 32.5753 34.0693 33.2638L40.0084 33.3387C40.0197 32.6501 39.7178 31.9858 39.1689 31.4919C38.62 30.998 37.8693 30.7149 37.0817 30.705V30.705Z" fill="#E0E0E0"/>
<path d="M35.2302 33.2785C35.225 33.5913 35.326 33.8984 35.5205 34.161C35.715 34.4236 35.9942 34.6299 36.3228 34.7538C36.6513 34.8777 37.0145 34.9136 37.3664 34.857C37.7184 34.8004 38.0432 34.6538 38.2998 34.4358C38.5564 34.2178 38.7334 33.9382 38.8082 33.6322C38.8831 33.3263 38.8525 33.0079 38.7203 32.7171C38.5882 32.4264 38.3604 32.1765 38.0658 31.999C37.7711 31.8214 37.4229 31.7243 37.0651 31.7198C36.5854 31.7137 36.1226 31.8746 35.7784 32.1669C35.4343 32.4592 35.2371 32.8591 35.2302 33.2785V33.2785Z" fill="#263238"/>
<path d="M53.51 33.248C53.4979 33.9795 53.7341 34.6976 54.1889 35.3116C54.6436 35.9256 55.2964 36.408 56.0647 36.6976C56.833 36.9873 57.6822 37.0713 58.5051 36.9389C59.328 36.8066 60.0875 36.4639 60.6876 35.9542C61.2877 35.4444 61.7014 34.7906 61.8764 34.0752C62.0515 33.3599 61.98 32.6153 61.671 31.9355C61.362 31.2557 60.8294 30.6713 60.1405 30.2562C59.4516 29.841 58.6374 29.6138 57.8008 29.6033C56.679 29.5891 55.5967 29.9652 54.792 30.6487C53.9873 31.3322 53.5262 32.2672 53.51 33.248V33.248Z" fill="#263238"/>
<path d="M53.5112 33.2385C53.5112 33.2417 53.5106 33.2448 53.5104 33.248C53.4999 34.2257 53.9326 35.1672 54.7139 35.8667C55.4951 36.5662 56.5614 36.9668 57.6795 36.9809C58.7976 36.995 59.8766 36.6215 60.6806 35.9419C61.4846 35.2624 61.9482 34.3323 61.97 33.3548C61.97 33.3515 61.97 33.3484 61.97 33.3451L53.5112 33.2385Z" fill="#263238"/>
<path d="M54.7708 33.2638C54.7623 33.7773 54.9282 34.2815 55.2475 34.7126C55.5668 35.1436 56.0251 35.4822 56.5644 35.6856C57.1038 35.8889 57.7001 35.9479 58.2777 35.8549C58.8554 35.762 59.3886 35.5214 59.8099 35.1635C60.2312 34.8057 60.5216 34.3466 60.6445 33.8444C60.7674 33.3422 60.7172 32.8195 60.5002 32.3422C60.2833 31.865 59.9093 31.4547 59.4257 31.1633C58.942 30.8719 58.3704 30.7124 57.783 30.705C56.9955 30.6951 56.2357 30.9591 55.6708 31.439C55.1059 31.9189 54.7822 32.5753 54.7708 33.2638V33.2638Z" fill="#FAFAFA"/>
<path d="M57.7832 30.705C56.9957 30.6951 56.2359 30.9591 55.671 31.439C55.1061 31.9189 54.7824 32.5753 54.771 33.2638L60.7101 33.3387C60.7214 32.6501 60.4194 31.9858 59.8705 31.4919C59.3216 30.998 58.5708 30.7149 57.7832 30.705V30.705Z" fill="#E0E0E0"/>
<path d="M55.9313 33.2785C55.9262 33.5913 56.0272 33.8984 56.2217 34.161C56.4162 34.4236 56.6954 34.6299 57.0239 34.7538C57.3525 34.8777 57.7157 34.9136 58.0676 34.857C58.4195 34.8004 58.7444 34.6538 59.001 34.4358C59.2576 34.2178 59.4346 33.9382 59.5094 33.6322C59.5843 33.3263 59.5537 33.0079 59.4215 32.7171C59.2894 32.4264 59.0616 32.1765 58.7669 31.999C58.4723 31.8214 58.1241 31.7243 57.7663 31.7198C57.5288 31.7168 57.2929 31.7547 57.0721 31.8314C56.8513 31.9081 56.65 32.0221 56.4796 32.1668C56.3092 32.3116 56.1731 32.4843 56.079 32.675C55.9849 32.8657 55.9348 33.0708 55.9313 33.2785V33.2785Z" fill="#263238"/>
<path d="M63.2453 30.669C63.2373 30.6612 63.2304 30.6526 63.2248 30.6434L63.1703 30.5656L63.0838 30.4385C63.0464 30.3798 63.0051 30.323 62.9602 30.2684C62.6891 29.9112 62.3688 29.5845 62.0065 29.2956C61.8971 29.1992 61.7653 29.1153 61.6358 29.0198C61.5039 28.9274 61.3574 28.8415 61.2088 28.7498C61.0519 28.6689 60.8976 28.5734 60.7227 28.4989C60.6362 28.46 60.5507 28.4178 60.4609 28.3801L60.1838 28.2721C59.3652 27.9641 58.4772 27.8234 57.5871 27.8605C56.697 27.8976 55.8283 28.1117 55.0471 28.4864L54.7829 28.616C54.6976 28.6613 54.6167 28.7105 54.5352 28.7565C54.3693 28.8452 54.2263 28.9531 54.0787 29.0466C53.9407 29.1505 53.8042 29.2481 53.6833 29.3511C53.5653 29.4569 53.4432 29.5513 53.3449 29.6564C53.0157 29.9742 52.7324 30.3261 52.5015 30.7043C52.4626 30.7623 52.4276 30.8223 52.3966 30.8839L52.3243 31.0177C52.3055 31.0513 52.2905 31.0782 52.2786 31.0996C52.2823 31.1018 52.285 31.1051 52.286 31.1088C52.2871 31.1126 52.2865 31.1166 52.2844 31.1201C52.2823 31.1235 52.2787 31.1261 52.2745 31.1274C52.2703 31.1287 52.2657 31.1285 52.2616 31.127C52.2575 31.1255 52.2542 31.1226 52.2523 31.1191C52.2505 31.1155 52.2502 31.1115 52.2516 31.1078C52.253 31.1041 52.2559 31.1009 52.2598 31.099C52.2636 31.0971 52.2682 31.0965 52.2726 31.0973L52.3125 31.0132L52.3793 30.8767C52.4083 30.8141 52.4417 30.7532 52.4793 30.6942C52.7031 30.3097 52.9826 29.9521 53.3109 29.6301C53.4089 29.5234 53.5309 29.4273 53.649 29.3198C53.7703 29.2153 53.9071 29.1159 54.0455 29.0106C54.1938 28.9153 54.3372 28.8053 54.504 28.7155C54.5859 28.6689 54.6674 28.619 54.7532 28.5729L55.0191 28.4405C55.8072 28.0593 56.6849 27.8416 57.5845 27.8042C58.484 27.7667 59.3814 27.9105 60.2074 28.2244L60.4865 28.3342C60.5769 28.3728 60.6634 28.4156 60.7502 28.4553C60.9259 28.5309 61.0812 28.6281 61.2386 28.7108C61.3878 28.8041 61.5351 28.8916 61.667 28.9856C61.7962 29.0828 61.9282 29.1683 62.0376 29.2665C62.3996 29.5597 62.7168 29.8925 62.9815 30.2565C63.0253 30.3122 63.0652 30.3701 63.101 30.43L63.1824 30.5602L63.2318 30.6408C63.2375 30.6497 63.242 30.6592 63.2453 30.669V30.669Z" fill="#263238"/>
<path d="M42.5622 31.3494C42.5555 31.3402 42.55 31.3303 42.5459 31.32C42.535 31.2972 42.5212 31.2681 42.504 31.2317C42.4855 31.1917 42.4633 31.1437 42.4374 31.0878L42.3386 30.8947C42.1226 30.4866 41.8541 30.1013 41.5385 29.7463C41.0777 29.2144 40.4899 28.7768 39.8159 28.4638C39.4122 28.2917 38.9843 28.1671 38.5432 28.0933C38.0705 28.0085 37.5883 27.9701 37.1058 27.9788C36.6233 27.985 36.1431 28.039 35.6745 28.1399C35.2388 28.2355 34.8186 28.3789 34.4241 28.5669C33.7505 28.8802 33.148 29.2986 32.6464 29.8014C32.3109 30.1422 32.0188 30.5139 31.7753 30.9099C31.6888 31.0503 31.6242 31.1603 31.5828 31.236C31.5624 31.2712 31.5457 31.2993 31.5334 31.3213C31.5372 31.3236 31.5399 31.3271 31.541 31.3311C31.542 31.3351 31.5413 31.3393 31.539 31.3429C31.5367 31.3465 31.5329 31.3491 31.5285 31.3504C31.524 31.3517 31.5191 31.3514 31.5149 31.3497C31.5106 31.348 31.5072 31.3449 31.5054 31.3411C31.5036 31.3374 31.5034 31.3331 31.505 31.3292C31.5066 31.3254 31.5098 31.3222 31.5139 31.3202C31.5181 31.3183 31.5229 31.3178 31.5274 31.3189C31.5387 31.2963 31.5531 31.2675 31.571 31.2313C31.6081 31.1538 31.6699 31.0421 31.7532 30.8996C31.9896 30.4975 32.2779 30.1203 32.6124 29.7754C33.1134 29.2647 33.7182 28.8395 34.3962 28.5214C34.7945 28.33 35.219 28.1838 35.6596 28.0864C36.1328 27.9838 36.6178 27.9288 37.1052 27.9226C37.5924 27.9138 38.0791 27.9529 38.5562 28.0393C39.0025 28.1147 39.4352 28.2419 39.843 28.4174C40.5227 28.7356 41.1138 29.181 41.5741 29.7218C41.8885 30.0809 42.1527 30.4716 42.361 30.8856C42.3961 30.9587 42.4275 31.0239 42.4552 31.0813C42.4789 31.1381 42.4992 31.1869 42.5161 31.2276L42.5521 31.3179C42.5568 31.3281 42.5602 31.3386 42.5622 31.3494V31.3494Z" fill="#263238"/>
<path d="M31.1511 31.3837H12.3967V33.3013H31.1511V31.3837Z" fill="#263238"/>
<path d="M30.6428 32.1972C30.6428 32.2916 30.6108 32.384 30.5507 32.4625C30.4907 32.5411 30.4054 32.6023 30.3056 32.6384C30.2058 32.6746 30.0959 32.684 29.99 32.6656C29.884 32.6472 29.7867 32.6017 29.7103 32.5349C29.6339 32.4681 29.5819 32.383 29.5608 32.2904C29.5397 32.1977 29.5505 32.1017 29.5919 32.0144C29.6332 31.9272 29.7032 31.8526 29.7931 31.8001C29.8829 31.7476 29.9885 31.7196 30.0965 31.7196C30.1683 31.7196 30.2393 31.7319 30.3056 31.7559C30.3719 31.7799 30.4321 31.8151 30.4828 31.8595C30.5336 31.9038 30.5738 31.9565 30.6012 32.0144C30.6287 32.0724 30.6428 32.1345 30.6428 32.1972Z" fill="#455A64"/>
<path d="M30.9051 0.85498H29.3396V28.0437H30.9051V0.85498Z" fill="#455A64"/>
<path d="M53.1671 29.5929C53.1671 29.6085 50.5283 29.6211 47.2734 29.6211C44.0185 29.6211 41.3796 29.6085 41.3796 29.5929C41.3796 29.5774 44.0179 29.5648 47.2734 29.5648C50.5289 29.5648 53.1671 29.5778 53.1671 29.5929Z" fill="#263238"/>
<path d="M50.7652 29.1856C50.7473 29.1856 50.7329 28.1822 50.7329 26.9446C50.7329 25.7071 50.7473 24.7034 50.7652 24.7034C50.7831 24.7034 50.7975 25.7066 50.7975 26.9446C50.7975 28.1826 50.7831 29.1856 50.7652 29.1856Z" fill="#263238"/>
<path d="M32.366 0.231812H29.1711V1.47845H32.366V0.231812Z" fill="#263238"/>
<path d="M31.1511 27.8196H29.094V31.4085H31.1511V27.8196Z" fill="#263238"/>
<path d="M26.374 22.7281H13.5012V31.4088H26.374V22.7281Z" fill="#AC5C45"/>
<path opacity="0.3" d="M26.374 22.7281H13.5012V31.4088H26.374V22.7281Z" fill="black"/>
<path d="M23.1495 31.3474C23.138 31.3474 23.1287 29.4125 23.1287 27.0263C23.1287 24.6401 23.138 22.7052 23.1495 22.7052C23.1611 22.7052 23.1705 24.6396 23.1705 27.0263C23.1705 29.4129 23.1608 31.3474 23.1495 31.3474Z" fill="#9A6847"/>
<path d="M25.2832 29.4329H24.2964V30.4082H25.2832V29.4329Z" fill="#9A6847"/>
<path d="M18.8907 22.7504H17.4285V24.6026H18.8907V22.7504Z" fill="#9A6847"/>
<path d="M18.8907 29.5308H17.4285V31.383H18.8907V29.5308Z" fill="#9A6847"/>
<path d="M26.2614 22.7282C26.2504 22.7297 26.2394 22.7303 26.2284 22.7301L26.1317 22.7319L25.76 22.7353L24.3925 22.7411L19.8813 22.7463L15.3694 22.7411L14.0021 22.7352L13.6303 22.7319L13.5337 22.7301C13.5227 22.7303 13.5116 22.7297 13.5007 22.7282C13.5117 22.7268 13.5227 22.7262 13.5337 22.7264L13.6303 22.7245L14.0021 22.7212L15.3694 22.7154L19.8813 22.71L24.3925 22.7154L25.76 22.7212L26.1317 22.7245L26.2284 22.7264C26.2394 22.7262 26.2504 22.7268 26.2614 22.7282V22.7282Z" fill="#9A6847"/>
<path d="M12.8726 22.728H-0.000244141V31.4087H12.8726V22.728Z" fill="#CA804E"/>
<path d="M9.64758 31.3473C9.63602 31.3473 9.62671 29.4124 9.62671 27.0262C9.62671 24.64 9.63602 22.7051 9.64758 22.7051C9.65913 22.7051 9.66844 24.6395 9.66844 27.0262C9.66844 29.4128 9.65913 31.3473 9.64758 31.3473Z" fill="#9A6847"/>
<path d="M11.7806 29.4327H10.7937V30.4081H11.7806V29.4327Z" fill="#9A6847"/>
<path opacity="0.5" d="M5.38919 22.7504H3.927V24.6026H5.38919V22.7504Z" fill="#936445"/>
<path opacity="0.5" d="M5.38919 29.5306H3.927V31.3829H5.38919V29.5306Z" fill="#936445"/>
<path d="M12.7603 22.7282C12.7494 22.7297 12.7384 22.7303 12.7274 22.7301L12.6306 22.7319L12.2589 22.7353L10.8916 22.7411L6.38032 22.7463L1.86833 22.7411L0.501032 22.7352L0.129368 22.7319L0.0326223 22.7301C0.0216258 22.7303 0.0106252 22.7297 -0.000244141 22.7282C0.0106335 22.7268 0.0216273 22.7262 0.0326223 22.7264L0.129368 22.7245L0.501032 22.7212L1.86833 22.7154L6.38032 22.71L10.8916 22.7154L12.2589 22.7212L12.6306 22.7245L12.7274 22.7264C12.7384 22.7262 12.7494 22.7268 12.7603 22.7282V22.7282Z" fill="#9A6847"/>
<path d="M65.7908 25.0878C66.4545 25.2273 67.011 25.8166 67 26.4136C66.9862 26.7128 66.8605 26.9998 66.642 27.2305C66.4235 27.4611 66.1245 27.6226 65.7908 27.6903" fill="#E1261C"/>
<g opacity="0.6">
<path opacity="0.6" d="M65.7908 25.0878C66.4545 25.2273 67.011 25.8166 67 26.4136C66.9862 26.7128 66.8605 26.9998 66.642 27.2305C66.4235 27.4611 66.1245 27.6226 65.7908 27.6903" fill="white"/>
</g>
<path d="M65.8177 24.7524H65.2502V28.0379H65.8177V24.7524Z" fill="#E1261C"/>
<path opacity="0.3" d="M65.8177 24.7524H65.2502V28.0379H65.8177V24.7524Z" fill="black"/>
<path d="M38.8341 11.5886C38.7657 11.5425 38.7186 11.4763 38.7016 11.4023C38.6846 11.3283 38.6987 11.2513 38.7414 11.1857C38.8359 11.0402 38.9478 10.8697 38.9984 10.7988C39.0606 10.7146 39.117 10.6272 39.1673 10.5371C39.183 10.4834 39.2156 10.4347 39.2615 10.3965C39.3074 10.3582 39.3647 10.3321 39.4268 10.321C39.578 10.3039 39.7313 10.3078 39.881 10.3327L41.4266 10.6244L42.1461 10.9363L41.4455 11.4764L41.0567 11.3727C40.9399 11.4619 40.4812 11.5084 40.3259 11.4915C40.1269 11.4699 39.7284 11.357 39.502 11.3943L39.2843 11.4205L39.388 11.4969C39.5778 11.4845 39.7677 11.5184 39.9367 11.5949C39.9641 11.6107 39.9852 11.6335 39.9969 11.6603C40.0087 11.6871 40.0105 11.7165 40.0021 11.7442C39.9937 11.7719 39.9756 11.7967 39.9503 11.8149C39.925 11.8331 39.8937 11.844 39.861 11.8458L39.3529 11.8748C39.2154 11.8182 39.0832 11.7522 38.9575 11.6775C38.9181 11.6461 38.8769 11.6164 38.8341 11.5886V11.5886Z" fill="#FFBE9D"/>
<path d="M39.2841 11.4206C39.2592 11.4362 39.2305 11.4465 39.2002 11.4507C39.1184 11.4711 39.0316 11.4702 38.9504 11.448C38.8919 11.4316 38.8404 11.4004 38.8021 11.3583C38.7805 11.3328 38.7651 11.3036 38.7571 11.2726C38.7491 11.2416 38.7486 11.2095 38.7557 11.1784C38.765 11.1429 38.7876 11.1111 38.8199 11.0882C38.852 11.0675 38.888 11.0519 38.9263 11.042C39 11.0205 39.0752 11.0033 39.1514 10.9906C39.2972 10.9663 39.4446 10.9498 39.5927 10.9412C39.661 10.9372 39.7256 10.9344 39.7873 10.9349C39.8022 10.9349 39.8189 10.9356 39.8341 10.9367C39.8465 10.9372 39.8589 10.9368 39.8712 10.9354C39.8968 10.9323 39.9223 10.928 39.9475 10.9227C40.1441 10.8794 40.2642 10.8398 40.2677 10.8483C40.1717 10.8991 40.0676 10.9371 39.9588 10.9611C39.9322 10.9682 39.9052 10.9739 39.878 10.9784C39.8619 10.9808 39.8457 10.9819 39.8294 10.9815C39.8156 10.9815 39.8026 10.9815 39.7874 10.9815C39.7285 10.983 39.6638 10.9876 39.5972 10.993C39.4632 11.0038 39.3156 11.0199 39.1637 11.0458C39.0903 11.058 39.0178 11.0741 38.9467 11.0941C38.8745 11.1124 38.8273 11.1402 38.8131 11.1907C38.8074 11.2147 38.8073 11.2396 38.8127 11.2637C38.8182 11.2878 38.8291 11.3108 38.8449 11.3311C38.8755 11.3672 38.9173 11.3949 38.9654 11.411C39.0387 11.4341 39.1176 11.4405 39.1946 11.4295C39.2514 11.4231 39.2825 11.4159 39.2841 11.4206Z" fill="#EB996E"/>
<path d="M39.4765 10.7166C39.4932 10.7127 39.5232 10.7841 39.4931 10.8695C39.4629 10.955 39.3929 10.9992 39.3819 10.9884C39.3685 10.9776 39.4077 10.9244 39.4313 10.8532C39.4549 10.782 39.458 10.7191 39.4765 10.7166Z" fill="#EB996E"/>
<path d="M39.7181 10.8019C39.7354 10.8034 39.7403 10.8559 39.6976 10.9044C39.655 10.9529 39.5958 10.9623 39.5896 10.9476C39.5835 10.9329 39.6155 10.9061 39.6466 10.8697C39.6777 10.8333 39.7001 10.7994 39.7181 10.8019Z" fill="#EB996E"/>
<path d="M45.8031 10.5004C46.0163 10.4233 44.582 11.7115 44.582 11.7115L41.9329 10.8484L40.9978 11.3506L43.8467 13.1039C44.1395 13.284 44.4963 13.3666 44.8527 13.3369C45.2091 13.3072 45.5416 13.1671 45.7901 12.9418L47.4714 11.2427L45.8031 10.5004Z" fill="#FFBE9D"/>
<path d="M47.3572 5.33654C46.9878 5.27464 46.7563 5.1745 46.7467 5.05038C46.7266 4.7937 47.6598 4.52925 48.8306 4.4599C50.0014 4.39055 50.9668 4.54243 50.9868 4.79921C50.9963 4.92301 50.7845 5.04854 50.4308 5.15311" fill="#E1261C"/>
<g opacity="0.4">
<path opacity="0.4" d="M47.5593 5.31491C47.2318 5.25992 47.0184 5.17177 47.0181 5.06126C47.017 4.7537 47.8274 4.59944 48.8651 4.53786C49.9029 4.47629 50.7586 4.611 50.7762 4.83861C50.7847 4.94837 50.5969 5.05953 50.284 5.15189" fill="black"/>
</g>
<path d="M47.0293 4.91233C47.0293 4.91233 47.2481 3.80472 47.27 3.75017C47.2919 3.69561 47.61 3.19739 48.4485 3.01072L49.1502 2.96924C49.1502 2.96924 50.1681 3.19037 50.3665 3.39173C50.5649 3.5931 50.7226 4.61838 50.7226 4.61838L48.7259 4.36106L47.4096 4.72565L47.0293 4.91233Z" fill="#E1261C"/>
<path d="M48.6676 2.87229L48.3664 2.89011C48.2959 2.97146 48.2611 3.07217 48.2682 3.17401C48.2689 3.36554 48.321 4.67688 48.321 4.67688L49.1983 4.58981L49.0449 2.97535L49.3482 3.01564L49.3316 2.92468L49.2461 2.84766L48.6676 2.87229Z" fill="#E1261C"/>
<path d="M50.5019 8.90906L48.352 8.95011C48.3245 8.75199 48.3452 7.51497 48.3452 7.51497C48.3452 7.51497 47.5265 7.45285 47.4616 6.74516C47.3967 6.03748 47.4101 4.61638 47.4101 4.61638L47.419 4.55372C48.3293 4.14581 49.4131 4.04999 50.264 4.54637L50.3903 4.62005L50.5019 8.90906Z" fill="#FFBE9D"/>
<path d="M48.3449 7.51506C48.7189 7.49208 49.0776 7.37587 49.3785 7.18018C49.3785 7.18018 49.1554 7.71524 48.3423 7.69925L48.3449 7.51506Z" fill="#EB996E"/>
<path d="M50.3474 5.35964C50.3609 5.35348 50.8928 5.18269 50.9127 5.66795C50.9326 6.15321 50.3713 6.07046 50.369 6.05685C50.3668 6.04324 50.3474 5.35964 50.3474 5.35964Z" fill="#FFBE9D"/>
<path d="M50.5314 5.86756C50.5338 5.86594 50.5413 5.87318 50.5579 5.87912C50.5812 5.88707 50.6071 5.88676 50.6302 5.87826C50.6652 5.85725 50.6932 5.82847 50.7113 5.79487C50.7294 5.76126 50.737 5.72405 50.7332 5.68705C50.733 5.64542 50.722 5.60436 50.7012 5.56692C50.6954 5.5519 50.6856 5.53834 50.6724 5.52742C50.6593 5.5165 50.6433 5.50855 50.6258 5.50427C50.6146 5.50208 50.6029 5.50338 50.5927 5.50793C50.5824 5.51248 50.5743 5.52001 50.5697 5.52922C50.5628 5.54305 50.5668 5.55266 50.5639 5.55353C50.5611 5.55439 50.5516 5.54575 50.5553 5.52566C50.5579 5.51353 50.5652 5.50255 50.5759 5.49454C50.5908 5.48399 50.6097 5.47894 50.6288 5.4805C50.6518 5.48372 50.6734 5.49203 50.6916 5.50465C50.7099 5.51726 50.7241 5.53376 50.733 5.55256C50.7582 5.59389 50.7716 5.63997 50.772 5.68683C50.7765 5.72994 50.7663 5.77324 50.7427 5.8113C50.7191 5.84935 50.6832 5.88047 50.6394 5.90073C50.6247 5.90499 50.6091 5.9063 50.5937 5.90456C50.5783 5.90282 50.5636 5.89808 50.5506 5.89068C50.5328 5.87923 50.529 5.86843 50.5314 5.86756Z" fill="#EB996E"/>
<path d="M47.6799 5.48995C47.6816 5.51635 47.6951 5.54111 47.7174 5.55895C47.7397 5.5768 47.7691 5.58631 47.7993 5.58545C47.8141 5.58556 47.8288 5.5831 47.8424 5.5782C47.8561 5.57329 47.8686 5.56605 47.879 5.5569C47.8895 5.54775 47.8977 5.53686 47.9033 5.52488C47.9089 5.51291 47.9117 5.50008 47.9115 5.48714C47.9097 5.46077 47.8963 5.43604 47.874 5.41821C47.8517 5.40037 47.8223 5.39084 47.7921 5.39165C47.7773 5.39153 47.7627 5.394 47.749 5.3989C47.7353 5.4038 47.7229 5.41104 47.7124 5.4202C47.702 5.42935 47.6937 5.44023 47.6881 5.45221C47.6826 5.46419 47.6798 5.47702 47.6799 5.48995V5.48995Z" fill="#263238"/>
<path d="M47.6419 5.3903C47.6573 5.40262 47.7407 5.34072 47.865 5.33359C47.9893 5.32646 48.085 5.37561 48.0974 5.36146C48.1036 5.35519 48.0872 5.33218 48.0454 5.30928C47.9891 5.27979 47.9236 5.26631 47.8581 5.27071C47.7933 5.27427 47.7316 5.2958 47.6818 5.33218C47.6455 5.35994 47.6343 5.38458 47.6419 5.3903Z" fill="#263238"/>
<path d="M48.906 5.45028C48.9078 5.47667 48.9212 5.50142 48.9436 5.51926C48.9659 5.5371 48.9953 5.54661 49.0255 5.54578C49.0403 5.54589 49.055 5.54343 49.0686 5.53853C49.0823 5.53362 49.0948 5.52638 49.1052 5.51723C49.1157 5.50807 49.1239 5.49719 49.1295 5.48521C49.1351 5.47323 49.1379 5.4604 49.1377 5.44747C49.1359 5.4211 49.1225 5.39637 49.1002 5.37853C49.0779 5.3607 49.0485 5.35117 49.0183 5.35198C49.0035 5.35185 48.9888 5.3543 48.9751 5.3592C48.9614 5.36409 48.949 5.37133 48.9385 5.38048C48.9281 5.38964 48.9198 5.40053 48.9142 5.41252C48.9086 5.4245 48.9058 5.43734 48.906 5.45028V5.45028Z" fill="#263238"/>
<path d="M48.8675 5.33806C48.8828 5.35038 48.9663 5.28847 49.0906 5.28134C49.2149 5.27421 49.3105 5.32337 49.323 5.30922C49.3291 5.30295 49.3129 5.27994 49.2709 5.25704C49.2145 5.22754 49.1491 5.21406 49.0837 5.21847C49.0189 5.22205 48.9572 5.24359 48.9074 5.27994C48.8712 5.30792 48.8599 5.33255 48.8675 5.33806Z" fill="#263238"/>
<path d="M48.4785 6.17197C48.4115 6.15782 48.3427 6.1511 48.2738 6.15199C48.2418 6.15101 48.2112 6.14734 48.2044 6.12865C48.1996 6.10011 48.2047 6.07095 48.2193 6.04504C48.244 5.97604 48.2698 5.90363 48.2969 5.8278C48.3702 5.64339 48.4265 5.45413 48.4651 5.26184C48.375 5.44064 48.3014 5.62549 48.2452 5.81462C48.2195 5.89088 48.1949 5.96348 48.1711 6.03294C48.1536 6.06762 48.1508 6.10656 48.1629 6.14291C48.1683 6.15244 48.1761 6.16077 48.1857 6.16728C48.1953 6.17379 48.2065 6.17831 48.2184 6.18051C48.2363 6.18363 48.2546 6.18475 48.2729 6.18385C48.3417 6.18752 48.4108 6.18352 48.4785 6.17197V6.17197Z" fill="#263238"/>
<path d="M48.8502 6.22551C48.8299 6.22551 48.8388 6.34434 48.7297 6.43454C48.6206 6.52474 48.4756 6.52096 48.4759 6.53727C48.4746 6.54483 48.5097 6.55834 48.5706 6.55618C48.6499 6.55247 48.7251 6.52443 48.783 6.47699C48.8386 6.43143 48.8717 6.36881 48.8755 6.30231C48.8768 6.25262 48.8594 6.22421 48.8502 6.22551Z" fill="#263238"/>
<path d="M48.8015 4.91339C48.8161 4.94223 48.9393 4.92084 49.0865 4.92765C49.2339 4.93176 49.3545 4.96222 49.3718 4.93446C49.3795 4.92128 49.3569 4.8947 49.307 4.86888C49.2407 4.83748 49.1671 4.81971 49.0918 4.81692C49.0165 4.81413 48.9415 4.8264 48.8724 4.85279C48.8203 4.87482 48.7952 4.89967 48.8015 4.91339Z" fill="#263238"/>
<path d="M47.663 5.07261C47.6868 5.09605 47.7706 5.06526 47.873 5.05803C47.9757 5.04722 48.0647 5.06332 48.0831 5.03642C48.0909 5.02335 48.0752 4.99948 48.0353 4.9783C47.9818 4.9533 47.9211 4.94274 47.8608 4.94795C47.8005 4.95316 47.7433 4.97392 47.6965 5.00758C47.663 5.03491 47.6527 5.06116 47.663 5.07261Z" fill="#263238"/>
<path d="M50.4032 4.89871C50.3969 5.0964 50.4194 5.29495 50.4131 5.49286C50.4057 5.56772 50.384 5.64097 50.3489 5.70956C50.3372 5.74919 50.3116 5.78462 50.2757 5.81084C50.2397 5.83706 50.1953 5.85275 50.1486 5.8557C50.1019 5.85865 50.0554 5.8487 50.0155 5.82727C49.9756 5.80584 49.9445 5.77399 49.9264 5.73624C49.8822 5.65829 49.8586 5.57263 49.8575 5.48562C49.8564 5.39877 49.8394 5.31263 49.8072 5.23046C49.7547 5.14479 49.692 5.06419 49.6202 4.98999C49.5845 4.95262 49.5592 4.90849 49.5463 4.86109C49.5335 4.81369 49.5334 4.76433 49.5461 4.7169C49.8452 4.70868 50.1412 4.77159 50.4026 4.89893" fill="#263238"/>
<path d="M47.4109 4.98709L47.3975 4.58988L48.6948 4.16663L50.381 4.4946L50.414 4.92044C49.4398 4.60744 48.3657 4.63128 47.4109 4.98709V4.98709Z" fill="#455A64"/>
<path d="M47.4734 4.50108L47.4191 4.55391L46.9629 4.84375C47.5602 4.66809 48.1803 4.55842 48.8087 4.51729C49.4983 4.50306 50.1874 4.55943 50.8619 4.68527L50.2089 4.39241C50.103 4.30599 49.9784 4.239 49.8425 4.1954C49.7065 4.1518 49.5619 4.13246 49.4173 4.13854L48.2265 4.18867C48.0836 4.19471 47.9435 4.22543 47.8143 4.27905C47.685 4.33267 47.5692 4.40813 47.4734 4.50108V4.50108Z" fill="#E1261C"/>
<path d="M48.3013 4.15614C48.3238 3.97191 48.3296 3.78644 48.3187 3.60142C48.3245 3.41623 48.3135 3.23093 48.2859 3.04724C48.2635 3.23147 48.2576 3.41694 48.2685 3.60196C48.2628 3.78715 48.2738 3.97244 48.3013 4.15614V4.15614Z" fill="#263238"/>
<path d="M49.3483 3.01575C49.275 2.9925 49.1985 2.97797 49.1208 2.97253C49.0968 2.97429 49.0743 2.98379 49.0577 2.99919C49.0412 3.01459 49.0317 3.03481 49.0312 3.05593C49.034 3.09352 49.0368 3.13245 49.0398 3.17271C49.0472 3.25589 49.0551 3.34415 49.0634 3.43684C49.0815 3.62415 49.1004 3.79332 49.1173 3.91615C49.1214 3.98299 49.1338 4.04924 49.1543 4.11373C49.1622 4.0473 49.1616 3.98031 49.1526 3.91399C49.1453 3.79095 49.1316 3.62113 49.1134 3.4337C49.1038 3.34112 49.0945 3.25287 49.0859 3.16979C49.0813 3.13054 49.0772 3.09263 49.0735 3.05604C49.0733 3.04326 49.0785 3.03085 49.088 3.02113C49.0975 3.01142 49.1107 3.00505 49.1252 3.00322C49.1989 3.01338 49.2736 3.01757 49.3483 3.01575V3.01575Z" fill="#263238"/>
<path d="M46.9329 4.84041C46.935 4.84332 46.9869 4.81729 47.0865 4.77959C47.1359 4.76003 47.1977 4.73757 47.2659 4.70451C47.3464 4.66833 47.4149 4.61469 47.4649 4.54873C47.5235 4.47311 47.5267 4.37276 47.5923 4.29746C47.6525 4.21741 47.7825 4.21018 47.9079 4.19851C48.1627 4.17431 48.4438 4.1553 48.7393 4.14504C49.0349 4.13477 49.3171 4.1324 49.5735 4.13423C49.6907 4.12501 49.8079 4.15175 49.905 4.20985C49.9446 4.24174 49.9807 4.27671 50.0131 4.31431L50.0634 4.36714L50.0891 4.39199C50.0997 4.40075 50.112 4.40771 50.1255 4.41251C50.3084 4.47733 50.4574 4.51622 50.5595 4.54971C50.6117 4.56819 50.6649 4.5842 50.7191 4.59767C50.7075 4.58969 50.6947 4.58324 50.6809 4.57855C50.6552 4.56775 50.6167 4.55219 50.5665 4.53383C50.4677 4.4958 50.3163 4.45086 50.1407 4.38464C50.1316 4.38131 50.1232 4.37659 50.116 4.3707L50.0913 4.34618L50.0431 4.29346C50.0101 4.25352 49.9728 4.21634 49.9319 4.18241C49.8283 4.11723 49.7017 4.08602 49.5743 4.09426C49.317 4.08994 49.0341 4.0907 48.7372 4.10139C48.4403 4.11209 48.1584 4.13196 47.9027 4.15854C47.8393 4.16333 47.7763 4.17218 47.7143 4.18501C47.6515 4.19789 47.5962 4.23034 47.5587 4.27629C47.4872 4.3652 47.4868 4.46555 47.4352 4.53253C47.3897 4.59555 47.3268 4.64755 47.2523 4.68377C47.1869 4.7179 47.1268 4.74275 47.0785 4.76457C47.0301 4.78639 46.993 4.80443 46.9686 4.81783C46.9443 4.83123 46.932 4.83965 46.9329 4.84041Z" fill="#263238"/>
<path d="M47.1146 4.89147C47.127 4.88737 47.1385 4.88153 47.1487 4.87419C47.1789 4.85546 47.2107 4.83871 47.2437 4.82406C47.3654 4.77018 47.4933 4.72774 47.6253 4.69745C48.0621 4.59694 48.513 4.55105 48.9645 4.56112C49.2304 4.56199 49.4835 4.55723 49.7113 4.56977C49.9384 4.58457 50.1451 4.60963 50.3151 4.63458C50.4003 4.64787 50.4766 4.66278 50.543 4.67779C50.5996 4.68707 50.6532 4.70726 50.6998 4.73688C50.7186 4.75033 50.7337 4.76739 50.7438 4.78674C50.7539 4.80609 50.7587 4.82722 50.758 4.84848C50.7591 4.84848 50.7659 4.83767 50.7645 4.81402C50.7604 4.7796 50.7419 4.74771 50.7127 4.72435C50.6657 4.69022 50.6102 4.66624 50.5506 4.65435C50.4842 4.63642 50.4074 4.61924 50.3218 4.6039C50.121 4.56951 49.9182 4.54455 49.7144 4.52915C49.4835 4.51424 49.2297 4.51834 48.9648 4.51705C48.5088 4.50625 48.0536 4.55694 47.6152 4.66731C47.4821 4.70073 47.3541 4.74826 47.2341 4.80883C47.2014 4.82536 47.1707 4.84476 47.1425 4.86673C47.123 4.88207 47.1135 4.89039 47.1146 4.89147Z" fill="#263238"/>
<path d="M48.4958 2.9169C48.5372 2.92012 48.5788 2.92037 48.6202 2.91765L48.9192 2.90685C49.0357 2.90404 49.1424 2.89097 49.2166 2.89756C49.2367 2.89856 49.2563 2.9032 49.2743 2.91118C49.2922 2.91916 49.3081 2.9303 49.3209 2.9439C49.3179 2.93409 49.3115 2.92531 49.3027 2.91873C49.2793 2.90018 49.2499 2.88848 49.2185 2.88525C49.1184 2.8806 49.0181 2.882 48.9182 2.88946L48.6194 2.90491C48.5779 2.90602 48.5366 2.91003 48.4958 2.9169V2.9169Z" fill="#FAFAFA"/>
<path d="M48.4448 4.19925C48.4657 4.20111 48.4867 4.20147 48.5076 4.20033L48.6785 4.19817C48.8227 4.19644 49.0218 4.19503 49.2419 4.19817L49.552 4.20486C49.636 4.2041 49.7199 4.20988 49.8027 4.22215C49.8578 4.23202 49.9073 4.2581 49.9431 4.29604C49.9551 4.31071 49.9651 4.32651 49.9731 4.34314C49.9706 4.32456 49.9624 4.30691 49.9494 4.29204C49.9144 4.25063 49.8636 4.22157 49.8062 4.21016C49.7227 4.19581 49.6378 4.18857 49.5528 4.18855C49.4574 4.18477 49.3524 4.18196 49.2421 4.18045C49.0218 4.17732 48.822 4.18045 48.6781 4.18563L48.5072 4.19341C48.4863 4.19384 48.4654 4.1958 48.4448 4.19925V4.19925Z" fill="#FAFAFA"/>
<path d="M49.0953 4.00697C49.0958 3.99378 49.0946 3.98058 49.0916 3.96765C49.0862 3.93286 49.0808 3.89775 49.0752 3.86167C49.0612 3.77212 49.0433 3.64843 49.028 3.51134C49.0126 3.37425 49.0033 3.2497 48.997 3.1596C48.9944 3.1232 48.992 3.08787 48.9895 3.05276C48.9896 3.03957 48.988 3.02641 48.9846 3.01355C48.9818 3.02655 48.9809 3.03978 48.9818 3.05298C48.9818 3.07826 48.9818 3.11488 48.9829 3.16004C48.9853 3.25056 48.9927 3.37555 49.0076 3.51307C49.0224 3.65059 49.0433 3.77428 49.0608 3.86351C49.0695 3.90812 49.0773 3.9441 49.0834 3.96884C49.0857 3.9819 49.0897 3.9947 49.0953 4.00697V4.00697Z" fill="#FAFAFA"/>
<path d="M50.1243 4.4364C50.1366 4.4428 50.1497 4.44795 50.1633 4.45174L50.2719 4.4875L50.6327 4.59909C50.6994 4.61686 50.7645 4.63874 50.8277 4.66456C50.8785 4.68524 50.9194 4.72082 50.9433 4.76513C50.959 4.79515 50.9627 4.8289 50.9537 4.86095C50.9461 4.88331 50.936 4.89336 50.9377 4.89476C50.9484 4.88605 50.9565 4.87513 50.9611 4.863C50.9737 4.82945 50.972 4.79305 50.9564 4.76048C50.9328 4.71239 50.8903 4.67332 50.8365 4.6504C50.7727 4.6233 50.7066 4.60065 50.6388 4.58267L50.2761 4.47583L50.1649 4.44526C50.1518 4.44085 50.1382 4.43787 50.1243 4.4364Z" fill="#FAFAFA"/>
<path d="M40.9915 23.7429L41.1027 25.4964C41.1027 25.4964 39.101 26.1848 39.0862 26.5107L42.9828 26.4432L42.9369 23.7046L40.9915 23.7429Z" fill="#E1261C"/>
<g opacity="0.4">
<path opacity="0.4" d="M40.9915 23.7429L41.1027 25.4964C41.1027 25.4964 39.101 26.1848 39.0862 26.5107L42.9828 26.4432L42.9369 23.7046L40.9915 23.7429Z" fill="black"/>
</g>
<path d="M42.3054 25.3279C42.3431 25.3372 42.3756 25.3583 42.3966 25.3873C42.4175 25.4162 42.4256 25.4509 42.4191 25.4847C42.4098 25.518 42.3863 25.5469 42.3534 25.5655C42.3205 25.5841 42.2807 25.5909 42.2422 25.5845C42.2022 25.5746 42.1679 25.552 42.1459 25.5212C42.1239 25.4904 42.1157 25.4536 42.1229 25.4179C42.1365 25.3838 42.1648 25.3557 42.2017 25.3396C42.2386 25.3235 42.2813 25.3205 42.3206 25.3314" fill="#E0E0E0"/>
<path d="M42.9838 26.4431L42.9669 26.1672L39.237 26.3351C39.237 26.3351 39.0652 26.4041 39.0871 26.5107L42.9838 26.4431Z" fill="#E0E0E0"/>
<path d="M41.0394 25.4802C41.0404 25.4968 41.1358 25.5028 41.2305 25.5546C41.3269 25.6043 41.3768 25.6755 41.3943 25.6686C41.4117 25.6652 41.381 25.5662 41.2649 25.5052C41.1487 25.4441 41.0356 25.4651 41.0394 25.4802Z" fill="#263238"/>
<path d="M40.6349 25.6351C40.6309 25.6513 40.714 25.6783 40.7802 25.7473C40.8488 25.8148 40.8667 25.8907 40.8857 25.8897C40.9036 25.8919 40.9146 25.7943 40.8304 25.7096C40.7461 25.6249 40.635 25.6192 40.6349 25.6351Z" fill="#263238"/>
<path d="M40.4121 26.0671C40.4295 26.0704 40.4541 25.9868 40.4032 25.8965C40.3523 25.8063 40.2624 25.7716 40.2549 25.7856C40.2444 25.7994 40.3033 25.8473 40.3439 25.9219C40.3861 25.9953 40.3932 26.0654 40.4121 26.0671Z" fill="#263238"/>
<path d="M41.0654 25.0781C41.0738 25.0931 41.1606 25.0687 41.2682 25.0731C41.376 25.0758 41.4604 25.1056 41.4701 25.0915C41.4808 25.0793 41.3977 25.0191 41.2708 25.0159C41.1439 25.0126 41.0558 25.0652 41.0654 25.0781Z" fill="#263238"/>
<g opacity="0.3">
<path opacity="0.3" d="M41.0149 24.0902L41.0343 24.4027L42.9494 24.3544L42.9455 24.0725L41.0149 24.0902Z" fill="black"/>
</g>
<path d="M41.0505 24.7241C41.1148 24.738 41.1822 24.7365 41.2456 24.7198C41.3158 24.7076 41.384 24.688 41.4486 24.6614C41.4871 24.6457 41.5243 24.6276 41.5599 24.6074C41.5816 24.5965 41.6012 24.5826 41.6179 24.5664C41.6301 24.5543 41.6374 24.5391 41.6386 24.523C41.6398 24.507 41.6349 24.491 41.6246 24.4777C41.6148 24.4662 41.6021 24.457 41.5874 24.4506C41.5728 24.4442 41.5567 24.441 41.5403 24.441C41.5156 24.4413 41.491 24.4447 41.4674 24.4512C41.426 24.4608 41.3856 24.4736 41.3468 24.4897C41.2816 24.5168 41.2217 24.5527 41.1693 24.5961C41.0806 24.6708 41.051 24.7335 41.0581 24.7365C41.0667 24.7418 41.1096 24.689 41.2002 24.627C41.253 24.5911 41.3108 24.5613 41.3723 24.5383C41.4083 24.5248 41.4455 24.514 41.4835 24.5059C41.5245 24.4957 41.5596 24.4951 41.5706 24.5107C41.5746 24.5168 41.575 24.5191 41.5666 24.5298C41.5542 24.5416 41.5398 24.5517 41.524 24.5599C41.4913 24.5794 41.4572 24.5972 41.4221 24.6132C41.3622 24.6404 41.2995 24.6627 41.2349 24.6797C41.1723 24.6906 41.1107 24.7054 41.0505 24.7241V24.7241Z" fill="#263238"/>
<path d="M41.0753 24.7473C41.1111 24.6981 41.1278 24.64 41.123 24.5817C41.125 24.5185 41.1146 24.4555 41.0922 24.3954C41.0788 24.3597 41.0614 24.3253 41.0401 24.2927C41.0291 24.2703 41.0117 24.2508 40.9895 24.2361C40.9674 24.2214 40.9412 24.2119 40.9137 24.2086C40.8963 24.2092 40.8795 24.2142 40.8653 24.2229C40.851 24.2316 40.8399 24.2436 40.8332 24.2577C40.8237 24.2778 40.8174 24.2989 40.8146 24.3205C40.8088 24.3587 40.8096 24.3975 40.817 24.4355C40.8293 24.4991 40.8593 24.5591 40.9044 24.6103C40.9826 24.6967 41.0624 24.7157 41.0639 24.7101C41.0701 24.7017 41.003 24.6707 40.9428 24.5868C40.9081 24.5385 40.8858 24.4842 40.8775 24.4276C40.8726 24.3948 40.8731 24.3615 40.8788 24.3289C40.884 24.2926 40.899 24.2631 40.9145 24.2665C40.9339 24.2659 40.9674 24.2927 40.9841 24.3213C41.004 24.3504 41.0209 24.3811 41.0345 24.4129C41.0575 24.4674 41.0715 24.5245 41.0761 24.5825C41.0838 24.6824 41.0649 24.7451 41.0753 24.7473Z" fill="#263238"/>
<path d="M51.5123 16.2921C51.5123 16.2921 51.0865 18.2012 50.3793 18.2283C49.5115 18.2615 43.2308 18.3363 43.2308 18.3363L43.6138 24.4523L40.8724 24.3945L39.7769 18.368C39.6549 17.8271 39.7584 17.2659 40.0685 16.7859C40.076 16.7751 40.0834 16.7635 40.091 16.7522C40.3253 16.4155 40.6547 16.1371 41.0474 15.9437C41.4401 15.7502 41.8831 15.6481 42.3339 15.6473L47.5509 15.5787L51.5123 16.2921Z" fill="#263238"/>
<path d="M42.0566 23.7428L42.1678 25.4963C42.1678 25.4963 40.1662 26.1847 40.1514 26.5106L44.048 26.4431L44.0019 23.7045L42.0566 23.7428Z" fill="#E1261C"/>
<path d="M43.3695 25.3278C43.4072 25.3372 43.4397 25.3583 43.4606 25.3873C43.4816 25.4162 43.4896 25.4509 43.4832 25.4847C43.4739 25.518 43.4504 25.5469 43.4175 25.5655C43.3846 25.584 43.3447 25.5909 43.3062 25.5845C43.2663 25.5746 43.232 25.552 43.2099 25.5212C43.1879 25.4904 43.1797 25.4536 43.1869 25.4178C43.2005 25.3838 43.2288 25.3557 43.2657 25.3396C43.3026 25.3235 43.3452 25.3205 43.3846 25.3314" fill="#E0E0E0"/>
<path d="M44.0488 26.4431L44.0317 26.1672L40.302 26.3351C40.302 26.3351 40.13 26.4041 40.1521 26.5107L44.0488 26.4431Z" fill="#E0E0E0"/>
<path d="M42.1049 25.4801C42.1059 25.4967 42.2011 25.5027 42.296 25.5545C42.3924 25.6042 42.4423 25.6754 42.4596 25.6685C42.4771 25.665 42.4465 25.5661 42.3304 25.505C42.2142 25.444 42.1004 25.465 42.1049 25.4801Z" fill="#263238"/>
<path d="M41.6994 25.6351C41.6954 25.6513 41.7784 25.6783 41.8447 25.7473C41.9132 25.8148 41.9312 25.8907 41.9502 25.8897C41.9681 25.8919 41.9791 25.7943 41.8948 25.7096C41.8106 25.6249 41.6995 25.6192 41.6994 25.6351Z" fill="#263238"/>
<path d="M41.4766 26.0671C41.4939 26.0704 41.5185 25.9868 41.4676 25.8965C41.4167 25.8063 41.3269 25.7716 41.3193 25.7856C41.3088 25.7994 41.3678 25.8473 41.4083 25.9219C41.4488 25.9966 41.4577 26.0654 41.4766 26.0671Z" fill="#263238"/>
<path d="M42.1304 25.078C42.1386 25.093 42.2255 25.0686 42.3331 25.073C42.441 25.0757 42.5254 25.1054 42.5349 25.0914C42.5456 25.0792 42.4626 25.019 42.3356 25.0158C42.2086 25.0125 42.1207 25.065 42.1304 25.078Z" fill="#263238"/>
<g opacity="0.3">
<path opacity="0.3" d="M42.0793 24.0902L42.0987 24.4027L44.0139 24.3544L44.0099 24.0725L42.0793 24.0902Z" fill="black"/>
</g>
<path d="M42.1147 24.7239C42.179 24.7379 42.2464 24.7364 42.3098 24.7196C42.38 24.7075 42.4482 24.6879 42.5129 24.6613C42.5513 24.6456 42.5885 24.6275 42.6241 24.6073C42.6457 24.5963 42.6653 24.5825 42.6821 24.5662C42.6943 24.5542 42.7016 24.5389 42.7028 24.5229C42.704 24.5068 42.6991 24.4909 42.6888 24.4775C42.679 24.4661 42.6663 24.4568 42.6516 24.4505C42.637 24.4441 42.6209 24.4408 42.6045 24.4409C42.5798 24.4412 42.5552 24.4446 42.5315 24.4511C42.4901 24.4607 42.4498 24.4735 42.411 24.4895C42.3458 24.5166 42.2859 24.5525 42.2335 24.5959C42.1446 24.6707 42.1152 24.7333 42.1223 24.7364C42.1311 24.7417 42.1738 24.6888 42.2645 24.6268C42.3173 24.5909 42.3751 24.5611 42.4366 24.5381C42.4726 24.5247 42.5098 24.5139 42.5478 24.5057C42.589 24.4956 42.6241 24.4949 42.6343 24.5106C42.6384 24.5166 42.6389 24.519 42.6305 24.5297C42.618 24.5415 42.6036 24.5516 42.5879 24.5597C42.5551 24.5793 42.5211 24.5971 42.4859 24.6131C42.426 24.6403 42.3634 24.6626 42.2987 24.6796C42.2363 24.6904 42.1748 24.7053 42.1147 24.7239V24.7239Z" fill="#263238"/>
<path d="M42.1403 24.7473C42.1761 24.6981 42.1929 24.64 42.188 24.5817C42.1912 24.4806 42.1625 24.3806 42.1051 24.2927C42.0941 24.2703 42.0767 24.2508 42.0545 24.2361C42.0324 24.2214 42.0063 24.2119 41.9787 24.2086C41.9613 24.2092 41.9445 24.2142 41.9303 24.2229C41.916 24.2316 41.9049 24.2436 41.8983 24.2577C41.8887 24.2778 41.8824 24.2989 41.8796 24.3205C41.8737 24.3587 41.8745 24.3975 41.8821 24.4355C41.8944 24.4991 41.9244 24.5591 41.9694 24.6103C42.0477 24.6967 42.1275 24.7157 42.1289 24.7101C42.1351 24.7017 42.068 24.6707 42.0079 24.5868C41.9731 24.5385 41.9508 24.4842 41.9425 24.4276C41.9376 24.3948 41.938 24.3615 41.9439 24.3289C41.9491 24.2926 41.964 24.2631 41.9796 24.2665C41.999 24.2659 42.0325 24.2927 42.0491 24.3213C42.069 24.3504 42.0859 24.3811 42.0995 24.4129C42.1226 24.4674 42.1366 24.5245 42.1412 24.5825C42.1488 24.6824 42.1298 24.7451 42.1403 24.7473Z" fill="#263238"/>
<path d="M52.2043 16.2921C52.2043 16.2921 51.7785 18.2012 51.0713 18.2283C50.2035 18.2615 43.9228 18.3363 43.9228 18.3363L44.3058 24.4523L41.5645 24.3945L40.4691 18.368C40.3471 17.8271 40.4505 17.266 40.7605 16.7859C40.768 16.7751 40.7755 16.7635 40.783 16.7522C41.0174 16.4155 41.3467 16.1371 41.7394 15.9437C42.1321 15.7502 42.5751 15.6481 43.0259 15.6473L48.243 15.5787L52.2043 16.2921Z" fill="#263238"/>
<path d="M46.8584 8.62372L47.6794 13.4287L47.1202 15.5872L52.2034 16.8955C52.6624 16.3214 52.6805 14.4962 52.6643 13.2055C52.636 10.9306 52.7508 10.8202 52.6385 10.0222C52.5273 9.23364 52.3339 8.711 51.8519 8.46017L50.4729 7.84009C50.4729 7.84009 49.691 8.27511 49.2163 8.25135C49.2163 8.25135 48.6511 8.27177 48.3379 8.00948C48.3381 8.00948 47.1965 8.31217 46.8584 8.62372Z" fill="#E1261C"/>
<path d="M46.8588 8.6239L45.1643 10.6656L47.4714 11.8496L47.2952 11.1073L46.8588 8.6239Z" fill="#E1261C"/>
<path d="M42.8215 15.6776C42.812 15.6801 42.8021 15.6814 42.7922 15.6815L42.7065 15.6873C42.66 15.6899 42.6138 15.6945 42.568 15.7014C42.5051 15.7086 42.4428 15.7189 42.3813 15.7323C41.9876 15.8163 41.6241 15.9848 41.3236 16.2224C41.1167 16.3852 40.9388 16.5742 40.7959 16.7831C40.632 17.0224 40.5303 17.2903 40.4981 17.5679C40.4681 17.8759 40.4815 18.186 40.5378 18.4912C40.5872 18.8105 40.6595 19.1411 40.6991 19.4834C40.7867 20.1647 40.9044 20.8104 41.0146 21.397L41.3161 22.9549C41.4013 23.3984 41.4672 23.7579 41.5079 24.0071C41.5268 24.1279 41.5417 24.2236 41.5527 24.2941C41.5566 24.3242 41.56 24.3487 41.5626 24.3689C41.5643 24.3775 41.5647 24.3862 41.5638 24.3948C41.5598 24.3868 41.5572 24.3784 41.556 24.3698L41.54 24.2958C41.5259 24.2259 41.507 24.1308 41.4831 24.0105C41.4321 23.7578 41.3596 23.4008 41.2713 22.9617C41.1813 22.5171 41.0745 21.9903 40.9561 21.4061C40.8427 20.8195 40.723 20.1733 40.6349 19.4901C40.5955 19.1494 40.5245 18.8209 40.4751 18.499C40.4189 18.1893 40.4067 17.8747 40.4389 17.5625C40.4735 17.278 40.5797 17.0038 40.7498 16.7595C40.8972 16.5477 41.0805 16.3567 41.2935 16.193C41.6012 15.9542 41.9738 15.7884 42.3757 15.7113C42.5218 15.6821 42.6718 15.6707 42.8215 15.6776V15.6776Z" fill="#455A64"/>
<path d="M44.7695 14.1939C44.7695 14.1939 46.7301 14.7475 48.255 15.2309C48.5138 15.3129 48.7919 15.3376 49.0643 15.303C49.3368 15.2683 49.5952 15.1753 49.8166 15.0323V15.0323C50.0997 14.8493 50.3094 14.5929 50.4159 14.2996L51.46 11.4236L49.7169 10.8894L48.5515 13.4746L44.2146 12.9761" fill="#FFBE9D"/>
<path d="M42.1761 13.6008L42.1597 13.4649C42.1704 13.3643 42.2183 13.2695 42.2962 13.1949V13.1949C42.3382 13.1546 42.388 13.1211 42.4434 13.0959L42.957 12.862C43.0346 12.8267 43.1234 12.8145 43.2097 12.8274L44.2619 12.9838L45.4681 13.1224L45.2186 14.3228L44.6607 14.1607C44.6607 14.1607 44.256 14.3567 44.007 14.31C44.007 14.31 43.7759 14.4447 43.6812 14.3463C43.6812 14.3463 43.4737 14.5018 43.397 14.4914C43.3203 14.481 43.1658 14.4033 43.1717 14.3567L43.1777 14.2945C43.1379 14.3126 43.0934 14.3212 43.0486 14.3193C43.0038 14.3174 42.9604 14.3051 42.9229 14.2837C42.8693 14.2476 42.8283 14.1991 42.8044 14.1438C42.7081 14.1348 42.6171 14.1005 42.5436 14.0454C42.4953 13.9831 42.463 13.9124 42.4488 13.8382C42.4488 13.8382 42.2147 13.7413 42.1761 13.6008Z" fill="#FFBE9D"/>
<path d="M42.9517 13.1657C42.9591 13.165 42.9719 13.2147 42.9461 13.291C42.9076 13.3866 42.8441 13.473 42.7608 13.5434C42.6682 13.6265 42.5822 13.6947 42.5287 13.7509C42.4752 13.8072 42.4477 13.846 42.4388 13.8426C42.4299 13.8391 42.444 13.7922 42.4923 13.7272C42.5582 13.647 42.6327 13.5725 42.7147 13.5046C42.7921 13.4387 42.8562 13.3618 42.9042 13.2771C42.9373 13.2119 42.9415 13.1653 42.9517 13.1657Z" fill="#EB996E"/>
<path d="M43.1529 13.6458C43.134 13.7447 43.0869 13.8378 43.0159 13.9166C42.9137 14.0549 42.8015 14.1466 42.7888 14.1364C42.8981 13.9663 43.0198 13.8024 43.1529 13.6458Z" fill="#EB996E"/>
<path d="M43.4211 13.9635C43.436 13.972 43.3922 14.0506 43.3233 14.139C43.2545 14.2273 43.1868 14.2918 43.1722 14.2829C43.1576 14.2739 43.2016 14.1952 43.2701 14.1073C43.3385 14.0194 43.4062 13.955 43.4211 13.9635Z" fill="#EB996E"/>
<path d="M43.371 13.8372C43.368 13.844 43.3438 13.8448 43.3118 13.8277C43.2911 13.8159 43.2735 13.8004 43.26 13.7822C43.2466 13.7641 43.2376 13.7437 43.2337 13.7223C43.2298 13.701 43.231 13.6791 43.2373 13.6582C43.2436 13.6373 43.2549 13.6178 43.2703 13.6009C43.295 13.5759 43.318 13.5701 43.3232 13.5757C43.3355 13.5865 43.2834 13.6413 43.297 13.7136C43.3106 13.786 43.3782 13.8236 43.371 13.8372Z" fill="#EB996E"/>
<path d="M43.6647 14.1597C43.6615 14.1666 43.6413 14.1682 43.6152 14.155C43.598 14.1459 43.583 14.1339 43.5712 14.1196C43.5594 14.1054 43.551 14.0892 43.5465 14.072C43.5399 14.0537 43.5395 14.034 43.5453 14.0154C43.5512 13.9969 43.563 13.9802 43.5794 13.9673C43.6114 13.9488 43.6364 13.9617 43.6333 13.9687C43.6198 13.9802 43.6103 13.9947 43.6059 14.0107C43.6015 14.0267 43.6025 14.0434 43.6086 14.0589C43.622 14.1139 43.6715 14.1458 43.6647 14.1597Z" fill="#EB996E"/>
<path d="M43.2004 13.4934C43.1996 13.5005 43.1735 13.5062 43.136 13.4912C43.1115 13.4807 43.0905 13.4648 43.075 13.4451C43.0595 13.4255 43.05 13.4026 43.0475 13.3788C43.0451 13.355 43.0496 13.3311 43.0608 13.3093C43.072 13.2875 43.0894 13.2686 43.1113 13.2544C43.1449 13.2336 43.1718 13.235 43.1741 13.2417C43.1811 13.2538 43.1048 13.297 43.1123 13.3737C43.1206 13.4503 43.2047 13.4805 43.2004 13.4934Z" fill="#EB996E"/>
<path d="M51.469 8.85226C51.071 8.70102 50.5807 8.85356 50.2928 9.11531C50.0049 9.37706 49.8727 9.72372 49.7492 10.059C49.6293 10.3824 49.3318 11.0384 49.2119 11.3616L51.4721 12.2078C51.6643 11.7513 51.844 11.2914 52.011 10.8281C52.1513 10.4392 52.282 10.0194 52.1193 9.63276" fill="#E1261C"/>
<path d="M52.1186 9.63282C52.1285 9.64782 52.1363 9.66377 52.1419 9.68035C52.1614 9.72711 52.1762 9.7753 52.1859 9.82436C52.2204 10.0079 52.2149 10.1955 52.1698 10.3772C52.1002 10.6539 52.009 10.9261 51.8966 11.1919C51.7775 11.5008 51.6447 11.8454 51.5012 12.2166L51.491 12.2434L51.4581 12.2312L49.8672 11.6371L49.1972 11.386L49.1704 11.3758L49.1789 11.3537C49.3612 10.8833 49.5662 10.4516 49.7191 10.0541C49.7856 9.86311 49.8678 9.67653 49.965 9.49584C50.052 9.33576 50.1715 9.19079 50.3177 9.06795C50.5415 8.88307 50.8383 8.78093 51.1462 8.78286C51.2295 8.78544 51.3119 8.79843 51.391 8.82143C51.418 8.82936 51.4441 8.83956 51.4689 8.85189C51.3647 8.82119 51.2559 8.8044 51.146 8.80209C50.8482 8.8076 50.5639 8.91132 50.3499 9.09247C50.2099 9.21403 50.0959 9.35649 50.0132 9.51313C49.9194 9.69291 49.8402 9.87823 49.7761 10.0677C49.6259 10.4685 49.4232 10.9016 49.2433 11.3691L49.2252 11.3367L49.8953 11.5874L51.4845 12.1841L51.4414 12.1987C51.5877 11.8289 51.7235 11.4857 51.8453 11.1779C51.9603 10.9144 52.0558 10.6447 52.1314 10.3705C52.1794 10.1922 52.1909 10.0077 52.1652 9.82587C52.1436 9.69991 52.1131 9.63401 52.1186 9.63282Z" fill="#263238"/>
<path d="M49.2231 14.4603C49.215 14.4619 49.1974 14.3476 49.1208 14.1548C49.0747 14.0382 49.0125 13.927 48.9355 13.8236C48.8375 13.6871 48.7023 13.5739 48.5421 13.4942L48.5486 13.4958L46.1002 13.2175L44.6239 13.0434L43.9802 12.9653L43.4209 12.8873L43.177 12.8527C43.1078 12.8427 43.0368 12.854 42.976 12.8844L42.6585 13.0185L42.4566 13.1014C42.4336 13.1121 42.4094 13.1206 42.3843 13.1268C42.4049 13.1128 42.4272 13.1009 42.4508 13.0912L42.6472 12.999L42.9599 12.8563C43.0271 12.8214 43.1059 12.8077 43.1832 12.8174L43.4276 12.8479L43.9877 12.919L44.6322 12.992L46.1087 13.1618L48.5552 13.4534H48.5594L48.5618 13.4546C48.7292 13.5392 48.8691 13.6597 48.9683 13.8047C49.0446 13.9115 49.1047 14.0265 49.1472 14.1467C49.1753 14.2222 49.1968 14.2994 49.2116 14.3777C49.2187 14.4048 49.2225 14.4325 49.2231 14.4603V14.4603Z" fill="#EB996E"/>
<path d="M47.6832 13.3569C47.6664 13.3061 47.655 13.2541 47.6492 13.2014C47.6291 13.091 47.603 12.9481 47.5718 12.7764C47.5019 12.4079 47.4091 11.9172 47.3066 11.3749C47.204 10.8326 47.1105 10.3415 47.0406 9.97305C47.0101 9.80096 46.9846 9.65794 46.965 9.54742C46.953 9.49562 46.9465 9.44297 46.9456 9.39014C46.9657 9.44006 46.9805 9.49152 46.9897 9.54386C47.0144 9.65351 47.0467 9.79556 47.0854 9.96646C47.163 10.3239 47.2651 10.8186 47.3696 11.3661C47.4741 11.9135 47.5616 12.4101 47.6167 12.7704C47.6447 12.9507 47.6633 13.0971 47.6742 13.1984C47.6829 13.2509 47.6859 13.3039 47.6832 13.3569V13.3569Z" fill="#263238"/>
</g>
</svg>
