<svg width="655" height="513" viewBox="0 0 655 513" fill="none" xmlns="http://www.w3.org/2000/svg">
<g opacity="0.2">
<path d="M243.079 180.472L187.528 256.427L0.000915527 0H111.086L243.079 180.472Z" fill="#DEDDDC"/>
<path d="M486.124 0L298.596 256.427L243.079 180.472L375.056 0H486.124Z" fill="#DEDDDC"/>
</g>
<g opacity="0.2">
<path d="M486.123 512.817H375.055L243.078 332.364L111.085 512.817H0L187.527 256.426L243.078 180.471L298.595 256.426L486.123 512.817Z" fill="#DEDDDC"/>
<path d="M243.079 180.472L187.528 256.427L0.000915527 0H111.086L243.079 180.472Z" fill="#DEDDDC"/>
<path d="M486.124 0L298.596 256.427L243.079 180.472L375.055 0H486.124Z" fill="#DEDDDC"/>
<path d="M655.001 510.744H543.933L411.956 330.291L279.963 510.744H168.878L356.405 254.354L411.956 178.398L467.473 254.354L655.001 510.744Z" fill="#DEDDDC"/>
</g>
</svg>
