<svg width="22" height="22" viewBox="0 0 22 22" fill="none" xmlns="http://www.w3.org/2000/svg">
<mask id="path-1-inside-1_1_13343" fill="white">
<path d="M13.7036 18.5862C13.8699 18.5862 14.0361 18.525 14.1674 18.3937C14.4211 18.14 14.4211 17.72 14.1674 17.4662L8.46236 11.7612C8.04236 11.3412 8.04236 10.6587 8.46236 10.2387L14.1674 4.53371C14.4211 4.27996 14.4211 3.85996 14.1674 3.60621C13.9136 3.35246 13.4936 3.35246 13.2399 3.60621L7.53485 9.31121C7.0886 9.75746 6.83486 10.3612 6.83486 11C6.83486 11.6387 7.07985 12.2425 7.53485 12.6887L13.2399 18.3937C13.3711 18.5162 13.5374 18.5862 13.7036 18.5862Z"/>
</mask>
<path d="M13.7036 18.5862C13.8699 18.5862 14.0361 18.525 14.1674 18.3937C14.4211 18.14 14.4211 17.72 14.1674 17.4662L8.46236 11.7612C8.04236 11.3412 8.04236 10.6587 8.46236 10.2387L14.1674 4.53371C14.4211 4.27996 14.4211 3.85996 14.1674 3.60621C13.9136 3.35246 13.4936 3.35246 13.2399 3.60621L7.53485 9.31121C7.0886 9.75746 6.83486 10.3612 6.83486 11C6.83486 11.6387 7.07985 12.2425 7.53485 12.6887L13.2399 18.3937C13.3711 18.5162 13.5374 18.5862 13.7036 18.5862Z" fill="#54565B"/>
<path d="M14.1674 17.4662L15.2501 16.3834H15.2501L14.1674 17.4662ZM8.46236 11.7612L7.3796 12.844L8.46236 11.7612ZM8.46236 10.2387L9.54511 11.3215L8.46236 10.2387ZM14.1674 4.53371L13.0846 3.45095V3.45095L14.1674 4.53371ZM13.2399 3.60621L14.3226 4.68896H14.3226L13.2399 3.60621ZM7.53485 9.31121L6.4521 8.22845L7.53485 9.31121ZM7.53485 12.6887L8.60705 11.5955L8.61236 11.6007L8.61761 11.6059L7.53485 12.6887ZM13.2399 18.3937L12.1951 19.5131L12.1758 19.4951L12.1571 19.4765L13.2399 18.3937ZM13.7036 17.055C13.4857 17.055 13.2556 17.1399 13.0846 17.3109L15.2501 19.4765C14.8166 19.91 14.2541 20.1175 13.7036 20.1175V17.055ZM13.0846 17.3109C12.7404 17.6552 12.7404 18.2047 13.0846 18.549L15.2501 16.3834C16.1019 17.2352 16.1019 18.6247 15.2501 19.4765L13.0846 17.3109ZM13.0846 18.549L7.3796 12.844L9.54511 10.6784L15.2501 16.3834L13.0846 18.549ZM7.3796 12.844C6.36161 11.826 6.36161 10.1739 7.3796 9.15595L9.54511 11.3215C9.7231 11.1435 9.7231 10.8564 9.54511 10.6784L7.3796 12.844ZM7.3796 9.15595L13.0846 3.45095L15.2501 5.61646L9.54511 11.3215L7.3796 9.15595ZM13.0846 3.45095C12.7404 3.79519 12.7404 4.34472 13.0846 4.68896L15.2501 2.52345C16.1019 3.37519 16.1019 4.76472 15.2501 5.61646L13.0846 3.45095ZM13.0846 4.68896C13.4288 5.0332 13.9784 5.0332 14.3226 4.68896L12.1571 2.52345C13.0088 1.67171 14.3984 1.67171 15.2501 2.52345L13.0846 4.68896ZM14.3226 4.68896L8.61761 10.394L6.4521 8.22845L12.1571 2.52345L14.3226 4.68896ZM8.61761 10.394C8.4561 10.5555 8.36611 10.7707 8.36611 11H5.30361C5.30361 9.95168 5.72111 8.95944 6.4521 8.22845L8.61761 10.394ZM8.36611 11C8.36611 11.2421 8.45596 11.4473 8.60705 11.5955L6.46266 13.7819C5.70375 13.0376 5.30361 12.0353 5.30361 11H8.36611ZM8.61761 11.6059L14.3226 17.3109L12.1571 19.4765L6.4521 13.7715L8.61761 11.6059ZM14.2847 17.2743C14.1641 17.1618 13.9666 17.055 13.7036 17.055V20.1175C13.1081 20.1175 12.5781 19.8706 12.1951 19.5131L14.2847 17.2743Z" fill="#54565B" mask="url(#path-1-inside-1_1_13343)"/>
</svg>
