<svg width="32" height="32" viewBox="0 0 32 32" fill="none" xmlns="http://www.w3.org/2000/svg">
<path opacity="0.4" d="M28.8333 16.0001C28.8333 23.0877 23.0876 28.8334 16 28.8334C8.91231 28.8334 3.16663 23.0877 3.16663 16.0001C3.16663 8.91243 8.91231 3.16675 16 3.16675C23.0876 3.16675 28.8333 8.91243 28.8333 16.0001Z" fill="#F2F2F2" stroke="#F2F2F2"/>
<path d="M17.0598 15.6464L16.7062 16L17.0598 16.3535L20.1264 19.4202C20.3178 19.6116 20.3178 19.935 20.1264 20.1264C20.0251 20.2277 19.9012 20.2733 19.7733 20.2733C19.6454 20.2733 19.5215 20.2277 19.4202 20.1264L16.3535 17.0598L16 16.7062L15.6464 17.0598L12.5798 20.1264L12.9211 20.4678L12.5798 20.1264C12.4785 20.2277 12.3545 20.2733 12.2266 20.2733C12.0988 20.2733 11.9748 20.2277 11.8735 20.1264L11.5237 20.4762L11.8735 20.1264C11.6821 19.935 11.6821 19.6116 11.8735 19.4202L14.9402 16.3535L15.2938 16L14.9402 15.6464L11.8735 12.5798C11.6821 12.3884 11.6821 12.0649 11.8735 11.8735C12.0649 11.6821 12.3884 11.6821 12.5798 11.8735L15.6464 14.9402L16 15.2938L16.3535 14.9402L19.4202 11.8735C19.6116 11.6821 19.935 11.6821 20.1264 11.8735L20.479 11.5209L20.1264 11.8735C20.3178 12.0649 20.3178 12.3884 20.1264 12.5798L20.48 12.9333L20.1264 12.5798L17.0598 15.6464Z" fill="#F2F2F2" stroke="#F2F2F2"/>
</svg>
