<svg width="66" height="54" viewBox="0 0 66 54" fill="none" xmlns="http://www.w3.org/2000/svg">
<g opacity="0.3" clip-path="url(#clip0_2_29210)" filter="url(#filter0_d_2_29210)">
<path d="M17.7785 24.8941C17.3236 22.4593 18.0398 19.6894 20.0305 18.2157C19.9177 20.9068 20.7604 23.5511 22.4095 25.6808C23.0485 26.4998 23.8445 27.3441 23.8197 28.3826C23.8044 29.0288 23.4549 29.6308 22.9944 30.0843C22.5338 30.5378 21.9665 30.8648 21.406 31.1867L21.3188 31.3224C19.6756 29.469 18.2334 27.3288 17.7785 24.8941Z" fill="#F0F0F0"/>
<path d="M20.0666 18.2529C19.2303 20.1247 19.005 22.2124 19.4227 24.2195C19.505 24.6532 19.6551 25.0712 19.8675 25.4582C20.0866 25.8284 20.4008 26.1332 20.7776 26.3409C21.125 26.5417 21.5036 26.7068 21.7961 26.9885C21.9437 27.1349 22.0587 27.3108 22.1336 27.5048C22.2084 27.6988 22.2414 27.9064 22.2304 28.114C22.2164 28.632 22.0171 29.1141 21.8058 29.5788C21.5712 30.0947 21.3193 30.6269 21.3345 31.2069C21.3364 31.2772 21.2272 31.276 21.2254 31.2058C21.1989 30.1966 21.9285 29.3861 22.0911 28.4177C22.167 27.9659 22.1071 27.4884 21.7894 27.1382C21.5116 26.8319 21.1214 26.6613 20.7679 26.4611C20.3974 26.2639 20.0808 25.9789 19.8458 25.6311C19.6144 25.2562 19.4484 24.8447 19.3551 24.4141C19.1294 23.4482 19.057 22.4527 19.1406 21.4643C19.2297 20.3356 19.5112 19.2306 19.9729 18.1968C20.0015 18.1329 20.095 18.1894 20.0666 18.2529L20.0666 18.2529Z" fill="white"/>
<path d="M19.2503 23.5811C18.904 23.6055 18.5604 23.506 18.2807 23.3003C18.0011 23.0947 17.8036 22.7964 17.7236 22.4586C17.7076 22.3902 17.8131 22.3622 17.8291 22.4307C17.9031 22.7454 18.087 23.0233 18.3478 23.2142C18.6087 23.4051 18.9291 23.4965 19.2515 23.4719C19.3215 23.4667 19.32 23.5759 19.2503 23.5811V23.5811Z" fill="white"/>
<path d="M20.5882 26.2623C21.0583 25.7308 21.3108 25.0416 21.2952 24.3321C21.2936 24.2619 21.4028 24.2631 21.4044 24.3333C21.4192 25.0716 21.155 25.7882 20.6646 26.3403C20.6179 26.3929 20.5417 26.3146 20.5882 26.2623V26.2623Z" fill="white"/>
<path d="M19.3576 20.4034C19.4936 20.4219 19.632 20.4063 19.7604 20.3581C19.8889 20.3099 20.0033 20.2305 20.0935 20.1271C20.1396 20.0739 20.2157 20.1523 20.1699 20.2051C20.0697 20.3189 19.9432 20.4064 19.8014 20.4599C19.6596 20.5135 19.5069 20.5316 19.3565 20.5125C19.3422 20.5119 19.3286 20.5059 19.3186 20.4956C19.3086 20.4854 19.3028 20.4717 19.3025 20.4574C19.3027 20.4429 19.3086 20.4292 19.319 20.419C19.3293 20.4089 19.3432 20.4033 19.3576 20.4034H19.3576Z" fill="white"/>
<path d="M28.1714 20.2296C28.1436 20.2636 28.1157 20.2976 28.0881 20.3325C27.7163 20.7917 27.3824 21.2803 27.0897 21.7936C27.0664 21.8329 27.0435 21.8731 27.0214 21.913C26.3294 23.157 25.8744 24.5188 25.6795 25.9289C25.6025 26.4901 25.5682 27.0564 25.5771 27.6228C25.5894 28.405 25.665 29.2521 25.4252 29.9715C25.401 30.0469 25.3722 30.1206 25.3389 30.1924L21.4913 31.4183C21.4812 31.4167 21.4713 31.416 21.4611 31.4144L21.3097 31.4704C21.3072 31.4412 21.3052 31.4109 21.3027 31.3817C21.3012 31.3648 21.3006 31.3476 21.299 31.3307C21.2983 31.3193 21.2976 31.3079 21.2963 31.2977C21.296 31.2939 21.2958 31.2901 21.2958 31.2872C21.2945 31.277 21.2944 31.2674 21.2933 31.258C21.2819 31.0886 21.2713 30.9189 21.2625 30.7486C21.2622 30.7477 21.2622 30.7477 21.2628 30.7466C21.1967 29.4496 21.2384 28.1358 21.4781 26.8701C21.4854 26.832 21.4923 26.793 21.5013 26.7544C21.6125 26.1845 21.7701 25.6246 21.9726 25.0803C22.0844 24.7827 22.2112 24.4909 22.3525 24.206C22.7191 23.4707 23.199 22.7977 23.7747 22.2116C24.9226 21.0433 26.4313 20.2551 28.0479 20.2303C28.0892 20.2297 28.1298 20.2293 28.1714 20.2296Z" fill="#F0F0F0"/>
<path d="M28.1779 20.2811C26.3832 21.2721 24.9464 22.8033 24.0715 24.6574C23.876 25.0532 23.7442 25.4773 23.6809 25.9142C23.6329 26.3417 23.7003 26.7743 23.8761 27.167C24.0326 27.5364 24.2355 27.8962 24.2995 28.2972C24.3292 28.503 24.315 28.7127 24.258 28.9126C24.201 29.1126 24.1023 29.2982 23.9685 29.4573C23.6455 29.8625 23.1961 30.1274 22.7476 30.3712C22.2497 30.6419 21.7282 30.9152 21.3911 31.3875C21.3502 31.4448 21.2638 31.378 21.3046 31.3209C21.8911 30.4992 22.9616 30.2913 23.6744 29.616C24.0071 29.3009 24.2467 28.8837 24.204 28.4127C24.1666 28.0009 23.9577 27.6298 23.7959 27.2571C23.6189 26.8765 23.5377 26.4584 23.5595 26.0392C23.6004 25.6006 23.7156 25.1721 23.9003 24.7721C24.3017 23.8649 24.8432 23.0266 25.5051 22.2876C26.2557 21.4401 27.1458 20.7273 28.1369 20.1799C28.1982 20.1461 28.2389 20.2475 28.1779 20.2811V20.2811Z" fill="white"/>
<path d="M24.3179 24.0438C24.0268 23.8548 23.8123 23.5685 23.7128 23.2359C23.6133 22.9034 23.6352 22.5463 23.7747 22.2284C23.8031 22.1642 23.9043 22.2054 23.8758 22.2697C23.7454 22.5654 23.725 22.8981 23.8183 23.2075C23.9115 23.517 24.1124 23.783 24.3845 23.9574C24.4436 23.9953 24.3767 24.0816 24.3179 24.0438H24.3179Z" fill="white"/>
<path d="M23.7722 26.9902C24.4675 26.8488 25.084 26.4505 25.4988 25.8747C25.5398 25.8176 25.6262 25.8843 25.5852 25.9413C25.1525 26.5397 24.5101 26.9529 23.7862 27.0984C23.7172 27.1123 23.7035 27.0039 23.7722 26.9902V26.9902Z" fill="white"/>
<path d="M26.3169 21.5713C26.4143 21.6679 26.5342 21.7388 26.6658 21.7776C26.7974 21.8165 26.9366 21.822 27.0708 21.7938C27.1396 21.7791 27.1532 21.8874 27.0848 21.902C26.9364 21.9325 26.7827 21.9262 26.6372 21.8837C26.4917 21.8411 26.3589 21.7635 26.2503 21.6578C26.2392 21.6487 26.232 21.6357 26.2302 21.6215C26.2284 21.6072 26.232 21.5928 26.2404 21.5812C26.2493 21.5698 26.2623 21.5624 26.2766 21.5605C26.291 21.5587 26.3054 21.5625 26.3169 21.5713V21.5713Z" fill="white"/>
<path d="M34.2144 6.91557C34.2273 6.97223 34.2357 7.02983 34.2395 7.08781L38.7507 9.6903L39.8472 9.05906L41.0162 10.5894L39.1836 11.8955C39.0356 12.001 38.8573 12.0557 38.6755 12.0512C38.4938 12.0468 38.3184 11.9835 38.1757 11.8709L33.5239 8.2011C33.3139 8.27881 33.0853 8.29077 32.8684 8.23537C32.6515 8.17998 32.4566 8.05987 32.3097 7.89101C32.1627 7.72216 32.0706 7.51256 32.0457 7.29009C32.0207 7.06763 32.0641 6.84285 32.1701 6.64564C32.276 6.44844 32.4395 6.28816 32.6387 6.18612C32.838 6.08408 33.0635 6.04512 33.2855 6.07443C33.5074 6.10373 33.7152 6.19991 33.8811 6.35016C34.047 6.50042 34.1633 6.69764 34.2144 6.91558V6.91557Z" fill="#FFB6B6"/>
<path d="M38.8139 9.40301C38.8282 9.33662 38.8567 9.27411 38.8974 9.21973C38.938 9.16535 38.99 9.12038 39.0496 9.0879L41.1323 7.95311C41.4097 7.74378 41.7587 7.65298 42.1029 7.70064C42.4471 7.74829 42.7584 7.9305 42.9684 8.20731C43.1785 8.48411 43.2702 8.83293 43.2234 9.17725C43.1767 9.52157 42.9953 9.8333 42.719 10.0441L41.0498 11.7398C41.0021 11.7882 40.9446 11.8258 40.8812 11.85C40.8177 11.8741 40.7498 11.8843 40.682 11.8799C40.6142 11.8754 40.5482 11.8564 40.4885 11.8241C40.4287 11.7919 40.3766 11.7471 40.3357 11.6929L38.8985 9.78736C38.8576 9.73315 38.8289 9.67075 38.8143 9.60442C38.7997 9.53809 38.7995 9.46939 38.8139 9.40301V9.40301Z" fill="#3F3D56"/>
<path d="M42.5341 2.80578C42.8338 1.85076 43.5152 0.97486 44.4577 0.652012C45.4001 0.329166 46.7802 0.820966 47.4887 1.5271C48.7847 2.81876 49.101 7.25608 48.2106 8.65833C48.0335 8.64895 47.4223 8.64202 47.2431 8.6353L46.9895 7.79013V8.62697C45.5904 8.58373 44.1337 8.61081 42.6763 8.6388C42.5457 7.646 42.2345 3.7608 42.5341 2.80578Z" fill="#2F2E41"/>
<path d="M42.1332 42.8923H40.8571L40.25 37.97L42.1335 37.9701L42.1332 42.8923Z" fill="#FFB6B6"/>
<path d="M53.3052 42.0987L52.0703 42.4205L50.2412 37.8105L52.0638 37.3356L53.3052 42.0987Z" fill="#FFB6B6"/>
<path d="M46.2728 12.6599L46.562 13.4117L46.5041 14.1636L40.845 16.1237L41.1258 12.8334L41.7619 12.0815L46.2728 12.6599Z" fill="#FFB6B6"/>
<path d="M44.4829 5.89439C45.5992 5.89439 46.5041 4.98945 46.5041 3.87316C46.5041 2.75686 45.5992 1.85193 44.4829 1.85193C43.3666 1.85193 42.4617 2.75686 42.4617 3.87316C42.4617 4.98945 43.3666 5.89439 44.4829 5.89439Z" fill="#FFB7B7"/>
<path d="M43.094 1.24117C43.4823 1.00441 43.9272 0.876334 44.382 0.870338C44.8368 0.864342 45.2849 0.980645 45.6794 1.20709C46.0738 1.43353 46.4002 1.76179 46.6244 2.15756C46.8486 2.55332 46.9623 3.00204 46.9537 3.45681C45.852 3.73841 44.6779 3.8562 43.4336 3.52463L43.1492 2.82854L42.9815 3.52515C42.6009 3.79291 42.2335 3.79243 41.8793 3.5237C41.8643 3.07021 41.9686 2.62073 42.1818 2.22018C42.3949 1.81963 42.7095 1.48205 43.094 1.24117Z" fill="#2F2E41"/>
<path d="M42.7043 45.3154H41.7987L41.6371 44.4605L41.2231 45.3154H38.8214C38.7063 45.3154 38.5942 45.2786 38.5014 45.2104C38.4087 45.1422 38.3402 45.0461 38.306 44.9362C38.2717 44.8263 38.2735 44.7083 38.311 44.5995C38.3485 44.4906 38.4199 44.3967 38.5146 44.3312L40.4326 43.0066V42.1423L42.4499 42.2627L42.7043 45.3154Z" fill="#2F2E41"/>
<path d="M54.5809 44.2704L53.7046 44.4988L53.3325 43.7123L53.1476 44.644L50.8236 45.2498C50.7122 45.2789 50.5944 45.2715 50.4874 45.2289C50.3805 45.1863 50.29 45.1106 50.2291 45.0129C50.1682 44.9152 50.1402 44.8005 50.1491 44.6858C50.1579 44.571 50.2033 44.462 50.2785 44.3748L51.8003 42.6093L51.5823 41.7729L53.5647 41.3806L54.5809 44.2704Z" fill="#2F2E41"/>
<path d="M53.1481 39.0033L49.4074 31.3151L48.2332 21.9575C49.0428 20.4539 47.5392 17.3943 47.5392 17.3943V16.1097L41.7145 17.2086V17.2086C40.5232 20.4579 39.9455 23.9002 40.0108 27.3604L40.2455 39.7992H40.1718C40.0497 39.7992 39.9325 39.8477 39.8461 39.9341C39.7597 40.0205 39.7112 40.1377 39.7112 40.2599C39.7112 40.382 39.7597 40.4992 39.8461 40.5856C39.9325 40.672 40.0497 40.7205 40.1718 40.7205H42.4752C42.5973 40.7205 42.7145 40.672 42.8009 40.5856C42.8873 40.4992 42.9358 40.382 42.9358 40.2599C42.9358 40.1377 42.8873 40.0205 42.8009 39.9341C42.7145 39.8477 42.5973 39.7992 42.4752 39.7992H42.4158L44.0693 23.9749L45.9919 31.7838L50.6381 38.9737C50.5196 38.983 50.4092 39.0378 50.3303 39.1266C50.2513 39.2155 50.2099 39.3315 50.2146 39.4503C50.2194 39.5691 50.27 39.6814 50.3559 39.7636C50.4417 39.8459 50.5561 39.8916 50.6749 39.8913H52.9782C53.0854 39.8914 53.1892 39.8542 53.2718 39.786C53.3544 39.7177 53.4106 39.6228 53.4307 39.5176C53.4508 39.4124 53.4336 39.3034 53.382 39.2096C53.3304 39.1157 53.2477 39.0427 53.1481 39.0033H53.1481Z" fill="#2F2E41"/>
<path d="M48.0664 18.1819H48.0664C48.0472 18.1067 48.0048 18.0395 47.9451 17.99C47.8855 17.9404 47.8116 17.911 47.7342 17.906C47.6575 17.0282 47.1502 11.3988 47.1309 11.2336L47.1301 11.2267L46.9832 8.08883C46.9779 7.97487 46.9308 7.86687 46.8508 7.78546C46.7709 7.70405 46.6638 7.65493 46.55 7.64749L45.7741 7.59678C45.7635 7.59642 45.7534 7.59194 45.746 7.58428C45.7386 7.57663 45.7345 7.5664 45.7345 7.55575C45.7345 7.47007 45.7176 7.38523 45.6848 7.30608C45.652 7.22692 45.604 7.155 45.5434 7.09441C45.4828 7.03383 45.4109 6.98577 45.3317 6.95299C45.2526 6.9202 45.1677 6.90332 45.0821 6.90332H42.7851C42.6363 6.90338 42.4927 6.95774 42.3811 7.05619C42.2696 7.15465 42.1978 7.29042 42.1793 7.43804C42.1782 7.4482 42.1734 7.45761 42.1658 7.46437C42.1581 7.47114 42.1482 7.47477 42.138 7.47454L42.1377 7.47453C41.8767 7.46915 41.6224 7.55752 41.421 7.72359C41.2196 7.88966 41.0844 8.12243 41.0399 8.37967C40.7259 10.2067 40.0966 14.3535 40.4077 16.6589C40.516 17.4614 40.4668 18.6684 40.4258 19.3399C40.4218 19.4048 40.4305 19.4699 40.4517 19.5314C40.4728 19.5928 40.5058 19.6496 40.5489 19.6983C40.4573 19.7247 40.3795 19.7856 40.332 19.8683C40.2844 19.9509 40.2708 20.0487 40.294 20.1412H40.294C40.3179 20.236 40.3785 20.3174 40.4624 20.3675C40.5463 20.4176 40.6467 20.4324 40.7415 20.4085L47.7991 18.6293C47.8939 18.6054 47.9753 18.5449 48.0254 18.461C48.0755 18.3771 48.0903 18.2767 48.0664 18.1819V18.1819Z" fill="#3F3D56"/>
<path d="M36.4021 31.3736C36.4008 31.1676 36.3265 30.9686 36.1925 30.8121C36.0585 30.6556 35.8734 30.5516 35.6701 30.5185L23.1571 28.4637C23.0372 28.4439 22.9143 28.4493 22.7966 28.4798L19.8641 29.238L18.1815 29.6736L15.0764 30.4763C14.889 30.5249 14.723 30.6345 14.6045 30.7876C14.486 30.9408 14.4217 31.129 14.4216 31.3226V44.4344C14.4226 44.6343 14.4916 44.8279 14.6174 44.9832C14.7432 45.1385 14.9183 45.2463 15.1136 45.2888L27.8589 45.1445C27.9187 45.1573 27.9798 45.1637 28.041 45.1634C28.1301 45.1636 28.2188 45.15 28.3039 45.1233L35.8762 45.3118C36.0549 45.256 36.2109 45.1441 36.3209 44.9927C36.431 44.8413 36.4894 44.6584 36.4873 44.4712L36.4021 31.3736Z" fill="white"/>
<path d="M36.4021 31.3736C36.4008 31.1676 36.3265 30.9686 36.1925 30.8121C36.0585 30.6556 35.8734 30.5516 35.6701 30.5185L23.1571 28.4637C23.0372 28.4439 22.9143 28.4493 22.7966 28.4798L19.8641 29.238L18.1815 29.6736L15.0764 30.4763C14.889 30.5249 14.723 30.6345 14.6045 30.7876C14.486 30.9408 14.4217 31.129 14.4216 31.3226V44.4344C14.4226 44.6343 14.4916 44.8279 14.6174 44.9832C14.7432 45.1385 14.9183 45.2463 15.1136 45.2888L27.8589 45.1445C27.9187 45.1573 27.9798 45.1637 28.041 45.1634C28.1301 45.1636 28.2188 45.15 28.3039 45.1233L35.8762 45.3118C36.0549 45.256 36.2109 45.1441 36.3209 44.9927C36.431 44.8413 36.4894 44.6584 36.4873 44.4712L36.4021 31.3736ZM35.8106 45.1034L28.2384 45.2835C28.1303 45.3172 28.0155 45.3227 27.9048 45.2996L15.1588 45.0754C15.0123 45.0434 14.8811 44.9625 14.7868 44.846C14.6925 44.7295 14.6408 44.5843 14.6401 44.4344V31.3226C14.6402 31.1884 14.6815 31.0574 14.7583 30.9474C14.8352 30.8373 14.9439 30.7535 15.0699 30.7072C15.0899 30.6996 15.1103 30.6933 15.1311 30.6882L18.4161 29.8389L20.3587 29.3363L22.8512 28.6917C22.9047 28.6775 22.9598 28.6703 23.0151 28.6706C23.0507 28.6706 23.0863 28.6735 23.1214 28.6793L35.6344 30.7341C35.7351 30.7506 35.8305 30.7904 35.9132 30.8502C35.9959 30.91 36.0635 30.9882 36.1107 31.0786C36.158 31.1703 36.183 31.2719 36.1836 31.3751L36.2688 44.4727C36.2704 44.6131 36.2267 44.7503 36.1441 44.8639C36.0616 44.9775 35.9447 45.0615 35.8106 45.1034V45.1034Z" fill="#CCCCCC"/>
<path d="M36.1104 31.0786C36.1019 31.0842 36.0926 31.0883 36.0828 31.091L32.4022 32.0859L31.2565 32.3955L27.9977 33.2761C27.9884 33.2784 27.9789 33.2796 27.9693 33.2798C27.9627 33.2796 27.9561 33.2791 27.9496 33.2783L14.8096 30.8826L14.7659 30.8746C14.7374 30.8693 14.7122 30.8529 14.6958 30.829C14.6794 30.8051 14.6731 30.7758 14.6783 30.7473C14.6835 30.7188 14.6998 30.6935 14.7235 30.677C14.7473 30.6604 14.7767 30.654 14.8052 30.659L15.0696 30.7071L27.9649 33.0583L30.7736 32.2994L32.3447 31.8747L35.9684 30.895L36.0259 30.8797C36.0508 30.8732 36.0772 30.8756 36.1005 30.8865C36.1238 30.8974 36.1425 30.9161 36.1534 30.9395C36.1562 30.945 36.1584 30.9509 36.16 30.9569C36.166 30.9798 36.1644 31.0041 36.1555 31.026C36.1465 31.0479 36.1307 31.0664 36.1104 31.0786Z" fill="#CCCCCC"/>
<path d="M28.0784 45.1889C28.0185 45.1889 27.9697 45.1406 27.9691 45.4491L27.8599 33.5401C27.8593 33.1112 27.9078 33.0618 27.9681 33.0613H27.9691C28.029 33.0613 28.0778 33.1095 28.0784 33.5381L28.1876 45.4471C28.1882 45.1389 28.1397 45.1883 28.0794 45.1889H28.0784Z" fill="#CCCCCC"/>
<path d="M32.4329 45.3271L31.2561 45.3396L30.7732 32.2994L18.4511 29.8477C18.4391 29.8456 18.4271 29.8426 18.4155 29.839C18.3208 29.812 18.2381 29.7537 18.1809 29.6736L19.8635 29.238L20.358 29.3364L32.0501 31.6621C32.1116 31.6742 32.1697 31.6995 32.2205 31.7362C32.2713 31.773 32.3135 31.8202 32.3443 31.8748C32.3808 31.9382 32.4321 45.2514 32.4329 45.3271Z" fill="#CCCCCC"/>
<path d="M41.8584 7.50583C41.8574 7.35054 41.8014 7.20061 41.7004 7.08264C41.5995 6.96467 41.4599 6.88628 41.3067 6.86136L31.8763 5.31278C31.7858 5.29781 31.6933 5.30192 31.6045 5.32486L29.3945 5.89631L28.1264 6.22458L25.7862 6.82952C25.645 6.86621 25.5199 6.94875 25.4306 7.06419C25.3412 7.17963 25.2928 7.32145 25.2927 7.4674V15.1966C25.2934 15.3472 25.3455 15.4932 25.4403 15.6102C25.5351 15.7273 25.667 15.8085 25.8142 15.8405L35.4197 17.8843C35.4648 17.894 35.5108 17.8987 35.557 17.8985C35.6242 17.8987 35.691 17.8885 35.7551 17.8683L41.462 16.0661C41.5967 16.0241 41.7143 15.9398 41.7972 15.8257C41.8802 15.7116 41.9242 15.5737 41.9226 15.4327L41.8584 7.50583Z" fill="white"/>
<path d="M31.7695 5.88037C31.7626 5.88036 31.7558 5.88125 31.7491 5.883L25.9308 7.38768C25.9131 7.39225 25.8975 7.40254 25.8863 7.41695C25.8752 7.43136 25.8691 7.44907 25.8691 7.46729V15.1964C25.8692 15.2152 25.8757 15.2334 25.8875 15.2481C25.8994 15.2627 25.9159 15.2728 25.9342 15.2768L35.5398 17.3205C35.5537 17.3235 35.5681 17.3228 35.5817 17.3185L41.2887 15.5164C41.3055 15.5111 41.3201 15.5006 41.3305 15.4863C41.3408 15.4721 41.3463 15.4548 41.3461 15.4372L41.2821 7.51044C41.282 7.49105 41.275 7.47233 41.2624 7.4576C41.2497 7.44287 41.2323 7.43309 41.2132 7.42998L31.7828 5.88144C31.7784 5.88074 31.774 5.88038 31.7695 5.88037V5.88037Z" fill="#0091C7"/>
<path d="M41.8584 7.50583C41.8574 7.35054 41.8014 7.20061 41.7004 7.08264C41.5995 6.96467 41.4599 6.88628 41.3067 6.86136L31.8763 5.31278C31.7858 5.29781 31.6933 5.30192 31.6045 5.32486L29.3945 5.89631L28.1264 6.22458L25.7862 6.82952C25.645 6.86621 25.5199 6.94875 25.4306 7.06419C25.3412 7.17963 25.2928 7.32145 25.2927 7.4674V15.1966C25.2934 15.3472 25.3455 15.4932 25.4403 15.6102C25.5351 15.7273 25.667 15.8085 25.8142 15.8405L35.4197 17.8843C35.4648 17.894 35.5108 17.8987 35.557 17.8985C35.6242 17.8987 35.691 17.8885 35.7551 17.8683L41.462 16.0661C41.5967 16.0241 41.7143 15.9398 41.7972 15.8257C41.8802 15.7116 41.9242 15.5737 41.9226 15.4327L41.8584 7.50583ZM41.4126 15.9091L35.7057 17.7113C35.6243 17.7367 35.5378 17.7409 35.4543 17.7234L25.8483 15.6797C25.7379 15.6556 25.639 15.5946 25.568 15.5068C25.4969 15.419 25.4579 15.3096 25.4574 15.1966V7.46741C25.4575 7.36625 25.4886 7.26754 25.5465 7.1846C25.6044 7.10165 25.6863 7.03846 25.7813 7.00354C25.7964 6.99788 25.8118 6.99312 25.8274 6.98927L28.3032 6.3492L29.7672 5.97042L31.6457 5.4846C31.686 5.47385 31.7275 5.4685 31.7692 5.46868C31.7961 5.46867 31.8229 5.47087 31.8494 5.47527L41.2798 7.02386C41.3557 7.03631 41.4276 7.06625 41.4899 7.11132C41.5522 7.15639 41.6032 7.21534 41.6388 7.28351C41.6744 7.35263 41.6932 7.42917 41.6937 7.50693L41.7579 15.4338C41.7591 15.5396 41.7261 15.643 41.664 15.7286C41.6018 15.8142 41.5136 15.8775 41.4126 15.9091V15.9091Z" fill="#3F3D56"/>
<path d="M41.6392 7.28354C41.6328 7.28775 41.6257 7.2909 41.6183 7.29287L38.8445 8.04273L37.981 8.27604L35.525 8.93971C35.518 8.94144 35.5108 8.94236 35.5036 8.94246C35.4986 8.94237 35.4937 8.942 35.4887 8.94136L25.5857 7.13587L25.5528 7.12983C25.5313 7.12582 25.5123 7.11346 25.4999 7.09547C25.4875 7.07748 25.4828 7.05531 25.4867 7.03383C25.4906 7.01234 25.5029 6.99328 25.5208 6.98082C25.5388 6.96836 25.5609 6.96352 25.5824 6.96734L25.7817 7.00357L35.5003 8.77558L37.617 8.20357L38.8011 7.88353L41.5321 7.1452L41.5755 7.13367C41.5942 7.12873 41.6141 7.13053 41.6317 7.13875C41.6492 7.14698 41.6634 7.16111 41.6716 7.17868C41.6737 7.18288 41.6753 7.1873 41.6765 7.19186C41.681 7.20912 41.6798 7.22738 41.6731 7.24391C41.6664 7.26044 41.6545 7.27435 41.6392 7.28354Z" fill="#3F3D56"/>
<path d="M35.5856 17.9177C35.5639 17.9177 35.543 17.9091 35.5276 17.8939C35.5122 17.8786 35.5034 17.8578 35.5032 17.8361L35.4209 8.8608C35.4207 8.83897 35.4292 8.81795 35.4445 8.80237C35.4598 8.78678 35.4807 8.77791 35.5025 8.77771H35.5032C35.525 8.77771 35.5458 8.78628 35.5612 8.80156C35.5766 8.81684 35.5854 8.8376 35.5856 8.8593L35.6679 17.8346C35.6681 17.8565 35.6596 17.8775 35.6443 17.8931C35.629 17.9086 35.6082 17.9175 35.5863 17.9177H35.5856Z" fill="#3F3D56"/>
<path d="M38.8437 16.8258L37.9802 17.0591L37.6162 8.20347L28.3296 6.35571C28.3205 6.3541 28.3116 6.3519 28.3027 6.34912C28.2314 6.3288 28.1691 6.28487 28.126 6.22451L29.3941 5.89624L29.7668 5.97035L38.5785 7.72314C38.6249 7.73229 38.6687 7.75136 38.707 7.77902C38.7452 7.80669 38.7771 7.84231 38.8003 7.88343C38.8278 7.93119 38.8431 16.7687 38.8437 16.8258Z" fill="#3F3D56"/>
<path d="M38.4576 11.7767C38.5017 11.8145 38.5428 11.8557 38.5805 11.8999L43.7534 11.2958L44.2565 10.1349L46.1077 10.6651L45.4168 12.8068C45.361 12.9799 45.2506 13.1301 45.1021 13.235C44.9536 13.3399 44.7751 13.3939 44.5934 13.3887L38.6707 13.2203C38.5486 13.408 38.3723 13.554 38.1652 13.639C37.9581 13.724 37.7301 13.744 37.5114 13.6962C37.2927 13.6484 37.0937 13.5352 36.9409 13.3715C36.7881 13.2079 36.6888 13.0017 36.6561 12.7802C36.6234 12.5588 36.6589 12.3326 36.7579 12.1318C36.8569 11.931 37.0146 11.7651 37.2102 11.6562C37.4058 11.5473 37.6298 11.5004 37.8527 11.522C38.0755 11.5435 38.2865 11.6324 38.4576 11.7767V11.7767Z" fill="#FFB6B6"/>
<path d="M43.6318 11.0279C43.6037 10.9661 43.5892 10.8989 43.5894 10.831C43.5895 10.7631 43.6044 10.6961 43.6328 10.6344L44.6267 8.48087C44.7244 8.14741 44.9503 7.86627 45.2549 7.6991C45.5595 7.53194 45.9179 7.49239 46.2517 7.58913C46.5854 7.68587 46.8671 7.911 47.0351 8.21516C47.2031 8.51932 47.2436 8.87768 47.1478 9.21167L46.8205 11.5686C46.8111 11.6358 46.7874 11.7003 46.7509 11.7575C46.7144 11.8148 46.6659 11.8635 46.6089 11.9004C46.5519 11.9373 46.4876 11.9614 46.4204 11.9712C46.3532 11.9809 46.2847 11.9761 46.2195 11.957L43.9291 11.2858C43.8639 11.2667 43.8036 11.2338 43.7523 11.1893C43.701 11.1448 43.6599 11.0897 43.6318 11.0279V11.0279Z" fill="#3F3D56"/>
<path d="M60.9842 45.423H4.20362C4.17458 45.4229 4.14676 45.4113 4.12625 45.3908C4.10575 45.3702 4.09424 45.3424 4.09424 45.3133C4.09424 45.2843 4.10575 45.2564 4.12625 45.2359C4.14676 45.2153 4.17458 45.2037 4.20362 45.2036H60.9842C61.0133 45.2036 61.0412 45.2152 61.0618 45.2357C61.0824 45.2563 61.0939 45.2842 61.0939 45.3133C61.0939 45.3424 61.0824 45.3703 61.0618 45.3909C61.0412 45.4115 61.0133 45.423 60.9842 45.423Z" fill="#CACACA"/>
<path d="M15.1599 33.7667C16.9821 33.7667 18.4593 32.2895 18.4593 30.4673C18.4593 28.6451 16.9821 27.168 15.1599 27.168C13.3378 27.168 11.8606 28.6451 11.8606 30.4673C11.8606 32.2895 13.3378 33.7667 15.1599 33.7667Z" fill="#0091C7"/>
<path d="M14.7095 32.1845C14.6525 32.1845 14.5963 32.1712 14.5453 32.1457C14.4944 32.1202 14.4501 32.0832 14.4159 32.0376L13.5158 30.8375C13.4574 30.7596 13.4323 30.6617 13.4461 30.5654C13.4598 30.469 13.5113 30.3821 13.5892 30.3237C13.6671 30.2653 13.7649 30.2402 13.8613 30.254C13.9577 30.2677 14.0446 30.3192 14.103 30.3971L14.6919 31.1822L16.2043 28.9135C16.231 28.8733 16.2654 28.8387 16.3054 28.8117C16.3455 28.7847 16.3905 28.7659 16.4378 28.7564C16.4852 28.7468 16.5339 28.7467 16.5813 28.7561C16.6287 28.7654 16.6738 28.784 16.7139 28.8108C16.7541 28.8376 16.7886 28.872 16.8155 28.9122C16.8423 28.9523 16.861 28.9974 16.8704 29.0447C16.8798 29.0921 16.8797 29.1409 16.8702 29.1882C16.8607 29.2356 16.842 29.2806 16.8151 29.3207L15.0149 32.021C14.9823 32.0699 14.9385 32.1102 14.8871 32.1386C14.8358 32.167 14.7784 32.1827 14.7197 32.1844C14.7163 32.1844 14.7129 32.1845 14.7095 32.1845Z" fill="white"/>
<path d="M29.2086 12.9426C29.1983 12.9426 29.1881 12.9414 29.1781 12.9392L26.322 12.2942C26.2863 12.2861 26.2552 12.2642 26.2357 12.2332C26.2161 12.2022 26.2097 12.1648 26.2177 12.129C26.2258 12.0933 26.2477 12.0622 26.2787 12.0427C26.3096 12.0231 26.3471 12.0166 26.3828 12.0246L29.2389 12.6695C29.2721 12.677 29.3013 12.6965 29.321 12.7241C29.3407 12.7518 29.3496 12.7858 29.3458 12.8196C29.3421 12.8534 29.326 12.8846 29.3007 12.9073C29.2754 12.93 29.2426 12.9425 29.2086 12.9426V12.9426Z" fill="white"/>
<path d="M18.2168 38.8996C18.2068 38.9017 18.1965 38.9027 18.1863 38.9025L15.2587 38.8532C15.2221 38.8525 15.1872 38.8373 15.1618 38.811C15.1364 38.7846 15.1225 38.7493 15.1231 38.7127C15.1237 38.6761 15.1388 38.6412 15.1651 38.6157C15.1913 38.5903 15.2267 38.5763 15.2633 38.5768L18.1909 38.6261C18.2249 38.6267 18.2574 38.6398 18.2824 38.6628C18.3073 38.6859 18.3229 38.7174 18.3261 38.7512C18.3293 38.7851 18.32 38.8189 18.2998 38.8463C18.2796 38.8737 18.2501 38.8926 18.2168 38.8996V38.8996Z" fill="#E6E6E6"/>
<path d="M19.2298 40.4659C19.2197 40.468 19.2095 40.4689 19.1992 40.4688L16.2716 40.4195C16.235 40.4188 16.2002 40.4036 16.1748 40.3773C16.1493 40.3509 16.1354 40.3156 16.136 40.279C16.1366 40.2424 16.1517 40.2075 16.178 40.182C16.2043 40.1566 16.2396 40.1425 16.2762 40.1431L19.2038 40.1924C19.2378 40.193 19.2704 40.206 19.2953 40.2291C19.3203 40.2522 19.3359 40.2837 19.3391 40.3175C19.3423 40.3514 19.3329 40.3852 19.3127 40.4126C19.2926 40.4399 19.263 40.4589 19.2298 40.4659V40.4659Z" fill="#E6E6E6"/>
</g>
<defs>
<filter id="filter0_d_2_29210" x="0.09375" y="0.550781" width="65" height="52.8984" filterUnits="userSpaceOnUse" color-interpolation-filters="sRGB">
<feFlood flood-opacity="0" result="BackgroundImageFix"/>
<feColorMatrix in="SourceAlpha" type="matrix" values="0 0 0 0 0 0 0 0 0 0 0 0 0 0 0 0 0 0 127 0" result="hardAlpha"/>
<feOffset dy="4"/>
<feGaussianBlur stdDeviation="2"/>
<feComposite in2="hardAlpha" operator="out"/>
<feColorMatrix type="matrix" values="0 0 0 0 0 0 0 0 0 0 0 0 0 0 0 0 0 0 0.25 0"/>
<feBlend mode="normal" in2="BackgroundImageFix" result="effect1_dropShadow_2_29210"/>
<feBlend mode="normal" in="SourceGraphic" in2="effect1_dropShadow_2_29210" result="shape"/>
</filter>
<clipPath id="clip0_2_29210">
<rect width="57" height="44.8984" fill="white" transform="translate(4.09375 0.550781)"/>
</clipPath>
</defs>
</svg>
