<svg width="16" height="15" viewBox="0 0 16 15" fill="none" xmlns="http://www.w3.org/2000/svg">
<path opacity="0.4" d="M4.64761 6.9413H2.92066C2.88077 6.9413 2.84597 6.97611 2.84597 7.016V10.1472C2.84597 11.0856 3.16945 11.7742 3.65508 12.2303C4.14588 12.6913 4.84328 12.9528 5.65151 12.9528H10.3483C11.1566 12.9528 11.854 12.6913 12.3448 12.2303C12.8304 11.7742 13.1539 11.0856 13.1539 10.1472V4.85283C13.1539 3.91445 12.8304 3.22587 12.3448 2.76976C11.854 2.30879 11.1566 2.04728 10.3483 2.04728H7.81468C7.7748 2.04728 7.73999 2.08209 7.73999 2.12198V3.84893C7.73999 5.55392 6.3526 6.9413 4.64761 6.9413Z" fill="#54565B" stroke="#54565B" stroke-width="1.04573"/>
<path d="M4.74964 5.07083L4.74964 5.0708H4.75514C5.38257 5.0708 5.87557 4.56816 5.87557 3.99818V2.24313C5.29258 2.82771 4.51508 3.6123 3.82383 4.30984C3.55128 4.58488 3.29214 4.84638 3.06363 5.07675C3.6515 5.07661 4.2779 5.07579 4.74964 5.07083ZM2.72344 5.59964C2.38283 5.59964 2.20356 5.19928 2.44258 4.96025C2.72213 4.67877 3.07357 4.32412 3.45101 3.94324C4.2354 3.1517 5.13209 2.24684 5.72917 1.64976C5.97417 1.40476 6.39844 1.57208 6.39844 1.91269V3.99818C6.39844 4.87062 5.65746 5.59367 4.75514 5.59367C4.18751 5.59964 3.39881 5.59964 2.7236 5.59964H2.72344Z" fill="#54565B" stroke="#54565B" stroke-width="1.04573"/>
<path d="M8.28094 7.78081L9.47606 6.58569C9.48204 6.57971 9.48802 6.57971 9.48802 6.57374C9.52387 6.53788 9.57167 6.508 9.61948 6.4841C9.62545 6.4841 9.62545 6.4841 9.63143 6.4841C9.67923 6.46617 9.72704 6.4602 9.77484 6.45422C9.79277 6.45422 9.80472 6.45422 9.82265 6.45422C9.8585 6.45422 9.90033 6.46617 9.93619 6.47813C9.95411 6.4841 9.96606 6.49008 9.97802 6.49605C10.0258 6.51996 10.0736 6.54386 10.1095 6.58569L11.3046 7.78081C11.4779 7.9541 11.4779 8.24093 11.3046 8.41422C11.1313 8.58752 10.8445 8.58752 10.6712 8.41422L10.2409 7.98398V10.4878C10.2409 10.7328 10.0378 10.9359 9.79277 10.9359C9.54777 10.9359 9.3446 10.7328 9.3446 10.4878V7.98398L8.91436 8.41422C8.82472 8.50386 8.71119 8.54569 8.59765 8.54569C8.48411 8.54569 8.37058 8.50386 8.28094 8.41422C8.10765 8.24093 8.10765 7.9541 8.28094 7.78081Z" fill="#292D32"/>
</svg>
