<svg width="40" height="40" viewBox="0 0 40 40" fill="none" xmlns="http://www.w3.org/2000/svg">
<path d="M19.5358 27.7887L19.5358 27.7886L19.5309 27.786C17.9207 26.9077 15.1296 25.988 13.3497 25.7544C13.3492 25.7543 13.3487 25.7542 13.3481 25.7542L13.1098 25.7213L13.1098 25.7212L13.1021 25.7203C12.2647 25.618 11.5498 24.809 11.5498 23.9499V13.8832C11.5498 13.3602 11.7528 12.8961 12.1201 12.561C12.4909 12.2227 12.9689 12.0604 13.4801 12.1063L13.4838 12.1066C15.2291 12.25 17.9193 13.1412 19.4189 14.0744L19.425 14.0782L19.4312 14.0818L19.6312 14.1985L19.6578 14.214L19.6862 14.2262C19.7932 14.272 19.9076 14.2864 19.9913 14.2884C20.0385 14.2895 20.0951 14.2871 20.1551 14.2764C20.2069 14.2671 20.2951 14.2459 20.3848 14.1886L20.5149 14.1072L20.5154 14.1069C21.0407 13.7775 21.7112 13.449 22.4583 13.1483C22.4931 13.1352 22.5381 13.1375 22.5808 13.1659C22.6139 13.188 22.6331 13.222 22.6331 13.2666V15.4999V16.431L23.4093 15.9167L24.101 15.4584L24.101 15.4584L24.106 15.4551C24.1446 15.4288 24.1966 15.4288 24.2353 15.4551L24.2353 15.4551L24.2403 15.4584L24.9319 15.9167L25.7081 16.431V15.4999V12.3166C25.7081 12.2607 25.7502 12.2052 25.8104 12.1911C26.032 12.1531 26.2471 12.1236 26.4362 12.1083H26.4364H26.4366H26.4368H26.437H26.4372H26.4374H26.4376H26.4378H26.438H26.4383H26.4385H26.4387H26.4389H26.4391H26.4393H26.4395H26.4397H26.44H26.4402H26.4404H26.4406H26.4408H26.441H26.4413H26.4415H26.4417H26.4419H26.4421H26.4424H26.4426H26.4428H26.443H26.4432H26.4435H26.4437H26.4439H26.4441H26.4444H26.4446H26.4448H26.445H26.4453H26.4455H26.4457H26.446H26.4462H26.4464H26.4466H26.4469H26.4471H26.4473H26.4476H26.4478H26.448H26.4482H26.4485H26.4487H26.4489H26.4492H26.4494H26.4496H26.4499H26.4501H26.4503H26.4506H26.4508H26.451H26.4513H26.4515H26.4517H26.452H26.4522H26.4525H26.4527H26.4529H26.4532H26.4534H26.4536H26.4539H26.4541H26.4544H26.4546H26.4548H26.4551H26.4553H26.4556H26.4558H26.456H26.4563H26.4565H26.4568H26.457H26.4572H26.4575H26.4577H26.458H26.4582H26.4584H26.4587H26.4589H26.4592H26.4594H26.4597H26.4599H26.4601H26.4604H26.4606H26.4609H26.4611H26.4614H26.4616H26.4618H26.4621H26.4623H26.4626H26.4628H26.4631H26.4633H26.4635H26.4638H26.464H26.4643H26.4645H26.4648H26.465H26.4653H26.4655H26.4657H26.466H26.4662H26.4665H26.4667H26.467H26.4672H26.4674H26.4677H26.4679H26.4682H26.4684H26.4687H26.4689H26.4692H26.4694H26.4696H26.4699H26.4701H26.4704H26.4706H26.4709H26.4711H26.4713H26.4716H26.4718H26.4721H26.4723H26.4726H26.4728H26.473H26.4733H26.4735H26.4738H26.474H26.4743H26.4745H26.4747H26.475H26.4752H26.4755H26.4757H26.4759H26.4762H26.4764H26.4767H26.4769H26.4771H26.4774H26.4776H26.4779H26.4781H26.4783H26.4786H26.4788H26.4791H26.4793H26.4795H26.4798H26.48H26.4802H26.4805H26.4807H26.481H26.4812H26.4814H26.4817H26.4819H26.4821H26.4824H26.4826H26.4828H26.4831H26.4833H26.4835H26.4838H26.484H26.4842H26.4845H26.4847H26.4849H26.4852H26.4854H26.4856H26.4859H26.4861H26.4863H26.4865H26.4868H26.487H26.4872H26.4874H26.4877H26.4879H26.4881H26.4884H26.4886H26.4888H26.489H26.4892H26.4895H26.4897H26.4899H26.4901H26.4904H26.4906H26.4908H26.491H26.4912H26.4915H26.4917H26.4919H26.4921H26.4923H26.4926H26.4928H26.493H26.4932H26.4934H26.4936H26.4938H26.4941H26.4943H26.4945H26.4947H26.4949H26.4951H26.4953H26.4955H26.4957H26.496H26.4962H26.4964H26.4966H26.4968H26.497H26.4972H26.4974H26.4976H26.4978H26.498H26.4982H26.4984H26.4986H26.4988H26.499H26.4992H26.4994H26.4996H26.4998H26.5H26.5002H26.5004H26.5006H26.5008H26.501H26.5012H26.5013H26.5015H26.5017H26.5019H26.5021H26.5023H26.5025H26.5027H26.5029H26.503H26.5032H26.5034H26.5036H26.5038H26.504H26.5041H26.5043H26.5045H26.5047H26.5048H26.505H26.5052H26.5054H26.5056H26.5057H26.5059H26.5061H26.5062H26.5064H26.5066H26.5068H26.5069H26.5071H26.5073H26.5074H26.5076H26.5077H26.5079H26.5081H26.5082H26.5084H26.5086H26.5087H26.5089H26.509H26.5092H26.5093H26.5095H26.5096H26.5098H26.5099H26.5101H26.5103H26.5104H26.5105H26.5107H26.5108H26.511H26.5111H26.5113H26.5114H26.5116H26.5117H26.5118H26.512H26.5121H26.5122H26.5124H26.5125H26.5127H26.5128H26.5129H26.513H26.5132H26.5133H26.5134H26.5136H26.5137H26.5138H26.5139H26.5141H26.5142H26.5143H26.5144H26.5145H26.5146H26.5148H26.5149H26.515H26.5151H26.5152H26.5153H26.5154H26.5155H26.5157H26.5158H26.5159H26.516H26.5161H26.5162H26.5163H26.5164H26.5165H26.537L26.5574 12.1066C27.0271 12.068 27.5134 12.2294 27.8762 12.5663L27.8762 12.5664L27.8795 12.5693C28.2468 12.9044 28.4498 13.3685 28.4498 13.8916V23.9499C28.4498 24.8151 27.7372 25.6175 26.8897 25.7202C26.8897 25.7202 26.8897 25.7202 26.8897 25.7202L26.6147 25.7536L26.6147 25.7535L26.6098 25.7542C24.8303 25.9874 22.0205 26.9157 20.4415 27.7872L20.4279 27.7947L20.4147 27.8031C20.3326 27.8554 20.1831 27.8999 19.9998 27.8999C19.8237 27.8999 19.6599 27.8582 19.5358 27.7887ZM12.2793 12.739L12.2793 12.739L12.2779 12.7403C11.9586 13.0341 11.7915 13.4464 11.7915 13.8832V23.9499C11.7915 24.338 11.9568 24.6931 12.1877 24.956C12.4182 25.2183 12.7463 25.4257 13.122 25.4784L13.1253 25.4789L13.3753 25.5122L13.3754 25.5122C15.1894 25.7541 18.0051 26.6764 19.6172 27.563L19.6357 27.5732L19.6551 27.5818C19.7526 27.6252 19.8527 27.6456 19.9333 27.6537C19.9916 27.6595 20.1307 27.6694 20.2688 27.6142L20.2976 27.6027L20.3248 27.5876C21.9444 26.6932 24.7655 25.7636 26.587 25.5211L26.8666 25.4882L26.8691 25.4879C27.2515 25.4409 27.5826 25.2299 27.8128 24.9664C28.0435 24.7023 28.2081 24.3455 28.2081 23.9583V13.8999C28.2081 13.4568 28.0369 13.0595 27.7294 12.7642L27.7295 12.7642L27.7216 12.757C27.404 12.4647 26.9805 12.339 26.5704 12.3583H26.5704H26.5702H26.5699H26.5697H26.5695H26.5693H26.5691H26.5688H26.5686H26.5684H26.5682H26.568H26.5677H26.5675H26.5673H26.5671H26.5668H26.5666H26.5664H26.5661H26.5659H26.5657H26.5655H26.5652H26.565H26.5648H26.5645H26.5643H26.5641H26.5638H26.5636H26.5633H26.5631H26.5629H26.5626H26.5624H26.5622H26.5619H26.5617H26.5614H26.5612H26.5609H26.5607H26.5605H26.5602H26.56H26.5597H26.5595H26.5592H26.559H26.5587H26.5585H26.5582H26.558H26.5577H26.5575H26.5572H26.557H26.5567H26.5565H26.5562H26.556H26.5557H26.5554H26.5552H26.5549H26.5547H26.5544H26.5542H26.5539H26.5536H26.5534H26.5531H26.5529H26.5526H26.5523H26.5521H26.5518H26.5516H26.5513H26.551H26.5508H26.5505H26.5502H26.55H26.5497H26.5494H26.5492H26.5489H26.5486H26.5484H26.5481H26.5478H26.5476H26.5473H26.547H26.5468H26.5465H26.5462H26.5459H26.5457H26.5454H26.5451H26.5449H26.5446H26.5443H26.544H26.5438H26.5435H26.5432H26.5429H26.5427H26.5424H26.5421H26.5419H26.5416H26.5413H26.541H26.5407H26.5405H26.5402H26.5399H26.5396H26.5394H26.5391H26.5388H26.5385H26.5383H26.538H26.5377H26.5374H26.5371H26.5369H26.5366H26.5363H26.536H26.5357H26.5355H26.5352H26.5349H26.5346H26.5343H26.5341H26.5338H26.5335H26.5332H26.5329H26.5327H26.5324H26.5321H26.5318H26.5315H26.5313H26.531H26.5307H26.5304H26.5301H26.5299H26.5296H26.5293H26.529H26.5287H26.5284H26.5282H26.5279H26.5276H26.5273H26.527H26.5268H26.5265H26.5262H26.5259H26.5256H26.5253H26.5251H26.5248H26.5245H26.5242H26.5239H26.5237H26.5234H26.5231H26.5228H26.5225H26.5222H26.522H26.5217H26.5214H26.5211H26.5208H26.5206H26.5203H26.52H26.5197H26.5194H26.5192H26.5189H26.5186H26.5183H26.518H26.5178H26.5175H26.5172H26.5169H26.5167H26.5164H26.5161H26.5158H26.5155H26.5153H26.515H26.5147H26.5144H26.5142H26.5139H26.5136H26.5133H26.5131H26.5128H26.5125H26.5122H26.512H26.5117H26.5114H26.5111H26.5109H26.5106H26.5103H26.51H26.5098H26.5095H26.5092H26.5089H26.5087H26.5084H26.5081H26.5079H26.5076H26.5073H26.5071H26.5068H26.5065H26.5063H26.506H26.5057H26.5055H26.5052H26.5049H26.5047H26.5044H26.5041H26.5039H26.5036H26.5033H26.5031H26.5028H26.5025H26.5023H26.502H26.5018H26.5015H26.5012H26.501H26.5007H26.5005H26.5002H26.4999H26.4997H26.4994H26.4992H26.4989H26.4987H26.4984H26.4981H26.4979H26.4976H26.4974H26.4971H26.4969H26.4966H26.4964H26.4961H26.4959H26.4956H26.4954H26.4951H26.4949H26.4946H26.4944H26.4942H26.4939H26.4937H26.4934H26.4932H26.4929H26.4927H26.4925H26.4922H26.492H26.4917H26.4915H26.4913H26.491H26.4908H26.4905H26.4903H26.4901H26.4898H26.4896H26.4894H26.4891H26.4889H26.4887H26.4884H26.4882H26.488H26.4878H26.4875H26.4873H26.4871H26.4869H26.4866H26.4864H26.4862H26.486H26.4857H26.4855H26.4853H26.4851H26.4849H26.4847H26.4844H26.4842H26.484H26.4838H26.4836H26.4834H26.4832H26.4829H26.4827H26.4825H26.4823H26.4821H26.4819H26.4817H26.4815H26.4813H26.4811H26.4809H26.4807H26.4805H26.4803H26.4801H26.4799H26.4797H26.4795H26.4793H26.4791H26.4789H26.4787H26.4785H26.4783H26.4781H26.478H26.4778H26.4776H26.4774H26.4772H26.477H26.4768H26.4767H26.4765H26.4763H26.4761H26.4759H26.4758H26.4756H26.4754H26.4752H26.4751H26.4749H26.4747H26.4746H26.4744H26.4742H26.4741H26.4739H26.4737H26.4736H26.4734H26.4732H26.4731H26.4729H26.4728H26.4726H26.4725H26.4723H26.4721H26.472H26.4718H26.4717H26.4715H26.4714H26.4712H26.4711H26.471H26.4708H26.4707H26.4705H26.4704H26.4703H26.4701H26.47H26.4698H26.4697H26.4696H26.4694H26.4693H26.4692H26.4691H26.4689H26.4688H26.4687H26.4686H26.4684H26.4683H26.4682H26.4681H26.468H26.4679H26.4677H26.4676H26.4675H26.4674H26.4673H26.4672H26.4671H26.467H26.4669H26.4668H26.4667H26.4666H26.4665H25.9665V12.8583V16.6666C25.9665 16.7149 25.9439 16.7514 25.9024 16.773C25.847 16.8018 25.8054 16.7926 25.777 16.7728L25.7771 16.7727L25.7682 16.7668L24.4515 15.8918L24.1748 15.7079L23.8981 15.8918L22.5838 16.7652C22.5401 16.7932 22.4928 16.7952 22.4508 16.7748C22.4048 16.7482 22.3831 16.7044 22.3831 16.6666V14.2249V13.4243L21.6637 13.7757C21.2946 13.9559 20.9582 14.137 20.6629 14.3106L20.6628 14.3105L20.6515 14.3176L20.5202 14.3996C20.5199 14.3998 20.5196 14.4 20.5193 14.4002C20.2191 14.5852 19.7742 14.581 19.4977 14.409C19.4976 14.4089 19.4975 14.4089 19.4974 14.4088L19.2988 14.2847C19.2987 14.2846 19.2985 14.2845 19.2983 14.2844C18.5486 13.8142 17.5146 13.366 16.471 13.0192C15.4273 12.6723 14.3359 12.4143 13.4655 12.3432L13.4452 12.3416H13.4248H13.4245H13.4243H13.4241H13.4238H13.4236H13.4233H13.4231H13.4228H13.4226H13.4224H13.4221H13.4219H13.4216H13.4214H13.4211H13.4209H13.4207H13.4204H13.4202H13.4199H13.4197H13.4195H13.4192H13.419H13.4187H13.4185H13.4183H13.418H13.4178H13.4175H13.4173H13.4171H13.4168H13.4166H13.4164H13.4161H13.4159H13.4156H13.4154H13.4152H13.4149H13.4147H13.4145H13.4142H13.414H13.4137H13.4135H13.4133H13.413H13.4128H13.4126H13.4123H13.4121H13.4119H13.4116H13.4114H13.4112H13.4109H13.4107H13.4105H13.4102H13.41H13.4098H13.4095H13.4093H13.4091H13.4088H13.4086H13.4084H13.4081H13.4079H13.4077H13.4074H13.4072H13.407H13.4068H13.4065H13.4063H13.4061H13.4058H13.4056H13.4054H13.4051H13.4049H13.4047H13.4045H13.4042H13.404H13.4038H13.4035H13.4033H13.4031H13.4029H13.4026H13.4024H13.4022H13.4019H13.4017H13.4015H13.4013H13.401H13.4008H13.4006H13.4004H13.4001H13.3999H13.3997H13.3995H13.3992H13.399H13.3988H13.3985H13.3983H13.3981H13.3979H13.3977H13.3974H13.3972H13.397H13.3968H13.3965H13.3963H13.3961H13.3959H13.3956H13.3954H13.3952H13.395H13.3947H13.3945H13.3943H13.3941H13.3939H13.3936H13.3934H13.3932H13.393H13.3927H13.3925H13.3923H13.3921H13.3919H13.3916H13.3914H13.3912H13.391H13.3908H13.3905H13.3903H13.3901H13.3899H13.3897H13.3894H13.3892H13.389H13.3888H13.3886H13.3883H13.3881H13.3879H13.3877H13.3875H13.3873H13.387H13.3868H13.3866H13.3864H13.3862H13.3859H13.3857H13.3855H13.3853H13.3851H13.3849H13.3846H13.3844H13.3842H13.384H13.3838H13.3836H13.3833H13.3831H13.3829H13.3827H13.3825H13.3823H13.3821H13.3818H13.3816H13.3814H13.3812H13.381H13.3808H13.3806H13.3803H13.3801H13.3799H13.3797H13.3795H13.3793H13.3791H13.3788H13.3786H13.3784H13.3782H13.378H13.3778H13.3776H13.3774H13.3771H13.3769H13.3767H13.3765H13.3763H13.3761H13.3759H13.3757H13.3754H13.3752H13.375H13.3748H13.3746H13.3744H13.3742H13.374H13.3738H13.3736H13.3733H13.3731H13.3729H13.3727H13.3725H13.3723H13.3721H13.3719H13.3717H13.3715H13.3712H13.371H13.3708H13.3706H13.3704H13.3702H13.37H13.3698H13.3696H13.3694H13.3692H13.3689H13.3687H13.3685H13.3683H13.3681H13.3679H13.3677H13.3675H13.3673H13.3671H13.3669H13.3667H13.3665H13.3662H13.366H13.3658H13.3656H13.3654H13.3652H13.365H13.3648H13.3646H13.3644H13.3642H13.364H13.3638H13.3636H13.3634H13.3632H13.3629H13.3627H13.3625H13.3623H13.3621H13.3619H13.3617H13.3615H13.3613H13.3611H13.3609H13.3607H13.3605H13.3603H13.3601H13.3599H13.3597H13.3595H13.3593H13.3591H13.3589H13.3586H13.3584H13.3582H13.358H13.3578H13.3576H13.3574H13.3572H13.357H13.3568H13.3566H13.3564H13.3562H13.356H13.3558H13.3556H13.3554H13.3552H13.355H13.3548H13.3546H13.3544H13.3542H13.354H13.3538H13.3536H13.3534H13.3532H13.353H13.3528H13.3526H13.3524H13.3522H13.352H13.3518H13.3516H13.3514H13.3512H13.351H13.3508H13.3506H13.3504H13.3502H13.35H13.3498H13.3496H13.3494H13.3492H13.349H13.3488H13.3486H13.3484H13.3482H13.348H13.3478H13.3476H13.3474H13.3472H13.347H13.3468H13.3466H13.3464H13.3462H13.346H13.3458H13.3456H13.3454H13.3452H13.345H13.3448H13.3446H13.3444H13.3442H13.344H13.3438H13.3436H13.3434H13.3432H13.343H13.3428H13.3426H13.3424H13.3422H13.342H13.3418H13.3416H13.3414H13.3412H13.341H13.3408H13.3406H13.3404H13.3402H13.34H13.3398H13.3396H13.3394H13.3392H13.339H13.3388H13.3386H13.3384H13.3382H13.338H13.3378H13.3376H13.3374H13.3372H13.337H13.3368H13.3366H13.3364H13.3362H13.336H13.3358H13.3356H13.3354H13.3353H13.3351H13.3349H13.3347H13.3345H13.3343H13.3341H13.3339H13.3337H13.3335H13.3333H13.3331H13.3329H13.3327H13.3325H13.3323H13.3321H13.3319H13.3317H13.3315H13.3313H13.3311H13.3309H13.3307H13.3305H13.3303H13.3301H13.3299H13.3297H13.3296H13.3294H13.3292H13.329H13.3288H13.3286H13.3284H13.3282H13.328H13.3278H13.3276H13.3274H13.3272H13.327H13.3268H13.3266H13.3264H13.3262H13.326H13.3258H13.3256H13.3254H13.3252H13.325H13.3249H13.3247H13.3245H13.3243H13.3241H13.3239H13.3237H13.3235H13.3233H13.3231H13.3229H13.3227H13.3225H13.3223H13.3221H13.3219H13.3217H13.3215H13.3213H13.3211H13.3209H13.3207H13.3205H13.3204H13.3202H13.32H13.3198H13.3196H13.3194H13.3192H13.319H13.3188H13.3186H13.3184H13.3182H13.318H13.3178H13.3176H13.3174H13.3172H13.317H13.3168H13.3166H13.3164C12.9296 12.3416 12.5665 12.4769 12.2793 12.739Z" fill="#F2F2F2" stroke="#F2F2F2"/>
<path d="M20 27.2C19.9699 27.2 19.9386 27.1877 19.9129 27.162C19.8873 27.1364 19.875 27.1051 19.875 27.075V14.575C19.875 14.5448 19.8873 14.5135 19.9129 14.4879C19.9386 14.4622 19.9699 14.45 20 14.45C20.0301 14.45 20.0614 14.4622 20.0871 14.4879C20.1127 14.5135 20.125 14.5448 20.125 14.575V27.075C20.125 27.1445 20.0699 27.2 20 27.2Z" fill="#F2F2F2" stroke="#F2F2F2"/>
<path d="M25.8333 17.2917C25.7083 17.2917 25.5917 17.2583 25.4833 17.1833L24.1667 16.3083L22.85 17.1833C22.6583 17.3083 22.4167 17.325 22.2084 17.2166C22.0084 17.1083 21.875 16.9 21.875 16.6667V13.2666C21.875 13.0083 22.0333 12.7833 22.2666 12.6833C23.4166 12.225 24.675 11.8666 25.7333 11.7C25.9167 11.6666 26.1 11.725 26.2417 11.8417C26.3833 11.9583 26.4583 12.1333 26.4583 12.3167V16.6667C26.4583 16.9 26.3333 17.1083 26.125 17.2166C26.0333 17.2666 25.9333 17.2917 25.8333 17.2917ZM24.1667 14.9333C24.2833 14.9333 24.4083 14.9666 24.5167 15.0416L25.2083 15.5V13.075C24.5417 13.225 23.8167 13.4417 23.125 13.7V15.5L23.8167 15.0416C23.925 14.9666 24.05 14.9333 24.1667 14.9333Z" fill="#F2F2F2"/>
</svg>
