<svg width="20" height="20" viewBox="0 0 20 20" fill="none" xmlns="http://www.w3.org/2000/svg">
<path opacity="0.4" d="M11.0333 2.16663C11.1526 2.16663 11.25 2.26321 11.25 2.38329V17.625C11.25 17.7443 11.1534 17.8416 11.0333 17.8416C8.69849 17.8416 6.74661 17.0291 5.37955 15.662C4.01249 14.295 3.19995 12.3431 3.19995 10.0083C3.19995 7.67379 4.01438 5.71965 5.3828 4.35026C6.7512 2.98089 8.70319 2.16663 11.0333 2.16663Z" fill="#F2F2F2" stroke="#F2F2F2"/>
<path d="M16.7625 9.96961L16.7631 9.97023C16.813 10.0201 16.8039 10.0903 16.7694 10.1236L16.7693 10.1236L16.7625 10.1304L14.3964 12.5048C14.3964 12.5049 14.3963 12.5049 14.3962 12.505C14.3816 12.5196 14.3676 12.5279 14.3548 12.5331C14.3415 12.5385 14.326 12.5417 14.3083 12.5417C14.2906 12.5417 14.2751 12.5385 14.2618 12.5331C14.2489 12.5279 14.2349 12.5195 14.2202 12.5048C14.1987 12.4833 14.1854 12.4525 14.1854 12.4167C14.1854 12.3808 14.1987 12.3501 14.2202 12.3286L15.5202 11.0286L16.3738 10.175H15.1667H7.19165C7.1615 10.175 7.13022 10.1627 7.10458 10.1371C7.07893 10.1114 7.06665 10.0802 7.06665 10.05C7.06665 10.0199 7.07893 9.98858 7.10458 9.96294C7.13022 9.93729 7.1615 9.92501 7.19165 9.92501H15.1667H16.3738L15.5202 9.07146L14.2202 7.77145C14.1987 7.74993 14.1854 7.71919 14.1854 7.68334C14.1854 7.64749 14.1987 7.61676 14.2202 7.59523C14.2417 7.5737 14.2725 7.56042 14.3083 7.56042C14.3441 7.56042 14.3748 7.57364 14.3963 7.59507C14.3963 7.59512 14.3964 7.59518 14.3964 7.59523L16.7625 9.96961Z" fill="#F2F2F2" stroke="#F2F2F2"/>
</svg>
