<svg width="20" height="21" viewBox="0 0 20 21" fill="none" xmlns="http://www.w3.org/2000/svg">
<path d="M8.33317 15.5001C9.81232 15.4998 11.2488 15.0046 12.414 14.0934L16.0773 17.7567L17.2557 16.5784L13.5923 12.9151C14.504 11.7498 14.9995 10.3129 14.9998 8.83341C14.9998 5.15758 12.009 2.16675 8.33317 2.16675C4.65734 2.16675 1.6665 5.15758 1.6665 8.83341C1.6665 12.5092 4.65734 15.5001 8.33317 15.5001ZM8.33317 3.83341C11.0907 3.83341 13.3332 6.07591 13.3332 8.83341C13.3332 11.5909 11.0907 13.8334 8.33317 13.8334C5.57567 13.8334 3.33317 11.5909 3.33317 8.83341C3.33317 6.07591 5.57567 3.83341 8.33317 3.83341Z" fill="#E1261C"/>
</svg>
