<svg width="13" height="14" viewBox="0 0 13 14" fill="none" xmlns="http://www.w3.org/2000/svg">
<rect y="0.5" width="13" height="13" rx="2" fill="#7C827D"/>
<path d="M5.09375 7C5.09375 6.22305 5.72305 5.59375 6.5 5.59375C7.27695 5.59375 7.90625 6.22305 7.90625 7C7.90625 7.77695 7.27695 8.40625 6.5 8.40625C5.72305 8.40625 5.09375 7.77695 5.09375 7ZM6.5 2.5C6.81113 2.5 7.0625 2.75189 7.0625 3.0625V3.67158C8.47578 3.90871 9.59199 5.02422 9.82754 6.4375H10.4375C10.7486 6.4375 11 6.68887 11 7C11 7.31113 10.7486 7.5625 10.4375 7.5625H9.82754C9.59199 8.97578 8.47578 10.092 7.0625 10.3275V10.9375C7.0625 11.2486 6.81113 11.5 6.5 11.5C6.18887 11.5 5.9375 11.2486 5.9375 10.9375V10.3275C4.52422 10.092 3.40871 8.97578 3.17158 7.5625H2.5625C2.25189 7.5625 2 7.31113 2 7C2 6.68887 2.25189 6.4375 2.5625 6.4375H3.17158C3.40871 5.02422 4.52422 3.90871 5.9375 3.67158V3.0625C5.9375 2.75189 6.18887 2.5 6.5 2.5ZM4.25 7C4.25 8.24277 5.25723 9.25 6.5 9.25C7.74277 9.25 8.75 8.24277 8.75 7C8.75 5.75723 7.74277 4.75 6.5 4.75C5.25723 4.75 4.25 5.75723 4.25 7Z" fill="white"/>
</svg>
